<svg xmlns="http://www.w3.org/2000/svg" width="44.866" height="47.232" viewBox="0 0 44.866 47.232">
  <g id="_3078951" data-name="3078951" transform="translate(-3.003 -1.997)">
    <path id="Path_3600" data-name="Path 3600" d="M10.872,48.442a.787.787,0,0,0,.787.787H31.338a.787.787,0,0,0,.787-.787V45.293h9.446a.787.787,0,0,0,.787-.787V35.06h4.723a.787.787,0,0,0,.769-.952l-2.344-10.94A21.255,21.255,0,1,0,6.914,35.538a22.1,22.1,0,0,1,3.958,12.9Zm-6.2-27.214a19.681,19.681,0,0,1,39.257,2.024.793.793,0,0,0,.018.165l2.157,10.068H41.572a.787.787,0,0,0-.787.787v9.446H28.19v1.574h2.361v2.361H12.435A23.534,23.534,0,0,0,8.2,34.627a19.733,19.733,0,0,1-3.521-13.4Z" transform="translate(0 0)" fill="#f95665"/>
    <path id="Path_3601" data-name="Path 3601" d="M31.607,27.164l-.585-1.4a7.153,7.153,0,0,0,.333-.806l1.4-.576a.789.789,0,0,0,.482-.629,7.938,7.938,0,0,0,0-2.193.789.789,0,0,0-.482-.629l-1.4-.576a7.209,7.209,0,0,0-.332-.806l.584-1.4a.787.787,0,0,0-.1-.786,8.69,8.69,0,0,0-1.552-1.553.787.787,0,0,0-.786-.1l-1.4.585a7.192,7.192,0,0,0-.806-.332l-.577-1.4a.786.786,0,0,0-.629-.482,7.769,7.769,0,0,0-2.194,0,.786.786,0,0,0-.629.482l-.577,1.4a7.191,7.191,0,0,0-.806.332l-1.4-.585a.786.786,0,0,0-.786.1,8.724,8.724,0,0,0-1.552,1.552.788.788,0,0,0-.1.786l.585,1.4a7.189,7.189,0,0,0-.333.806l-1.4.576a.789.789,0,0,0-.482.629,7.939,7.939,0,0,0,0,2.193.789.789,0,0,0,.482.629l1.4.576a7.209,7.209,0,0,0,.332.806l-.584,1.4a.787.787,0,0,0,.1.786A8.69,8.69,0,0,0,19.367,29.5a.788.788,0,0,0,.786.1l1.4-.585a7.191,7.191,0,0,0,.806.332l.577,1.4a.786.786,0,0,0,.629.482,7.944,7.944,0,0,0,2.194,0,.786.786,0,0,0,.629-.482l.577-1.4a7.073,7.073,0,0,0,.806-.332l1.4.585a.789.789,0,0,0,.786-.1A8.69,8.69,0,0,0,31.5,27.95a.787.787,0,0,0,.1-.786Zm-1.192-3.52a.786.786,0,0,0-.458.514,5.5,5.5,0,0,1-.49,1.186.79.79,0,0,0-.04.689l.544,1.3a7.178,7.178,0,0,1-.637.638l-1.3-.544a.788.788,0,0,0-.689.04,5.487,5.487,0,0,1-1.186.489.785.785,0,0,0-.513.459l-.538,1.311a5.814,5.814,0,0,1-.9,0l-.538-1.311a.785.785,0,0,0-.513-.459,5.536,5.536,0,0,1-1.187-.49.79.79,0,0,0-.688-.04l-1.3.544a7.23,7.23,0,0,1-.637-.638l.543-1.3a.79.79,0,0,0-.039-.688,5.472,5.472,0,0,1-.49-1.187.786.786,0,0,0-.458-.514l-1.311-.538c-.012-.158-.018-.3-.018-.448s.005-.29.018-.448l1.311-.538a.786.786,0,0,0,.458-.514,5.5,5.5,0,0,1,.49-1.186.79.79,0,0,0,.04-.689l-.544-1.3a7.226,7.226,0,0,1,.637-.637l1.3.544a.79.79,0,0,0,.688-.04,5.536,5.536,0,0,1,1.187-.49.785.785,0,0,0,.513-.459l.538-1.311a5.814,5.814,0,0,1,.9,0l.538,1.311a.785.785,0,0,0,.513.459,5.536,5.536,0,0,1,1.187.49.79.79,0,0,0,.688.04l1.3-.544a7.23,7.23,0,0,1,.637.638l-.543,1.3a.79.79,0,0,0,.039.688,5.472,5.472,0,0,1,.49,1.187.786.786,0,0,0,.458.514l1.311.538c.012.158.018.3.018.448s-.005.29-.018.448Z" transform="translate(-2.766 -2.554)" fill="#f95665"/>
    <path id="Path_3602" data-name="Path 3602" d="M25.936,20a3.936,3.936,0,1,0,3.936,3.936A3.94,3.94,0,0,0,25.936,20Zm0,6.3A2.361,2.361,0,1,1,28.3,23.936,2.364,2.364,0,0,1,25.936,26.3Z" transform="translate(-4.043 -3.832)" fill="#f95665"/>
    <path id="Path_3603" data-name="Path 3603" d="M35.3,35.727l.935,1.267a12.66,12.66,0,0,0,2.407-2.324l-1.233-.979A11.1,11.1,0,0,1,35.3,35.727Z" transform="translate(-6.874 -6.746)" fill="#f95665"/>
    <path id="Path_3604" data-name="Path 3604" d="M12.378,26.751l1.4-.718A11.024,11.024,0,0,1,23.595,10h5.971l-1.018,1.018,1.113,1.113,2.361-2.361a.787.787,0,0,0,0-1.113L29.661,6.293,28.548,7.406l1.018,1.018H23.595A12.591,12.591,0,0,0,12.378,26.751Z" transform="translate(-1.702 -0.914)" fill="#f95665"/>
    <path id="Path_3605" data-name="Path 3605" d="M41.7,29.153l-1.517-.419a10.954,10.954,0,0,1-1.15,2.693l1.351.806A12.5,12.5,0,0,0,41.7,29.153Z" transform="translate(-7.669 -5.69)" fill="#f95665"/>
    <path id="Path_3606" data-name="Path 3606" d="M15.139,32.97l-1.295.9A12.654,12.654,0,0,0,16.1,36.341l1.013-1.205a11.031,11.031,0,0,1-1.973-2.165Z" transform="translate(-2.308 -6.592)" fill="#f95665"/>
    <path id="Path_3607" data-name="Path 3607" d="M30.256,38.335l.364,1.531a12.508,12.508,0,0,0,3.126-1.2l-.758-1.38a10.943,10.943,0,0,1-2.732,1.054Z" transform="translate(-5.8 -7.51)" fill="#f95665"/>
    <path id="Path_3608" data-name="Path 3608" d="M18.429,38.153a12.537,12.537,0,0,0,3.041,1.4l.463-1.505a10.935,10.935,0,0,1-2.658-1.227Z" transform="translate(-3.283 -7.413)" fill="#f95665"/>
    <path id="Path_3609" data-name="Path 3609" d="M27.714,40.471,27.556,38.9a11.054,11.054,0,0,1-1.105.056,8.723,8.723,0,0,1-1.823-.148l-.257,1.553a14.238,14.238,0,0,0,2.081.17C26.871,40.534,27.3,40.513,27.714,40.471Z" transform="translate(-4.548 -7.835)" fill="#f95665"/>
    <path id="Path_3610" data-name="Path 3610" d="M23,55h1.574v1.574H23Z" transform="translate(-4.256 -11.281)" fill="#f95665"/>
    <path id="Path_3611" data-name="Path 3611" d="M27,55h1.574v1.574H27Z" transform="translate(-5.107 -11.281)" fill="#f95665"/>
    <path id="Path_3612" data-name="Path 3612" d="M31,55h1.574v1.574H31Z" transform="translate(-5.959 -11.281)" fill="#f95665"/>
  </g>
</svg>
