<svg xmlns="http://www.w3.org/2000/svg" xmlns:xlink="http://www.w3.org/1999/xlink" width="333" height="351" viewBox="0 0 333 351">
  <defs>
    <filter id="Rectangle_1005" x="0" y="0" width="333" height="351" filterUnits="userSpaceOnUse">
      <feOffset dy="3" input="SourceAlpha"/>
      <feGaussianBlur stdDeviation="3" result="blur"/>
      <feFlood flood-opacity="0.161"/>
      <feComposite operator="in" in2="blur"/>
      <feComposite in="SourceGraphic"/>
    </filter>
  </defs>
  <g id="Group_765" data-name="Group 765" transform="translate(-794 -2332)">
    <g transform="matrix(1, 0, 0, 1, 794, 2332)" filter="url(#Rectangle_1005)">
      <rect id="Rectangle_1005-2" data-name="Rectangle 1005" width="315" height="333" transform="translate(9 6)" fill="#fff"/>
    </g>
    <text id="Rating" transform="translate(961 2534)" fill="#344056" font-size="24" font-family="FuturaBT-Medium, Futura Md BT" font-weight="500" letter-spacing="0.024em"><tspan x="-35.969" y="0">Rating</tspan></text>
    <text id="Receive_Altscore_credit_rating_for_your_project_along_with_feedback_to_improve_application" data-name="Receive WelfundScore credit rating for your project along with feedback to improve application" transform="translate(807 2556)" fill="#344056" font-size="16" font-family="FuturaBT-Medium, Futura Md BT" font-weight="500"><tspan x="17.727" y="15">Receive WelfundScore credit rating for your </tspan><tspan x="11.141" y="45">project along with feedback to improve </tspan><tspan x="113.617" y="75">application</tspan></text>
    <g id="Group_760" data-name="Group 760" transform="translate(172.512 -359.396)">
      <path id="Path_4457" data-name="Path 4457" d="M420.149,106.2,394.442,150.7a5.056,5.056,0,0,1-4.382,2.528h-51.4a5.055,5.055,0,0,1-4.381-2.528L308.573,106.2a5.056,5.056,0,0,1,0-5.056l25.716-44.514a5.056,5.056,0,0,1,4.382-2.528h51.4a5.056,5.056,0,0,1,4.382,2.528l23.82,41.287,1.879,3.261A5.055,5.055,0,0,1,420.149,106.2Z" transform="translate(423.592 2686.471)" fill="#4b9d26"/>
      <path id="Path_4458" data-name="Path 4458" d="M426.684,108.96l-25.707,44.505a5.056,5.056,0,0,1-4.381,2.528H360.364L349.41,145.039a5.056,5.056,0,0,0,1.913.371h39.147a5.056,5.056,0,0,0,4.381-2.528l19.565-33.9a5.056,5.056,0,0,0,0-5.056L395.8,71.65,424.8,100.643l1.879,3.261a5.055,5.055,0,0,1,.009,5.056Z" transform="translate(417.057 2683.708)" fill="#1355e2"/>
      <path id="Path_4459" data-name="Path 4459" d="M410.179,108.181l-19.565,33.9a5.055,5.055,0,0,1-4.381,2.528H347.095a5.055,5.055,0,0,1-1.913-.371h0a5.055,5.055,0,0,1-2.452-2.14l-.421-.742-9.74-16.852-9.395-16.3a5.055,5.055,0,0,1,0-5.056l19.54-33.923a5.055,5.055,0,0,1,4.381-2.528h39.147a5.056,5.056,0,0,1,4.382,2.528l.952,1.685,18.613,32.246A5.056,5.056,0,0,1,410.179,108.181Z" transform="translate(421.294 2684.488)" fill="#fff"/>
      <path id="Path_4460" data-name="Path 4460" d="M370.828,110.253a15.084,15.084,0,0,1-.843,5.056,12.386,12.386,0,0,1-2.233,3.977,9.929,9.929,0,0,1-15.251,0,12.385,12.385,0,0,1-2.233-3.977,16.077,16.077,0,0,1,0-10.061,12.394,12.394,0,0,1,2.233-3.977,10.389,10.389,0,0,1,3.37-2.629,9.976,9.976,0,0,1,8.51,0,10.329,10.329,0,0,1,3.37,2.629,12.4,12.4,0,0,1,2.233,3.977,15.075,15.075,0,0,1,.843,5Zm-5.586,0a11.707,11.707,0,0,0-.371-3.042,7.711,7.711,0,0,0-1.053-2.385,5.005,5.005,0,0,0-1.618-1.534,4.028,4.028,0,0,0-2.047-.539,4.1,4.1,0,0,0-2.09.539,5,5,0,0,0-1.618,1.534,7.71,7.71,0,0,0-1.053,2.385,11.711,11.711,0,0,0-.371,3.042,11.467,11.467,0,0,0,.371,3.025,7.726,7.726,0,0,0,1.053,2.359,4.989,4.989,0,0,0,1.618,1.534,4.1,4.1,0,0,0,2.09.539,4.019,4.019,0,0,0,2.047-.539,4.988,4.988,0,0,0,1.618-1.534,7.718,7.718,0,0,0,1.053-2.359,11.468,11.468,0,0,0,.371-3.025Z" transform="translate(417.049 2679.61)" fill="#1355e2"/>
      <path id="Path_4461" data-name="Path 4461" d="M391.079,112.782a6.615,6.615,0,0,1,4.162,2.46,7.651,7.651,0,0,1,1.592,4.9,7.936,7.936,0,0,1-.767,3.522,7.583,7.583,0,0,1-2.157,2.671,10.112,10.112,0,0,1-3.37,1.685,15.453,15.453,0,0,1-4.474.6,14.323,14.323,0,0,1-5.569-1.011,10.347,10.347,0,0,1-4.036-2.957l3.143-3.935a7.515,7.515,0,0,0,2.528,2.115,8.291,8.291,0,0,0,3.724.741,6.345,6.345,0,0,0,3.851-.994,3.581,3.581,0,0,0,1.323-3.067,3.91,3.91,0,0,0-1.534-3.311,7.651,7.651,0,0,0-4.634-1.163H383.7V110.9h1.281a6.168,6.168,0,0,0,3.977-1.138,3.589,3.589,0,0,0,1.407-2.915,2.9,2.9,0,0,0-1.163-2.528,5.055,5.055,0,0,0-3.025-.843,6.741,6.741,0,0,0-3.413.843,6.842,6.842,0,0,0-2.46,2.443l-3.387-3.834a6.74,6.74,0,0,1,1.685-1.685,11.593,11.593,0,0,1,2.342-1.323,14.442,14.442,0,0,1,2.839-.843,15.775,15.775,0,0,1,3.143-.312,13,13,0,0,1,3.851.539,9.724,9.724,0,0,1,3,1.491,6.606,6.606,0,0,1,1.946,2.3,6.53,6.53,0,0,1,.682,3,7.415,7.415,0,0,1-.371,2.359,6.819,6.819,0,0,1-1.078,2.031,6.582,6.582,0,0,1-1.685,1.534,5.823,5.823,0,0,1-2.191.758Z" transform="translate(412.799 2679.439)" fill="#1355e2"/>
    </g>
  </g>
</svg>
