<svg xmlns="http://www.w3.org/2000/svg" xmlns:xlink="http://www.w3.org/1999/xlink" width="876.006" height="648.779" viewBox="0 0 876.006 648.779">
  <defs>
    <clipPath id="clip-path">
      <path id="Path_3328" data-name="Path 3328" d="M697.026,174v4.982A317.718,317.718,0,0,1,180.268,421.8c-3.936-3.157-7.777-6.408-11.562-9.755A316.9,316.9,0,0,1,61.59,174Z" transform="translate(-61.59 -174)" fill="none"/>
    </clipPath>
  </defs>
  <g id="bb" transform="translate(5)">
    <g id="Layer_2" data-name="Layer 2">
      <g id="OBJECT" transform="translate(-5)">
        <path id="Path_3299" data-name="Path 3299" d="M283.471,167.035h102.02a13.311,13.311,0,0,0-.133-26.622H330.212a13.311,13.311,0,0,1,0-26.622H555.247a13.311,13.311,0,1,1,0,26.622H482.035a13.311,13.311,0,1,0-.133,26.622h26.622a13.311,13.311,0,0,1,13.311,13.311h0a13.311,13.311,0,0,1-13.311,13.311H283.471a13.311,13.311,0,0,1-13.311-13.311h0a13.311,13.311,0,0,1,13.311-13.311Z" transform="translate(243.574 102.592)" fill="#344056" opacity="0.03"/>
        <path id="Path_3300" data-name="Path 3300" d="M17.311,107.245H119.389a13.311,13.311,0,0,0-.133-26.622H64.109a13.311,13.311,0,0,1,0-26.622H252.367a13.311,13.311,0,1,1,0,26.622H179.175a13.311,13.311,0,0,0-.133,26.622h26.622a13.311,13.311,0,0,1,13.311,13.311h0a13.311,13.311,0,0,1-13.311,13.311H17.311A13.311,13.311,0,0,1,4,120.556H4a13.311,13.311,0,0,1,13.311-13.311Z" transform="translate(3.606 48.686)" fill="#344056" opacity="0.03"/>
        <path id="Path_3301" data-name="Path 3301" d="M220.211,70.8H354.806a13.311,13.311,0,1,0-.133-26.622H299.526a13.311,13.311,0,0,1,0-26.622H528.269a13.311,13.311,0,1,1,0,26.622H414.592a13.311,13.311,0,1,0-.133,26.622h26.622a13.311,13.311,0,0,1,13.311,13.311h0a13.311,13.311,0,0,1-13.311,13.311H220.211A13.311,13.311,0,0,1,206.9,84.116h0A13.311,13.311,0,0,1,220.211,70.8Z" transform="translate(186.539 15.832)" fill="#344056" opacity="0.03"/>
        <path id="Path_3302" data-name="Path 3302" d="M231.994,275.565H129.936a13.311,13.311,0,0,1,.133-26.622h55.146a13.311,13.311,0,1,0,0-26.622H13.311a13.311,13.311,0,1,0,0,26.622H57.048a13.311,13.311,0,1,1,.133,26.622H43.737a13.311,13.311,0,0,0-13.311,13.311h0a13.311,13.311,0,0,0,13.311,13.311H231.994a13.311,13.311,0,0,0,13.311-13.311h0A13.311,13.311,0,0,0,231.994,275.565Z" transform="translate(0 200.442)" fill="#344056" opacity="0.03"/>
        <path id="Path_3303" data-name="Path 3303" d="M697.026,174v4.982A317.718,317.718,0,0,1,180.268,421.8c-3.936-3.157-7.777-6.408-11.562-9.755A316.9,316.9,0,0,1,61.59,174Z" transform="translate(55.529 156.877)" fill="#344056"/>
        <path id="Path_3304" data-name="Path 3304" d="M379.308,174V491.813C203.8,491.813,61.537,349.508,61.59,174Z" transform="translate(55.529 156.877)" fill="#344056"/>
        <g id="Group_487" data-name="Group 487" transform="translate(117.119 330.877)" clip-path="url(#clip-path)">
          <g id="Group_486" data-name="Group 486" transform="translate(25.508 -317.777)" opacity="0.64">
            <path id="Path_3305" data-name="Path 3305" d="M556.365,501.385c-3.9-1.9-7.435-4.507-11.124-6.675-2.681-1.578-6.256-1.635-9.242-1.9a81.939,81.939,0,0,1-19.948-4.2c-5.439-1.9-10.478-4.241-15.821-5.7a16.334,16.334,0,0,0,0-7.606c-1.693-8.69-9.508-17.114-18.636-14.984-14.718-3.594-30.083-7.606-37.671-21.83-6.294-11.771-20.765-3.252-30.254-2.035-8.557,1.1-12.95-7.606-20.917-7.72a125.3,125.3,0,0,0-22.344.932c-10.421,1.9-16.772,13.026-27.8,13.311a75.121,75.121,0,0,1-8.995-1.2,3.157,3.157,0,0,0-4.887-1.141c-.323.247-.647.4-.97.628a64.986,64.986,0,0,0-6.979-.114c-7.321.266-13.007.152-16.62-8.481-1.027-2.434,2.586-8.519,3.4-11.238a9.85,9.85,0,0,0-5.7-11.219c-7.606-2.339-14.889-.57-22.325-4.3-5.838-2.928,2.054-16.373,2.947-21.317a3.8,3.8,0,0,0-2.662-4.678c-10.078-1.673-15.327.266-24.055,6.047-5.267,3.48-10.9,8.253-17.4,8.918-10.744,1.084-18.027-6.294-20.917-15.821-2.738-9.223-2.529-20.1,1.787-28.524a23.808,23.808,0,0,1,12.455-11.41c11.41-4.6,25.386-3.062,37.385-2.377a3.328,3.328,0,0,0,3.1-1.711,5.21,5.21,0,0,0,.723-2.092,6.485,6.485,0,0,1,.551-2.016c4.165-8.785,28.048,1.9,34.4,3.271,2.776,8.918,8.557,22.1,16.7,22.1h.114c4.982,0,6.484-5.7,7.245-9.641,1.9-9.679-8.329-17.266-5.115-25.082l4.336-4.7a66.4,66.4,0,0,0,22.819-11.923c6.5-1.616,11.809-5.895,11.41-13.216,2.51-3.594,4.925-7.245,7.606-10.63,8.481-10.5,20.918-16.734,33.411-21.127a3.8,3.8,0,0,0,2.662-4.678c-3.8-9.356,15.384-14.414,24.911-15.479.1.57.209,1.141.361,1.9a3.8,3.8,0,0,0,3.67,2.8c10.782-1.369,20.119-6.637,30.578-9.185a3.806,3.806,0,1,0-2.016-7.34c-10.63,3.176-16.03-5.876-23.732-10.915a42.253,42.253,0,0,0-11.562-5.115c2.377-1.788,4.6-3.556,6.96-5.039,3.518-.989,7.074-1.787,10.668-2.529a15.6,15.6,0,0,1,2.605.361h.342a3.811,3.811,0,1,0,.494,7.606,14.129,14.129,0,0,1,4.678,1.9c4.241,2.491,8.063-4.088,3.8-6.56a25.343,25.343,0,0,0-3.119-1.54h.342a3.8,3.8,0,0,0,4.7-3.632c2.339,0,4.678-.133,7.017-.133a46.817,46.817,0,0,1,11.676,1.331c1.521.4,2.225,1.122,2.415,2.016a4.412,4.412,0,0,0-.114,1.692c-.989,3.214-5.534,7.378-6.846,8.671a3.8,3.8,0,0,0,2.681,6.484c9.337.647,17.228,5.42,26.147,7.7a3.8,3.8,0,0,0,4.3-5.591c-2.32-4.05-7.017-6.751-11.162-9.622a3.936,3.936,0,0,0-2.586-3.594,6.294,6.294,0,0,1-4.279-3.328c2.491-7.739,4.126-16.791-1.6-23.256-7.3-8.253-17.114-11.581-23.656-20.5a90.916,90.916,0,0,0-9.242-23.6,3.8,3.8,0,0,0-6.56,0c-5.058,9.166-12.646,3.518-18.788-2.586a18.315,18.315,0,0,1,.4-4.735,3.8,3.8,0,0,0-2.662-4.678c-1.559-.494-3.138-.875-4.7-1.236-1.788-1.179-3.613-2.263-5.458-3.328a3.176,3.176,0,0,0-1.6-1.673,58.952,58.952,0,0,0-8.918-3.917,21.033,21.033,0,0,0-4.05-1.293,4.031,4.031,0,0,0-3.8,1.369,8.5,8.5,0,0,0-1.065.57,3.8,3.8,0,0,0-5.8,3.024V125c-3.993,4.583-7.283,10.326-7.131,15.84a11.98,11.98,0,0,0,2.681,6.009c5.1,7.473-6.256,15.764-11.2,19.853a35.332,35.332,0,0,0-9.2,10.478,58.882,58.882,0,0,0-2.7,6.028l-.989,2.054q-2.263,6.332-9.508-1.445c.171-8.633,2.111-14.7-7.15-18.674-4.145-1.787-8.614-3.4-13.083-5.153a22.063,22.063,0,0,0-3.214-1.5,2.985,2.985,0,0,0-.894-.171,85.88,85.88,0,0,1-9.717-4.735l-.418-.247q-1.255-.742-2.472-1.559l-.513-.342a41.545,41.545,0,0,1-5.229-4.2l-.4-.4a26.692,26.692,0,0,1-1.9-2.073l-.418-.475a32.317,32.317,0,0,1-2.111-2.738,14.053,14.053,0,0,1-1.54-3.119c0-.228-.19-.456-.247-.685s-.152-.723-.228-1.084a5.652,5.652,0,0,1-.152-.837c-.019-.285,0-.666,0-1.008v-.932a3.046,3.046,0,0,1,.1-.932c.1-.3,0-.666.133-.989a5.964,5.964,0,0,0,.228-.875c.076-.285.19-.7.3-1.046s.209-.532.323-.818.3-.723.494-1.084l.4-.742c.209-.38.437-.761.666-1.141l.456-.685q.4-.6.856-1.2l.475-.589c.342-.418.7-.837,1.065-1.255l.475-.513q.628-.666,1.293-1.331l.418-.418q.742-.723,1.559-1.426l.323-.285q.894-.78,1.9-1.521l.19-.152A81.2,81.2,0,0,1,325.36,112h0a138.209,138.209,0,0,1,34.229-15.213,20.273,20.273,0,0,1-1.274,3.043,3.8,3.8,0,0,0,3.29,5.7,43,43,0,0,1,15.878,2.282c4.069,1.35,6.827-5.077,2.928-6.96a20.518,20.518,0,0,1-6.465-4.488,3.35,3.35,0,0,0-.247-1.084c-.456-1.1-.875-2.206-1.293-3.29a4.45,4.45,0,0,1,.3-2.909c4.222,2.947,10.364-2.244,13.311-4.583,5.286-4.222,4.355-18.236,12.4-18.2a3.8,3.8,0,0,0,1.9-.532l.875.209a3.8,3.8,0,0,0,3.8,1.236c5.21,2.092,9.147,5.7,6.256,11.41a3.8,3.8,0,0,0,5.21,5.21c6.142-2.624,8.291-1.16,5.515,4.393s-8.88,8.063-14.68,8.424c-4.145.266-5.343,6.351-1.008,7.473,14.566,3.8,26.014,14.832,39.838,20.518a3.5,3.5,0,0,0,4.659-3.1l.475.3c3.5,2.491,6.5-2.13,5.21-5.21-2.909-6.884-8.044-13.121-10.383-20.176a36.13,36.13,0,0,1,9.223,10.288,3.8,3.8,0,0,0,6.561,0c5.248-8.956.78-14.452-7.036-19.605-8.405-5.534-2.073-6.294-4.868-12.969-2.263-5.42-5.7-8.139-10.9-10.972-11.581-6.351-23.218-20.138-36.872-21.64a28.676,28.676,0,0,0-15.517,2.206c1.331-2.016,1.027-5.553-1.9-6.009-33.6-5.058,2.434,31.871-17.7,36.815-.247-1.73-.513-3.442-.742-5.172a3.8,3.8,0,0,0-3.67-2.8c-2.263,0-5.7-1.711-8.709-3.309,4.431-9.508,6.484-21.07,16.962-25.443a3.806,3.806,0,1,0-2.016-7.34c-4.773,1.008-9.508,2.054-14.319,2.681-2.415.323-3.138-1.464-4.925-3.955a3.8,3.8,0,0,0-5.971-.761,91.273,91.273,0,0,0-9.641,11.638,3.8,3.8,0,0,0,1.369,5.21,20.727,20.727,0,0,0,10.687,2.225A23.561,23.561,0,0,1,328.992,60.1a3.8,3.8,0,0,0-2.662,4.678,2.872,2.872,0,0,1-1.255,3.024,5.44,5.44,0,0,1-.628.4h-.114a11.107,11.107,0,0,1-2.548.913h-.266l-.837.171h-.513l-.78.114-.932.114H318l-1.6.133h-.209c-3.461.209-7.264.152-10.459.133-.78-2.605-1.521-5.21-2.3-7.816a4.127,4.127,0,0,0,2.814.38c4.412-.837,8.861-1.578,13.311-2.415a3.081,3.081,0,0,0,2.32-1.749,4.64,4.64,0,0,0-.647-4.621,14,14,0,0,1-1.255-7.055c.247-.551.532-1.084.818-1.616a22.361,22.361,0,0,1,3.442-4.659,3.492,3.492,0,0,0,.38-.513,3.9,3.9,0,0,0,.437-.78v-.114h0a3.385,3.385,0,0,0,0-2.13l.837-.666c2.054-1.673,1.065-4.887-.932-6.1h0a3.308,3.308,0,0,0-.685-.285,2.985,2.985,0,0,0-2.073,0c-.608.247-1.179.532-1.749.818a21.411,21.411,0,0,0-5.058,3.366l-.38.323-.228.247a17.823,17.823,0,0,0-1.5,1.654,6.5,6.5,0,0,1-5.458.19c-4.317-1.9-3.48-5.914-4.393-9.508a9.717,9.717,0,0,0-7.321-6.446c-8.785-2.453-19.016,4.944-27.136,8.082l-.723.266-.932.323h0l-.913.361a3.081,3.081,0,0,0-1.559,1.407c-1.312,2.51,1.179,6.6,4.488,5.572.456-.152.913-.342,1.369-.494a20.632,20.632,0,0,1,7.378-.818,15.023,15.023,0,0,0,.7,10.9,28.7,28.7,0,0,1-2.833-.628,4.088,4.088,0,0,0-4.488,1.9,2.947,2.947,0,0,0-.323,1.711c1.312,12.018,11.257,11.029,20.784,10.725-.513,1.084-1.027,2.168-1.559,3.233a26.623,26.623,0,0,0-2.339,2.814,3.385,3.385,0,0,0-1.768.4,62.752,62.752,0,0,0-20.918-1.065h0l-1.008.133a3.594,3.594,0,0,0-1.16.4h.076l-.114-.152a34.869,34.869,0,0,1,2.643-3.5,4.583,4.583,0,0,0,.7-1.027,3.594,3.594,0,0,0-.1-3.575,19.016,19.016,0,0,0-17.609-9.508,13.317,13.317,0,0,1-1.1-1.9,3.157,3.157,0,0,0-3.67-1.9,3.419,3.419,0,0,0-.171-.856,3.8,3.8,0,0,0-4.678-2.662,50.906,50.906,0,0,1-21.317,1.407,4.621,4.621,0,0,0-2.415-.932c-.913,0-1.768-.114-2.605-.152a68.857,68.857,0,0,1-11.01-4.145c-.1-.932-.228-1.9-.361-2.776a3.575,3.575,0,0,0,.932-1.008,3.8,3.8,0,0,0-4.241-5.7l-2.7.761a19.911,19.911,0,0,0-2.643.742c-15.574,4.393-31.852,9.508-43.413,21.2a3.329,3.329,0,0,0-.475.609,3.8,3.8,0,0,0-.551,2.111,64.582,64.582,0,0,1-4.944,4.183,3.613,3.613,0,0,0-4.735-.856c-4.412,2.8-8.766,5.7-13.121,8.576a3.309,3.309,0,0,0-1.673,0,10.345,10.345,0,0,0-4.107,3.29,4.184,4.184,0,0,0-.57.685,3.537,3.537,0,0,0,.7,4.659c-14.966,8.329-29,19.282-37.652,33.962a64.649,64.649,0,0,0-3.461,6.522l-.133.228h0c-.133.3-.285.59-.418.894a3.195,3.195,0,0,0,2.187,4.393c-1.559,2.073-3.138,4.126-4.7,6.2a4.125,4.125,0,0,0-.437.742c-1.692,3.651,4.279,6.751,7,3.119,3.423-4.583,6.865-9.071,10.021-13.729a3.271,3.271,0,0,0,4.469-.589l1.6-1.692a3.689,3.689,0,0,0,4.583.209,4.3,4.3,0,0,0,3.917.266l4.241-2.13a3.309,3.309,0,0,0,2.3.78h.8c-2.016,3.8,3.062,6.96,6.123,4.336.551-.475,1.065-.989,1.578-1.5q.38,1.331.818,2.643c-.19,4.088-.3,8.177-.38,12.284h0a3.137,3.137,0,0,0-1.9,1.9h0c-.133.3-.247.609-.361.913h0a103.535,103.535,0,0,0-4.222,11.41,3.556,3.556,0,0,0,.685,3.366,4.145,4.145,0,0,0-2.073,1.9,4.336,4.336,0,0,0-.532,2.833l.475,5.02a3.936,3.936,0,0,0,2.149,3.252,1.229,1.229,0,0,1-.114.628h-.152a3.29,3.29,0,0,0-1.331,1.274,3.632,3.632,0,0,0-.418,3.024c.285.742.589,1.635.894,2.643-.133.989-.3,1.9-.418,2.986a3.081,3.081,0,0,0,1.236,2.814,63.367,63.367,0,0,0,0,8.861,7.092,7.092,0,0,1-.8,1.407,6.085,6.085,0,0,1-4.431,2.415,4.773,4.773,0,0,0-3.29,1.9,3.157,3.157,0,0,0,0,3.8c9.09,13.311,4.279,25.748-2.377,38.146-.951,1.768-1.9,3.537-2.928,5.305h0l-.513.97c-.761,1.388-1.521,2.776-2.225,4.145a96.356,96.356,0,0,0-6.37,15.422,3.328,3.328,0,0,0-2.092,1.673,3.27,3.27,0,0,0-.285,1.9q.209,2.054.437,4.088c-.342,1.673-.647,3.366-.894,5.115-1.35,9.7-.685,19.777,4.83,28.086,3.119,4.678,8.614,7.226,13.311,10.383a64.33,64.33,0,0,1,5.99,14.129c-1.9,16.734,16.335,34.913,22.705,48.757,1.407,3.062,5.134,2.149,6.522-.209a3.651,3.651,0,0,0,.437-2.738c-2.415-10.4-8.842-18.2-14.319-27.136a68.459,68.459,0,0,1-6.522-15.517,4.241,4.241,0,0,0,2.016.247,24.169,24.169,0,0,1,6.275,4.126,51.342,51.342,0,0,0,11.41,17.723c3.8,8.538,11.6,17.419,19.016,21.488a74.474,74.474,0,0,1,5.7,10.5v1.9c.285,8.538.628,16.259,8.367,15.213,4.868,3.67,11.714,5.819,16.316,7.492a104.3,104.3,0,0,0,36.625,6.846c16.182.247,25.576,9.85,39.933,15.213s23.751,13.806,35.959,21.887l.437.266q.8.513,1.6.97l.723.4c.647.342,1.293.647,1.9.932l.666.266q1.027.428,2.054.742l.4.114a21.651,21.651,0,0,0,2.13.513h.19a21.8,21.8,0,0,0,2.358.285h.247a20.931,20.931,0,0,0,2.415,0h0a21.791,21.791,0,0,0,8.2-2.187,3.308,3.308,0,0,0,1.521.114c1.9.171,3.8.361,5.572.647a2.91,2.91,0,0,0,.475,2.89c3.461,4.621,3.993,10.307,3.537,16.03-4.012,5.172-10.383,9.907-13.52,14.072a28.047,28.047,0,0,0-4.773,9.755h0c-1.9,6.313,2.282,9.223-1.635,16.259a3.8,3.8,0,0,0,1.369,5.21l.647.456a3.556,3.556,0,0,0,3.461,2.339l.171.114h0c2.7,1.788,5.382,3.48,7.854,5.324,5.7,6.865,12.3,17.894,14.319,20.461,5.115,6.56,11.41,9.261,18.883,12.665,8.576,3.955,11.885,9.7,13.463,18.179a71.08,71.08,0,0,0-2.434,13.159c-1.1,7.911-1.464,15.916-2.3,23.846-1.578,5.248-3.157,10.516-4.45,15.859a49.6,49.6,0,0,0-.818,6.047c-3.119,6.618-6.066,12.57-6.123,19.739a3.48,3.48,0,0,0-1.73,3.176,3.8,3.8,0,0,0-.7,1.9c-.152,2.986,0,5.914,0,8.9a3.9,3.9,0,0,0,2.8,3.67,24.854,24.854,0,0,0,9.508,1.407,3.8,3.8,0,0,0,3.67-4.811l3.8-6.2,2.814-2.814a3.632,3.632,0,0,0,.228-4.963,3.8,3.8,0,0,0,2.339-2.415A54.539,54.539,0,0,0,397.316,641a3.176,3.176,0,0,0,3.955-.913,38.3,38.3,0,0,1,13.444-9.375,3.233,3.233,0,0,0,5-.152c3.9-4.412,5.153-7.987,10.839-9.717a3.4,3.4,0,0,0,2.434-.723,26.339,26.339,0,0,0,7.511-3.689,3.5,3.5,0,0,0,1.673-.533c10.763-6.694,19.377-16.43,28.657-25.063a3.67,3.67,0,0,0,3.575-.951,76.069,76.069,0,0,0,7.8-8.367q1.635-1.141,3.347-2.187a4.241,4.241,0,0,0,2.757.4,36.873,36.873,0,0,0,13.083-4.887,3.176,3.176,0,0,0,2.453-.59c17.114-12.075,23.561-32.8,40.618-44.954,5.191-3.708,11.41-8.12,14-14.243C560.016,511.558,561.138,503.629,556.365,501.385Z" transform="translate(-75.004 4.745)" fill="#f7f7fc"/>
            <path id="Path_3306" data-name="Path 3306" d="M238.785,17.046c1.788.837,2.282,3,3.651,4.317a13.16,13.16,0,0,0,4.925,3.1,20.919,20.919,0,0,0,4.2.932v.437a1.806,1.806,0,0,0,.171.475,2.871,2.871,0,0,0-2.092,1.673l-.3.7a17.7,17.7,0,0,0-3.138,1.065,8.348,8.348,0,0,1-6.542,0,7.93,7.93,0,0,0-5.477-1.369,3.8,3.8,0,0,0,0,7.606h0a6.712,6.712,0,0,0,.666,2.89,8.766,8.766,0,0,0,5.077,3.974c6.218,2.624,14.6,3.062,21.279,3.575,4.887.38,4.868-7.245,0-7.606a125.138,125.138,0,0,1-13.653-1.692,10.573,10.573,0,0,1,6.351-.818,3.8,3.8,0,0,0,2.909-.475c.418.152.837.323,1.255.456a11.411,11.411,0,0,0,1.426.247,4.317,4.317,0,0,0,1.673.228c2.282.285,4.982.685,5.534,1.483,2.757,3.993,9.3.285,6.56-3.8a1.9,1.9,0,0,1-.3-.875l.475-.342c2.947-2.472,5.7-5.534,5.534-8.956a3.917,3.917,0,0,0,1.312.228h1.54a3.442,3.442,0,0,0,3.556-2.776,3.9,3.9,0,0,0,3.556-5.7c-1.521-2.757-5.7-3.442-8.462-4.26a138.681,138.681,0,0,0-13.52-3.575c-4.164-.818-11.048-2.453-15.061,0a11.257,11.257,0,0,0-2.985,0,4.507,4.507,0,0,0-3.8,3.594,7.606,7.606,0,0,0-4.545-1.749C236.979,9.515,235.457,15.467,238.785,17.046Z" transform="translate(65.082 -6.889)" fill="#f7f7fc"/>
            <path id="Path_3307" data-name="Path 3307" d="M217.4,23.144l.152.152a3.8,3.8,0,0,0,3.8.875,8.974,8.974,0,0,0,1.236,2.662,3.8,3.8,0,0,0,5.971.761l.171-.228a3.8,3.8,0,0,0,2.244-.228,3.8,3.8,0,0,0,1.768,4.107,8.2,8.2,0,0,0,6.161.837,3.806,3.806,0,1,0-2.016-7.34c.685-.152-.761,0,.114,0h-.19l-.209-.152a3.689,3.689,0,0,0-2.643-.418,4.678,4.678,0,0,0-.209-4.944,6.313,6.313,0,0,0-5.838-2.681,4.107,4.107,0,0,0-3.442,2.206,3.8,3.8,0,0,0-.8.209,3.671,3.671,0,0,0-.742-1.141l-.152-.152a3.839,3.839,0,1,0-5.381,5.477Z" transform="translate(52.348 1.788)" fill="#f7f7fc"/>
            <path id="Path_3308" data-name="Path 3308" d="M228.224,19.443a3.8,3.8,0,0,0,5.21-1.369,3.561,3.561,0,0,0,.342-.818,3.31,3.31,0,0,0,0,.437,3.594,3.594,0,0,0,2.32,3.4,3.936,3.936,0,0,0,2.776,3.8h.152a3.8,3.8,0,0,0,4.773-.418,4.126,4.126,0,0,0,1.084-3.062,3.5,3.5,0,0,0,.418-.475,3.8,3.8,0,0,0-1.369-5.21,17.475,17.475,0,0,0-6.37-1.9,3.651,3.651,0,0,0-3.632,2.757,3.689,3.689,0,0,0-1.9-3.8c-.7-.361-1.407-.723-2.092-1.141-.342-.209-.666-.418-.989-.647.532.361-.342-.418-.456-.551a3.805,3.805,0,1,0-5.382,5.382,14.814,14.814,0,0,0,5.115,3.613Z" transform="translate(57.521 -4.685)" fill="#f7f7fc"/>
            <path id="Path_3309" data-name="Path 3309" d="M212.787,18.855c.57.133,1.16.152,1.73.3a3.8,3.8,0,0,0,4.469-2.149,2.928,2.928,0,0,0,1.084-.171l.913-.3a3.806,3.806,0,1,0-2.016-7.34l-.932.3a4.336,4.336,0,0,0-2.4,2.149h-.361a2.833,2.833,0,0,0-1.407-.209h0a3.917,3.917,0,0,0-3.67,2.8A3.8,3.8,0,0,0,212.787,18.855Z" transform="translate(46.773 -4.933)" fill="#f7f7fc"/>
            <path id="Path_3310" data-name="Path 3310" d="M386.059,78.7c-8.1-12.075-16.164-22-28.334-30.292C351.6,44.24,342.3,37.318,333.993,36.881c-17.78-14.6-42.843-26.622-66.156-23.39-3.081.437-3.328,4.469-1.673,6.351L265.4,22.41c-4.088-1.464-6.694,4.944-2.928,6.96l.361.875a3.328,3.328,0,0,0,.342,3,3.916,3.916,0,0,0,.875,1.635c10.174,11.581,29.342,3.5,39.629,17.419,4.088,5.515,4.279,13.045,9.508,17.856,1.1.989,2.472,1.9,3.651,2.776q2.4,1.73,4.678,3.632a3.594,3.594,0,0,0,.97,1.217,3.632,3.632,0,0,0-.361,4.26c1.616,2.51,4.716,4.241,7,6.427a3.806,3.806,0,0,0,.285.608l.932,1.654a3.8,3.8,0,0,0,1.255,1.331,6.649,6.649,0,0,1,.3,1.236A4.279,4.279,0,0,0,330,95.83h0a10.63,10.63,0,0,0,.133,9.888c2.453,5.7,4.241,11.752,6.732,17.457,3.157,7.245,8.1,10.63,13.406,16.221,4.3,4.526,13.729,17.266,21.564,14.6,9.926-3.366,6.37-16.639,7.606-24.835.418-3.062,8.69-7.093,10.839-10.25,3.67-5.382,10.5-7.606,13.121-13.539C407.452,96.344,390.128,84.744,386.059,78.7Z" transform="translate(92.374 -1.414)" fill="#f7f7fc"/>
            <path id="Path_3311" data-name="Path 3311" d="M351.891,76.144a3.649,3.649,0,0,0-.856-1.407,8.12,8.12,0,0,0-5.382-2.662,3.812,3.812,0,0,0-.532,7.606l.532.513a3.8,3.8,0,0,0,2.662,1.1,3.917,3.917,0,0,0,2.89,3.233,2.72,2.72,0,0,0,.589.666c3.8,3.062,7.759,7.112,12.855,7.911,2.833.456,6.561-2.567,4.3-5.591C365.411,82.609,358.946,73.406,351.891,76.144Z" transform="translate(165.334 51.874)" fill="#f7f7fc"/>
            <path id="Path_3312" data-name="Path 3312" d="M232.655,67.54c-4.906,0-4.906,7.606,0,7.606S237.561,67.54,232.655,67.54Z" transform="translate(63.815 47.794)" fill="#f7f7fc"/>
            <path id="Path_3313" data-name="Path 3313" d="M239.795,76.816c4.906,0,4.906-7.606,0-7.606S234.889,76.816,239.795,76.816Z" transform="translate(70.253 49.3)" fill="#f7f7fc"/>
            <path id="Path_3314" data-name="Path 3314" d="M246.345,65.81c-4.906,0-4.906,7.606,0,7.606S251.251,65.81,246.345,65.81Z" transform="translate(76.158 46.234)" fill="#f7f7fc"/>
            <path id="Path_3315" data-name="Path 3315" d="M231.689,98.654a5.7,5.7,0,0,0,4.83.647,4.823,4.823,0,1,0-4.83-.647Z" transform="translate(64.382 69.354)" fill="#f7f7fc"/>
            <path id="Path_3316" data-name="Path 3316" d="M385.766,136.969a3.4,3.4,0,0,0,1.027,3.423c3.081,2.453,3.8,6.465,4.412,10.193a3.8,3.8,0,0,0,4.678,2.662,3.576,3.576,0,0,0,1.122-.57,4.127,4.127,0,0,0,1.521-4.107c-.684-4.925-2.339-10.326-6.37-13.539a5.135,5.135,0,0,0-1.521-.837,3.575,3.575,0,0,0-3.8.837h0a4.15,4.15,0,0,0,0-.761c-.3-9.983-4.412-18.693-8.044-27.8-1.788-4.507-9.166-2.529-7.34,2.016,3.347,8.386,7.492,16.582,7.777,25.767a3.936,3.936,0,0,0,6.542,2.719Z" transform="translate(192.007 80.595)" fill="#f7f7fc"/>
            <path id="Path_3317" data-name="Path 3317" d="M386.435,149.415a3.081,3.081,0,0,0-1.9,2.51c-2.073,11.809.475,26.622,7.169,36.606,2,3,7.207,2.073,7.093-1.9-.171-5.99-.19-11.98-.761-17.97s-3.8-11.676-4.184-17.8a3.8,3.8,0,0,0-7.093-1.9,4.62,4.62,0,0,0-.323.456Z" transform="translate(203.432 119.492)" fill="#f7f7fc"/>
            <path id="Path_3318" data-name="Path 3318" d="M411.708,213.716c-.475-4.222-1.065-8.424-1.293-12.646a47.553,47.553,0,0,1,0-5.7q.228-4.488.323-8.995a84.088,84.088,0,0,0,0-8.481,4.254,4.254,0,0,0,0-.609,9.6,9.6,0,0,1,.209-1.255c.723-4.792-6.618-6.865-7.34-2.016-2.529,16.886-9.394,31.928-15.726,47.54a132.824,132.824,0,0,0-6.789,22.325c-1.217,5.7-.989,12.018-1.9,17.894a4.049,4.049,0,0,0-.894,1.426c-2.966,7.892-6.237,14.947-5.895,23.523.152,3.8,2.111,7.74,3.537,11.238,2.3,5.7,2.32,12.665,2.472,18.731,0,3.023,4.279,5.42,6.484,2.681,4.317-5.324,8.158-9.508,11.086-14.87a39.938,39.938,0,0,0,2.776-6.37c4.259-12.665,6.389-26.128,8.88-39.23,2.32-12.113,5.153-24.3,4.868-36.72C412.316,219.383,412.031,216.55,411.708,213.716Z" transform="translate(193.105 141.294)" fill="#f7f7fc"/>
            <path id="Path_3319" data-name="Path 3319" d="M256.353,216.2c-6.123-1.9-11.942-2.833-17.247-6.656a3.138,3.138,0,0,0-4.7.856,25.977,25.977,0,0,0-8.253-4.773c-10.9-3.1-19.529-.856-30.292-.323a3.8,3.8,0,0,0,0,7.606l1.635-.114h.818c7.606-.609,14.4-2.073,21.355-.7h0a27.535,27.535,0,0,1,9.755,3.974c9.337,6.009,14.756,7.321,25.938,7.606C259.738,223.792,260.4,217.422,256.353,216.2Z" transform="translate(30.533 170.848)" fill="#f7f7fc"/>
            <path id="Path_3320" data-name="Path 3320" d="M232.815,226.872a16.032,16.032,0,0,0,3.936-1.293,4.318,4.318,0,0,0,.609.133c8.291.894,16.392-1.464,24.721-1.9a3.8,3.8,0,0,0,1.9-7.093c-7.454-4.944-18.388-4.754-26.927-3.8a3.8,3.8,0,0,0-3.176,5.7,13.194,13.194,0,0,1-3.024.837C225.969,220.482,227.966,227.823,232.815,226.872Z" transform="translate(62.97 178.379)" fill="#f7f7fc"/>
            <path id="Path_3321" data-name="Path 3321" d="M259.431,216.437a5.343,5.343,0,0,1-4.088,0,3.806,3.806,0,1,0-2.016,7.34,12.455,12.455,0,0,0,8.139,0,3.808,3.808,0,1,0-2.035-7.34Z" transform="translate(83.247 181.911)" fill="#f7f7fc"/>
            <path id="Path_3322" data-name="Path 3322" d="M271.183,221.76a3.8,3.8,0,0,0-3.8,3.8,19.016,19.016,0,0,0,1.635,7.3,3.8,3.8,0,0,0,5.21,1.369,3.9,3.9,0,0,0,1.369-5.21,9.642,9.642,0,0,1-.589-3.461,3.8,3.8,0,0,0-3.822-3.8Z" transform="translate(98.441 186.837)" fill="#f7f7fc"/>
            <path id="Path_3323" data-name="Path 3323" d="M219.986,216.517a3.917,3.917,0,0,0-1.6-.342h-.456a3.806,3.806,0,1,0-2.016,7.34,10.044,10.044,0,0,0,1.388.247,67.014,67.014,0,0,0,7.036,1.179,3.8,3.8,0,1,0,0-7.606,35.777,35.777,0,0,1-4.355-.818Z" transform="translate(49.519 181.679)" fill="#f7f7fc"/>
            <path id="Path_3324" data-name="Path 3324" d="M223.383,192.589h0c-1.426-.532-2.833-1.1-4.241-1.654a3.806,3.806,0,1,0-2.016,7.34c1.464.589,2.909,1.179,4.393,1.711h0c4.031,1.464,6.77-5.077,2.909-6.96-.285-.133-.609-.266-.913-.38h0Z" transform="translate(50.61 158.922)" fill="#f7f7fc"/>
            <path id="Path_3325" data-name="Path 3325" d="M215.9,206.1a3.8,3.8,0,0,0,5.21-1.369,2.72,2.72,0,0,0,.247-.456,4.264,4.264,0,0,0,.494-1.008,4.773,4.773,0,0,0,.114-2.434c-.57-3.271-5.5-3.67-6.96-.913a7.619,7.619,0,0,1-.494.97,3.8,3.8,0,0,0,1.388,5.21Z" transform="translate(50.312 165.494)" fill="#f7f7fc"/>
            <path id="Path_3326" data-name="Path 3326" d="M230.885,210.846c4.906,0,4.906-7.606,0-7.606S225.979,210.846,230.885,210.846Z" transform="translate(62.219 170.14)" fill="#f7f7fc"/>
            <path id="Path_3327" data-name="Path 3327" d="M195.873,19.009a3.8,3.8,0,0,0,4.678,2.662,8.632,8.632,0,0,1,1.2-.342l.875-.133a5.7,5.7,0,0,0,1.179-.285,4.762,4.762,0,0,0,.3.57,4.127,4.127,0,0,0-2.719,1.9h0a4.3,4.3,0,0,0,2.529,6.085,3.8,3.8,0,0,0,2.453-.171h.19a4.259,4.259,0,0,0,.837.323,3.594,3.594,0,0,0,2.624,1.274c1.065,0,2.13.133,3.176.228l2.719.209h.418a18.864,18.864,0,0,0,3.1,0,10.364,10.364,0,0,0,4.526-1.673,5.536,5.536,0,0,0,.818-.7,2.662,2.662,0,0,0,1.2.152c.913-.114,1.806-.266,2.7-.437,3.8-.742,3.328-5.286.742-6.865a3.29,3.29,0,0,0-4.3-2.168c-2.453.894-3.8,2.605-5.8,3.974a5.172,5.172,0,0,1-2.909.532c-1.027-1.749-1.673-3.5-2.605-4.982a4.088,4.088,0,0,0-.476-.761h.875l.342-.133.437-.209.247-.171a3.289,3.289,0,0,0,.418-.361l.133-.133a3.534,3.534,0,0,0,.437-.589h0a3.916,3.916,0,0,0,.38-.97h0a4.336,4.336,0,0,0,0-2.073h0a3.8,3.8,0,0,0-.894-1.616h0a3.287,3.287,0,0,0-.608-.475h-.114a3.421,3.421,0,0,0-.742-.3h-.114a4.07,4.07,0,0,0-1.008-.133h-.742a3.461,3.461,0,0,0-2.966,1.464,8.025,8.025,0,0,0-1.578.38,6.77,6.77,0,0,0-4.868-.609,17.115,17.115,0,0,0-5.439,2.643,4.26,4.26,0,0,0-1.6,1.9A3.652,3.652,0,0,0,195.873,19.009Z" transform="translate(33.87 -2.976)" fill="#f7f7fc"/>
          </g>
        </g>
        <path id="Path_3512" data-name="Path 3512" d="M317.718,0C493.188,0,635.436,10.71,635.436,23.922S493.188,47.844,317.718,47.844,0,37.134,0,23.922,142.247,0,317.718,0Z" transform="translate(117.119 307.031)" fill="#4e4d4d"/>
        <path id="Path_3329" data-name="Path 3329" d="M379.308,161.46V209.3c-175.479,0-317.718-10.687-317.718-24S203.829,161.46,379.308,161.46Z" transform="translate(55.529 145.571)" fill="#565656"/>
        <path id="Path_3330" data-name="Path 3330" d="M216.37,222.924,295.324,148.4a105.1,105.1,0,0,1,144.274,0l78.935,74.523Z" transform="translate(195.077 107.953)" fill="#565656"/>
        <path id="Path_3331" data-name="Path 3331" d="M367.451,119.78v103.1H216.37l78.954-74.523a104.8,104.8,0,0,1,72.127-28.581Z" transform="translate(195.077 107.992)" fill="#b0b5c0"/>
        <path id="Path_3332" data-name="Path 3332" d="M140.19,207.723l54.462-51.343a72.508,72.508,0,0,1,99.548,0l54.462,51.343Z" transform="translate(126.394 123.154)" fill="#d3d3d3"/>
        <path id="Path_3333" data-name="Path 3333" d="M244.407,136.6V207.72H140.2l54.462-51.343A72.26,72.26,0,0,1,244.407,136.6Z" transform="translate(126.403 123.157)" fill="#a6c933"/>
        <path id="Path_3334" data-name="Path 3334" d="M77.27,241.7l51.343-103.123c26.356-52.9,67.545-52.9,93.9,0L273.857,241.7Z" transform="translate(69.666 89.172)" fill="#565656"/>
        <path id="Path_3335" data-name="Path 3335" d="M176.837,99.014V241.633H77.27l25.154-50.522,26.189-52.6C142.171,111.488,159.552,98.272,176.837,99.014Z" transform="translate(69.666 89.243)" fill="#6d6d6e"/>
        <path id="Path_3336" data-name="Path 3336" d="M276.5,228.556H112.32l34.628-59.976,18.369-31.814,5.61-9.717a27.117,27.117,0,0,1,46.969,0l5.61,9.717Z" transform="translate(101.267 102.321)" fill="#565656"/>
        <path id="Path_3337" data-name="Path 3337" d="M194.431,113.53V228.52H112.32l58.607-101.507a26.889,26.889,0,0,1,23.5-13.482Z" transform="translate(101.267 102.357)" fill="#afafb8"/>
        <path id="Path_3338" data-name="Path 3338" d="M198.379,136.806a18.5,18.5,0,0,1-19.815.8,18.426,18.426,0,0,1-18.54,0,18.521,18.521,0,0,1-19.834-.8l5.61-9.717a27.117,27.117,0,0,1,46.969,0Z" transform="translate(126.394 102.357)" fill="#b0b5c0"/>
        <path id="Path_3339" data-name="Path 3339" d="M169.294,113.53v26.622a18.407,18.407,0,0,1-9.261-2.491,18.521,18.521,0,0,1-19.834-.8l5.61-9.717a26.889,26.889,0,0,1,23.485-13.615Z" transform="translate(126.403 102.358)" fill="#e1e1e1"/>
        <path id="Path_3340" data-name="Path 3340" d="M181.576,202.476H112.32L146.948,142.5Z" transform="translate(101.267 128.477)" fill="#87ad9e"/>
        <path id="Path_3341" data-name="Path 3341" d="M202.859,214.007H82.45l38.869-67.316,4.107-7.131a19.891,19.891,0,0,1,34.438,0l4.107,7.131Z" transform="translate(74.336 116.87)" fill="#565656"/>
        <path id="Path_3342" data-name="Path 3342" d="M142.654,129.67v84.3H82.45l42.976-74.428a19.72,19.72,0,0,1,17.228-9.869Z" transform="translate(74.336 116.909)" fill="#6d6d6e"/>
        <path id="Path_3343" data-name="Path 3343" d="M145.562,146.731a13.558,13.558,0,0,1-14.528.589,13.5,13.5,0,0,1-13.6,0,13.577,13.577,0,0,1-14.547-.589L107,139.6a19.891,19.891,0,0,1,34.438,0Z" transform="translate(92.765 116.906)" fill="#b0b5c0"/>
        <path id="Path_3344" data-name="Path 3344" d="M124.226,129.67v19.491a13.5,13.5,0,0,1-6.789-1.9,13.577,13.577,0,0,1-14.547-.589L107,139.54a19.72,19.72,0,0,1,17.228-9.869Z" transform="translate(92.765 116.909)" fill="#e1e1e1"/>
        <path id="Path_3345" data-name="Path 3345" d="M438.686,208.065H336.19l21.469-37.214,11.6-20.1,3.5-6.066a16.943,16.943,0,0,1,29.341,0l3.5,6.066Z" transform="translate(303.106 122.812)" fill="#343434"/>
        <path id="Path_3346" data-name="Path 3346" d="M387.493,136.261v71.766H336.15l36.587-63.38A16.791,16.791,0,0,1,387.493,136.261Z" transform="translate(303.07 122.85)" fill="#565656"/>
        <path id="Path_3347" data-name="Path 3347" d="M389.929,150.792a11.542,11.542,0,0,1-12.379.494,11.41,11.41,0,0,1-11.581,0,11.562,11.562,0,0,1-12.379-.494l3.5-6.066a16.924,16.924,0,0,1,29.323,0Z" transform="translate(318.793 122.847)" fill="#ededed"/>
        <path id="Path_3348" data-name="Path 3348" d="M371.724,136.26v16.62a11.409,11.409,0,0,1-5.7-1.559,11.562,11.562,0,0,1-12.379-.494l3.5-6.066a16.791,16.791,0,0,1,14.585-8.5Z" transform="translate(318.839 122.851)" fill="#fff"/>
        <path id="Path_3349" data-name="Path 3349" d="M379.166,191.684H336.19l21.488-37.214Z" transform="translate(303.106 139.269)" fill="#87ad9e"/>
        <path id="Path_3350" data-name="Path 3350" d="M392.71,198.978H317.54L341.8,156.953l2.567-4.45a12.417,12.417,0,0,1,21.507,0l2.567,4.45Z" transform="translate(286.291 131.898)" fill="#343434"/>
        <path id="Path_3351" data-name="Path 3351" d="M355.134,146.33v52.617H317.54l26.831-46.475A12.322,12.322,0,0,1,355.134,146.33Z" transform="translate(286.291 131.93)" fill="#afafb8"/>
        <path id="Path_3352" data-name="Path 3352" d="M356.941,156.993a8.462,8.462,0,0,1-9.071.361,8.443,8.443,0,0,1-8.481,0,8.481,8.481,0,0,1-9.09-.361l2.567-4.45a12.417,12.417,0,0,1,21.507,0Z" transform="translate(297.795 131.935)" fill="#ededed"/>
        <path id="Path_3353" data-name="Path 3353" d="M343.63,146.33V158.5a8.424,8.424,0,0,1-4.241-1.141A8.481,8.481,0,0,1,330.3,157l2.567-4.45a12.322,12.322,0,0,1,10.763-6.218Z" transform="translate(297.795 131.93)" fill="#fff"/>
        <rect id="Rectangle_286" data-name="Rectangle 286" width="3.556" height="10.021" transform="translate(624.844 181.906)" fill="#fff"/>
        <rect id="Rectangle_287" data-name="Rectangle 287" width="1.787" height="10.021" transform="translate(626.631 181.906)" fill="#cecece"/>
        <rect id="Rectangle_288" data-name="Rectangle 288" width="4.602" height="11.961" transform="translate(624.33 162.453)" fill="#fff"/>
        <rect id="Rectangle_289" data-name="Rectangle 289" width="2.301" height="11.961" transform="translate(626.631 162.453)" fill="#cecece"/>
        <path id="Path_3354" data-name="Path 3354" d="M335.438,61.25a3.375,3.375,0,0,0-6.751,0l-2.054,47.083c-.152,3.347,1.9,6.2,4.374,6.2h2.3c2.548,0,4.526-2.852,4.355-6.2Z" transform="translate(294.483 52.18)" fill="#ededed"/>
        <path id="Path_3355" data-name="Path 3355" d="M332.149,57.92v56.572h-1.141c-2.548,0-4.526-2.833-4.374-6.2l2.054-47.064a3.4,3.4,0,0,1,3.366-3.309Z" transform="translate(294.483 52.22)" fill="#fff"/>
        <rect id="Rectangle_290" data-name="Rectangle 290" width="4.602" height="11.961" transform="matrix(-0.375, 0.927, -0.927, -0.375, 641.766, 181.981)" fill="#fff"/>
        <rect id="Rectangle_291" data-name="Rectangle 291" width="2.301" height="11.961" transform="translate(640.825 184.025) rotate(112.02)" fill="#cecece"/>
        <path id="Path_3356" data-name="Path 3356" d="M383.476,120.642a3.374,3.374,0,0,0,2.529-6.256L343.029,94.818c-3.062-1.388-6.427-.628-7.4,1.73l-.856,2.13c-.951,2.358.951,5.248,4.126,6.37Z" transform="translate(301.61 84.863)" fill="#ededed"/>
        <path id="Path_3357" data-name="Path 3357" d="M387.386,118.784,334.94,97.658l.418-1.065c.951-2.358,4.317-3.138,7.378-1.73L385.6,114.411a3.4,3.4,0,0,1,1.807,4.355Z" transform="translate(301.979 84.895)" fill="#fff"/>
        <rect id="Rectangle_292" data-name="Rectangle 292" width="4.602" height="11.961" transform="translate(622.65 177.45) rotate(67.98)" fill="#fff"/>
        <rect id="Rectangle_293" data-name="Rectangle 293" width="2.301" height="11.961" transform="translate(623.471 179.579) rotate(67.98)" fill="#cecece"/>
        <path id="Path_3358" data-name="Path 3358" d="M300.99,120.642a3.374,3.374,0,0,1-2.529-6.256l42.862-19.567c3.061-1.388,6.427-.628,7.4,1.73l.856,2.13c.951,2.358-.951,5.248-4.126,6.37Z" transform="translate(267.187 84.863)" fill="#ededed"/>
        <path id="Path_3359" data-name="Path 3359" d="M296.669,118.784l52.446-21.127-.437-1.065c-.951-2.358-4.317-3.138-7.378-1.73l-42.862,19.548a3.4,3.4,0,0,0-1.806,4.355Z" transform="translate(267.229 84.895)" fill="#fff"/>
        <path id="Path_3360" data-name="Path 3360" d="M339.846,241.511h-14l3.423-138.816a3.575,3.575,0,0,1,7.15,0Z" transform="translate(293.783 89.366)" fill="#fff"/>
        <path id="Path_3361" data-name="Path 3361" d="M336.528,241.43h-7V99.21a3.575,3.575,0,0,1,3.575,3.5Z" transform="translate(297.101 89.447)" fill="#ededed"/>
        <circle id="Ellipse_155" data-name="Ellipse 155" cx="6.237" cy="6.237" r="6.237" transform="translate(620.394 171.428)" fill="#344056"/>
        <circle id="Ellipse_156" data-name="Ellipse 156" cx="3.727" cy="3.727" r="3.727" transform="translate(622.904 173.939)" fill="#acb1bd"/>
        <rect id="Rectangle_294" data-name="Rectangle 294" width="2.757" height="7.797" transform="translate(547.221 215.127)" fill="#fff"/>
        <rect id="Rectangle_295" data-name="Rectangle 295" width="1.388" height="7.797" transform="translate(548.609 215.127)" fill="#cecece"/>
        <rect id="Rectangle_296" data-name="Rectangle 296" width="3.575" height="9.299" transform="translate(546.821 200.009)" fill="#fff"/>
        <rect id="Rectangle_297" data-name="Rectangle 297" width="1.787" height="9.299" transform="translate(548.609 200.009)" fill="#cecece"/>
        <path id="Path_3362" data-name="Path 3362" d="M293.089,86.384a2.624,2.624,0,1,0-5.248,0l-1.6,36.587c-.114,2.605,1.426,4.811,3.4,4.811h1.845c1.9,0,3.518-2.206,3.385-4.83Z" transform="translate(258.068 75.517)" fill="#ededed"/>
        <path id="Path_3363" data-name="Path 3363" d="M290.567,83.8v43.965h-.951c-1.9,0-3.518-2.206-3.4-4.811l1.6-36.587a2.643,2.643,0,0,1,2.624-2.567Z" transform="translate(258.042 75.553)" fill="#fff"/>
        <rect id="Rectangle_298" data-name="Rectangle 298" width="3.575" height="9.299" transform="translate(560.31 215.133) rotate(112.02)" fill="#fff"/>
        <rect id="Rectangle_299" data-name="Rectangle 299" width="1.787" height="9.299" transform="translate(559.687 216.821) rotate(112.02)" fill="#cecece"/>
        <path id="Path_3364" data-name="Path 3364" d="M330.4,132.548a2.624,2.624,0,0,0,1.9-4.868l-33.316-15.213c-2.377-1.084-5-.494-5.7,1.35l-.666,1.654c-.742,1.9.742,4.088,3.195,4.944Z" transform="translate(263.642 100.911)" fill="#ededed"/>
        <path id="Path_3365" data-name="Path 3365" d="M333.461,131.108,292.71,114.621l.323-.818c.742-1.9,3.366-2.434,5.7-1.35l33.316,15.213a2.643,2.643,0,0,1,1.407,3.385Z" transform="translate(263.905 100.886)" fill="#fff"/>
        <rect id="Rectangle_300" data-name="Rectangle 300" width="3.575" height="9.299" transform="translate(545.515 211.67) rotate(67.98)" fill="#fff"/>
        <rect id="Rectangle_301" data-name="Rectangle 301" width="1.787" height="9.299" transform="translate(546.171 213.331) rotate(67.98)" fill="#cecece"/>
        <path id="Path_3366" data-name="Path 3366" d="M266.2,132.548a2.624,2.624,0,0,1-1.9-4.868l33.316-15.213c2.377-1.084,5-.494,5.7,1.35l.666,1.654c.742,1.9-.742,4.088-3.195,4.944Z" transform="translate(236.981 100.911)" fill="#ededed"/>
        <path id="Path_3367" data-name="Path 3367" d="M262.946,131.108,303.7,114.621l-.323-.818c-.742-1.9-3.366-2.434-5.7-1.35l-33.316,15.213a2.643,2.643,0,0,0-1.407,3.385Z" transform="translate(236.906 100.886)" fill="#fff"/>
        <path id="Path_3368" data-name="Path 3368" d="M296.517,226.464H285.64L288.3,118.586a2.776,2.776,0,0,1,5.553,0Z" transform="translate(257.53 104.413)" fill="#fff"/>
        <path id="Path_3369" data-name="Path 3369" d="M293.939,226.391H288.5V115.89a2.776,2.776,0,0,1,2.776,2.72Z" transform="translate(260.109 104.485)" fill="#ededed"/>
        <circle id="Ellipse_157" data-name="Ellipse 157" cx="4.849" cy="4.849" r="4.849" transform="translate(543.76 206.988)" fill="#344056"/>
        <circle id="Ellipse_158" data-name="Ellipse 158" cx="2.89" cy="2.89" r="2.89" transform="translate(545.719 208.947)" fill="#acb1bd"/>
        <path id="Path_3370" data-name="Path 3370" d="M322.972,275.565h102.02a13.311,13.311,0,0,0-.133-26.622H369.713a13.311,13.311,0,1,1,0-26.622H583.49a13.311,13.311,0,1,1,0,26.622H484.76a13.311,13.311,0,1,0-.133,26.622h26.622a13.311,13.311,0,0,1,13.311,13.311h0a13.311,13.311,0,0,1-13.311,13.311H322.991a13.311,13.311,0,0,1-13.311-13.311h0a13.311,13.311,0,0,1,13.292-13.311Z" transform="translate(279.205 200.442)" fill="#344056" opacity="0.03"/>
        <path id="Path_3371" data-name="Path 3371" d="M174.359,301.392H66.691A13.311,13.311,0,0,1,53.38,288.081h0A13.311,13.311,0,0,1,66.691,274.77H174.359a13.311,13.311,0,0,1,13.311,13.311h0A13.311,13.311,0,0,1,174.359,301.392Z" transform="translate(48.127 247.73)" fill="#344056" opacity="0.03"/>
        <path id="Path_3372" data-name="Path 3372" d="M418.724,330.392H301.681a13.311,13.311,0,0,1-13.311-13.311h0a13.311,13.311,0,0,1,13.311-13.311H418.724a13.311,13.311,0,0,1,13.311,13.311h0A13.311,13.311,0,0,1,418.724,330.392Z" transform="translate(259.992 273.876)" fill="#344056" opacity="0.03"/>
        <path id="Path_3373" data-name="Path 3373" d="M378.822,301.392H261.741a13.311,13.311,0,0,1-13.311-13.311h0a13.311,13.311,0,0,1,13.311-13.311H378.822a13.311,13.311,0,0,1,13.311,13.311h0a13.311,13.311,0,0,1-13.311,13.311Z" transform="translate(223.982 247.73)" fill="#344056" opacity="0.03"/>
        <circle id="Ellipse_159" data-name="Ellipse 159" cx="13.311" cy="13.311" r="13.311" transform="translate(596.149 422.762)" fill="#b0b5c0"/>
        <circle id="Ellipse_160" data-name="Ellipse 160" cx="13.311" cy="13.311" r="13.311" transform="translate(246.484 523.299)" fill="#344056" opacity="0.03"/>
        <path id="Path_3515" data-name="Path 3515" d="M13.311,0A13.311,13.311,0,1,1,0,13.311,13.311,13.311,0,0,1,13.311,0Z" transform="translate(785.509 271.034)" fill="#f8f9fa" opacity="0.4"/>
        <circle id="Ellipse_162" data-name="Ellipse 162" cx="13.311" cy="13.311" r="13.311" transform="translate(203.679 586.698)" fill="#344056" opacity="0.03"/>
        <circle id="Ellipse_163" data-name="Ellipse 163" cx="13.311" cy="13.311" r="13.311" transform="translate(257.875 133.587)" fill="#d3d3d3" opacity="0.4"/>
        <path id="Path_3374" data-name="Path 3374" d="M119.536,181.3a9.624,9.624,0,0,1-.3,2.358H70.874a9.337,9.337,0,0,1-.3-2.358,9.508,9.508,0,0,1,13.539-8.557,12.474,12.474,0,0,1,23.96-.7,9.353,9.353,0,0,1,2-.209A9.508,9.508,0,0,1,119.536,181.3Z" transform="translate(63.625 147.296)" fill="#b0b5c0"/>
        <path id="Path_3375" data-name="Path 3375" d="M95.667,179.109a6.673,6.673,0,0,1-.209,1.635H61.8a6.484,6.484,0,0,1-.209-1.635,6.6,6.6,0,0,1,9.508-5.952,8.671,8.671,0,0,1,16.677-.494,6.5,6.5,0,0,1,1.388-.152A6.6,6.6,0,0,1,95.667,179.109Z" transform="translate(55.529 150.208)" fill="#343434"/>
        <circle id="Ellipse_164" data-name="Ellipse 164" cx="26.09" cy="26.09" r="26.09" transform="translate(555.702 261.431)" fill="#343434"/>
        <path id="Path_3376" data-name="Path 3376" d="M318.32,137.48v52.18a26.09,26.09,0,1,1,0-52.18Z" transform="translate(263.472 123.951)" fill="#4e4d4d"/>
        <path id="Path_3377" data-name="Path 3377" d="M318.214,160.329a1.54,1.54,0,0,0-2.187-.133l-5.7,5.039v-7a1.559,1.559,0,0,0-3.1,0v2.32l-1.9-1.73a1.559,1.559,0,0,0-2.035,2.339l4.012,3.5v24.8h3.1V169.305l7.816-6.865a1.579,1.579,0,0,0,.532-1.16,1.617,1.617,0,0,0-.532-.951Z" transform="translate(273.067 141.415)" fill="#9e5726"/>
        <path id="Path_3378" data-name="Path 3378" d="M308.927,156.762v32.783h-1.559V164.825l-4.05-3.575a1.559,1.559,0,1,1,2.035-2.339l1.9,1.73v-2.32a1.559,1.559,0,0,1,1.673-1.559Z" transform="translate(272.864 141.331)" fill="#bf692e"/>
        <circle id="Ellipse_165" data-name="Ellipse 165" cx="29.57" cy="29.57" r="29.57" transform="translate(150.302 252.17)" fill="#7a7b7d"/>
        <path id="Path_3379" data-name="Path 3379" d="M108.254,132.62v59.12a29.57,29.57,0,0,1,0-59.12Z" transform="translate(71.617 119.569)" fill="#b0b5c0"/>
        <path id="Path_3380" data-name="Path 3380" d="M108.617,158.591a1.75,1.75,0,0,0-2.472-.152l-6.522,5.7v-7.93a1.759,1.759,0,0,0-3.518,0v2.643l-2.225-1.9a1.759,1.759,0,0,0-2.3,2.662l4.545,3.974v28.029h3.518V168.8l8.842-7.777a1.788,1.788,0,0,0,.59-1.312A1.9,1.9,0,0,0,108.617,158.591Z" transform="translate(82.018 139.255)" fill="#101b33"/>
        <path id="Path_3381" data-name="Path 3381" d="M97.863,154.46v37.157H96.114V163.512l-4.545-3.974a1.759,1.759,0,0,1,2.3-2.662l2.225,1.9v-2.643a1.768,1.768,0,0,1,1.769-1.673Z" transform="translate(82.008 139.26)" fill="#2e3136"/>
        <circle id="Ellipse_166" data-name="Ellipse 166" cx="26.071" cy="26.071" r="26.071" transform="translate(110.52 261.469)" fill="#7a7b7d"/>
        <path id="Path_3382" data-name="Path 3382" d="M84.185,137.5v52.161a26.08,26.08,0,0,1,0-52.161Z" transform="translate(52.387 123.969)" fill="#b0b5c0"/>
        <path id="Path_3383" data-name="Path 3383" d="M84.094,160.5a1.54,1.54,0,0,0-2.187-.133l-5.7,5.039v-7a1.559,1.559,0,1,0-3.1,0v2.32L71.2,159a1.559,1.559,0,0,0-2.035,2.339l3.86,3.556v24.721h3.1V169.459l7.8-6.865a1.578,1.578,0,0,0,.532-1.16,1.616,1.616,0,0,0-.361-.932Z" transform="translate(61.986 141.261)" fill="#101b33"/>
        <path id="Path_3384" data-name="Path 3384" d="M74.711,156.77v32.764H73.151V164.814l-3.993-3.5a1.59,1.59,0,1,1,2.092-2.4l1.9,1.73v-2.32a1.559,1.559,0,0,1,1.559-1.559Z" transform="translate(61.861 141.342)" fill="#2e3136"/>
        <path id="Path_3385" data-name="Path 3385" d="M63.77,138a7.207,7.207,0,0,0,.761,5.971,6.96,6.96,0,0,0-5.971,0,7.188,7.188,0,0,0,9.508,2.833h0A7.606,7.606,0,0,0,63.77,138Z" transform="translate(52.797 124.42)" fill="#565656"/>
        <path id="Path_3386" data-name="Path 3386" d="M399.863,191.977h0A13.862,13.862,0,0,1,386,178.1v-24.34a13.863,13.863,0,0,1,13.825-13.825h0a13.863,13.863,0,0,1,13.825,13.825v24.34A13.862,13.862,0,0,1,399.863,191.977Z" transform="translate(348.014 126.16)" fill="#afafb8"/>
        <path id="Path_3387" data-name="Path 3387" d="M399.882,140V191.99A13.863,13.863,0,0,1,386,178.032v-24.34A13.863,13.863,0,0,1,399.882,140Z" transform="translate(348.014 126.223)" fill="#4e4d4d"/>
        <path id="Path_3388" data-name="Path 3388" d="M401.589,164.129a1.217,1.217,0,0,1-.418.913l-6.085,5.362v15.65H392.67V161.695a1.217,1.217,0,0,1,2.415,0v5.458l4.488-3.917a1.217,1.217,0,0,1,1.711.114,1.275,1.275,0,0,1,.3.78Z" transform="translate(354.028 144.823)" fill="#343434"/>
        <path id="Path_3389" data-name="Path 3389" d="M389.26,154.579a1.217,1.217,0,0,0,.418.913l6.085,5.362v4.317a1.217,1.217,0,0,0,1.217,1.217h0a1.217,1.217,0,0,0,1.217-1.217V152.145a1.217,1.217,0,0,0-2.415,0V157.6l-4.488-3.936a1.217,1.217,0,0,0-1.711.114A1.274,1.274,0,0,0,389.26,154.579Z" transform="translate(350.953 136.212)" fill="#343434"/>
        <path id="Path_3390" data-name="Path 3390" d="M393.877,160.55v25.576H392.66V161.767A1.217,1.217,0,0,1,393.877,160.55Z" transform="translate(354.019 144.75)" fill="#686868"/>
        <path id="Path_3391" data-name="Path 3391" d="M396.933,151v15.441a1.2,1.2,0,0,1-1.16-1.217v-4.317l-6.085-5.362a1.217,1.217,0,0,1-.418-.913,1.274,1.274,0,0,1,.3-.8,1.217,1.217,0,0,1,1.711-.114l4.488,3.936V152.2a1.217,1.217,0,0,1,1.16-1.2Z" transform="translate(350.962 136.14)" fill="#686868"/>
        <path id="Path_3392" data-name="Path 3392" d="M360.145,191.95h0a13.862,13.862,0,0,1-13.824-13.825v-24.34a13.863,13.863,0,0,1,13.825-13.825h0a13.863,13.863,0,0,1,13.825,13.825v24.283a13.863,13.863,0,0,1-13.824,13.882Z" transform="translate(312.239 126.187)" fill="#afafb8"/>
        <path id="Path_3393" data-name="Path 3393" d="M360.154,140V191.99a13.862,13.862,0,0,1-13.843-13.825v-24.34A13.863,13.863,0,0,1,360.154,140Z" transform="translate(312.23 126.223)" fill="#4e4d4d"/>
        <path id="Path_3394" data-name="Path 3394" d="M361.842,164.129a1.217,1.217,0,0,1-.418.913l-6.085,5.362v15.65H353V161.7a1.217,1.217,0,0,1,2.415,0v5.458l4.488-3.936a1.217,1.217,0,0,1,1.711.114,1.273,1.273,0,0,1,.228.8Z" transform="translate(318.262 144.822)" fill="#9e5726"/>
        <path id="Path_3395" data-name="Path 3395" d="M349.56,154.579a1.217,1.217,0,0,0,.418.913l6.085,5.363v4.317a1.217,1.217,0,0,0,1.217,1.217h0a1.217,1.217,0,0,0,1.217-1.217V152.145a1.217,1.217,0,0,0-2.415,0V157.6l-4.488-3.936a1.217,1.217,0,0,0-1.711.114,1.274,1.274,0,0,0-.323.8Z" transform="translate(315.16 136.212)" fill="#343434"/>
        <path id="Path_3396" data-name="Path 3396" d="M354.122,160.55v25.576H353V161.767A1.217,1.217,0,0,1,354.122,160.55Z" transform="translate(318.262 144.75)" fill="#bf692e"/>
        <path id="Path_3397" data-name="Path 3397" d="M357.223,151v15.441a1.2,1.2,0,0,1-1.16-1.217v-4.317l-6.085-5.362a1.217,1.217,0,0,1-.418-.913,1.274,1.274,0,0,1,.3-.8,1.217,1.217,0,0,1,1.711-.114l4.488,3.936V152.2A1.217,1.217,0,0,1,357.223,151Z" transform="translate(315.16 136.14)" fill="#686868"/>
        <path id="Path_3398" data-name="Path 3398" d="M249.12,253.993H204.49l7.873-117.556.494-7.435.532-7.892.38-5.591.114-1.845.1-1.331.437-6.56.076-1.065.209-3.176.209-3.195.3-4.431.209-3.176.361-5.382h22.039l.361,5.382.209,3.176.3,4.431.209,3.195.209,3.176.076,1.065.437,6.56.1,1.331.114,1.845.38,5.591.533,7.892.494,7.435Z" transform="translate(184.366 76.96)" fill="#343434"/>
        <path id="Path_3399" data-name="Path 3399" d="M226.8,85.36V253.993H204.48L215.794,85.36Z" transform="translate(184.357 76.96)" fill="#565656"/>
        <path id="Path_3400" data-name="Path 3400" d="M233.31,91.366H210.13l.209-3.176H233.1Z" transform="translate(189.451 79.511)" fill="#4d4d4d"/>
        <path id="Path_3401" data-name="Path 3401" d="M234.376,97.046H209.75l.209-3.176h24.207Z" transform="translate(189.109 84.632)" fill="#4d4d4d"/>
        <path id="Path_3402" data-name="Path 3402" d="M235.441,102.726H209.37l.114-1.845.1-1.331h25.652l.1,1.331Z" transform="translate(188.766 89.753)" fill="#4d4d4d"/>
        <path id="Path_3403" data-name="Path 3403" d="M221.73,88.19v3.176h-11.6l.209-3.176Z" transform="translate(189.451 79.511)" fill="#343434"/>
        <path id="Path_3404" data-name="Path 3404" d="M222.072,93.87v3.176H209.75l.209-3.176Z" transform="translate(189.109 84.632)" fill="#343434"/>
        <path id="Path_3405" data-name="Path 3405" d="M222.415,99.55v3.176H209.37l.114-1.845.1-1.331Z" transform="translate(188.766 89.753)" fill="#343434"/>
        <rect id="Rectangle_302" data-name="Rectangle 302" width="26.071" height="4.126" transform="translate(398.136 158.193)" fill="#514428"/>
        <rect id="Rectangle_303" data-name="Rectangle 303" width="13.026" height="4.126" transform="translate(411.162 158.193)" fill="#42361c"/>
        <circle id="Ellipse_167" data-name="Ellipse 167" cx="4.83" cy="4.83" r="4.83" transform="translate(411.162 145.529)" fill="#d3d3d3"/>
        <path id="Path_3406" data-name="Path 3406" d="M327.5,82.284h0a13.159,13.159,0,0,1-13.159,13.121H216.405l-.171-.171a17.114,17.114,0,0,1,17.114-17.666,17.437,17.437,0,0,1,5.857,1.046.133.133,0,0,0,.171,0,24.055,24.055,0,0,1,32.555-12.151.133.133,0,0,0,.171,0,29.969,29.969,0,0,1,55.374,15.954Z" transform="translate(194.947 47.233)" fill="#d3d3d3"/>
        <path id="Path_3407" data-name="Path 3407" d="M271.654,89.024h0a5.286,5.286,0,0,1-5.343,5.153H227.442a6.808,6.808,0,0,1,6.77-7.036,6.941,6.941,0,0,1,2.377.437,9.508,9.508,0,0,1,12.988-4.849,11.9,11.9,0,0,1,22.02,6.294Z" transform="translate(205.056 69.512)" fill="#d3d3d3"/>
        <rect id="Rectangle_304" data-name="Rectangle 304" width="55.85" height="29.189" transform="translate(383.228 301.763)" fill="#b0b5c0"/>
        <rect id="Rectangle_305" data-name="Rectangle 305" width="28.201" height="29.189" transform="translate(383.228 301.763)" fill="#565656"/>
        <circle id="Ellipse_168" data-name="Ellipse 168" cx="4.241" cy="4.241" r="4.241" transform="translate(422.895 315.93)" fill="#343434"/>
        <path id="Path_3408" data-name="Path 3408" d="M230.236,182.868H222.63V170.2a3.8,3.8,0,0,1,3.8-3.8h0a3.8,3.8,0,0,1,3.8,3.8Z" transform="translate(200.721 150.025)" fill="#ededed"/>
        <path id="Path_3409" data-name="Path 3409" d="M226.508,166.38v16.506h-3.9V170.221a3.8,3.8,0,0,1,3.8-3.8Z" transform="translate(200.703 150.007)" fill="#565656"/>
        <path id="Path_3410" data-name="Path 3410" d="M230.746,175.671H222.74a.38.38,0,0,1-.38-.38h0a.38.38,0,0,1,.38-.38h8.006a.38.38,0,0,1,.38.38h0A.38.38,0,0,1,230.746,175.671Z" transform="translate(200.478 157.697)" fill="#d3d3d3"/>
        <path id="Path_3411" data-name="Path 3411" d="M226.743,174.91v.761H222.73a.38.38,0,1,1,0-.761Z" transform="translate(200.469 157.697)" fill="#fff"/>
        <rect id="Rectangle_306" data-name="Rectangle 306" width="45.505" height="3.746" transform="translate(388.685 305.167)" fill="#fff"/>
        <rect id="Rectangle_307" data-name="Rectangle 307" width="22.762" height="3.746" transform="translate(411.447 305.167)" fill="#ededed"/>
        <rect id="Rectangle_308" data-name="Rectangle 308" width="22.762" height="3.746" transform="translate(411.447 311.576)" fill="#ededed"/>
        <rect id="Rectangle_309" data-name="Rectangle 309" width="45.505" height="3.746" transform="translate(388.685 311.576)" fill="#fff"/>
        <path id="Path_3412" data-name="Path 3412" d="M224.163,180.338H213.59v-8.082a5.286,5.286,0,0,1,5.286-5.286h0a5.286,5.286,0,0,1,5.286,5.286Z" transform="translate(192.571 150.539)" fill="#ededed"/>
        <path id="Path_3413" data-name="Path 3413" d="M218.876,167v13.311H213.59v-8.1A5.286,5.286,0,0,1,218.876,167Z" transform="translate(192.571 150.566)" fill="#fff"/>
        <path id="Path_3414" data-name="Path 3414" d="M123.286,179.8a7.608,7.608,0,0,1-.247,1.9H84.607a7.4,7.4,0,0,1-.247-1.9,7.606,7.606,0,0,1,10.725-6.808,9.907,9.907,0,0,1,19.016-.551,7.434,7.434,0,0,1,1.6-.171A7.606,7.606,0,0,1,123.286,179.8Z" transform="translate(76.058 149.287)" fill="#343434"/>
        <path id="Path_3415" data-name="Path 3415" d="M407.514,181.927a10.428,10.428,0,0,1-.323,2.548H354.8a10.1,10.1,0,0,1-.342-2.548,10.269,10.269,0,0,1,14.661-9.28,13.5,13.5,0,0,1,25.957-.761,10.135,10.135,0,0,1,2.168-.228,10.269,10.269,0,0,1,10.269,10.269Z" transform="translate(319.578 146.478)" fill="#565656"/>
        <path id="Path_3416" data-name="Path 3416" d="M379.877,179.109a6.7,6.7,0,0,1-.209,1.635H346.009a6.482,6.482,0,0,1-.209-1.635,6.6,6.6,0,0,1,9.508-5.952,8.671,8.671,0,0,1,16.677-.494,6.5,6.5,0,0,1,1.388-.152A6.6,6.6,0,0,1,379.877,179.109Z" transform="translate(311.77 150.208)" fill="#658519"/>
        <path id="Path_3417" data-name="Path 3417" d="M243.783,228.6H168.67l13.254-80.209.837-5.077.894-5.382.837-5.077.894-5.382.837-5.077,1.464-8.861h37.081l1.464,8.861.837,5.077.894,5.382.837,5.077.894,5.382.837,5.077Z" transform="translate(152.071 102.358)" fill="#ededed"/>
        <path id="Path_3418" data-name="Path 3418" d="M206.226,113.53V228.6H168.67L187.686,113.53Z" transform="translate(152.071 102.358)" fill="#fff"/>
        <path id="Path_3419" data-name="Path 3419" d="M219.143,123.267H177.46l.837-5.077h40.01Z" transform="translate(159.996 106.559)" fill="#b0b5c0"/>
        <path id="Path_3420" data-name="Path 3420" d="M221.694,128.767H176.55l.837-5.077h43.47Z" transform="translate(159.176 111.518)" fill="#b0b5c0"/>
        <path id="Path_3421" data-name="Path 3421" d="M224.245,134.267h-48.6l.837-5.077h46.931Z" transform="translate(158.355 116.477)" fill="#b0b5c0"/>
        <path id="Path_3422" data-name="Path 3422" d="M198.3,118.19v5.077H177.46l.837-5.077Z" transform="translate(159.996 106.559)" fill="#e1e1e1"/>
        <path id="Path_3423" data-name="Path 3423" d="M199.122,123.69v5.077H176.55l.837-5.077Z" transform="translate(159.176 111.518)" fill="#e1e1e1"/>
        <path id="Path_3424" data-name="Path 3424" d="M199.942,129.19v5.077h-24.3l.837-5.077Z" transform="translate(158.355 116.477)" fill="#e1e1e1"/>
        <rect id="Rectangle_310" data-name="Rectangle 310" width="43.109" height="4.279" transform="translate(336.734 211.59)" fill="#ededed"/>
        <rect id="Rectangle_311" data-name="Rectangle 311" width="21.545" height="4.279" transform="translate(358.298 211.59)" fill="#d6d6d6"/>
        <circle id="Ellipse_169" data-name="Ellipse 169" cx="30.616" cy="30.616" r="30.616" transform="translate(327.625 145.529)" fill="#d3d3d3"/>
        <path id="Path_3425" data-name="Path 3425" d="M203.421,119.687a12.364,12.364,0,0,1-1.236.608,12.8,12.8,0,0,1-13.92-2.263l-1.749,2.225-1.559-1.559,2.225-1.749-.437-.513-.418-.532a12.5,12.5,0,0,1-.742-1.122,13.029,13.029,0,0,1-1.122-2.453c-.1-.285-.19-.57-.266-.875s0-.361-.133-.551a12.645,12.645,0,0,1,.856-7.892,19.928,19.928,0,0,1,10.687-9.774,37.593,37.593,0,0,1,3.689-1.464,68.135,68.135,0,0,1,17.228-3.062c-.723,11.41-3.043,19.016-6.085,23.96a19.016,19.016,0,0,1-7.017,7.017Z" transform="translate(165.696 79.98)" fill="#343434"/>
        <path id="Path_3426" data-name="Path 3426" d="M216.523,88.71,185.737,119.5l-.78-.78,2.225-1.749h0a11.383,11.383,0,0,1-.856-1.046q-.4-.551-.742-1.122a13.027,13.027,0,0,1-1.122-2.453c-.1-.285-.19-.57-.266-.875a12.229,12.229,0,0,1-.38-2.263,12.8,12.8,0,0,1,1.1-6.2,19.929,19.929,0,0,1,10.687-9.774,37.606,37.606,0,0,1,3.689-1.464,68.134,68.134,0,0,1,17.228-3.062Z" transform="translate(165.696 79.98)" fill="#565656"/>
        <path id="Path_3427" data-name="Path 3427" d="M197.606,100.493l-3.043,3.043L190,91.784a37.6,37.6,0,0,1,3.689-1.464Z" transform="translate(171.302 81.432)" fill="#6d6d6e"/>
        <path id="Path_3428" data-name="Path 3428" d="M200.151,110.752l-12.741-5.115,7.017-7.017,12.741,5.134A19.016,19.016,0,0,1,200.151,110.752Z" transform="translate(168.967 88.915)" fill="#565656"/>
        <path id="Path_3429" data-name="Path 3429" d="M183.933,100.489l.685.342a7.036,7.036,0,0,0,7.606-1.236l.951,1.217.856-.856-1.217-.951.247-.285.228-.285a6.869,6.869,0,0,0,.4-.609,7.168,7.168,0,0,0,.628-1.35,1.538,1.538,0,0,1,.152-.475v-.3a6.96,6.96,0,0,0-.475-4.336,10.972,10.972,0,0,0-5.819-5.4,20.65,20.65,0,0,0-2.016-.8,37.479,37.479,0,0,0-9.508-1.692A28.981,28.981,0,0,0,180,96.648,10.439,10.439,0,0,0,183.933,100.489Z" transform="translate(159.266 75.256)" fill="#343434"/>
        <path id="Path_3430" data-name="Path 3430" d="M176.69,83.46,193.633,100.4l.418-.418-1.217-.951h0q.247-.285.475-.57a3.877,3.877,0,0,0,.4-.609,7.167,7.167,0,0,0,.628-1.35,1.539,1.539,0,0,1,.152-.475,6.729,6.729,0,0,0,.209-1.236,7.036,7.036,0,0,0-.608-3.4,10.972,10.972,0,0,0-5.819-5.4,20.647,20.647,0,0,0-2.016-.8A37.481,37.481,0,0,0,176.69,83.46Z" transform="translate(159.302 75.247)" fill="#565656"/>
        <path id="Path_3431" data-name="Path 3431" d="M180.52,89.941l1.673,1.673,2.605-6.465a20.649,20.649,0,0,0-2.016-.8Z" transform="translate(162.755 76.049)" fill="#6d6d6e"/>
        <path id="Path_3432" data-name="Path 3432" d="M182.283,95.558l7.017-2.814-3.8-3.8-7.017,2.814A10.44,10.44,0,0,0,182.283,95.558Z" transform="translate(160.916 80.187)" fill="#565656"/>
        <rect id="Rectangle_312" data-name="Rectangle 312" width="2.187" height="6.142" transform="translate(704.806 239.677)" fill="#fff"/>
        <rect id="Rectangle_313" data-name="Rectangle 313" width="1.084" height="6.142" transform="translate(705.909 239.677)" fill="#cecece"/>
        <rect id="Rectangle_314" data-name="Rectangle 314" width="2.814" height="7.321" transform="translate(704.501 227.754)" fill="#fff"/>
        <rect id="Rectangle_315" data-name="Rectangle 315" width="1.407" height="7.321" transform="translate(705.909 227.754)" fill="#cecece"/>
        <path id="Path_3433" data-name="Path 3433" d="M374.822,104.889a2.073,2.073,0,0,0-4.127,0l-1.255,28.828c0,2.054,1.122,3.8,2.681,3.8h1.407c1.559,0,2.757-1.749,2.662-3.8Z" transform="translate(333.084 92.877)" fill="#ededed"/>
        <path id="Path_3434" data-name="Path 3434" d="M372.827,102.92v34.647h-.7c-1.559,0-2.776-1.73-2.681-3.8l1.255-28.79a2.092,2.092,0,0,1,2.054-2.035Z" transform="translate(333.081 92.792)" fill="#fff"/>
        <rect id="Rectangle_316" data-name="Rectangle 316" width="2.814" height="7.321" transform="translate(715.129 239.665) rotate(112.02)" fill="#fff"/>
        <rect id="Rectangle_317" data-name="Rectangle 317" width="1.407" height="7.321" transform="matrix(-0.375, 0.927, -0.927, -0.375, 714.671, 241.038)" fill="#cecece"/>
        <path id="Path_3435" data-name="Path 3435" d="M404.191,141.374a2.073,2.073,0,0,0,1.54-3.8l-26.261-12.018a3.29,3.29,0,0,0-4.526,1.065l-.533,1.312c-.589,1.445.59,3.214,2.529,3.9Z" transform="translate(337.429 112.754)" fill="#ededed"/>
        <path id="Path_3436" data-name="Path 3436" d="M406.648,140.253,374.53,127.265l.266-.647a3.29,3.29,0,0,1,4.526-1.065l26.261,11.98a2.092,2.092,0,0,1,1.1,2.662Z" transform="translate(337.673 112.754)" fill="#fff"/>
        <rect id="Rectangle_318" data-name="Rectangle 318" width="2.814" height="7.321" transform="translate(703.48 236.945) rotate(67.98)" fill="#fff"/>
        <rect id="Rectangle_319" data-name="Rectangle 319" width="1.407" height="7.321" transform="translate(704.024 238.239) rotate(67.98)" fill="#cecece"/>
        <path id="Path_3437" data-name="Path 3437" d="M353.608,141.356a2.073,2.073,0,0,1-1.54-3.8l26.261-11.98a3.29,3.29,0,0,1,4.526,1.065l.532,1.312c.59,1.445-.589,3.214-2.529,3.9Z" transform="translate(316.493 112.772)" fill="#ededed"/>
        <path id="Path_3438" data-name="Path 3438" d="M351.063,140.253l32.118-12.988-.266-.647a3.29,3.29,0,0,0-4.526-1.065l-26.261,11.98a2.092,2.092,0,0,0-1.065,2.624Z" transform="translate(316.395 112.754)" fill="#fff"/>
        <path id="Path_3439" data-name="Path 3439" d="M377.5,215.338H369l2.092-85a2.187,2.187,0,0,1,4.374,0Z" transform="translate(332.687 115.539)" fill="#fff"/>
        <path id="Path_3440" data-name="Path 3440" d="M375.5,215.284H371.22V128.21a2.187,2.187,0,0,1,2.187,2.149Z" transform="translate(334.689 115.593)" fill="#ededed"/>
        <circle id="Ellipse_170" data-name="Ellipse 170" cx="3.822" cy="3.822" r="3.822" transform="translate(702.086 233.249)" fill="#3e7b7a"/>
        <circle id="Ellipse_171" data-name="Ellipse 171" cx="2.282" cy="2.282" r="2.282" transform="translate(703.627 234.789)" fill="#569692"/>
        <path id="Path_3441" data-name="Path 3441" d="M418.738,181.2a9.511,9.511,0,0,1-.3,2.32h-47.54a9.187,9.187,0,0,1-.3-2.32A9.318,9.318,0,0,1,383.9,172.78a12.284,12.284,0,0,1,23.6-.742,9.2,9.2,0,0,1,1.9-.209,9.337,9.337,0,0,1,9.337,9.375Z" transform="translate(334.121 147.429)" fill="#fff"/>
        <path id="Path_3442" data-name="Path 3442" d="M162.2,206.984H139.84l3.8-69.484H158.4Z" transform="translate(126.078 123.969)" fill="#ededed"/>
        <path id="Path_3443" data-name="Path 3443" d="M151.116,137.5v69.484H139.84l3.8-69.484Z" transform="translate(126.078 123.969)" fill="#fff"/>
        <rect id="Rectangle_320" data-name="Rectangle 320" width="16.867" height="2.567" transform="translate(268.752 258.921)" fill="#ededed"/>
        <rect id="Rectangle_321" data-name="Rectangle 321" width="8.519" height="2.567" transform="translate(277.1 258.921)" fill="#d3d3d3"/>
        <path id="Path_3444" data-name="Path 3444" d="M179.746,146.955h0a44.136,44.136,0,0,1,44.079,44.117v7.4H135.61V191a44.136,44.136,0,0,1,44.136-44.136Z" transform="translate(122.265 132.408)" fill="#afafb8"/>
        <path id="Path_3445" data-name="Path 3445" d="M179.737,146.91v51.514H135.62v-7.473A44.117,44.117,0,0,1,179.737,146.91Z" transform="translate(122.274 132.453)" fill="#6d6d6e"/>
        <circle id="Ellipse_172" data-name="Ellipse 172" cx="4.241" cy="4.241" r="4.241" transform="translate(272.878 315.93)" fill="#343434"/>
        <path id="Path_3446" data-name="Path 3446" d="M151.346,182.868H143.74V170.2a3.8,3.8,0,0,1,3.8-3.8h0a3.8,3.8,0,0,1,3.8,3.8Z" transform="translate(129.595 150.025)" fill="#565656"/>
        <path id="Path_3447" data-name="Path 3447" d="M147.618,166.38v16.506h-3.9V170.221a3.8,3.8,0,0,1,3.8-3.8Z" transform="translate(129.577 150.007)" fill="#afafb8"/>
        <path id="Path_3448" data-name="Path 3448" d="M151.846,175.671H143.84a.38.38,0,0,1-.38-.38h0a.38.38,0,0,1,.38-.38h8.006a.38.38,0,0,1,.38.38h0A.38.38,0,0,1,151.846,175.671Z" transform="translate(129.342 157.697)" fill="#d3d3d3"/>
        <path id="Path_3449" data-name="Path 3449" d="M147.853,174.91v.761H143.84a.38.38,0,1,1,0-.761Z" transform="translate(129.342 157.697)" fill="#fff"/>
        <circle id="Ellipse_173" data-name="Ellipse 173" cx="4.241" cy="4.241" r="4.241" transform="translate(297.694 315.93)" fill="#343434"/>
        <path id="Path_3450" data-name="Path 3450" d="M164.4,182.868H156.79V170.2a3.8,3.8,0,0,1,3.8-3.8h0a3.8,3.8,0,0,1,3.8,3.8Z" transform="translate(141.36 150.025)" fill="#565656"/>
        <path id="Path_3451" data-name="Path 3451" d="M160.668,166.38v16.506h-3.9V170.221a3.8,3.8,0,0,1,3.8-3.8Z" transform="translate(141.342 150.007)" fill="#afafb8"/>
        <path id="Path_3452" data-name="Path 3452" d="M164.906,175.671H156.9a.38.38,0,0,1-.38-.38h0a.38.38,0,0,1,.38-.38h8.006a.38.38,0,0,1,.38.38h0A.38.38,0,0,1,164.906,175.671Z" transform="translate(141.117 157.697)" fill="#d3d3d3"/>
        <path id="Path_3453" data-name="Path 3453" d="M160.9,174.91v.761H156.89a.38.38,0,1,1,0-.761Z" transform="translate(141.108 157.697)" fill="#fff"/>
        <circle id="Ellipse_174" data-name="Ellipse 174" cx="4.241" cy="4.241" r="4.241" transform="translate(322.529 315.93)" fill="#343434"/>
        <path id="Path_3454" data-name="Path 3454" d="M177.456,182.868H169.85V170.2a3.8,3.8,0,0,1,3.8-3.8h0a3.8,3.8,0,0,1,3.8,3.8Z" transform="translate(153.135 150.025)" fill="#565656"/>
        <path id="Path_3455" data-name="Path 3455" d="M173.728,166.38v16.506h-3.9V170.221a3.8,3.8,0,0,1,3.8-3.8Z" transform="translate(153.117 150.007)" fill="#afafb8"/>
        <path id="Path_3456" data-name="Path 3456" d="M177.976,175.671H169.97a.38.38,0,0,1-.38-.38h0a.38.38,0,0,1,.38-.38h8.006a.38.38,0,0,1,.38.38h0A.38.38,0,0,1,177.976,175.671Z" transform="translate(152.901 157.697)" fill="#d3d3d3"/>
        <path id="Path_3457" data-name="Path 3457" d="M173.963,174.91v.761H169.95a.38.38,0,1,1,0-.761Z" transform="translate(152.883 157.697)" fill="#fff"/>
        <circle id="Ellipse_175" data-name="Ellipse 175" cx="15.84" cy="15.84" r="15.84" transform="translate(286.361 282.006)" fill="#ededed"/>
        <path id="Path_3458" data-name="Path 3458" d="M166.179,148.29v31.776a15.859,15.859,0,0,1,0-31.7Z" transform="translate(136.022 133.697)" fill="#fff"/>
        <path id="Path_3459" data-name="Path 3459" d="M163.886,164.815a7.283,7.283,0,0,1-7.283-7.283h.8l-2.016-1.9-2.016,1.9h.761a9.736,9.736,0,0,0,18.807,3.556h-2.719a7.283,7.283,0,0,1-6.332,3.727Z" transform="translate(138.277 140.315)" fill="#343434"/>
        <path id="Path_3460" data-name="Path 3460" d="M163.219,153.963a7.283,7.283,0,0,1,7.283,7.283h-.761l2.016,1.9,2.016-1.9h-.856a9.736,9.736,0,0,0-18.807-3.537h2.719a7.264,7.264,0,0,1,6.389-3.746Z" transform="translate(138.944 136.6)" fill="#343434"/>
        <path id="Path_3461" data-name="Path 3461" d="M163.9,164.815v2.453h0a9.736,9.736,0,0,1-9.736-9.736H153.4l2-1.9,2.016,1.9h-.8a7.283,7.283,0,0,0,7.283,7.283Z" transform="translate(138.304 140.315)" fill="#565656"/>
        <path id="Path_3462" data-name="Path 3462" d="M163.221,151.51v2.453h0a7.3,7.3,0,0,0-6.37,3.8h-2.7a9.736,9.736,0,0,1,9.071-6.18Z" transform="translate(138.98 136.6)" fill="#565656"/>
        <circle id="Ellipse_176" data-name="Ellipse 176" cx="30.483" cy="30.483" r="30.483" transform="translate(267.63 12.36)" fill="#b0b5c0"/>
        <path id="Path_3463" data-name="Path 3463" d="M171.217,6.49V67.474a30.492,30.492,0,1,1,0-60.984Z" transform="translate(126.876 5.851)" fill="#d3d3d3"/>
        <path id="Path_3464" data-name="Path 3464" d="M154.12,8.728,159.159,0l5.02,8.728Z" transform="translate(138.953)" fill="#d3d3d3"/>
        <path id="Path_3465" data-name="Path 3465" d="M167.58,9.205,177.3,6.6l-2.605,9.717Z" transform="translate(151.089 5.95)" fill="#d3d3d3"/>
        <path id="Path_3466" data-name="Path 3466" d="M174.71,19.88l8.709,5.039-8.709,5.039Z" transform="translate(157.517 17.924)" fill="#d3d3d3"/>
        <path id="Path_3467" data-name="Path 3467" d="M174.692,33.34l2.605,9.717-9.717-2.605Z" transform="translate(151.089 30.059)" fill="#d3d3d3"/>
        <path id="Path_3468" data-name="Path 3468" d="M164.179,40.47l-5.02,8.709L154.12,40.47Z" transform="translate(138.953 36.487)" fill="#d3d3d3"/>
        <path id="Path_3469" data-name="Path 3469" d="M150.557,40.452l-9.717,2.605,2.605-9.717Z" transform="translate(126.98 30.059)" fill="#d3d3d3"/>
        <path id="Path_3470" data-name="Path 3470" d="M142.968,29.958l-8.728-5.039,8.728-5.039Z" transform="translate(121.03 17.924)" fill="#d3d3d3"/>
        <path id="Path_3471" data-name="Path 3471" d="M143.445,16.317,140.84,6.6l9.717,2.605Z" transform="translate(126.98 5.95)" fill="#d3d3d3"/>
        <rect id="a" width="11.543" height="17.837" transform="translate(499.529 264.207)" fill="#ededed"/>
        <rect id="a-2" data-name="a" width="12.95" height="2.491" transform="translate(498.958 264.207)" fill="#343434"/>
        <path id="Path_3472" data-name="Path 3472" d="M307.7,204.171H237.68v-46.4l35.008-17.152L307.7,157.772Z" transform="translate(214.29 126.782)" fill="#ededed"/>
        <path id="Path_3473" data-name="Path 3473" d="M272.707,140.62v63.551H237.68v-46.4Z" transform="translate(214.29 126.782)" fill="#fff"/>
        <path id="Path_3474" data-name="Path 3474" d="M310.653,161.416l-36.568-17.685L237.8,161.416l-1.673-3.423,37.956-18.483,38.241,18.483Z" transform="translate(212.893 125.781)" fill="#343434"/>
        <rect id="Rectangle_322" data-name="Rectangle 322" width="15.688" height="20.632" transform="translate(461.554 290.943)" fill="#343434"/>
        <rect id="Rectangle_323" data-name="Rectangle 323" width="13.311" height="18.388" transform="translate(462.733 292.065)" fill="#565656"/>
        <rect id="Rectangle_324" data-name="Rectangle 324" width="1.312" height="19.206" transform="translate(468.742 291.666)" fill="#343434"/>
        <rect id="Rectangle_325" data-name="Rectangle 325" width="1.312" height="14.794" transform="translate(476.767 300.603) rotate(90)" fill="#343434"/>
        <path id="Path_3475" data-name="Path 3475" d="M252.532,173.632H242.72V153h5.667Z" transform="translate(218.834 137.943)" fill="#ededed"/>
        <rect id="Rectangle_326" data-name="Rectangle 326" width="15.688" height="20.632" transform="translate(496.81 290.943)" fill="#343434"/>
        <rect id="Rectangle_327" data-name="Rectangle 327" width="13.311" height="18.388" transform="translate(498.008 292.065)" fill="#565656"/>
        <rect id="Rectangle_328" data-name="Rectangle 328" width="1.312" height="19.206" transform="translate(503.998 291.666)" fill="#343434"/>
        <rect id="Rectangle_329" data-name="Rectangle 329" width="1.312" height="14.794" transform="translate(512.022 300.603) rotate(90)" fill="#343434"/>
        <path id="Path_3476" data-name="Path 3476" d="M271.091,173.632H261.26V153h5.667Z" transform="translate(235.55 137.943)" fill="#ededed"/>
        <path id="Path_3477" data-name="Path 3477" d="M274.229,139.586v4.2l-.133-.057-36.3,17.685-1.654-3.423,37.937-18.483Z" transform="translate(212.902 125.781)" fill="#565656"/>
        <rect id="Rectangle_330" data-name="Rectangle 330" width="5.629" height="10.991" transform="translate(540.223 332.132)" fill="#fff"/>
        <rect id="Rectangle_331" data-name="Rectangle 331" width="2.814" height="10.991" transform="translate(543.037 332.132)" fill="#ddd"/>
        <rect id="Rectangle_332" data-name="Rectangle 332" width="55.526" height="37.766" transform="translate(515.388 299.653)" fill="#343434"/>
        <rect id="Rectangle_333" data-name="Rectangle 333" width="15.802" height="15.802" transform="translate(517.366 301.516)" fill="#427880"/>
        <rect id="Rectangle_334" data-name="Rectangle 334" width="15.802" height="15.802" transform="translate(535.127 301.516)" fill="#565656"/>
        <rect id="Rectangle_335" data-name="Rectangle 335" width="15.802" height="15.802" transform="translate(552.888 301.516)" fill="#565656"/>
        <rect id="Rectangle_336" data-name="Rectangle 336" width="15.802" height="15.802" transform="translate(517.366 319.467)" fill="#427880"/>
        <rect id="Rectangle_337" data-name="Rectangle 337" width="15.802" height="15.802" transform="translate(535.127 319.467)" fill="#565656"/>
        <rect id="Rectangle_338" data-name="Rectangle 338" width="15.802" height="15.802" transform="translate(552.888 319.467)" fill="#565656"/>
        <path id="Path_3478" data-name="Path 3478" d="M301.931,195.346h-30.9V157.58h23.846Z" transform="translate(244.358 142.073)" fill="#ededed"/>
        <rect id="Rectangle_339" data-name="Rectangle 339" width="7.93" height="0.932" transform="translate(539.063 343.104)" fill="#ddd"/>
        <rect id="Rectangle_340" data-name="Rectangle 340" width="3.974" height="0.932" transform="translate(543.037 343.104)" fill="#bcbcbc"/>
        <rect id="Rectangle_341" data-name="Rectangle 341" width="5.629" height="10.991" transform="translate(600.903 332.132)" fill="#fff"/>
        <rect id="Rectangle_342" data-name="Rectangle 342" width="2.814" height="10.991" transform="translate(603.717 332.132)" fill="#ddd"/>
        <rect id="Rectangle_343" data-name="Rectangle 343" width="55.526" height="37.766" transform="translate(576.068 299.653)" fill="#343434"/>
        <rect id="Rectangle_344" data-name="Rectangle 344" width="15.802" height="15.802" transform="translate(578.065 301.516)" fill="#427880"/>
        <rect id="Rectangle_345" data-name="Rectangle 345" width="15.802" height="15.802" transform="translate(595.826 301.516)" fill="#565656"/>
        <path id="Path_3513" data-name="Path 3513" d="M0,0H15.8V15.8H0Z" transform="translate(613.567 301.516)" fill="#565656"/>
        <rect id="Rectangle_347" data-name="Rectangle 347" width="15.802" height="15.802" transform="translate(578.065 319.467)" fill="#427880"/>
        <rect id="Rectangle_348" data-name="Rectangle 348" width="15.802" height="15.802" transform="translate(595.826 319.467)" fill="#565656"/>
        <rect id="Rectangle_349" data-name="Rectangle 349" width="15.802" height="15.802" transform="translate(613.567 319.467)" fill="#565656"/>
        <path id="Path_3479" data-name="Path 3479" d="M333.86,195.346H302.94V157.58H326.8Z" transform="translate(273.128 142.073)" fill="#ededed"/>
        <rect id="Rectangle_350" data-name="Rectangle 350" width="7.93" height="0.932" transform="translate(599.762 343.104)" fill="#ddd"/>
        <rect id="Rectangle_351" data-name="Rectangle 351" width="3.974" height="0.932" transform="translate(603.717 343.104)" fill="#bcbcbc"/>
        <rect id="Rectangle_352" data-name="Rectangle 352" width="5.629" height="10.991" transform="translate(661.602 332.132)" fill="#fff"/>
        <rect id="Rectangle_353" data-name="Rectangle 353" width="2.814" height="10.991" transform="translate(664.416 332.132)" fill="#ddd"/>
        <rect id="Rectangle_354" data-name="Rectangle 354" width="55.526" height="37.766" transform="translate(636.767 299.653)" fill="#343434"/>
        <rect id="Rectangle_355" data-name="Rectangle 355" width="15.802" height="15.802" transform="translate(638.763 301.516)" fill="#427880"/>
        <rect id="Rectangle_356" data-name="Rectangle 356" width="15.802" height="15.802" transform="translate(656.505 301.516)" fill="#565656"/>
        <rect id="Rectangle_357" data-name="Rectangle 357" width="15.802" height="15.802" transform="translate(674.266 301.516)" fill="#565656"/>
        <rect id="Rectangle_358" data-name="Rectangle 358" width="15.802" height="15.802" transform="translate(638.763 319.467)" fill="#427880"/>
        <rect id="Rectangle_359" data-name="Rectangle 359" width="15.802" height="15.802" transform="translate(656.505 319.467)" fill="#565656"/>
        <rect id="Rectangle_360" data-name="Rectangle 360" width="15.802" height="15.802" transform="translate(674.266 319.467)" fill="#565656"/>
        <path id="Path_3480" data-name="Path 3480" d="M365.78,195.346H334.86V157.58h23.846Z" transform="translate(301.907 142.073)" fill="#ededed"/>
        <rect id="Rectangle_361" data-name="Rectangle 361" width="7.93" height="0.932" transform="translate(660.442 343.104)" fill="#ddd"/>
        <rect id="Rectangle_362" data-name="Rectangle 362" width="3.974" height="0.932" transform="translate(664.416 343.104)" fill="#bcbcbc"/>
        <path id="Path_3481" data-name="Path 3481" d="M404.355,69.587a23.313,23.313,0,0,1-13.918,21.335,5.039,5.039,0,0,0-2.017,1.636,4.982,4.982,0,0,0-.894,2.282l-.361,2.738a19.928,19.928,0,0,1-3.385.78q-.78.114-1.578.152h-3.1l-1.35-.19h0a19.815,19.815,0,0,1-2.757-.666l-.361-2.738v-.171a4.964,4.964,0,0,0-.894-2.187,4.509,4.509,0,0,0-.494-.57h0a4.884,4.884,0,0,0-.894-.7,4.64,4.64,0,0,0-.628-.323l-.437-.19-.418-.209a22.822,22.822,0,0,1-3.233-1.9,23.41,23.41,0,0,1-3.518-3.043h0a23.237,23.237,0,0,1-.647-31.243,19.481,19.481,0,0,1,1.578-1.654,23.774,23.774,0,0,1,2.51-2.073h0a23.58,23.58,0,0,1,3.974-2.358,23.106,23.106,0,0,1,2.206-.856l.818-.247h0a22.824,22.824,0,0,1,3.575-.723h.494a13.369,13.369,0,0,0,1.73-.114h.8a13.212,13.212,0,0,1,2.13.114h.513a22.821,22.821,0,0,1,3.518.7h0a23.352,23.352,0,0,1,16.145,16.392h0A23.351,23.351,0,0,1,404.355,69.587Z" transform="translate(322.547 41.789)" fill="#fff"/>
        <path id="Path_3482" data-name="Path 3482" d="M375.657,98.393h-.837l-1.35-.19h0a19.812,19.812,0,0,1-2.757-.666l-.361-2.738v-.171a4.963,4.963,0,0,0-.894-2.187,4.506,4.506,0,0,0-.494-.57h0a4.887,4.887,0,0,0-.894-.7,4.642,4.642,0,0,0-.628-.323h-.19l-.3-.3c-3.974-11.41-8.728-31.547,2.605-43.09h0l.818-.247h0a22.817,22.817,0,0,1,3.575-.723h.494C374.268,46.613,365.084,63.594,375.657,98.393Z" transform="translate(326.81 41.906)" fill="#344056"/>
        <path id="Path_3483" data-name="Path 3483" d="M367.564,86.556h0A23.275,23.275,0,0,1,357.751,67.9a23.028,23.028,0,0,1,.78-6.332,23.447,23.447,0,0,1,6.5-10.9,23.684,23.684,0,0,1,2.51-2.073h0C367.031,49.19,354.88,63.585,367.564,86.556Z" transform="translate(322.543 43.817)" fill="#344056"/>
        <path id="Path_3484" data-name="Path 3484" d="M370.61,98.411h0a6.331,6.331,0,0,0,.856,0l1.35-.19h0a19.868,19.868,0,0,0,2.757-.685l.361-2.738v-.1a4.982,4.982,0,0,1,.894-2.187,4.571,4.571,0,0,1,.494-.571h0a4.889,4.889,0,0,1,.894-.7,4.976,4.976,0,0,1,.8-.4l.285-.3c3.974-11.41,8.728-31.566-2.643-43.109l-.818-.247h0a22.708,22.708,0,0,0-3.575-.723h-.494S381.278,63.27,370.61,98.411Z" transform="translate(334.139 41.888)" fill="#344056"/>
        <path id="Path_3485" data-name="Path 3485" d="M377.13,86.556A23.276,23.276,0,0,0,386.942,67.9a23.026,23.026,0,0,0-.78-6.332,23.446,23.446,0,0,0-6.5-10.9,23.881,23.881,0,0,0-2.51-2.073C377.377,48.885,389.928,63.337,377.13,86.556Z" transform="translate(340.017 43.817)" fill="#344056"/>
        <path id="Path_3486" data-name="Path 3486" d="M378.743,74.557h-11.41a.7.7,0,0,1-.7-.7h0a.7.7,0,0,1,.7-.7h11.41a.7.7,0,0,1,.7.7h0a.7.7,0,0,1-.7.7Z" transform="translate(330.55 65.951)" fill="#fff"/>
        <path id="Path_3487" data-name="Path 3487" d="M402.688,64.642c-.323-.133-8.177-3.233-22.077-3.233a66.308,66.308,0,0,0-22.077,3.233.513.513,0,0,0,.19.97h.418l17.438,31.6h-.551a.171.171,0,0,0-.171.171h0a.171.171,0,0,0,.171.171h.247v2.852a3.5,3.5,0,0,0,3.5,3.5h1.73a3.5,3.5,0,0,0,3.5-3.5V97.558h.247a.171.171,0,0,0,.171-.171h0a.171.171,0,0,0-.171-.171h-.628L402.08,65.573l.266.1a.513.513,0,0,0,.38-.932ZM380.4,97.121h-1.388l-9.508-33.962a81.1,81.1,0,0,1,10.877-.742Zm.4,0v-34.7a82.014,82.014,0,0,1,10.82.723l-9.508,33.981ZM359.5,65.383a56.1,56.1,0,0,1,9.679-2.168L378.69,97.1h-1.559Zm24.626,31.738h-1.635L392,63.2a54.173,54.173,0,0,1,9.6,2.149Z" transform="translate(322.997 55.349)" fill="#18191b"/>
        <path id="Path_3488" data-name="Path 3488" d="M129.686,96.008a23.313,23.313,0,0,1-13.918,21.335,4.946,4.946,0,0,0-2.911,3.918L112.5,124a19.946,19.946,0,0,1-3.385.78q-.78.114-1.578.152h-3.1l-1.35-.19h0a19.83,19.83,0,0,1-2.757-.666l-.361-2.738v-.1a4.963,4.963,0,0,0-.894-2.187,4.525,4.525,0,0,0-.494-.57h0a4.884,4.884,0,0,0-.894-.7,4.637,4.637,0,0,0-.628-.323l-.437-.19-.494-.342a22.824,22.824,0,0,1-3.233-1.9,23.411,23.411,0,0,1-3.442-3h0A23.237,23.237,0,0,1,88.783,80.8a19.468,19.468,0,0,1,1.578-1.654,23.772,23.772,0,0,1,2.51-2.073h0A23.579,23.579,0,0,1,96.94,74.73a23.043,23.043,0,0,1,2.206-.856l.818-.247h0a22.821,22.821,0,0,1,3.575-.723h.494a13.37,13.37,0,0,0,1.73-.114h.8a13.213,13.213,0,0,1,2.13.114h.513a22.818,22.818,0,0,1,3.518.7h0A23.351,23.351,0,0,1,128.868,90h0a23.332,23.332,0,0,1,.818,6.009Z" transform="translate(74.906 65.627)" fill="#acb1bd"/>
        <path id="Path_3489" data-name="Path 3489" d="M100.976,124.817h-.837l-1.35-.19h0a19.832,19.832,0,0,1-2.757-.666l-.361-2.738v-.1a4.963,4.963,0,0,0-.894-2.187,4.523,4.523,0,0,0-.494-.57h0a4.888,4.888,0,0,0-.894-.7,4.639,4.639,0,0,0-.628-.323h-.19l-.3-.3c-3.974-11.41-8.728-31.547,2.605-43.09h0l.818-.247h0a22.82,22.82,0,0,1,3.575-.723h.494C99.588,73.018,90.423,90.018,100.976,124.817Z" transform="translate(79.161 65.798)" fill="#fff"/>
        <path id="Path_3490" data-name="Path 3490" d="M92.894,113h0a23.275,23.275,0,0,1-9.812-18.655,23.008,23.008,0,0,1,.78-6.332A23.5,23.5,0,0,1,92.875,75.04h0C92.437,75.668,80.21,90.082,92.894,113Z" transform="translate(74.903 67.655)" fill="#fff"/>
        <path id="Path_3491" data-name="Path 3491" d="M95.94,124.871H96.8l1.35-.19h0A19.827,19.827,0,0,0,100.9,124l.361-2.738v-.1a4.964,4.964,0,0,1,.894-2.187,4.6,4.6,0,0,1,.494-.571h0a4.889,4.889,0,0,1,.894-.7,5,5,0,0,1,.8-.4l.285-.3c3.974-11.41,8.728-31.566-2.643-43.109l-.818-.247h0a22.818,22.818,0,0,0-3.575-.723H97.1S106.589,89.73,95.94,124.871Z" transform="translate(86.499 65.744)" fill="#fff"/>
        <path id="Path_3492" data-name="Path 3492" d="M102.45,113a23.275,23.275,0,0,0,9.812-18.655,23.029,23.029,0,0,0-.78-6.332,23.447,23.447,0,0,0-6.5-10.9,23.881,23.881,0,0,0-2.51-2.073C102.716,75.363,115.267,89.815,102.45,113Z" transform="translate(92.368 67.655)" fill="#fff"/>
        <path id="Path_3493" data-name="Path 3493" d="M104.175,101.017H92.614a.7.7,0,0,1-.7-.7h0a.7.7,0,0,1,.7-.7h11.562a.7.7,0,0,1,.7.7h0a.7.7,0,0,1-.7.7Z" transform="translate(82.865 89.807)" fill="#fff"/>
        <path id="Path_3494" data-name="Path 3494" d="M128.018,91.1c-.323-.133-8.177-3.233-22.077-3.233A66.309,66.309,0,0,0,83.864,91.12a.513.513,0,0,0,.19.97h.19l.133-.152,17.438,31.6h-.551a.171.171,0,0,0-.171.171h0a.171.171,0,0,0,.171.171h.228v2.852a3.5,3.5,0,0,0,3.5,3.5h1.73a3.5,3.5,0,0,0,3.5-3.5v-2.852h.247a.171.171,0,0,0,.171-.171h0a.171.171,0,0,0-.171-.171h-.628l17.514-31.6.266.1A.513.513,0,0,0,128,91.1ZM105.732,123.58h-1.388L94.836,89.618a81.1,81.1,0,0,1,10.877-.742Zm.4,0v-34.7a82.054,82.054,0,0,1,10.82.723l-9.508,33.981Zm-21.3-31.738a56.079,56.079,0,0,1,9.6-2.149l9.508,33.886h-1.559Zm24.626,31.738H107.9l9.508-33.924a54.2,54.2,0,0,1,9.6,2.149Z" transform="translate(75.357 79.206)" fill="#3e7b7a"/>
        <path id="Path_3495" data-name="Path 3495" d="M150.853,181.917a7.987,7.987,0,0,1-.247,1.9h-40.2a7.74,7.74,0,0,1-.266-1.9A7.873,7.873,0,0,1,121.4,174.8a10.364,10.364,0,0,1,19.91-.589,7.779,7.779,0,0,1,1.654-.171,7.873,7.873,0,0,1,7.892,7.873Z" transform="translate(99.301 150.577)" fill="#b0b5c0"/>
        <path id="Path_3496" data-name="Path 3496" d="M153.965,180.7a6.351,6.351,0,0,1-.209,1.559H121.809a6.161,6.161,0,0,1-.209-1.559,6.256,6.256,0,0,1,8.937-5.7,8.234,8.234,0,0,1,15.821-.456,6.179,6.179,0,0,1,1.312-.133,6.256,6.256,0,0,1,6.294,6.294Z" transform="translate(109.633 152.193)" fill="#343434"/>
        <path id="Path_3497" data-name="Path 3497" d="M216.9,179.443l-1.483-2.529a14.68,14.68,0,0,0-12.665-7.264H196.34a16.165,16.165,0,0,0-13.96,8.009l-1.044,1.8a2.472,2.472,0,0,1-2.149,1.236h-3a4.393,4.393,0,0,0-4.393,4.393h0a4.393,4.393,0,0,0,4.393,4.393H222.03a4.393,4.393,0,0,0,4.393-4.393h0a4.393,4.393,0,0,0-4.393-4.393h-3a2.472,2.472,0,0,1-2.13-1.255Z" transform="translate(154.884 152.955)" fill="#7a7b7d"/>
        <path id="Path_3498" data-name="Path 3498" d="M199.354,169.65v19.8H176.193a4.393,4.393,0,0,1,0-8.785h3a2.453,2.453,0,0,0,2.13-1.217l1.065-1.806a16.145,16.145,0,0,1,13.939-7.987Z" transform="translate(154.893 152.955)" fill="#9d9d9d"/>
        <path id="Path_3499" data-name="Path 3499" d="M192.34,179.05a.989.989,0,0,1-.989.989H178.8a.742.742,0,0,1-.647-1.1l.951-1.73a13.311,13.311,0,0,1,11.581-6.846h.932a.723.723,0,0,1,.723.723Z" transform="translate(160.538 153.595)" fill="#343434"/>
        <path id="Path_3500" data-name="Path 3500" d="M190.391,177.649a.989.989,0,0,1-.989.989h-9.641a.742.742,0,0,1-.647-1.1l.361-.647a11.638,11.638,0,0,1,10.212-6.028h0a.723.723,0,0,1,.723.723Z" transform="translate(161.403 154.046)" fill="#565656"/>
        <path id="Path_3501" data-name="Path 3501" d="M187,179.014a.989.989,0,0,0,.989.989h12.55a.742.742,0,0,0,.647-1.1l-.875-1.654A13.311,13.311,0,0,0,188.73,170.4H187.8a.723.723,0,0,0-.723.723Z" transform="translate(168.597 153.631)" fill="#343434"/>
        <path id="Path_3502" data-name="Path 3502" d="M187.549,177.649a.989.989,0,0,0,.989.989h9.641a.742.742,0,0,0,.647-1.1l-.361-.647a11.638,11.638,0,0,0-10.212-6.028h0a.723.723,0,0,0-.723.723Z" transform="translate(169.075 154.046)" fill="#565656"/>
        <circle id="Ellipse_177" data-name="Ellipse 177" cx="5.591" cy="5.591" r="5.591" transform="translate(332.493 336.772)" fill="#e1e1e1"/>
        <circle id="Ellipse_178" data-name="Ellipse 178" cx="3.708" cy="3.708" r="3.708" transform="translate(334.376 338.654)" fill="#565656"/>
        <circle id="Ellipse_179" data-name="Ellipse 179" cx="5.591" cy="5.591" r="5.591" transform="translate(364.288 336.772)" fill="#e1e1e1"/>
        <circle id="Ellipse_180" data-name="Ellipse 180" cx="3.708" cy="3.708" r="3.708" transform="translate(366.17 338.654)" fill="#565656"/>
        <path id="Path_3503" data-name="Path 3503" d="M272.047,179.443l-1.483-2.529A14.68,14.68,0,0,0,257.9,169.65H251.51a16.165,16.165,0,0,0-13.96,8.009l-1.044,1.8a2.472,2.472,0,0,1-2.149,1.236h-3a4.393,4.393,0,0,0-4.393,4.393h0a4.393,4.393,0,0,0,4.393,4.393H277.2a4.393,4.393,0,0,0,4.393-4.393h0A4.393,4.393,0,0,0,277.2,180.7h-3a2.472,2.472,0,0,1-2.149-1.255Z" transform="translate(204.625 152.955)" fill="#7a7b7d"/>
        <path id="Path_3504" data-name="Path 3504" d="M254.524,169.65v19.8H231.363a4.393,4.393,0,0,1,0-8.785h3a2.453,2.453,0,0,0,2.13-1.217l1.065-1.806A16.145,16.145,0,0,1,251.5,169.65Z" transform="translate(204.634 152.955)" fill="#9d9d9d"/>
        <path id="Path_3505" data-name="Path 3505" d="M247.5,179.05a.989.989,0,0,1-.989.989H233.961a.742.742,0,0,1-.647-1.1l.951-1.73a13.311,13.311,0,0,1,11.581-6.846h.932a.723.723,0,0,1,.723.723Z" transform="translate(210.27 153.595)" fill="#383838"/>
        <path id="Path_3506" data-name="Path 3506" d="M245.591,177.649a.989.989,0,0,1-.989.989h-9.641a.742.742,0,0,1-.647-1.1l.361-.647a11.638,11.638,0,0,1,10.212-6.028h0a.723.723,0,0,1,.723.723Z" transform="translate(211.171 154.046)" fill="#565656"/>
        <path id="Path_3507" data-name="Path 3507" d="M242.17,179.05a.989.989,0,0,0,.989.989h12.551a.742.742,0,0,0,.647-1.1l-.951-1.73a13.311,13.311,0,0,0-11.581-6.846h-.932a.723.723,0,0,0-.723.723Z" transform="translate(218.338 153.595)" fill="#383838"/>
        <path id="Path_3508" data-name="Path 3508" d="M242.719,177.649a.989.989,0,0,0,.989.989h9.641a.742.742,0,0,0,.647-1.1l-.361-.647a11.638,11.638,0,0,0-10.212-6.028h0a.723.723,0,0,0-.723.723Z" transform="translate(218.816 154.046)" fill="#565656"/>
        <circle id="Ellipse_181" data-name="Ellipse 181" cx="5.591" cy="5.591" r="5.591" transform="translate(437.385 336.772)" fill="#383838"/>
        <circle id="Ellipse_182" data-name="Ellipse 182" cx="3.708" cy="3.708" r="3.708" transform="translate(439.268 338.654)" fill="#565656"/>
        <circle id="Ellipse_183" data-name="Ellipse 183" cx="5.591" cy="5.591" r="5.591" transform="translate(469.199 336.772)" fill="#383838"/>
        <circle id="Ellipse_184" data-name="Ellipse 184" cx="3.708" cy="3.708" r="3.708" transform="translate(471.081 338.654)" fill="#565656"/>
        <path id="Path_3514" data-name="Path 3514" d="M17.038,0A17.038,17.038,0,1,1,0,17.038,17.038,17.038,0,0,1,17.038,0Z" transform="translate(707.772 290.924)" fill="#343434"/>
        <path id="Path_3509" data-name="Path 3509" d="M388.464,153.009v34.038a17.114,17.114,0,0,1,0-34.057Z" transform="translate(336.346 137.934)" fill="#565656"/>
        <path id="Path_3510" data-name="Path 3510" d="M389.272,167.916a1.008,1.008,0,0,0-1.426,0l-3.8,3.29v-4.564a1.017,1.017,0,1,0-2.035,0v1.521l-1.293-1.141a1.011,1.011,0,0,0-1.331,1.521l2.605,2.282v10.725h2.035v-7.816l5.1-4.469a1.027,1.027,0,0,0,.342-.761,1.066,1.066,0,0,0-.19-.59Z" transform="translate(341.738 149.326)" fill="#565656"/>
        <path id="Path_3511" data-name="Path 3511" d="M383.037,165.58v16.011h-1.008V170.714l-2.605-2.282a1.011,1.011,0,1,1,1.331-1.521l1.293,1.141v-1.521a1.008,1.008,0,0,1,.989-.951Z" transform="translate(341.774 149.285)" fill="#343434"/>
      </g>
    </g>
  </g>
</svg>
