<svg xmlns="http://www.w3.org/2000/svg" xmlns:svgjs="http://svgjs.com/svgjs" xmlns:xlink="http://www.w3.org/1999/xlink" width="288" height="288"><svg xmlns="http://www.w3.org/2000/svg" width="288" height="288" viewBox="0 0 667.293 400.548"><g class="color000 svgShape" transform="translate(-683.372 -116.416)"><path fill="#455a64" d="M695.665,469.2c0-1.244-143.578-2.247-320.65-2.247-177.133,0-320.68,1-320.68,2.247s143.547,2.246,320.68,2.246C552.087,471.443,695.665,470.441,695.665,469.2Z" class="color455a64 svgShape" transform="translate(655 45.521)"/><g class="color000 svgShape" transform="translate(655 49)"><rect width="466.898" height="329.388" fill="#fafafa" class="colorfafafa svgShape" rx="8.687" transform="translate(115.662 67.657)"/><rect width="43.365" height="329.313" fill="#0a80ef" class="colore8505b svgShape" rx="9.646" transform="translate(115.475 67.994)"/><path fill="#263238" d="M524.176,98.722a1.289,1.289,0,0,1,.227-.137,1.92,1.92,0,0,0,.537-.492,4.363,4.363,0,0,0,.735-2.58,8.148,8.148,0,0,1,.358-1.941,2.688,2.688,0,0,1,1.531-1.747,2.743,2.743,0,0,1,2.556.334,3.866,3.866,0,0,1,1.209,2.466,9.116,9.116,0,0,1,.106,1.22,2.764,2.764,0,0,0,.136,1.069,4.084,4.084,0,0,0,1.245,1.627l.5.408-.632,0c-2.559-.008-4.767-.109-6.242-.162l-2.263-.063,2.51-.064c1.533-.053,3.577-.154,6-.162l-.136.406a4.463,4.463,0,0,1-1.418-1.823,3.213,3.213,0,0,1-.171-1.22,8.9,8.9,0,0,0-.1-1.159,3.455,3.455,0,0,0-1.026-2.171,2.181,2.181,0,0,0-3.418,1.178,8.212,8.212,0,0,0-.4,1.841,6.711,6.711,0,0,1-.3,1.6,3.164,3.164,0,0,1-.626,1.071,1.72,1.72,0,0,1-.637.459.38.38,0,0,1-.184.04A.375.375,0,0,0,524.176,98.722Z" class="color263238 svgShape"/><path fill="#0a80ef" fill-rule="evenodd" d="M529.029,93.059a1.826,1.826,0,1,0,1.826-1.825A1.826,1.826,0,0,0,529.029,93.059Z" class="colore8505b svgShape"/><path fill="#263238" fill-rule="evenodd" d="M527.288,99.882H529.8a1.235,1.235,0,0,1-1.369,1.277A1.042,1.042,0,0,1,527.288,99.882Z" class="color263238 svgShape"/><rect width="19.345" height="19.345" fill="#0a80ef" class="colore8505b svgShape" rx="4.514" transform="translate(542.716 86.917)"/><path fill="#fafafa" d="M143.4,138.375a.344.344,0,0,1-.232-.09l-6.218-5.628-6.219,5.628a.346.346,0,1,1-.465-.513l6.451-5.839a.345.345,0,0,1,.465,0l6.451,5.839a.346.346,0,0,1-.233.6Z" class="colorfafafa svgShape"/><path fill="#fafafa" d="M141.637 143.3h-9.365a.347.347 0 01-.347-.347v-6.516a.347.347 0 01.694 0v6.17h8.672v-6.17a.346.346 0 11.693 0v6.516A.347.347 0 01141.637 143.3zM143.058 187.751H130.851a.347.347 0 01-.347-.347v-7.786a1.754 1.754 0 011.751-1.752h3.175a1.968 1.968 0 011.819 1.21l.546 1.3h3.858a1.754 1.754 0 011.752 1.751V187.4A.348.348 0 01143.058 187.751zm-11.86-.694h11.513v-4.928a1.06 1.06 0 00-1.058-1.058h-4.088a.347.347 0 01-.32-.213l-.635-1.513a1.277 1.277 0 00-1.18-.786h-3.175a1.059 1.059 0 00-1.057 1.059z" class="colorfafafa svgShape"/><rect width="42.966" height="35.988" fill="#fafafa" class="colorfafafa svgShape" rx="3.185" transform="translate(121.228 210.051)"/><path fill="#0a80ef" d="M133.5,234.26a.924.924,0,0,1-.912-1.068l.51-3.245a.228.228,0,0,0-.064-.2l-2.321-2.327a.924.924,0,0,1,.509-1.564l3.244-.517a.231.231,0,0,0,.168-.122l1.5-2.927a.96.96,0,0,1,1.645,0l1.494,2.926a.231.231,0,0,0,.168.123l3.245.517a.924.924,0,0,1,.509,1.564l-2.321,2.326a.231.231,0,0,0-.065.2l.511,3.245a.923.923,0,0,1-1.331.967l-2.928-1.488a.237.237,0,0,0-.208,0l-2.929,1.488A.92.92,0,0,1,133.5,234.26Zm3.452-2.307a.936.936,0,0,1,.419.1l2.927,1.489a.228.228,0,0,0,.24-.02.224.224,0,0,0,.092-.222l-.51-3.245a.924.924,0,0,1,.259-.8l2.319-2.325a.225.225,0,0,0,.056-.234.222.222,0,0,0-.182-.156l-3.244-.518a.926.926,0,0,1-.678-.492l-1.494-2.925h0a.23.23,0,0,0-.409,0l-1.495,2.926a.924.924,0,0,1-.677.491l-3.244.518a.23.23,0,0,0-.127.39l2.321,2.326a.926.926,0,0,1,.259.794l-.511,3.246a.231.231,0,0,0,.331.242l2.929-1.489A.933.933,0,0,1,136.955,231.953Z" class="colore8505b svgShape"/><path fill="#fafafa" d="M143.764,277.949h-13.71a.346.346,0,0,1-.346-.347v-8.644a.346.346,0,0,1,.346-.346h13.71a.346.346,0,0,1,.347.346V277.6A.347.347,0,0,1,143.764,277.949Zm-13.363-.693h13.017V269.3H130.4Z" class="colorfafafa svgShape"/><path fill="#fafafa" d="M137.077,275.519a.352.352,0,0,1-.23-.086l-7.022-6.214a.347.347,0,0,1,.459-.521l6.787,6.007,6.457-6a.347.347,0,1,1,.473.507l-6.688,6.214A.346.346,0,0,1,137.077,275.519Z" class="colorfafafa svgShape"/><path fill="#fafafa" d="M130.252 277.572a.347.347 0 01-.245-.593l4.17-4.17a.347.347 0 11.491.491l-4.171 4.171A.348.348 0 01130.252 277.572zM143.854 277.859a.348.348 0 01-.245-.1l-4.458-4.458a.347.347 0 11.491-.491l4.457 4.457a.347.347 0 01-.245.593z" class="colorfafafa svgShape"/><path fill="#0a80ef" d="M284.395 108.606c7.12-5.58 13.411-12.441 21.582-16.325 14.047-6.678 30.628-3.292 45.622.844s30.835 8.92 45.8 4.67c13.865-3.939 24.9-16.127 27.984-30.138H168c3.425 28.456 24.879 51.922 53.392 56.853q.891.154 1.785.287A81.16 81.16 0 00284.395 108.606zM459.062 94.053c7.247 6.579 17.814 8.368 27.537 7.243 6.541-.756 13.193-2.842 17.919-7.428a22.936 22.936 0 006.119-20.592 24.766 24.766 0 00-1.844-5.619H455.2C449.27 75.413 451.829 87.486 459.062 94.053z" class="colore8505b svgShape"/><g class="color000 svgShape" opacity=".8"><path fill="#fff" d="M284.395 108.606c7.12-5.58 13.411-12.441 21.582-16.325 14.047-6.678 30.628-3.292 45.622.844s30.835 8.92 45.8 4.67c13.865-3.939 24.9-16.127 27.984-30.138H168c3.425 28.456 24.879 51.922 53.392 56.853q.891.154 1.785.287A81.16 81.16 0 00284.395 108.606zM459.062 94.053c7.247 6.579 17.814 8.368 27.537 7.243 6.541-.756 13.193-2.842 17.919-7.428a22.936 22.936 0 006.119-20.592 24.766 24.766 0 00-1.844-5.619H455.2C449.27 75.413 451.829 87.486 459.062 94.053z" class="colorfff svgShape"/></g><path fill="none" d="M512.542,92.878a3.684,3.684,0,0,1,.956.253l.7-.59,1.207.92-.38.834a3.715,3.715,0,0,1,.5.855l.914.081.2,1.5-.859.321a3.731,3.731,0,0,1-.253.957l.59.7-.92,1.208-.835-.38a3.708,3.708,0,0,1-.855.5l-.08.913-1.5.205-.321-.859a3.732,3.732,0,0,1-.957-.253l-.7.589-1.208-.919.38-.835a3.73,3.73,0,0,1-.5-.855l-.914-.08-.2-1.5.859-.321a3.742,3.742,0,0,1,.253-.957l-.589-.7.919-1.208.835.381a3.712,3.712,0,0,1,.855-.5l.08-.913,1.5-.2.322.859Zm-.452,2.074a1.629,1.629,0,1,0,1.636,1.246A1.629,1.629,0,0,0,512.09,94.952Z"/><path fill="#263238" d="M512.09,94.952c0-.028.144-.081.42-.054a1.645,1.645,0,0,1,1.027.548,1.79,1.79,0,0,1,.364,1.708,1.84,1.84,0,0,1-3.476.112,1.794,1.794,0,0,1,.254-1.728,1.642,1.642,0,0,1,.99-.613c.273-.042.422,0,.421.027.032.086-.65.065-1.133.784a1.477,1.477,0,0,0-.119,1.366,1.416,1.416,0,0,0,2.642-.086,1.48,1.48,0,0,0-.206-1.355A2.314,2.314,0,0,0,512.09,94.952Z" class="color263238 svgShape"/><path fill="#263238" d="M512.542,92.878a4.3,4.3,0,0,1-.394-.832l.083.049-1.5.249.105-.11-.061.915-.006.082-.081.036a3.608,3.608,0,0,0-.812.493l-.073.058-.09-.039-.84-.369.207-.052q-.43.581-.9,1.219l-.006-.237.6.7.078.09-.046.113a3.569,3.569,0,0,0-.231.907l-.014.123-.119.046-.857.327.138-.23c.067.474.14.983.213,1.5l-.2-.193.914.076.137.012.054.128a3.53,3.53,0,0,0,.471.8l.087.11-.059.13-.378.836-.071-.286,1.209.917-.3.007c.222-.187.461-.388.7-.59l.111-.094.135.056a3.549,3.549,0,0,0,.894.236h0l.2.154h0v0l0,.007,0,.014.01.027.02.054.041.108.08.216.16.427-.258-.154,1.505-.2-.205.216c.027-.308.055-.612.082-.914l.013-.143.132-.054a3.5,3.5,0,0,0,.8-.464l.113-.087.127.058.833.384-.277.07.925-1.2.007.277-.585-.708-.084-.1.05-.119a3.5,3.5,0,0,0,.245-.9l.017-.126.117-.043.862-.314-.128.215c-.066-.528-.129-1.028-.189-1.506l.167.158-.913-.091-.106-.011-.038-.095a3.567,3.567,0,0,0-.464-.824l-.059-.079.04-.084.4-.828.043.172-1.187-.947.135,0-.723.566-.038.03-.041-.018c-.6-.264-.935-.288-.927-.324a.527.527,0,0,1,.249,0,3.228,3.228,0,0,1,.737.182l-.079.012.683-.612.062-.056.073.052c.362.263.766.557,1.229.892l.09.066-.047.107c-.115.263-.235.539-.366.841l-.019-.163a3.875,3.875,0,0,1,.533.886l-.144-.106.914.069.145.011.022.148c.07.478.143.976.219,1.5l.023.157-.151.058-.856.328.134-.169a3.934,3.934,0,0,1-.26,1.013l-.034-.221.593.7.114.134-.107.143-.913,1.212-.11.146-.168-.076-.836-.377.24-.029a3.94,3.94,0,0,1-.908.533l.145-.2c-.026.3-.052.606-.078.913l-.017.19-.189.026-1.5.206-.19.026-.067-.18-.161-.428-.08-.215-.041-.109-.02-.054-.01-.027-.005-.013,0-.007v0h0l.2.154h0a3.948,3.948,0,0,1-1.018-.269l.246-.038-.7.589-.147.122-.151-.115-1.206-.922-.15-.115.078-.171.383-.834.028.24a3.976,3.976,0,0,1-.525-.91l.191.14-.913-.085-.18-.017-.023-.177c-.067-.521-.133-1.031-.2-1.5l-.022-.172.16-.058.862-.314-.134.169a3.9,3.9,0,0,1,.275-1.007l.032.2-.583-.709-.1-.119.092-.118q.489-.625.933-1.2l.086-.11.122.058.829.393-.162.019a3.8,3.8,0,0,1,.9-.5l-.086.118c.035-.324.069-.63.1-.912l.011-.1.094-.01,1.51-.159.064-.007.018.056A5.414,5.414,0,0,1,512.542,92.878Z" class="color263238 svgShape"/><path fill="#263238" d="M574.528,397.045l.257-.019a7.387,7.387,0,0,0,.765-.065,7.848,7.848,0,0,0,2.869-.952A8,8,0,0,0,582.5,389.3c.027-1.154,0-2.393.009-3.707-.011-10.519-.026-26.027-.046-46-.018-39.95-.044-97.752-.076-169.175q-.008-26.784-.016-56.056,0-14.621-.007-29.82,0-3.8,0-7.633a10.159,10.159,0,0,0-.421-3.733,7.846,7.846,0,0,0-5.25-5.009,13.156,13.156,0,0,0-3.811-.309l-7.84,0-134.081.022-307.23.019a7.827,7.827,0,0,0-7.472,5.453,17.334,17.334,0,0,0-.358,4.982v25.334q0,20.186,0,40.095,0,39.812,0,78.391c-.005,51.394-.01,100.967-.015,148.191q0,8.855,0,17.6a14.8,14.8,0,0,0,.083,2.15,7.754,7.754,0,0,0,.566,2.036,7.863,7.863,0,0,0,2.634,3.244,7.747,7.747,0,0,0,3.913,1.424c1.407.063,2.873.018,4.3.032l34.039.006,65.088.012,116.828.029,231.193.17-231.193.171-116.828.029-65.088.012-34.039.005c-1.445-.014-2.862.033-4.337-.032a8.177,8.177,0,0,1-4.132-1.5,8.305,8.305,0,0,1-2.783-3.426,8.2,8.2,0,0,1-.6-2.15,15.128,15.128,0,0,1-.088-2.21q0-8.743,0-17.6c-.005-47.224-.009-96.8-.014-148.191q0-38.546,0-78.391,0-19.9,0-40.095V75.789a9.169,9.169,0,0,1,.38-2.582,8.311,8.311,0,0,1,7.931-5.791l307.23.019,134.081.022,7.84,0a13.507,13.507,0,0,1,3.919.326,8.24,8.24,0,0,1,5.513,5.263,10.563,10.563,0,0,1,.44,3.858q0,3.834,0,7.633,0,15.2-.007,29.82-.009,29.238-.016,56.056c-.032,71.423-.058,129.225-.076,169.175-.02,19.971-.035,35.479-.045,46-.009,1.315.01,2.55-.021,3.71a8.053,8.053,0,0,1-4.145,6.754,7.747,7.747,0,0,1-2.89.933A8.207,8.207,0,0,1,574.528,397.045Z" class="color263238 svgShape"/><path fill="#fff" d="M137.157,104.555h0a7.907,7.907,0,0,1-7.907-7.907h0a7.908,7.908,0,0,1,7.907-7.908h0a7.908,7.908,0,0,1,7.907,7.908h0A7.907,7.907,0,0,1,137.157,104.555Z" class="colorfff svgShape"/><path fill="#263238" d="M236.634,306.478h0A17.739,17.739,0,0,1,218.9,288.739h0A17.739,17.739,0,0,1,236.634,271h0a17.738,17.738,0,0,1,17.738,17.738h0A17.738,17.738,0,0,1,236.634,306.478Z" class="color263238 svgShape"/><path fill="#fff" d="M230.958,290.387a.416.416,0,0,0,.606-.3c.055-.212.187-.748.246-.971a.584.584,0,0,0-.174-.674,3.494,3.494,0,0,1-.8-2.374,5.732,5.732,0,0,1,5.958-5.8c3.249,0,5.035,1.986,5.035,4.638,0,3.489-1.544,6.434-3.837,6.434a1.873,1.873,0,0,1-1.91-2.331,25.835,25.835,0,0,0,1.069-4.294,1.621,1.621,0,0,0-1.632-1.817c-1.295,0-2.334,1.339-2.334,3.132a4.657,4.657,0,0,0,.386,1.915s-1.324,5.612-1.557,6.594a13.6,13.6,0,0,0-.036,4.6.161.161,0,0,0,.288.069,12.912,12.912,0,0,0,2.184-3.96c.149-.538.852-3.326.852-3.326a3.467,3.467,0,0,0,2.955,1.508c3.891,0,6.53-3.546,6.53-8.293,0-3.59-3.04-6.932-7.661-6.932-5.749,0-8.648,4.121-8.648,7.559C228.48,287.846,229.268,289.7,230.958,290.387Z" class="colorfff svgShape"/><path fill="#263238" d="M224.866 315.809v15.018h-1.545V317.182h-3.54v-1.373zM238.64 326.407c0 2.553-1.781 4.548-5.449 4.548a7.756 7.756 0 01-5.385-1.93l.751-1.224a6.507 6.507 0 004.613 1.738c2.553 0 3.9-1.244 3.9-3.068 0-1.931-1.2-3.132-5.02-3.132h-3.2l.771-7.53h8.217v1.373h-6.865l-.515 4.784H232.4C236.924 321.966 238.64 323.746 238.64 326.407zM240.594 323.318c0-4.785 2.51-7.638 5.985-7.638s6.008 2.853 6.008 7.638-2.532 7.637-6.008 7.637S240.594 328.1 240.594 323.318zm10.4 0c0-4.012-1.8-6.222-4.42-6.222s-4.419 2.21-4.419 6.222 1.8 6.221 4.419 6.221S251 327.329 251 323.318zM232 340.87v5.17h-.532v-4.7h-1.219v-.473zM236.741 344.519c0 .879-.613 1.565-1.876 1.565a2.662 2.662 0 01-1.853-.664l.258-.421a2.242 2.242 0 001.588.6c.879 0 1.344-.428 1.344-1.056 0-.665-.413-1.078-1.728-1.078h-1.1l.265-2.593h2.829v.473H234.1l-.178 1.647h.665C236.15 342.99 236.741 343.6 236.741 344.519zM237.269 342.237c0-.842.473-1.4 1.167-1.4s1.167.555 1.167 1.4-.48 1.4-1.167 1.4S237.269 343.078 237.269 342.237zm1.964 0c0-.672-.317-1.071-.8-1.071s-.8.407-.8 1.071.31 1.071.8 1.071S239.233 342.909 239.233 342.237zm2.334-1.367H242l-3.53 5.17h-.436zm-1.129 3.8c0-.842.48-1.4 1.167-1.4s1.166.561 1.166 1.4-.473 1.4-1.166 1.4S240.438 345.516 240.438 344.674zm1.964 0c0-.665-.31-1.071-.8-1.071s-.8.4-.8 1.071.317 1.071.8 1.071S242.4 345.339 242.4 344.674z" class="color263238 svgShape"/><path fill="#0a80ef" d="M322.738,306.268h0A17.634,17.634,0,0,1,305.1,288.634h0A17.634,17.634,0,0,1,322.737,271h0a17.634,17.634,0,0,1,17.633,17.633h0A17.634,17.634,0,0,1,322.738,306.268Z" class="colore8505b svgShape"/><path fill="#fff" d="M322.737,277.393a11.241,11.241,0,1,0,11.241,11.242A11.241,11.241,0,0,0,322.737,277.393Zm0,1.955a9.23,9.23,0,0,1,5.661,1.942,11.359,11.359,0,0,1-4.671,3.446,43.117,43.117,0,0,0-3.267-5.093A9.2,9.2,0,0,1,322.737,279.348Zm-4.189,1.01a41.667,41.667,0,0,1,3.313,5.041,29.765,29.765,0,0,1-8.135,1.036A9.314,9.314,0,0,1,318.548,280.358Zm-5.1,8.276c0-.08.01-.159.012-.239a31.379,31.379,0,0,0,9.32-1.239q.327.666.628,1.342a14.467,14.467,0,0,0-7.81,6.069A9.239,9.239,0,0,1,313.452,288.634Zm9.285,9.286a9.226,9.226,0,0,1-5.7-1.969,12.615,12.615,0,0,1,7.117-5.646,36.8,36.8,0,0,1,1.914,6.987A9.211,9.211,0,0,1,322.737,297.92Zm5.155-1.567a38.64,38.64,0,0,0-1.8-6.46,18.683,18.683,0,0,1,5.806.184A9.291,9.291,0,0,1,327.892,296.353Zm-2.548-8.311c-.228-.527-.465-1.053-.718-1.573a13.286,13.286,0,0,0,5.2-3.824A9.25,9.25,0,0,1,332,288.111,20.069,20.069,0,0,0,325.344,288.042Z" class="colorfff svgShape"/><path fill="#263238" d="M312.322 328.166c0 2.511-1.823 4.442-5.449 4.442a7.812 7.812 0 01-5.407-1.931l.751-1.224a6.578 6.578 0 004.656 1.739c2.488 0 3.861-1.159 3.861-3.026 0-1.8-1.265-2.981-4.054-2.981h-1.073v-1.138l4.162-5.213h-7.68v-1.373h9.654v1.094l-4.248 5.343C310.713 324.069 312.322 325.764 312.322 328.166zM314.49 324.97c0-4.784 2.51-7.638 5.986-7.638s6.007 2.854 6.007 7.638-2.532 7.638-6.007 7.638S314.49 329.754 314.49 324.97zm10.4 0c0-4.012-1.8-6.222-4.419-6.222s-4.42 2.21-4.42 6.222 1.8 6.222 4.42 6.222S324.895 328.982 324.895 324.97zM328.694 324.97c0-4.784 2.51-7.638 5.985-7.638s6.008 2.854 6.008 7.638-2.532 7.638-6.008 7.638S328.694 329.754 328.694 324.97zm10.4 0c0-4.012-1.8-6.222-4.42-6.222s-4.419 2.21-4.419 6.222 1.8 6.222 4.419 6.222S339.1 328.982 339.1 324.97zM318.1 342.523v5.17h-.532v-4.7h-1.218v-.472zM322.845 346.171c0 .879-.613 1.566-1.876 1.566a2.671 2.671 0 01-1.854-.664l.259-.421a2.244 2.244 0 001.588.6c.878 0 1.344-.427 1.344-1.055 0-.665-.414-1.079-1.729-1.079h-1.1l.266-2.592h2.828v.472h-2.363l-.177 1.648h.664C322.254 344.643 322.845 345.255 322.845 346.171zM323.373 343.889c0-.842.472-1.4 1.167-1.4s1.167.554 1.167 1.4-.48 1.4-1.167 1.4S323.373 344.731 323.373 343.889zm1.964 0c0-.672-.317-1.07-.8-1.07s-.8.406-.8 1.07.31 1.071.8 1.071S325.337 344.562 325.337 343.889zm2.334-1.366h.436l-3.53 5.17h-.436zm-1.13 3.8c0-.842.48-1.4 1.167-1.4s1.167.562 1.167 1.4-.473 1.4-1.167 1.4S326.541 347.168 326.541 346.327zm1.964 0c0-.666-.31-1.072-.8-1.072s-.8.4-.8 1.072.318 1.071.8 1.071S328.505 346.992 328.505 346.327zM400.1 307.739h0a18.369 18.369 0 01-18.369-18.369h0A18.369 18.369 0 01400.1 271h0a18.369 18.369 0 0118.369 18.369h0A18.369 18.369 0 01400.1 307.739z" class="color263238 svgShape"/><path fill="#fff" d="M400.1,281.113c2.689,0,3.008.01,4.07.059a5.574,5.574,0,0,1,1.87.347,3.331,3.331,0,0,1,1.911,1.911,5.574,5.574,0,0,1,.347,1.87c.049,1.062.059,1.381.059,4.07s-.01,3.008-.059,4.07a5.568,5.568,0,0,1-.347,1.87,3.329,3.329,0,0,1-1.911,1.912,5.574,5.574,0,0,1-1.87.347c-1.062.048-1.381.058-4.07.058s-3.008-.01-4.07-.058a5.574,5.574,0,0,1-1.87-.347,3.335,3.335,0,0,1-1.912-1.912,5.568,5.568,0,0,1-.347-1.87c-.048-1.062-.058-1.38-.058-4.07s.01-3.008.058-4.07a5.574,5.574,0,0,1,.347-1.87,3.337,3.337,0,0,1,1.912-1.911,5.574,5.574,0,0,1,1.87-.347c1.062-.049,1.381-.059,4.07-.059m0-1.815c-2.735,0-3.078.012-4.153.061a7.4,7.4,0,0,0-2.445.468,5.148,5.148,0,0,0-2.945,2.946,7.367,7.367,0,0,0-.468,2.445c-.049,1.074-.061,1.417-.061,4.152s.012,3.079.061,4.153a7.372,7.372,0,0,0,.468,2.445,5.142,5.142,0,0,0,2.945,2.945,7.4,7.4,0,0,0,2.445.469c1.075.049,1.418.06,4.153.06s3.078-.011,4.153-.06a7.382,7.382,0,0,0,2.444-.469,5.148,5.148,0,0,0,2.946-2.945,7.4,7.4,0,0,0,.468-2.445c.049-1.074.061-1.417.061-4.153s-.012-3.078-.061-4.152a7.392,7.392,0,0,0-.468-2.445,5.153,5.153,0,0,0-2.946-2.946,7.385,7.385,0,0,0-2.444-.468c-1.075-.049-1.418-.061-4.153-.061" class="colorfff svgShape"/><path fill="#fff" d="M400.1 284.2a5.172 5.172 0 105.172 5.172A5.173 5.173 0 00400.1 284.2m0 8.53a3.357 3.357 0 113.357-3.358 3.358 3.358 0 01-3.357 3.358M406.685 283.994a1.208 1.208 0 11-1.209-1.209 1.208 1.208 0 011.209 1.209" class="colorfff svgShape"/><path fill="#263238" d="M398.059 329.437c0 2.553-1.781 4.549-5.45 4.549a7.756 7.756 0 01-5.385-1.931l.751-1.224a6.506 6.506 0 004.612 1.739c2.554 0 3.906-1.244 3.906-3.069 0-1.93-1.2-3.131-5.021-3.131h-3.2l.772-7.531h8.217v1.373H390.4L389.884 325h1.932C396.342 325 398.059 326.777 398.059 329.437zM400.011 326.348c0-4.784 2.511-7.638 5.987-7.638S412 321.564 412 326.348s-2.531 7.638-6.006 7.638S400.011 331.132 400.011 326.348zm10.406 0c0-4.012-1.8-6.222-4.419-6.222s-4.42 2.21-4.42 6.222 1.8 6.222 4.42 6.222S410.417 330.36 410.417 326.348zM395.463 343.9v5.17h-.531v-4.7h-1.219V343.9zM400.207 347.549c0 .879-.613 1.566-1.875 1.566a2.675 2.675 0 01-1.855-.664l.259-.421a2.244 2.244 0 001.588.6c.879 0 1.344-.427 1.344-1.055 0-.665-.414-1.078-1.728-1.078h-1.1l.266-2.593h2.829v.472h-2.363l-.178 1.648h.665C399.616 346.021 400.207 346.633 400.207 347.549zM400.736 345.267c0-.842.473-1.4 1.166-1.4s1.167.554 1.167 1.4-.48 1.4-1.167 1.4S400.736 346.109 400.736 345.267zm1.964 0c0-.672-.318-1.07-.8-1.07s-.8.406-.8 1.07.31 1.071.8 1.071S402.7 345.939 402.7 345.267zm2.334-1.366h.435l-3.53 5.17H401.5zm-1.13 3.8c0-.841.48-1.4 1.167-1.4s1.167.562 1.167 1.4-.473 1.4-1.167 1.4S403.9 348.546 403.9 347.7zm1.965 0c0-.665-.311-1.071-.8-1.071s-.8.4-.8 1.071.317 1.071.8 1.071S405.869 348.37 405.869 347.7z" class="color263238 svgShape"/><path fill="#0a80ef" d="M238.259,193.489h0a19.31,19.31,0,0,1-19.31-19.31h0a19.31,19.31,0,0,1,19.31-19.31h0a19.31,19.31,0,0,1,19.311,19.31h0A19.31,19.31,0,0,1,238.259,193.489Z" class="colore8505b svgShape"/><path fill="#fff" d="M235.317,185.851h4.7V174.08h3.28l.35-3.941h-3.63v-2.245c0-.929.187-1.3,1.086-1.3h2.544v-4.09h-3.255c-3.5,0-5.075,1.541-5.075,4.489v3.143h-2.445v3.99h2.445Z" class="colorfff svgShape"/><path fill="#263238" d="M229.7 222.493v1.489H218.275v-1.187l6.771-6.632c1.838-1.815 2.187-2.909 2.187-4.025 0-1.885-1.326-3.049-3.815-3.049a5.53 5.53 0 00-4.445 1.815l-1.187-1.024a7.32 7.32 0 015.771-2.326c3.3 0 5.4 1.675 5.4 4.4 0 1.559-.489 2.955-2.677 5.1l-5.538 5.446zM242.846 219.188c0 2.769-1.931 4.933-5.91 4.933a8.411 8.411 0 01-5.841-2.094l.814-1.327a7.06 7.06 0 005 1.886c2.77 0 4.236-1.35 4.236-3.328 0-2.094-1.3-3.4-5.446-3.4h-3.467l.838-8.168h8.912v1.489h-7.446l-.558 5.189h2.094C240.984 214.371 242.846 216.3 242.846 219.188zM244.962 215.837c0-5.189 2.723-8.283 6.493-8.283s6.515 3.094 6.515 8.283-2.745 8.284-6.515 8.284S244.962 221.027 244.962 215.837zm11.286 0c0-4.351-1.954-6.748-4.793-6.748s-4.794 2.4-4.794 6.748 1.955 6.749 4.794 6.749S256.248 220.189 256.248 215.837zM233.233 234.873v5.608h-.577v-5.1h-1.322v-.513zM238.377 238.83c0 .954-.665 1.7-2.035 1.7a2.9 2.9 0 01-2.01-.721l.28-.457a2.426 2.426 0 001.722.649c.954 0 1.458-.465 1.458-1.145 0-.721-.448-1.17-1.874-1.17h-1.194l.288-2.812h3.069v.513h-2.564l-.192 1.786h.721C237.736 237.172 238.377 237.837 238.377 238.83zM238.949 236.355c0-.913.513-1.522 1.265-1.522s1.266.6 1.266 1.522-.52 1.522-1.266 1.522S238.949 237.268 238.949 236.355zm2.131 0c0-.729-.345-1.161-.866-1.161s-.865.44-.865 1.161.337 1.162.865 1.162S241.08 237.084 241.08 236.355zm2.531-1.482h.473l-3.83 5.608h-.472zM242.385 239c0-.913.521-1.522 1.266-1.522s1.266.609 1.266 1.522-.513 1.522-1.266 1.522S242.385 239.912 242.385 239zm2.131 0c0-.721-.336-1.162-.865-1.162s-.865.433-.865 1.162.344 1.161.865 1.161S244.516 239.72 244.516 239zM323.776 191.875h0a19.232 19.232 0 01-19.232-19.233h0a19.232 19.232 0 0119.232-19.232h0a19.233 19.233 0 0119.233 19.232h0A19.233 19.233 0 01323.776 191.875z" class="color263238 svgShape"/><rect width="3.98" height="12.859" fill="#fff" class="colorfff svgShape" transform="translate(315.055 168.355)"/><path fill="#fff" d="M317.026 166.672a2.373 2.373 0 10-2.353-2.374A2.364 2.364 0 00317.026 166.672zM325.4 174.464c0-1.808.832-2.885 2.426-2.885 1.463 0 2.166 1.034 2.166 2.885v6.75h3.962v-8.142c0-3.444-1.952-5.109-4.678-5.109a4.485 4.485 0 00-3.876 2.124v-1.732H321.58v12.859H325.4z" class="colorfff svgShape"/><path fill="#263238" d="M317.878 206.235v16.289H316.2v-14.8h-3.839v-1.489zM334.282 217.986c0 2.885-2.444 4.677-6.329 4.677-3.91 0-6.283-1.792-6.283-4.677a4.065 4.065 0 013.141-4 3.676 3.676 0 01-2.559-3.584c0-2.653 2.257-4.3 5.7-4.3s5.747 1.651 5.747 4.3a3.689 3.689 0 01-2.606 3.584A4.1 4.1 0 01334.282 217.986zm-1.722-.023c0-2-1.722-3.258-4.607-3.258s-4.585 1.257-4.585 3.258c0 2.024 1.7 3.281 4.585 3.281S332.56 219.987 332.56 217.963zm-4.607-4.584c2.536 0 4.049-1.14 4.049-2.909 0-1.838-1.606-2.955-4.049-2.955-2.467 0-4.026 1.117-4.026 2.932C323.927 212.239 325.416 213.379 327.953 213.379zM316.841 236.6h2.1v.5h-2.1zM324.67 237.549h-1.122v1.474h-.576v-1.474h-3.165v-.417l2.972-3.717h.641l-2.868 3.621h2.436v-1.3h.56v1.3h1.122zM324.881 234.9c0-.913.513-1.522 1.266-1.522s1.266.6 1.266 1.522-.521 1.522-1.266 1.522S324.881 235.81 324.881 234.9zm2.131 0c0-.729-.344-1.161-.865-1.161s-.865.44-.865 1.161.336 1.162.865 1.162S327.012 235.626 327.012 234.9zm2.532-1.482h.472l-3.829 5.608h-.473zm-1.226 4.126c0-.913.521-1.522 1.266-1.522s1.266.609 1.266 1.522-.513 1.522-1.266 1.522S328.318 238.454 328.318 237.541zm2.131 0c0-.721-.337-1.162-.865-1.162s-.865.433-.865 1.162.344 1.162.865 1.162S330.449 238.262 330.449 237.541z" class="color263238 svgShape"/><path fill="#0a80ef" d="M400.1,191.309h0a17.494,17.494,0,0,1-17.494-17.494h0A17.494,17.494,0,0,1,400.1,156.321h0a17.494,17.494,0,0,1,17.494,17.494h0A17.494,17.494,0,0,1,400.1,191.309Z" class="colore8505b svgShape"/><path fill="#fff" d="M390.779,179.671a10.877,10.877,0,0,0,16.734-9.659,7.772,7.772,0,0,0,1.908-1.979,7.646,7.646,0,0,1-2.2.6,3.833,3.833,0,0,0,1.682-2.116,7.665,7.665,0,0,1-2.429.928,3.827,3.827,0,0,0-6.517,3.489,10.855,10.855,0,0,1-7.883-4,3.829,3.829,0,0,0,1.184,5.107,3.8,3.8,0,0,1-1.733-.479,3.827,3.827,0,0,0,3.067,3.8,3.813,3.813,0,0,1-1.726.065,3.828,3.828,0,0,0,3.572,2.657A7.686,7.686,0,0,1,390.779,179.671Z" class="colorfff svgShape"/><path fill="#263238" d="M391.54 219.707v1.49H380.114V220.01l6.771-6.632c1.839-1.815 2.188-2.909 2.188-4.026 0-1.884-1.326-3.048-3.817-3.048a5.529 5.529 0 00-4.444 1.815l-1.186-1.024a7.318 7.318 0 015.77-2.327c3.3 0 5.4 1.676 5.4 4.4 0 1.559-.489 2.955-2.676 5.1l-5.538 5.445zM404.685 216.4c0 2.769-1.931 4.933-5.91 4.933a8.409 8.409 0 01-5.841-2.094l.815-1.327a7.056 7.056 0 005 1.886c2.769 0 4.235-1.35 4.235-3.328 0-2.094-1.3-3.4-5.445-3.4h-3.467l.838-8.167h8.912V206.4h-7.446l-.559 5.189h2.094C402.824 211.586 404.685 213.517 404.685 216.4zM406.8 213.052c0-5.189 2.723-8.284 6.493-8.284s6.515 3.1 6.515 8.284-2.746 8.284-6.515 8.284S406.8 218.242 406.8 213.052zm11.286 0c0-4.351-1.955-6.748-4.793-6.748s-4.793 2.4-4.793 6.748 1.954 6.749 4.793 6.749S418.087 217.4 418.087 213.052zM398.684 236.085c0 .937-.681 1.658-2.035 1.658a2.914 2.914 0 01-2.019-.721l.281-.456a2.457 2.457 0 001.738.649c.93 0 1.442-.433 1.442-1.13 0-.673-.472-1.113-1.514-1.113h-.4v-.425l1.554-1.947h-2.867v-.512h3.6v.408l-1.586 1.994C398.083 234.555 398.684 235.188 398.684 236.085zM399.336 233.57c0-.914.512-1.522 1.265-1.522s1.266.6 1.266 1.522-.521 1.522-1.266 1.522S399.336 234.483 399.336 233.57zm2.13 0c0-.729-.344-1.162-.865-1.162s-.865.441-.865 1.162.336 1.161.865 1.161S401.466 234.3 401.466 233.57zM404 232.088h.472l-3.829 5.607h-.472zm-1.226 4.125c0-.913.521-1.522 1.266-1.522s1.265.609 1.265 1.522-.512 1.522-1.265 1.522S402.772 237.126 402.772 236.213zm2.131 0c0-.721-.337-1.161-.865-1.161s-.866.432-.866 1.161.345 1.162.866 1.162S404.9 236.934 404.9 236.213z" class="color263238 svgShape"/><rect width="3.946" height="13.219" fill="#0a80ef" class="colore8505b svgShape" transform="translate(504.753 256.721)"/><rect width="3.946" height="15.134" fill="#0a80ef" class="colore8505b svgShape" transform="translate(471.791 254.805)"/><rect width="3.946" height="18.289" fill="#0a80ef" class="colore8505b svgShape" transform="translate(480.032 251.651)"/><rect width="3.946" height="17.285" fill="#0a80ef" class="colore8505b svgShape" transform="translate(488.272 252.654)"/><rect width="3.946" height="23.133" fill="#0a80ef" class="colore8505b svgShape" transform="translate(496.513 246.807)"/><rect width="3.946" height="23.021" fill="#0a80ef" class="colore8505b svgShape" transform="translate(512.993 246.919)"/><rect width="3.946" height="15.46" fill="#0a80ef" class="colore8505b svgShape" transform="translate(521.234 254.48)"/><rect width="3.946" height="22.007" fill="#0a80ef" class="colore8505b svgShape" transform="translate(529.474 247.933)"/><rect width="3.946" height="26.964" fill="#0a80ef" class="colore8505b svgShape" transform="translate(537.715 242.976)"/><rect width="3.946" height="22.119" fill="#0a80ef" class="colore8505b svgShape" transform="translate(545.956 247.82)"/><path fill="#e0e0e0" d="M558.15,286.332H461.082a8.023,8.023,0,0,1-8.014-8.014V220.285a8.023,8.023,0,0,1,8.014-8.013H558.15a8.023,8.023,0,0,1,8.014,8.013v58.033A8.023,8.023,0,0,1,558.15,286.332Zm-97.068-73.269a7.23,7.23,0,0,0-7.222,7.222v58.033a7.23,7.23,0,0,0,7.222,7.222H558.15a7.23,7.23,0,0,0,7.222-7.222V220.285a7.23,7.23,0,0,0-7.222-7.222Z" class="colore0e0e0 svgShape"/><path fill="#e0e0e0" d="M516.34 231.566c0 .114-11.229.206-25.077.206s-25.078-.092-25.078-.206 11.226-.206 25.078-.206S516.34 231.452 516.34 231.566zM558.15 197.008H461.082a8.023 8.023 0 01-8.014-8.013V130.961a8.023 8.023 0 018.014-8.013H558.15a8.023 8.023 0 018.014 8.013v58.034A8.023 8.023 0 01558.15 197.008zm-97.068-73.269a7.23 7.23 0 00-7.222 7.222v58.034a7.23 7.23 0 007.222 7.221H558.15a7.23 7.23 0 007.222-7.221V130.961a7.23 7.23 0 00-7.222-7.222z" class="colore0e0e0 svgShape"/><path fill="#e0e0e0" d="M474.335,177.965h0a1.924,1.924,0,0,1-1.924-1.925V139.925A1.924,1.924,0,0,1,474.335,138h0a1.925,1.925,0,0,1,1.925,1.925V176.04A1.925,1.925,0,0,1,474.335,177.965Z" class="colore0e0e0 svgShape"/><path fill="#0a80ef" d="M474.335,178.135h0a1.924,1.924,0,0,1-1.924-1.925V152.928A1.924,1.924,0,0,1,474.335,151h0a1.925,1.925,0,0,1,1.925,1.925V176.21A1.925,1.925,0,0,1,474.335,178.135Z" class="colore8505b svgShape"/><path fill="#263238" d="M473.124 179.642v3.21h-.33v-2.917h-.757v-.293zM473.889 181.247c0-1.023.536-1.633 1.279-1.633s1.285.61 1.285 1.633-.542 1.633-1.285 1.633S473.889 182.27 473.889 181.247zm2.224 0c0-.858-.385-1.33-.945-1.33s-.944.472-.944 1.33.385 1.33.944 1.33S476.113 182.1 476.113 181.247z" class="color263238 svgShape"/><path fill="#e0e0e0" d="M482.03,177.965h0a1.924,1.924,0,0,1-1.924-1.925V139.925A1.924,1.924,0,0,1,482.03,138h0a1.925,1.925,0,0,1,1.925,1.925V176.04A1.925,1.925,0,0,1,482.03,177.965Z" class="colore0e0e0 svgShape"/><path fill="#0a80ef" d="M482.03,178.135h0a1.924,1.924,0,0,1-1.924-1.925V145.6a1.924,1.924,0,0,1,1.924-1.925h0a1.925,1.925,0,0,1,1.925,1.925V176.21A1.925,1.925,0,0,1,482.03,178.135Z" class="colore8505b svgShape"/><path fill="#263238" d="M481.572 182.559v.293H479.32v-.234l1.335-1.307c.362-.357.431-.573.431-.793 0-.372-.262-.6-.753-.6a1.088 1.088 0 00-.875.358l-.234-.2a1.442 1.442 0 011.137-.459c.651 0 1.064.331 1.064.867a1.319 1.319 0 01-.528 1l-1.091 1.074zM481.964 181.247c0-1.023.536-1.633 1.279-1.633s1.285.61 1.285 1.633-.542 1.633-1.285 1.633S481.964 182.27 481.964 181.247zm2.224 0c0-.858-.385-1.33-.945-1.33s-.944.472-.944 1.33.385 1.33.944 1.33S484.188 182.1 484.188 181.247z" class="color263238 svgShape"/><path fill="#e0e0e0" d="M489.725,177.965h0a1.924,1.924,0,0,1-1.924-1.925V139.925A1.924,1.924,0,0,1,489.725,138h0a1.925,1.925,0,0,1,1.925,1.925V176.04A1.925,1.925,0,0,1,489.725,177.965Z" class="colore0e0e0 svgShape"/><path fill="#0a80ef" d="M489.725,178.135h0a1.924,1.924,0,0,1-1.924-1.925V158.427a1.923,1.923,0,0,1,1.924-1.924h0a1.924,1.924,0,0,1,1.925,1.924V176.21A1.925,1.925,0,0,1,489.725,178.135Z" class="colore8505b svgShape"/><path fill="#263238" d="M489.226 181.93c0 .537-.39.95-1.165.95a1.669 1.669 0 01-1.156-.413l.161-.261a1.408 1.408 0 00.995.371c.532 0 .825-.248.825-.647s-.27-.637-.866-.637h-.23v-.243l.89-1.115h-1.642v-.293H489.1v.234l-.908 1.141C488.881 181.055 489.226 181.416 489.226 181.93zM489.687 181.247c0-1.023.536-1.633 1.279-1.633s1.284.61 1.284 1.633-.541 1.633-1.284 1.633S489.687 182.27 489.687 181.247zm2.224 0c0-.858-.385-1.33-.945-1.33s-.945.472-.945 1.33.386 1.33.945 1.33S491.911 182.1 491.911 181.247z" class="color263238 svgShape"/><path fill="#e0e0e0" d="M497.42,177.965h0a1.924,1.924,0,0,1-1.924-1.925V139.925A1.924,1.924,0,0,1,497.42,138h0a1.925,1.925,0,0,1,1.925,1.925V176.04A1.925,1.925,0,0,1,497.42,177.965Z" class="colore0e0e0 svgShape"/><path fill="#0a80ef" d="M497.42,178.135h0a1.924,1.924,0,0,1-1.924-1.925V145.6a1.924,1.924,0,0,1,1.924-1.925h0a1.925,1.925,0,0,1,1.925,1.925V176.21A1.925,1.925,0,0,1,497.42,178.135Z" class="colore8505b svgShape"/><path fill="#263238" d="M497.437 182.008H496.8v.844h-.33v-.844h-1.812v-.238l1.7-2.128h.367l-1.642 2.073h1.395v-.743h.321v.743h.642zM497.737 181.247c0-1.023.536-1.633 1.279-1.633s1.284.61 1.284 1.633-.541 1.633-1.284 1.633S497.737 182.27 497.737 181.247zm2.224 0c0-.858-.385-1.33-.945-1.33s-.945.472-.945 1.33.386 1.33.945 1.33S499.961 182.1 499.961 181.247z" class="color263238 svgShape"/><path fill="#e0e0e0" d="M505.115,177.965h0a1.924,1.924,0,0,1-1.924-1.925V139.925A1.924,1.924,0,0,1,505.115,138h0a1.925,1.925,0,0,1,1.925,1.925V176.04A1.925,1.925,0,0,1,505.115,177.965Z" class="colore0e0e0 svgShape"/><path fill="#0a80ef" d="M505.115,178.135h0a1.924,1.924,0,0,1-1.924-1.925V151.461a1.924,1.924,0,0,1,1.924-1.925h0a1.925,1.925,0,0,1,1.925,1.925V176.21A1.925,1.925,0,0,1,505.115,178.135Z" class="colore8505b svgShape"/><path fill="#263238" d="M504.944 181.907c0 .546-.38.973-1.164.973a1.662 1.662 0 01-1.152-.413l.161-.261a1.392 1.392 0 00.986.371c.546 0 .835-.266.835-.656 0-.413-.257-.67-1.073-.67h-.684l.165-1.609h1.757v.293h-1.468l-.11 1.023h.413C504.577 180.958 504.944 181.339 504.944 181.907zM505.36 181.247c0-1.023.536-1.633 1.279-1.633s1.284.61 1.284 1.633-.541 1.633-1.284 1.633S505.36 182.27 505.36 181.247zm2.224 0c0-.858-.385-1.33-.945-1.33s-.945.472-.945 1.33.386 1.33.945 1.33S507.584 182.1 507.584 181.247z" class="color263238 svgShape"/><path fill="#e0e0e0" d="M512.81,177.965h0a1.924,1.924,0,0,1-1.924-1.925V139.925A1.924,1.924,0,0,1,512.81,138h0a1.925,1.925,0,0,1,1.925,1.925V176.04A1.925,1.925,0,0,1,512.81,177.965Z" class="colore0e0e0 svgShape"/><path fill="#0a80ef" d="M512.81,177.965h0a1.9,1.9,0,0,1-1.924-1.755V158.427a1.967,1.967,0,0,1,1.924-2.094h0a1.924,1.924,0,0,1,1.925,1.925V176.04A1.925,1.925,0,0,1,512.81,177.965Z" class="colore8505b svgShape"/><path fill="#263238" d="M512.558 181.894a1 1 0 01-1.1.986c-.853 0-1.316-.592-1.316-1.606 0-1.091.6-1.66 1.467-1.66a1.484 1.484 0 01.762.174l-.133.266a1.134 1.134 0 00-.624-.151c-.692 0-1.137.445-1.137 1.317 0 .073 0 .165.013.261a1.027 1.027 0 01.982-.55A.972.972 0 01512.558 181.894zm-.325.009c0-.422-.312-.693-.808-.693a.743.743 0 00-.825.7c0 .353.293.688.848.688A.7.7 0 00512.233 181.9zM512.937 181.247c0-1.023.536-1.633 1.279-1.633s1.284.61 1.284 1.633-.541 1.633-1.284 1.633S512.937 182.27 512.937 181.247zm2.224 0c0-.858-.385-1.33-.945-1.33s-.945.472-.945 1.33.386 1.33.945 1.33S515.161 182.1 515.161 181.247z" class="color263238 svgShape"/><path fill="#e0e0e0" d="M520.505,177.965h0a1.924,1.924,0,0,1-1.924-1.925V139.925A1.924,1.924,0,0,1,520.505,138h0a1.925,1.925,0,0,1,1.925,1.925V176.04A1.925,1.925,0,0,1,520.505,177.965Z" class="colore0e0e0 svgShape"/><path fill="#0a80ef" d="M520.505,178.135h0a1.924,1.924,0,0,1-1.924-1.925V143.762a1.924,1.924,0,0,1,1.924-1.925h0a1.925,1.925,0,0,1,1.925,1.925V176.21A1.925,1.925,0,0,1,520.505,178.135Z" class="colore8505b svgShape"/><path fill="#263238" d="M520.095 179.642v.234l-1.344 2.976h-.357l1.32-2.917h-1.65v.6h-.326v-.894zM520.437 181.247c0-1.023.537-1.633 1.28-1.633s1.284.61 1.284 1.633-.541 1.633-1.284 1.633S520.437 182.27 520.437 181.247zm2.224 0c0-.858-.385-1.33-.944-1.33s-.945.472-.945 1.33.385 1.33.945 1.33S522.661 182.1 522.661 181.247z" class="color263238 svgShape"/><path fill="#e0e0e0" d="M528.2,177.965h0a1.925,1.925,0,0,1-1.925-1.925V139.925A1.925,1.925,0,0,1,528.2,138h0a1.924,1.924,0,0,1,1.924,1.925V176.04A1.924,1.924,0,0,1,528.2,177.965Z" class="colore0e0e0 svgShape"/><path fill="#0a80ef" d="M528.2,178.135h0a1.925,1.925,0,0,1-1.925-1.925V162.094a1.925,1.925,0,0,1,1.925-1.925h0a1.924,1.924,0,0,1,1.924,1.925V176.21A1.924,1.924,0,0,1,528.2,178.135Z" class="colore8505b svgShape"/><path fill="#263238" d="M527.818 181.958c0 .569-.482.922-1.248.922s-1.238-.353-1.238-.922a.8.8 0 01.619-.789.724.724 0 01-.505-.706c0-.523.445-.849 1.124-.849s1.133.326 1.133.849a.728.728 0 01-.514.706A.808.808 0 01527.818 181.958zm-.34 0c0-.394-.339-.642-.908-.642s-.9.248-.9.642.334.647.9.647S527.478 182.352 527.478 181.953zm-.908-.9c.5 0 .8-.225.8-.574s-.316-.582-.8-.582-.793.22-.793.578S526.07 181.05 526.57 181.05zM528.274 181.247c0-1.023.536-1.633 1.279-1.633s1.285.61 1.285 1.633-.542 1.633-1.285 1.633S528.274 182.27 528.274 181.247zm2.224 0c0-.858-.385-1.33-.945-1.33s-.945.472-.945 1.33.386 1.33.945 1.33S530.5 182.1 530.5 181.247z" class="color263238 svgShape"/><path fill="#e0e0e0" d="M535.9,177.965h0a1.925,1.925,0,0,1-1.925-1.925V139.925A1.925,1.925,0,0,1,535.9,138h0a1.924,1.924,0,0,1,1.924,1.925V176.04A1.924,1.924,0,0,1,535.9,177.965Z" class="colore0e0e0 svgShape"/><path fill="#0a80ef" d="M535.9,177.965h0a1.9,1.9,0,0,1-1.925-1.755v-4.95a1.968,1.968,0,0,1,1.925-2.1h0a1.924,1.924,0,0,1,1.924,1.925v4.95A1.924,1.924,0,0,1,535.9,177.965Z" class="colore8505b svgShape"/><path fill="#263238" d="M535.316 181.22c0 1.091-.6 1.66-1.467 1.66a1.474 1.474 0 01-.762-.175l.133-.265a1.136 1.136 0 00.624.15c.693 0 1.137-.444 1.137-1.316 0-.073 0-.165-.013-.261a1.027 1.027 0 01-.982.55.972.972 0 01-1.082-.963 1 1 0 011.1-.986C534.853 179.614 535.316 180.206 535.316 181.22zm-.454-.638c0-.353-.293-.688-.848-.688a.7.7 0 00-.785.7c0 .422.312.693.807.693A.744.744 0 00534.862 180.582zM535.791 181.247c0-1.023.537-1.633 1.279-1.633s1.285.61 1.285 1.633-.542 1.633-1.285 1.633S535.791 182.27 535.791 181.247zm2.224 0c0-.858-.385-1.33-.945-1.33s-.944.472-.944 1.33.385 1.33.944 1.33S538.015 182.1 538.015 181.247z" class="color263238 svgShape"/><path fill="#e0e0e0" d="M543.591,177.965h0a1.925,1.925,0,0,1-1.925-1.925V139.925A1.925,1.925,0,0,1,543.591,138h0a1.924,1.924,0,0,1,1.924,1.925V176.04A1.924,1.924,0,0,1,543.591,177.965Z" class="colore0e0e0 svgShape"/><path fill="#0a80ef" d="M543.591,177.965h0a1.9,1.9,0,0,1-1.925-1.755V158.427a1.967,1.967,0,0,1,1.925-2.094h0a1.924,1.924,0,0,1,1.924,1.925V176.04A1.924,1.924,0,0,1,543.591,177.965Z" class="colore8505b svgShape"/><path fill="#263238" d="M540.833 179.642v3.21h-.33v-2.917h-.757v-.293zM541.6 181.247c0-1.023.537-1.633 1.28-1.633s1.284.61 1.284 1.633-.541 1.633-1.284 1.633S541.6 182.27 541.6 181.247zm2.225 0c0-.858-.386-1.33-.945-1.33s-.945.472-.945 1.33.386 1.33.945 1.33S543.822 182.1 543.822 181.247zM544.631 181.247c0-1.023.536-1.633 1.279-1.633s1.285.61 1.285 1.633-.542 1.633-1.285 1.633S544.631 182.27 544.631 181.247zm2.224 0c0-.858-.385-1.33-.945-1.33s-.944.472-.944 1.33.385 1.33.944 1.33S546.855 182.1 546.855 181.247z" class="color263238 svgShape"/><path fill="none" d="M480.8,327.013a12.971,12.971,0,0,0-2.683,2.058,12.983,12.983,0,0,0-3.353,5.8,13.051,13.051,0,0,0,0,6.713,12.751,12.751,0,0,0,1.295,3.122,12.936,12.936,0,0,0,4.741,4.741,12.929,12.929,0,0,0,15.609-2.035c.007,0,.023-.015.031-.023a12.909,12.909,0,0,0,2.058-15.64,12.949,12.949,0,0,0-17.7-4.741Z"/><path fill="#0a80ef" d="M493.753,349.452a12.943,12.943,0,0,1-12.957,0,12.936,12.936,0,0,1-4.741-4.741,12.751,12.751,0,0,1-1.295-3.122,13.051,13.051,0,0,1,0-6.713,12.983,12.983,0,0,1,3.353-5.8,12.971,12.971,0,0,1,2.683-2.058,13,13,0,0,1,6.482-1.742V322.72a15.488,15.488,0,0,0-7.762,2.073,15.865,15.865,0,0,0-3.214,2.467,15.389,15.389,0,0,0-2.459,3.214,15.161,15.161,0,0,0-1.557,3.739,15.651,15.651,0,0,0,0,8.032,15.226,15.226,0,0,0,1.557,3.746A15.388,15.388,0,0,0,476.3,349.2a15.545,15.545,0,0,0,3.214,2.459,15.21,15.21,0,0,0,3.746,1.557,15.652,15.652,0,0,0,8.032,0,15.622,15.622,0,0,0,6.922-3.993l-1.811-1.811A12.644,12.644,0,0,1,493.753,349.452Z" class="colore8505b svgShape"/><path fill="#e0e0e0" d="M502.263,334.213a15.532,15.532,0,0,0-1.549-3.739,15.539,15.539,0,0,0-5.681-5.681,15.491,15.491,0,0,0-3.739-1.549,15.721,15.721,0,0,0-4.016-.524v2.551a12.965,12.965,0,0,1,11.216,6.483,12.96,12.96,0,0,1-2.058,15.64c-.008.008-.024.023-.031.023l1.811,1.811c.008,0,.023-.015.031-.023a15.565,15.565,0,0,0,4.016-14.992Z" class="colore0e0e0 svgShape"/><path fill="#263238" d="M484.788 339.878a1.394 1.394 0 01-1.528 1.374c-1.189 0-1.835-.825-1.835-2.238 0-1.521.832-2.315 2.046-2.315a2.053 2.053 0 011.062.244l-.186.37a1.563 1.563 0 00-.869-.211c-.966 0-1.586.62-1.586 1.835 0 .1.006.23.019.364a1.43 1.43 0 011.369-.766A1.355 1.355 0 01484.788 339.878zm-.454.012c0-.589-.434-.966-1.125-.966a1.035 1.035 0 00-1.15.979c0 .492.409.959 1.182.959A.979.979 0 00484.334 339.89zM488.359 339.9c0 .761-.531 1.356-1.625 1.356a2.308 2.308 0 01-1.6-.576l.223-.364a1.94 1.94 0 001.375.518c.761 0 1.164-.371 1.164-.914 0-.576-.358-.934-1.5-.934h-.952l.231-2.244h2.448v.409h-2.046l-.153 1.426h.575C487.847 338.573 488.359 339.1 488.359 339.9zM488.814 337.92c0-.728.409-1.215 1.01-1.215s1.011.48 1.011 1.215-.416 1.215-1.011 1.215S488.814 338.65 488.814 337.92zm1.7 0c0-.581-.275-.927-.691-.927s-.69.352-.69.927.268.928.69.928S490.515 338.5 490.515 337.92zm2.02-1.182h.378l-3.057 4.476h-.377zm-.978 3.293c0-.73.416-1.215 1.01-1.215s1.01.485 1.01 1.215-.409 1.215-1.01 1.215S491.557 340.76 491.557 340.031zm1.7 0c0-.575-.269-.927-.691-.927s-.69.345-.69.927.274.927.69.927S493.258 340.606 493.258 340.031z" class="color263238 svgShape"/><path fill="#e0e0e0" d="M547.47,338.236a15.673,15.673,0,0,1-.524,4.011,15.223,15.223,0,0,1-1.557,3.74,15.4,15.4,0,0,1-5.677,5.677,15.225,15.225,0,0,1-3.74,1.557,15.644,15.644,0,0,1-8.03,0,15.2,15.2,0,0,1-3.739-1.557,15.391,15.391,0,0,1-5.678-5.677,15.223,15.223,0,0,1-1.557-3.74,16.059,16.059,0,0,1-.49-2.936h2.572a13.46,13.46,0,0,0,.389,2.276,12.827,12.827,0,0,0,1.295,3.122,12.962,12.962,0,1,0,11.219-19.435v-2.555a15.646,15.646,0,0,1,4.019.525,15.184,15.184,0,0,1,3.74,1.556,15.411,15.411,0,0,1,5.677,5.678,15.191,15.191,0,0,1,1.557,3.74A15.675,15.675,0,0,1,547.47,338.236Z" class="colore0e0e0 svgShape"/><path fill="#263238" d="M528.456 336.483v.326l-1.874 4.15h-.5l1.841-4.067h-2.3v.838h-.453v-1.247zM531.981 339.642c0 .761-.531 1.355-1.624 1.355a2.31 2.31 0 01-1.6-.575l.224-.364a1.938 1.938 0 001.375.518c.76 0 1.163-.372 1.163-.915 0-.575-.358-.933-1.5-.933h-.953l.231-2.245h2.448v.409H529.7l-.153 1.426h.575C531.469 338.318 531.981 338.85 531.981 339.642zM532.437 337.666c0-.729.409-1.215 1.01-1.215s1.011.48 1.011 1.215-.416 1.215-1.011 1.215S532.437 338.395 532.437 337.666zm1.7 0c0-.581-.275-.927-.691-.927s-.69.352-.69.927.268.928.69.928S534.138 338.248 534.138 337.666zm2.02-1.183h.378l-3.057 4.476H533.1zm-.978 3.293c0-.729.416-1.215 1.01-1.215s1.01.486 1.01 1.215-.409 1.215-1.01 1.215S535.18 340.505 535.18 339.776zm1.7 0c0-.575-.269-.926-.691-.926s-.69.344-.69.926.274.927.69.927S536.881 340.352 536.881 339.776z" class="color263238 svgShape"/><path fill="#0a80ef" d="M544.915,338.236a12.9,12.9,0,0,1-3.8,9.155,13.041,13.041,0,0,1-2.682,2.065,12.95,12.95,0,0,1-12.954,0,13.117,13.117,0,0,1-4.746-4.747,12.827,12.827,0,0,1-1.295-3.122,13.46,13.46,0,0,1-.389-2.276h0c-.03-.356-.051-.715-.051-1.079a12.957,12.957,0,0,1,12.959-12.958v-2.558a15.513,15.513,0,0,0-15.516,15.516c0,.363.014.722.039,1.079h0a16.059,16.059,0,0,0,.49,2.936,15.223,15.223,0,0,0,1.557,3.74,15.391,15.391,0,0,0,5.678,5.677,15.2,15.2,0,0,0,3.739,1.557,15.644,15.644,0,0,0,8.03,0,15.225,15.225,0,0,0,3.74-1.557,15.4,15.4,0,0,0,5.677-5.677,15.223,15.223,0,0,0,1.557-3.74,15.673,15.673,0,0,0,.524-4.011Z" class="colore8505b svgShape"/><path fill="#e0e0e0" d="M559.69,368.069H459.542a6.747,6.747,0,0,1-6.739-6.74V305.11a6.746,6.746,0,0,1,6.739-6.739H559.69a6.747,6.747,0,0,1,6.739,6.739v56.219A6.747,6.747,0,0,1,559.69,368.069ZM459.542,299.137a5.98,5.98,0,0,0-5.973,5.973v56.219a5.98,5.98,0,0,0,5.973,5.974H559.69a5.98,5.98,0,0,0,5.973-5.974V305.11a5.98,5.98,0,0,0-5.973-5.973Z" class="colore0e0e0 svgShape"/><path fill="#e0e0e0" d="M510.666,314.165c0,.11-10.472.2-23.387.2s-23.388-.089-23.388-.2,10.469-.2,23.388-.2S510.666,314.055,510.666,314.165Z" class="colore0e0e0 svgShape"/><path fill="#263238" d="M217.736 122.167l.474-1.065a4.088 4.088 0 002.436.812c1.149 0 1.634-.411 1.634-.959 0-1.592-4.386-.548-4.386-3.29 0-1.191.949-2.2 2.973-2.2a4.673 4.673 0 012.457.654l-.432 1.065a4.1 4.1 0 00-2.035-.58c-1.139 0-1.6.443-1.6 1 0 1.571 4.376.548 4.376 3.258 0 1.181-.96 2.193-2.984 2.193A4.75 4.75 0 01217.736 122.167zM224.4 120.132a3 3 0 112.994 2.889A2.833 2.833 0 01224.4 120.132zm4.67 0a1.673 1.673 0 10-1.676 1.761A1.64 1.64 0 00229.07 120.132zM231.2 120.132a2.848 2.848 0 013.047-2.878 2.533 2.533 0 012.4 1.307l-1.012.591a1.592 1.592 0 00-1.4-.781 1.762 1.762 0 000 3.522 1.591 1.591 0 001.4-.78l1.012.59a2.558 2.558 0 01-2.4 1.318A2.857 2.857 0 01231.2 120.132zM237.61 115.6a.8.8 0 01.843-.791.785.785 0 01.844.759.844.844 0 01-1.687.032zm.179 1.718h1.318v5.631h-1.318zM245.548 119.647v3.3H244.3v-.686a1.994 1.994 0 01-1.771.759c-1.286 0-2.1-.706-2.1-1.687 0-.938.632-1.676 2.34-1.676h1.456v-.084c0-.77-.464-1.224-1.4-1.224a2.781 2.781 0 00-1.708.56l-.516-.96a3.955 3.955 0 012.382-.7C244.61 117.254 245.548 118.024 245.548 119.647zm-1.317 1.54v-.654H242.87c-.9 0-1.138.337-1.138.749 0 .474.4.78 1.075.78A1.436 1.436 0 00244.231 121.187zM247.235 115.124h1.318v7.824h-1.318zM260.1 122.948l-.011-4.893-2.425 4.049h-.611l-2.425-3.985v4.829h-1.308v-7.381h1.128l2.932 4.892 2.878-4.892h1.128l.011 7.381zM268.533 120.554h-4.418a1.7 1.7 0 001.824 1.35 2.021 2.021 0 001.529-.612l.706.812a3.162 3.162 0 01-5.377-1.972 2.8 2.8 0 012.91-2.878 2.746 2.746 0 012.847 2.91C268.554 120.269 268.543 120.428 268.533 120.554zm-4.429-.875h3.2a1.534 1.534 0 00-1.592-1.371A1.557 1.557 0 00264.1 119.679zM275.333 115.124v7.824h-1.266v-.728a2.318 2.318 0 01-1.866.8 2.884 2.884 0 010-5.767 2.3 2.3 0 011.814.759v-2.889zm-1.3 5.008a1.679 1.679 0 10-1.677 1.761A1.646 1.646 0 00274.036 120.132zM276.882 115.6a.8.8 0 01.844-.791.784.784 0 01.843.759.844.844 0 01-1.687.032zm.18 1.718h1.317v5.631h-1.317zM284.821 119.647v3.3h-1.244v-.686a1.994 1.994 0 01-1.771.759c-1.286 0-2.1-.706-2.1-1.687 0-.938.632-1.676 2.34-1.676H283.5v-.084c0-.77-.464-1.224-1.4-1.224a2.781 2.781 0 00-1.708.56l-.516-.96a3.955 3.955 0 012.382-.7C283.883 117.254 284.821 118.024 284.821 119.647zm-1.317 1.54v-.654h-1.361c-.9 0-1.139.337-1.139.749 0 .474.4.78 1.076.78A1.436 1.436 0 00283.5 121.187zM289.755 115.567h3.005a3.7 3.7 0 110 7.381h-3.005zm2.963 6.706a3.022 3.022 0 100-6.031h-2.183v6.031zM302.491 119.51v3.438h-.716v-.865a2.085 2.085 0 01-1.909.917c-1.255 0-2.024-.653-2.024-1.613 0-.854.548-1.571 2.14-1.571h1.761v-.337c0-.949-.538-1.466-1.571-1.466a2.822 2.822 0 00-1.845.654l-.338-.559a3.527 3.527 0 012.257-.749A1.97 1.97 0 01302.491 119.51zm-.748 1.772v-.907H300c-1.075 0-1.423.422-1.423.991 0 .643.516 1.044 1.4 1.044A1.775 1.775 0 00301.743 121.282zM303.756 122.315l.337-.591a3.345 3.345 0 001.972.623c1.055 0 1.487-.359 1.487-.907 0-1.445-3.6-.306-3.6-2.5 0-.907.78-1.582 2.193-1.582a3.761 3.761 0 011.961.517l-.327.6A2.845 2.845 0 00306.15 118c-1 0-1.445.39-1.445.917 0 1.5 3.6.369 3.6 2.5 0 .959-.843 1.581-2.287 1.581A3.708 3.708 0 01303.756 122.315zM314.785 119.732v3.216h-.749v-3.142a1.549 1.549 0 00-1.666-1.772 1.818 1.818 0 00-1.94 2v2.911h-.748v-7.824h.748v3.247a2.344 2.344 0 012.077-1.012A2.124 2.124 0 01314.785 119.732zM322.439 120.175A2.691 2.691 0 01319.677 123a2.4 2.4 0 01-2.141-1.149v1.1h-.717v-7.824h.749v3.332a2.423 2.423 0 012.109-1.1A2.683 2.683 0 01322.439 120.175zm-.748 0a2.069 2.069 0 10-2.067 2.161A2.037 2.037 0 00321.691 120.175zM323.408 120.175A2.821 2.821 0 11326.234 123 2.729 2.729 0 01323.408 120.175zm4.882 0a2.063 2.063 0 10-2.056 2.161A2.023 2.023 0 00328.29 120.175zM334.733 119.51v3.438h-.718v-.865a2.082 2.082 0 01-1.908.917c-1.255 0-2.024-.653-2.024-1.613 0-.854.548-1.571 2.14-1.571h1.76v-.337c0-.949-.537-1.466-1.57-1.466a2.825 2.825 0 00-1.846.654l-.337-.559a3.524 3.524 0 012.256-.749A1.971 1.971 0 01334.733 119.51zm-.75 1.772v-.907h-1.739c-1.075 0-1.424.422-1.424.991 0 .643.517 1.044 1.4 1.044A1.773 1.773 0 00333.983 121.282zM339.561 117.359v.728c-.063 0-.127-.01-.18-.01a1.794 1.794 0 00-1.866 2.045v2.826h-.748V117.4h.716v1.086A2.093 2.093 0 01339.561 117.359zM345.919 115.124v7.824H345.2v-1.1a2.4 2.4 0 01-2.14 1.149 2.821 2.821 0 010-5.641 2.423 2.423 0 012.109 1.1v-3.332zm-.739 5.051a2.063 2.063 0 10-2.056 2.161A2.028 2.028 0 00345.18 120.175z" class="color263238 svgShape"/><path fill="#ebebeb" d="M440.192,250.322c0,.144-57.109.26-127.539.26-70.454,0-127.55-.116-127.55-.26s57.1-.26,127.55-.26C383.083,250.062,440.192,250.178,440.192,250.322Z" class="colorebebeb svgShape"/><path fill="#ebebeb" d="M279.072 380.538c-.143 0-.26-54.961-.26-122.744 0-67.806.117-122.756.26-122.756s.261 54.95.261 122.756C279.333 325.577 279.216 380.538 279.072 380.538zM361.841 380.538c-.144 0-.26-54.961-.26-122.744 0-67.806.116-122.756.26-122.756s.26 54.95.26 122.756C362.1 325.577 361.985 380.538 361.841 380.538z" class="colorebebeb svgShape"/></g><g class="color000 svgShape" transform="translate(655 49)"><path fill="#263238" d="M138.753,384.91c1.127-3.9,3.54-7.679,7.271-9.287,3.882-1.673,8.379-.721,12.352.722s7.874,3.375,12.093,3.636,8.98-1.741,10.244-5.775c1.187-3.792-1.1-7.836-3.962-10.592a25,25,0,0,0-40.962,9.834" class="color263238 svgShape"/><path fill="#455a64" d="M105.327 401.857c-6.19-5.88-5.88-16.116-2.793-24.076s9.827-14.071 17.355-18.1a54.959 54.959 0 0147.9-1.552 22.733 22.733 0 00-18.381 10.793c-3.393 5.634-4.146 12.471-6.949 18.42a29 29 0 01-37.13 14.515M102.352 366.53c-6.853-8.09-7.765-21.076-6.756-31.63s3.456-21.175 1.791-31.646c-.986-6.2-3.393-12.125-4.206-18.354s.339-13.271 5.165-17.291c5.547-4.621 14.281-3.531 20.051.808s9.113 11.154 11.556 17.947c5.367 14.925 7.338 31.475 2.929 46.71s-14.756 28.857-29.935 33.456" class="color455a64 svgShape"/><path fill="#263238" d="M99.063 432.9a.833.833 0 01-.019-.237c0-.188 0-.417 0-.7.01-.61 0-1.513.055-2.672.09-2.32.316-5.675.838-9.8a131.139 131.139 0 012.637-14.344 66.18 66.18 0 016.547-16.606 69.306 69.306 0 0110.694-14.3 68.177 68.177 0 0111.21-9.328c1.711-1.185 3.366-2.084 4.79-2.918 1.461-.768 2.736-1.4 3.781-1.9l2.463-1.041.645-.258a.783.783 0 01.227-.071.854.854 0 01-.206.12l-.624.306-2.418 1.127c-1.028.532-2.285 1.187-3.726 1.976-1.4.854-3.038 1.77-4.726 2.968a70.448 70.448 0 00-21.656 23.577 66.87 66.87 0 00-6.535 16.466A138.8 138.8 0 00100.3 419.55c-.567 4.1-.848 7.445-1 9.757q-.1 1.684-.152 2.665c-.02.279-.036.506-.049.694A.812.812 0 0199.063 432.9zM39.953 334.617c-12.68 7.651-12.64 14.614-10.523 21.186s9.9 11.138 16.351 8.677c3.647-1.391 6.289-4.561 8.546-7.746s4.376-6.6 7.539-8.883 7.746-3.163 10.923-.9" class="color263238 svgShape"/><path fill="#455a64" d="M30.46,343.005c3.315-4.581,11.506-5.907,16.678-3.622s8.96,6.819,12.351,11.344,6.691,9.3,11.388,12.452,11.258,4.289,15.939,1.117a13.7,13.7,0,0,0,5.415-9.376,31.19,31.19,0,0,0-.745-11.055c-1.118-5.318-2.945-10.871-7.2-14.25-4.742-3.766-11.323-3.944-17.376-3.746-6.945.227-13.994.748-20.512,3.156s-13.17,7.606-15.937,13.98" class="color455a64 svgShape"/><path fill="#263238" d="M88.525 422.747a1.1 1.1 0 01-.032-.278c-.011-.214-.024-.483-.041-.818-.025-.759-.06-1.811-.105-3.147-.078-2.774-.188-6.718-.325-11.574-.151-4.886-.349-10.7-.7-17.154s-.838-13.541-1.817-20.923a67.286 67.286 0 00-2.1-10.629 55.12 55.12 0 00-3.888-9.3 53.6 53.6 0 00-4.906-7.7 50.043 50.043 0 00-5.357-5.877 39.269 39.269 0 00-9.5-6.466c-.62-.283-1.16-.561-1.646-.757l-1.24-.479-.76-.305a1.071 1.071 0 01-.253-.121 1.183 1.183 0 01.27.071l.779.256 1.261.434c.495.182 1.044.447 1.674.717a38.011 38.011 0 019.66 6.377 49.549 49.549 0 015.45 5.885 53.312 53.312 0 014.989 7.737 55.054 55.054 0 013.952 9.373 67.068 67.068 0 012.13 10.711c.983 7.409 1.446 14.511 1.78 20.968s.485 12.281.589 17.169.144 8.846.16 11.58c0 1.337 0 2.39.007 3.149 0 .335-.008.605-.011.819A1.118 1.118 0 0188.525 422.747zM93.087 428.477a1.916 1.916 0 01-.122-.349c-.077-.259-.179-.6-.309-1.039a40.648 40.648 0 01-.949-4.059 57.259 57.259 0 01-.573-15.294 101.708 101.708 0 014.835-22.191c2.6-8.156 6.136-16.879 9.154-26.257a120.616 120.616 0 003.642-13.895 123.781 123.781 0 001.8-13.259 193.388 193.388 0 00.4-22.67c-.221-6.458-.567-11.679-.784-15.287-.107-1.781-.19-3.175-.249-4.156-.022-.454-.04-.812-.053-1.082a1.925 1.925 0 010-.37 1.943 1.943 0 01.053.366c.026.269.061.626.1 1.078.082.98.2 2.372.347 4.15.278 3.6.68 8.823.949 15.287a187.33 187.33 0 01-.289 22.724 122.321 122.321 0 01-1.775 13.316 119.279 119.279 0 01-3.646 13.956c-3.027 9.406-6.572 18.12-9.193 26.247A103.2 103.2 0 0091.5 407.769a58.965 58.965 0 00.407 15.226c.312 1.776.6 3.15.851 4.067.108.441.194.789.258 1.051A1.957 1.957 0 0193.087 428.477z" class="color263238 svgShape"/><path fill="#263238" d="M124.522,434.206H64.986l-1.359-11.459h60.895Z" class="color263238 svgShape"/><path fill="#263238" d="M71.375,432.9l7.443,34.377h32.351l6.964-34.377Z" class="color263238 svgShape"/><path fill="#455a64" d="M124.521 434.206c0 .144-13.09.224-29.232.179s-29.234-.2-29.234-.343 13.087-.223 29.235-.178S124.521 434.063 124.521 434.206zM114.3 451.174a23.845 23.845 0 00-5.236-3.02 18.533 18.533 0 00-6.382-1.287 22.417 22.417 0 00-7.847 1.438c-2.714.918-5.248 1.986-7.713 2.575a18.4 18.4 0 01-6.661.206 13.818 13.818 0 01-4.284-1.349 8.416 8.416 0 01-1.035-.653c-.224-.167-.336-.261-.326-.276.03-.043.5.3 1.45.747a14.95 14.95 0 004.247 1.166 18.669 18.669 0 006.5-.309c2.387-.6 4.92-1.674 7.654-2.6a22.273 22.273 0 018.025-1.424 18.247 18.247 0 016.508 1.425 16.9 16.9 0 013.881 2.255 10.119 10.119 0 01.927.794C114.215 451.054 114.315 451.161 114.3 451.174z" class="color455a64 svgShape"/><path fill="#fff" d="M113.851,453.47a24.976,24.976,0,0,0-5.029-2.981,17.076,17.076,0,0,0-6.153-1.273,22.154,22.154,0,0,0-7.591,1.364c-2.624.877-5.084,1.9-7.433,2.528a19.119,19.119,0,0,1-6.4.723,10.874,10.874,0,0,1-4.2-1.115,7.6,7.6,0,0,1-1-.63c-.217-.162-.324-.253-.314-.268.03-.044.488.291,1.4.715a11.523,11.523,0,0,0,4.133.931,19.564,19.564,0,0,0,6.25-.818c2.3-.648,4.747-1.674,7.4-2.56a21.94,21.94,0,0,1,7.766-1.349,16.861,16.861,0,0,1,10,3.654,10.922,10.922,0,0,1,.889.775C113.767,453.352,113.863,453.456,113.851,453.47Z" class="colorfff svgShape"/><path fill="#fff" d="M114.893,448.895c-.034.04-.483-.364-1.377-.978a21.859,21.859,0,0,0-4-2.21,19.782,19.782,0,0,0-6.54-1.577,21.123,21.123,0,0,0-8.1,1.425,73.322,73.322,0,0,1-7.985,2.61,20.367,20.367,0,0,1-6.88.016,15.521,15.521,0,0,1-4.422-1.392,8.223,8.223,0,0,1-1.075-.663c-.233-.171-.349-.267-.338-.282.03-.043.52.312,1.5.762a16.957,16.957,0,0,0,4.391,1.211,20.773,20.773,0,0,0,6.732-.124,80.331,80.331,0,0,0,7.909-2.632,21.1,21.1,0,0,1,8.294-1.41,20.073,20.073,0,0,1,10.632,4.1,11.4,11.4,0,0,1,.956.819C114.8,448.772,114.9,448.882,114.893,448.895Z" class="colorfff svgShape"/></g></g></svg></svg>