<svg xmlns="http://www.w3.org/2000/svg" width="25.13" height="25.18" viewBox="0 0 25.13 25.18">
  <g id="_597177" data-name="597177" transform="translate(-0.009 0.65)" opacity="0.8">
    <g id="Group_294" data-name="Group 294" transform="translate(0.539 0)">
      <path id="Path_2859" data-name="Path 2859" d="M23.861,17.614l-3.349-3.349A2.228,2.228,0,0,0,16.8,15.1a2.279,2.279,0,0,1-2.632,1.435c-2.392-.6-5.622-3.708-6.22-6.22A2.168,2.168,0,0,1,9.387,7.685a2.228,2.228,0,0,0,.837-3.708L6.875.628a2.389,2.389,0,0,0-3.23,0L1.373,2.9C-.9,5.293,1.612,11.633,7.234,17.255S19.2,25.508,21.588,23.116l2.273-2.273A2.389,2.389,0,0,0,23.861,17.614Z" transform="translate(-0.539 0)" fill="none" stroke="#fff" stroke-width="1"/>
    </g>
  </g>
</svg>
