<svg xmlns="http://www.w3.org/2000/svg" xmlns:svgjs="http://svgjs.com/svgjs" xmlns:xlink="http://www.w3.org/1999/xlink" width="288" height="288"><svg xmlns="http://www.w3.org/2000/svg" width="288" height="288" viewBox="0 0 100 100"><g class="color000 svgShape" data-name="Group 753" transform="translate(-465 -5548)"><circle cx="50" cy="50" r="50" fill="#344056" class="colorf95665 svgShape" data-name="Ellipse 310" transform="translate(465 5548)"/><g class="color000 svgShape" data-name="3073393" transform="translate(490 5523.936)"><path fill="#fafafa" d="M50.269,64.682,40.091,54.5a1.506,1.506,0,0,0-2.127,0l-4.486,4.49a1.506,1.506,0,0,0,0,2.127l.5.5L32.59,63l-4.447-1.13a3.233,3.233,0,0,0-3.069.844L21.348,66.44a1.734,1.734,0,0,0-.342.024l-2.86.5-1.413-1.413.5-.5a1.506,1.506,0,0,0,0-2.127l-4.486-4.486a1.506,1.506,0,0,0-2.127,0l-2.869,2.87a.743.743,0,0,0,1.05,1.05l2.868-2.868a.019.019,0,0,1,.026,0l4.486,4.486a.018.018,0,0,1,0,.026L6,74.181a.019.019,0,0,1-.026,0L1.491,69.7a.021.021,0,0,1,0-.026l5.022-5.022a.743.743,0,0,0-1.05-1.05L.441,68.619a1.5,1.5,0,0,0,0,2.127l4.486,4.486a1.506,1.506,0,0,0,2.127,0l.5-.5,1.413,1.413-.5,2.86a1.735,1.735,0,0,0,.482,1.523L12.3,83.882a.743.743,0,0,0,1.05-1.05L10,79.479a.248.248,0,0,1-.069-.218l.565-3.24a.743.743,0,0,0-.207-.653L8.6,73.683,15.683,66.6l1.686,1.685a.743.743,0,0,0,.525.218.752.752,0,0,0,.128-.011l1.542-.269L17.693,70.1a2.952,2.952,0,1,0,4.175,4.175l2.945-2.945L35.694,82.214A1.474,1.474,0,0,1,33.612,84.3h0l-3.924-3.924a.743.743,0,0,0-1.05,1.05l3.924,3.924L34.108,86.9a1.472,1.472,0,0,1-2.082,2.082l-1.547-1.547L26.555,83.5a.743.743,0,0,0-1.05,1.05l3.924,3.924a1.472,1.472,0,1,1-2.082,2.082L25.8,89.018h0l-2.377-2.377a.743.743,0,0,0-1.05,1.05l2.378,2.378a1.472,1.472,0,1,1-2.082,2.082L15.64,85.12a.743.743,0,0,0-1.05,1.05l7.027,7.03a2.957,2.957,0,0,0,4.953-1.344,2.96,2.96,0,0,0,4.681-1.585,2.959,2.959,0,0,0,4.15-4.153A2.957,2.957,0,0,0,36.957,81.4l1.073-1.073a.743.743,0,1,0-1.05-1.05l-1.061,1.061-8.154-8.154a4.535,4.535,0,0,0,2.906-1.321.743.743,0,0,0-1.05-1.05,3.071,3.071,0,0,1-3.846.4h0a3.1,3.1,0,0,1-.491-.4.743.743,0,0,0-1.05,0l-3.41,3.41a1.467,1.467,0,0,1-2.074-2.074l7.381-7.381a1.741,1.741,0,0,1,1.653-.454l4.856,1.234h.018l.041.008h.215l.037,0,.036-.007.032-.008.04-.012.027-.009.042-.017.023-.011.041-.021.023-.014.036-.024.026-.019.029-.023.03-.027.014-.013,1.685-1.685,7.081,7.081-1.685,1.685a.743.743,0,0,0-.206.653l.432,2.48a1.735,1.735,0,0,1-.482,1.523l-.9.9a.743.743,0,1,0,1.05,1.05l.9-.9a3.222,3.222,0,0,0,.9-2.829l-.366-2.1,1.4-1.4.5.5a1.506,1.506,0,0,0,2.127,0l4.486-4.486a1.5,1.5,0,0,0,0-2.127Zm-1.051,1.077-4.486,4.486a.019.019,0,0,1-.026,0l-1.023-1.023h0L35.552,61.09h0l-1.023-1.023a.018.018,0,0,1,0-.026l4.486-4.486a150927.271,150927.271,0,0,1,.026,0L49.219,65.733a.021.021,0,0,1,0,.026Z" class="colorfafafa svgShape" data-name="Path 4319"/><path fill="#fafafa" d="M424.527,145.015a2.2,2.2,0,1,0,3.115,0A2.2,2.2,0,0,0,424.527,145.015Zm2.056,2.056a.7.7,0,1,1,.21-.5.7.7,0,0,1-.21.5Z" class="colorfafafa svgShape" data-name="Path 4320" transform="translate(-381.973 -81.372)"/><path fill="#fafafa" d="M44.663,187.878a2.188,2.188,0,1,0-.651-1.558,2.2,2.2,0,0,0,.651,1.558Zm1.059-2.056a.7.7,0,1,1-.21.5.7.7,0,0,1,.21-.5Z" class="colorfafafa svgShape" data-name="Path 4321" transform="translate(-39.623 -117.187)"/></g></g></svg></svg>