<svg xmlns="http://www.w3.org/2000/svg" width="47.326" height="47.326" viewBox="0 0 47.326 47.326">
  <g id="fact" transform="translate(-4.75 -4.75)">
    <path id="Path_3587" data-name="Path 3587" d="M93.92,45.328a.7.7,0,0,0-1.4.067l.109,2.28a.7.7,0,0,0,.7.665h.034a.7.7,0,0,0,.668-.732Z" transform="translate(-52.717 -23.972)" fill="#f95665"/>
    <path id="Path_3588" data-name="Path 3588" d="M94.97,10.75a3.1,3.1,0,0,0-3.1,3.1.7.7,0,1,0,1.4,0,1.7,1.7,0,0,1,1.7-1.7h2.107a.7.7,0,1,0,0-1.4Z" transform="translate(-52.329 -3.604)" fill="#f95665"/>
    <path id="Path_3589" data-name="Path 3589" d="M114.909,10.75h-3.683a.7.7,0,1,0,0,1.4h3.683a.7.7,0,1,0,0-1.4Z" transform="translate(-63.532 -3.604)" fill="#f95665"/>
    <path id="Path_3590" data-name="Path 3590" d="M118.039,6.148H119a.7.7,0,1,0,0-1.4h-.962a.7.7,0,1,0,0,1.4Z" transform="translate(-67.624 0)" fill="#f95665"/>
    <path id="Path_3591" data-name="Path 3591" d="M86.574,10.94a.7.7,0,0,0,.7-.7,4.1,4.1,0,0,1,4.094-4.094H95.3a.7.7,0,1,0,0-1.4h-3.93a5.5,5.5,0,0,0-5.491,5.491A.7.7,0,0,0,86.574,10.94Z" transform="translate(-48.726 0)" fill="#f95665"/>
    <path id="Path_3592" data-name="Path 3592" d="M51.377,58.906h-1.7v-15.2a.7.7,0,0,0-.7-.7H44.128l-.8-16.835a.7.7,0,0,0,.414-.639v-2.4a.7.7,0,0,0-.7-.7H35.053a.7.7,0,0,0-.7.7v2.4a.7.7,0,0,0,.414.639l-.8,16.835H24.443V39.736h1.7a.7.7,0,0,0,.7-.7v-2.4a.7.7,0,0,0-.7-.7H5.449a.7.7,0,0,0-.7.7v2.4a.7.7,0,0,0,.7.7h1.7v19.17h-1.7a.7.7,0,0,0-.7.7V62a.7.7,0,0,0,.7.7H51.377a.7.7,0,0,0,.7-.7V59.6A.7.7,0,0,0,51.377,58.906ZM35.752,23.837h6.59v1h-6.59Zm.413,2.4h5.764l.8,16.774H35.365ZM48.282,44.405v14.5H24.443V44.4ZM6.148,37.34H25.441v1H6.148Zm2.4,2.4h14.5v19.17H18.89V51.617a.7.7,0,0,0-.7-.7H13.4a.7.7,0,0,0-.7.7v7.289H8.544Zm8.946,19.17H14.1v-6.59H17.49Zm33.188,2.4H6.148v-1H50.678Z" transform="translate(0 -10.624)" fill="#f95665"/>
    <path id="Path_3593" data-name="Path 3593" d="M28.349,82.711h2.4a.7.7,0,0,0,.7-.7v-2.4a.7.7,0,0,0-.7-.7h-2.4a.7.7,0,0,0-.7.7v2.4a.7.7,0,0,0,.7.7Zm.7-2.4h1v1h-1Z" transform="translate(-13.754 -44.546)" fill="#f95665"/>
    <path id="Path_3594" data-name="Path 3594" d="M60.257,94.639h2.4a.7.7,0,0,0,.7-.7v-2.4a.7.7,0,0,0-.7-.7h-2.4a.7.7,0,0,0-.7.7v2.4a.7.7,0,0,0,.7.7Zm.7-2.4h1v1h-1Z" transform="translate(-32.919 -51.711)" fill="#f95665"/>
    <path id="Path_3595" data-name="Path 3595" d="M79.849,94.639h2.4a.7.7,0,0,0,.7-.7v-2.4a.7.7,0,0,0-.7-.7h-2.4a.7.7,0,0,0-.7.7v2.4a.7.7,0,0,0,.7.7Zm.7-2.4h1v1h-1Z" transform="translate(-44.686 -51.711)" fill="#f95665"/>
    <path id="Path_3596" data-name="Path 3596" d="M99.449,94.639h2.4a.7.7,0,0,0,.7-.7v-2.4a.7.7,0,0,0-.7-.7h-2.4a.7.7,0,0,0-.7.7v2.4a.7.7,0,0,0,.7.7Zm.7-2.4h1v1h-1Z" transform="translate(-56.459 -51.711)" fill="#f95665"/>
  </g>
</svg>
