<svg xmlns="http://www.w3.org/2000/svg" xmlns:svgjs="http://svgjs.com/svgjs" xmlns:xlink="http://www.w3.org/1999/xlink" width="288" height="288"><svg xmlns="http://www.w3.org/2000/svg" width="288" height="288" viewBox="0 0 100 100"><g class="color000 svgShape" data-name="Group 752" transform="translate(-628 -5548)"><circle cx="50" cy="50" r="50" fill="#344056" class="colorf95665 svgShape" data-name="Ellipse 316" transform="translate(628 5548)"/><g class="color000 svgShape" data-name="813419"><g class="color000 svgShape" data-name="Group 736" transform="translate(656 5556.667)"><g class="color000 svgShape" data-name="Group 735" transform="translate(0 21.333)"><path fill="#fafafa" d="M107.577,129.82h20.034a.911.911,0,0,0,0-1.821H107.577a.911.911,0,0,0,0,1.821Z" class="colorfafafa svgShape" data-name="Path 4322" transform="translate(-97.591 -118.909)"/><path fill="#fafafa" d="M118.5,256H107.577a.911.911,0,1,0,0,1.821H118.5a.911.911,0,0,0,0-1.821Z" class="colorfafafa svgShape" data-name="Path 4323" transform="translate(-97.582 -236.002)"/><path fill="#fafafa" d="M40.156,24.969c-.053,0-.1.013-.156.016v-.016a3.641,3.641,0,0,0-3.636-3.636H3.636A3.641,3.641,0,0,0,0,24.969V60.424a.909.909,0,0,0,.561.84.9.9,0,0,0,.348.069.909.909,0,0,0,.643-.266l8.825-8.825H36.364A3.641,3.641,0,0,0,40,48.606V33.527l2.617-2.617h0a3.48,3.48,0,0,0-2.461-5.94ZM38.182,48.606a1.82,1.82,0,0,1-1.818,1.818H10a.909.909,0,0,0-.643.266L1.818,58.229V24.969a1.82,1.82,0,0,1,1.818-1.818H36.364a1.82,1.82,0,0,1,1.818,1.818v.621a3.42,3.42,0,0,0-.486.4l-9.9,9.888H10A.911.911,0,0,0,10,37.7H26.345l-.873,4.367a.909.909,0,0,0,.891,1.088.929.929,0,0,0,.178-.018l4.544-.909a.9.9,0,0,0,.465-.249l6.632-6.631ZM30.46,40.5l-2.937.588.588-2.94L36.363,29.9l2.351,2.351ZM41.332,29.625,40,30.957l-2.351-2.351,1.332-1.332a1.663,1.663,0,1,1,2.351,2.352Z" class="colorfafafa svgShape" data-name="Path 4324" transform="translate(0 -21.333)"/></g></g></g></g></svg></svg>