<svg xmlns="http://www.w3.org/2000/svg" width="106.025" height="96.389" viewBox="0 0 106.025 96.389">
  <g id="finance" transform="translate(0 -23.265)">
    <path id="Path_3581" data-name="Path 3581" d="M80.185,314.285c-2.039,0-5.016-1-11.63-8.4-3.361-3.762-6.116-7.462-6.231-7.618a2.977,2.977,0,0,1-.212-.329,15.314,15.314,0,0,1-1.922-7.419V271.7a2.972,2.972,0,0,1,2.972-2.972H87.2a12.961,12.961,0,0,1,9.144,3.744l12.307,12.111a9.115,9.115,0,0,1-12.874,12.908L83.481,285.194c-1.221-.009-3.206-.018-4.791-.025l-2.241-.011a2.972,2.972,0,0,1,.015-5.943h.016l2.237.011c1.406.006,2.911.013,4.065.021.583,0,1.077.007,1.427.012a3.289,3.289,0,0,1,2.621.882l13.147,13.147a3.172,3.172,0,0,0,4.486-4.486L92.173,276.707a7.053,7.053,0,0,0-4.975-2.037H66.133v15.85a9.36,9.36,0,0,0,1.084,4.367c.542.718,2.813,3.7,5.481,6.714,5.276,5.963,7.292,6.67,7.559,6.741l32.128-.006c2.19,0,4.743-1.147,7.169-2.321,2.049-.991,17.257-11.307,26.362-17.576q.075-.051.152-.1a3.6,3.6,0,0,0-3.663-6.188l-22.2,14.72a2.972,2.972,0,1,1-3.285-4.953l22.258-14.761c.036-.024.072-.047.109-.069a9.539,9.539,0,0,1,9.927,16.291c-2.753,1.9-23.973,16.483-27.076,17.984-3.047,1.475-6.311,2.915-9.758,2.915l-32.2.006Z" transform="translate(-47.726 -194.631)" fill="#293345"/>
    <rect id="Rectangle_392" data-name="Rectangle 392" width="17.425" height="39.26" transform="translate(2.972 73.417)" fill="#293345"/>
    <g id="Group_509" data-name="Group 509" transform="translate(0 23.265)">
      <path id="Path_3582" data-name="Path 3582" d="M20.4,296.3H2.972A2.972,2.972,0,0,1,0,293.33V254.072A2.972,2.972,0,0,1,2.972,251.1H20.4a2.972,2.972,0,0,1,2.972,2.972V293.33A2.972,2.972,0,0,1,20.4,296.3ZM5.943,290.359H17.424V257.043H5.943Z" transform="translate(0 -203.92)" fill="#293345"/>
      <path id="Path_3583" data-name="Path 3583" d="M188.113,67.623a22.179,22.179,0,1,1,22.179-22.179A22.2,22.2,0,0,1,188.113,67.623Zm0-38.414a16.236,16.236,0,1,0,16.236,16.236A16.254,16.254,0,0,0,188.113,29.208Z" transform="translate(-131.572 -23.265)" fill="#293345"/>
    </g>
    <circle id="Ellipse_223" data-name="Ellipse 223" cx="19.208" cy="19.208" r="19.208" transform="translate(53.048 41.042)" fill="#eefff3"/>
    <g id="Group_510" data-name="Group 510" transform="translate(50.078 38.071)">
      <path id="Path_3584" data-name="Path 3584" d="M264.008,139.122a22.179,22.179,0,1,1,22.179-22.179A22.2,22.2,0,0,1,264.008,139.122Zm0-38.415a16.236,16.236,0,1,0,16.236,16.236A16.254,16.254,0,0,0,264.008,100.707Z" transform="translate(-241.829 -94.764)" fill="#293345"/>
      <path id="Path_3585" data-name="Path 3585" d="M323.032,169.426c-3.212-.107-5.836-1.767-5.836-3.48,0-.91.8-2.248,1.82-2.248,1.124,0,2.035,1.579,4.016,1.927v-4.337c-2.463-.937-5.354-2.088-5.354-5.515,0-3.4,2.516-5.033,5.354-5.434v-.749c0-.375.428-.723,1.017-.723.508,0,1.017.348,1.017.723v.669c1.659.053,4.792.482,4.792,2.329,0,.723-.482,2.2-1.66,2.2-.883,0-1.392-.857-3.132-.99V157.7c2.436.91,5.273,2.168,5.273,5.782,0,3.319-2.142,5.327-5.273,5.836v.777c0,.375-.509.723-1.017.723-.589,0-1.017-.348-1.017-.723v-.67Zm.268-12.368v-3.186c-1.2.241-1.713.857-1.713,1.5C321.586,156.148,322.282,156.63,323.3,157.058Zm1.5,4.952V165.6c.91-.214,1.633-.723,1.633-1.687C326.432,163.028,325.762,162.466,324.8,162.01Z" transform="translate(-301.589 -137.663)" fill="#293345"/>
    </g>
  </g>
</svg>
