<svg xmlns="http://www.w3.org/2000/svg" xmlns:xlink="http://www.w3.org/1999/xlink" width="1920" height="453" viewBox="0 0 1920 453">
  <defs>
    <clipPath id="clip-path">
      <rect id="Rectangle_1008" data-name="Rectangle 1008" width="1920" height="453" transform="translate(-16730 12994)" fill="#fff" stroke="#707070" stroke-width="1"/>
    </clipPath>
  </defs>
  <g id="Mask_Group_2" data-name="Mask Group 2" transform="translate(16730 -12994)" clip-path="url(#clip-path)">
    <g id="Group_770" data-name="Group 770" transform="translate(-16730.5 12366.844)">
      <path id="Path_2797" data-name="Path 2797" d="M7.87,218.451h4.417v23.5H9.69v3.975h2.6v22.527H9.69v1.873h2.6v22.7H72.855v-22.7h2.721v-1.873H72.855V245.926h2.721V241.95H72.855v-23.5h4.417L65.5,206.6v-10.6H58.932v3.922l-16.273-16.4L7.87,218.4Zm26.5,7.332v14.294H22.747V225.783a5.813,5.813,0,1,1,11.626,0Zm0,53.006v6.961H22.747v-6.961c0-1.484,2.6-2.686,5.813-2.686S34.373,277.3,34.373,278.789Zm29.206,0v6.961H51.953v-6.961c0-1.484,2.6-2.686,5.813-2.686S63.579,277.3,63.579,278.789Zm-14.612,0v6.961H37.341v-6.961c0-1.484,2.6-2.686,5.813-2.686s5.813,1.2,5.813,2.686ZM34.373,250.926v13.905H22.747V250.926a5.831,5.831,0,0,1,11.626,0Zm29.206,0v13.905H51.953V250.926a5.838,5.838,0,0,1,11.626,0Zm-14.612,0v13.905H37.341V250.926a5.831,5.831,0,0,1,11.626,0Zm14.612-25.089V240.13H51.953V225.836a5.813,5.813,0,0,1,11.626,0Zm-14.612,0V240.13H37.341V225.836a5.813,5.813,0,0,1,11.626,0Z" transform="translate(1824.822 772.4)" fill="none" stroke="#0a80ef" stroke-width="1" fill-rule="evenodd"/>
      <path id="Path_2798" data-name="Path 2798" d="M70.7,212.386H85.373v7l21.533-17.944h90.762l18.626,16.114v-5.168h14.786v17.765l30.4,26.163h-5.706V359.565H47.26V256.314H41.41L70.7,231.694V212.386Zm115.274,55.268h10.982V279.39H185.969Zm-55.842,0h10.8V279.39H130.162V267.654Zm0,72.71h10.8v18.3H130.162v-18.3Zm30.4,0h10.982v18.3H160.524Zm-30.362-18.2h10.767V333.9H130.162Zm30.4,0h10.946V333.9H160.524V322.169Zm-30.4-18.231h10.767v11.736H130.162Zm30.4,0h10.946v11.736H160.524V303.938Zm-30.4-17.944h10.767v11.7H130.162Zm30.4,0h10.946v11.7H160.524v-11.7Zm0-18.2h10.946v11.736H160.524V267.8Zm-90.08,0H81.426v11.736H70.444V267.8Zm0,72.71H81.426v11.7H70.444v-11.7Zm38.078,0H119.4v11.7H108.629v-11.7Zm-19.057,0h10.946v11.7H89.465v-11.7Zm-19.021-18.2H81.426v11.736H70.444V322.312Zm38.078,0H119.4v11.736H108.629V322.312Zm-19.057,0h10.946v11.736H89.465V322.312ZM70.48,304.153H81.426v11.736H70.444V303.938Zm38.149-.215H119.4v11.736H108.629Zm-19.057,0h10.874v11.736H89.465V303.938Zm-19.021-18.16H81.426v11.7H70.444V285.993Zm38.078.215H119.4v11.7H108.629Zm-19.057,0h10.874v11.7H89.465v-11.7Zm19.057-18.339H119.4V279.39H108.629Zm-19.057,0h10.874V279.39H89.465V267.654Zm96.4,72.71h10.982v11.7H185.969Zm38.078,0h10.982v11.7H224.047Zm-19.057,0h10.982v11.7H204.99Zm-19.021-18.2h10.982V333.9H185.969Zm38.078,0h10.982V333.9H224.047Zm-19.057,0h10.982V333.9H204.99Zm-19.021-18.16h10.982v11.736H185.969V303.938Zm38.078,0h10.982v11.736H224.047V303.938Zm-19.057,0h10.982v11.736H204.99V303.938Zm-19.021-18.16h10.982v11.7H185.969v-11.7Zm38.078,0h10.982v11.7H224.047v-11.7Zm-19.057,0h10.982v11.7H204.99v-11.7Zm19.057-18.2h10.982V279.39H224.047Zm-19.057,0h10.982V279.39H204.99Z" transform="translate(1073.219 701.004)" fill="none" stroke="#0a80ef" stroke-width="1" fill-rule="evenodd"/>
      <path id="Path_2799" data-name="Path 2799" d="M399,201.922h9.617v5.726h1.149v-5.726h14.355v5.726h1.149v-5.726h9.6l6.976-19.092h-36.29L399.1,201.922Zm4.355-10.081h10.524l3.266-8.327H406.278l-2.923,8.327Zm20.06,9.234h10.5l3.266-8.306H426.338Zm-11.714,0h10.524l3.266-8.306H414.625l-2.923,8.306Zm-11.714,0h10.524l3.266-8.306H402.911l-2.923,8.306Zm26.794-9.234h10.5l3.266-8.327H429.746l-2.923,8.327Zm-11.714,0h10.524l3.266-8.327H417.992l-2.923,8.327Z" transform="translate(-141.395 757.087)" fill="#344056" fill-rule="evenodd"/>
      <path id="Path_2800" data-name="Path 2800" d="M473.47,131.482h9.617v5.726h1.149v-5.726h14.355v5.726h1.149v-5.726h9.6l6.935-19.092h-36.29l-6.452,19.092Zm4.355-10.08h10.524l3.266-8.326H480.748l-2.923,8.326Zm20.04,9.254h10.524l3.266-8.326H500.808Zm-11.693,0h10.5l3.286-8.326H488.994l-2.923,8.326Zm-11.714,0h10.5l3.266-8.326H477.361l-2.923,8.326Zm26.774-9.254h10.524l3.266-8.326H504.175Zm-11.693,0h10.5l3.286-8.326H492.462l-2.923,8.326Z" transform="translate(-393.502 672.23)" fill="#344056" fill-rule="evenodd"/>
      <path id="Path_2801" data-name="Path 2801" d="M384.14,231.24h4.476V164.366H384.14V159.89h79.233v4.476h-2.359V231.24H568.533v5h-4.738v92.74H388.616V236.24H384.14Zm10.242-59.616h7.681v7.9h-7.681ZM549.42,318.355h7.661v7.9H549.42Zm-10.343,0h7.681v7.9h-7.681Zm-10.322,0h7.661v7.9h-7.661Zm-10.343,0h7.661v7.9h-7.661v-7.9Zm-10.343,0h7.681v7.9H508.07Zm41.35-12.56h7.661v7.9H549.42Zm-10.343,0h7.681v7.9h-7.681Zm-10.322,0h7.661v7.9h-7.661Zm-10.343,0h7.661v7.9h-7.661v-7.9Zm-10.343,0h7.681v7.9H508.07Zm41.35-12.621h7.661v8.064H549.42Zm-10.343,0h7.681v8.064h-7.681Zm-10.322,0h7.661v8.064h-7.661Zm-10.343,0h7.661v8.064h-7.661Zm-10.343,0h7.681v8.064H508.07Zm41.35-12.58h7.661v7.923H549.42Zm-10.343,0h7.681v7.923h-7.681Zm-10.322,0h7.661v7.923h-7.661Zm-10.343,0h7.661v7.923h-7.661Zm-10.343,0h7.681v7.923H508.07Zm41.35-12.56h7.661v7.9H549.42Zm-10.343,0h7.681v7.9h-7.681Zm-10.322,0h7.661v7.9h-7.661Zm-10.343,0h7.661v7.9h-7.661Zm-10.343,0h7.681v7.9H508.07Zm41.35-12.56h7.661v7.9H549.42Zm-10.343,0h7.681v7.9h-7.681Zm-10.322,0h7.661v7.9h-7.661Zm-10.343,0h7.661v7.9h-7.661Zm-10.343,0h7.681v7.9H508.07Zm41.35-12.56h7.661v7.923H549.42v-7.863Zm-10.343,0h7.681v7.923h-7.681v-7.863Zm-10.322,0h7.661v7.923h-7.661v-7.863Zm-10.343,0h7.661v7.923h-7.661v-7.863Zm-10.343,0h7.681v7.923H508.07v-7.863Zm-10.322,75.382h7.661v7.9h-7.661Zm-10.343,0h7.681v7.9H487.4Zm-10.343,0h7.681v7.9h-7.681Zm-10.322,0H474.4v7.9H466.74Zm-10.343,0h7.581v7.9H456.3v-7.9Zm41.35-12.56h7.661v7.9h-7.661Zm-10.343,0h7.681v7.9H487.4Zm-10.343,0h7.681v7.9h-7.681Zm-10.322,0H474.4v7.9H466.74Zm-10.343,0h7.581v7.9H456.3v-7.9Zm41.35-12.56h7.661v8.064h-7.661Zm-10.343,0h7.681v8.064H487.4Zm-10.343,0h7.681v8.064h-7.681Zm-10.322,0H474.4v8.064H466.74Zm-10.343,0h7.581v8.064H456.3v-8.064Zm41.35-12.58h7.661v7.923h-7.661Zm-10.343,0h7.681v7.923H487.4Zm-10.343,0h7.681v7.923h-7.681Zm-10.322,0H474.4v7.923H466.74Zm-10.343,0h7.581v7.923H456.3v-7.923Zm41.35-12.56h7.661v7.9h-7.661Zm-10.343,0h7.681v7.9H487.4Zm-10.343,0h7.681v7.9h-7.681Zm-10.322,0H474.4v7.9H466.74Zm-10.343,0h7.581v7.9H456.3v-7.9Zm41.35-12.56h7.661v7.9h-7.661Zm-10.343,0h7.681v7.9H487.4Zm-10.343,0h7.681v7.9h-7.681Zm-10.322,0H474.4v7.9H466.74Zm-10.343,0h7.581v7.9H456.3v-7.9Zm41.35-12.56h7.661v7.923h-7.661v-7.863Zm-10.343,0h7.681v7.923H487.4v-7.863Zm-10.343,0h7.681v7.923h-7.681v-7.863Zm-10.322,0H474.4v7.923H466.74v-7.863Zm-10.343,0h7.581v7.923H456.3v-7.863Zm-62.015,0h7.681v7.923h-7.681v-7.863Zm0,75.382h7.681v7.9h-7.681Zm51.673,0h7.681v7.9h-7.681Zm-10.322,0h7.661v7.9h-7.641v-7.9Zm-10.343,0h7.681v7.9h-7.681Zm-10.343,0h7.681v7.9h-7.681Zm-10.322,0h7.661v7.9h-7.661Zm-10.343-12.56h7.681v7.9h-7.681Zm51.673,0h7.681v7.9h-7.681Zm-10.322,0h7.661v7.9h-7.641v-7.9Zm-10.343,0h7.681v7.9h-7.681Zm-10.343,0h7.681v7.9h-7.681Zm-10.322,0h7.661v7.9h-7.661Zm-10.343-12.56h7.681v8.064h-7.681v-8.064Zm51.673,0h7.681v8.064h-7.681v-8.064Zm-10.322,0h7.661v8.064h-7.641v-8.064Zm-10.343,0h7.681v8.064h-7.681v-8.064Zm-10.343,0h7.681v8.064h-7.681v-8.064Zm-10.322,0h7.661v8.064h-7.661v-8.064Zm-10.343-12.58h7.681v7.923h-7.681Zm51.673,0h7.681v7.923h-7.681Zm-10.322,0h7.661v7.923h-7.641v-7.923Zm-10.343,0h7.681v7.923h-7.681Zm-10.343,0h7.681v7.923h-7.681Zm-10.322,0h7.661v7.923h-7.661Zm-10.343-12.56h7.681v7.9h-7.681Zm51.673,0h7.681v7.9h-7.681Zm-10.322,0h7.661v7.9h-7.641v-7.9Zm-10.343,0h7.681v7.9h-7.681Zm-10.343,0h7.681v7.9h-7.681Zm-10.322,0h7.661v7.9h-7.661Zm-10.343-12.56h7.681v7.9h-7.681Zm51.673,0h7.681v7.9h-7.681Zm-10.322,0h7.661v7.9h-7.641v-7.9Zm-10.343,0h7.681v7.9h-7.681Zm-10.343,0h7.681v7.9h-7.681Zm-10.322,0h7.661v7.9h-7.661Zm41.33-12.56h7.681v7.923h-7.681v-7.863Zm-10.322,0h7.661v7.923h-7.641v-7.863Zm-10.343,0h7.681v7.923h-7.681v-7.863Zm-10.343,0h7.681v7.923h-7.681v-7.863Zm-10.322,0h7.661v7.923h-7.661v-7.863Zm-10.343-21.088h7.681v7.9h-7.681Zm51.673,0h7.681v7.9h-7.681Zm-10.322,0h7.661v7.9h-7.641v-7.9Zm-10.343,0h7.681v7.9h-7.681Zm-10.343,0h7.681v7.9h-7.681Zm-10.322,0h7.661v7.9h-7.661Zm-10.343-12.56h7.681v7.9h-7.681Zm51.673,0h7.681v7.9h-7.681Zm-10.322,0h7.661v7.9h-7.641v-7.9Zm-10.343,0h7.681v7.9h-7.681Zm-10.343,0h7.681v7.9h-7.681Zm-10.322,0h7.661v7.9h-7.661ZM394.382,196.7h7.681v7.9h-7.681Zm51.673,0h7.681v7.9h-7.681Zm-10.322,0h7.661v7.9h-7.641v-7.9Zm-10.343,0h7.681v7.9h-7.681Zm-10.343,0h7.681v7.9h-7.681Zm-10.322,0h7.661v7.9h-7.661Zm-10.343-12.58h7.681v7.923h-7.681Zm51.673,0h7.681v7.923h-7.681Zm-10.322,0h7.661v7.923h-7.641v-7.923Zm-10.343,0h7.681v7.923h-7.681Zm-10.343,0h7.681v7.923h-7.681Zm-10.322,0h7.661v7.923h-7.661Zm41.33-12.56h7.681v7.9h-7.681Zm-10.322,0h7.661v7.9h-7.641v-7.9Zm-10.343,0h7.681v7.9h-7.681Zm-10.343,0h7.681v7.9h-7.681Zm-10.322,0h7.661v7.9h-7.661Z" transform="translate(-238.127 733.777)" fill="none" stroke="#0a80ef" stroke-width="1" fill-rule="evenodd"/>
      <path id="Path_2802" data-name="Path 2802" d="M501.38,131.482H511v5.726h1.149v-5.726H526.5v5.726h1.149v-5.726h9.617L544.2,112.39h-36.29l-6.452,19.092Zm4.355-10.08h10.524l3.266-8.326H508.678Zm20.161,9.254H536.42l3.266-8.326H528.819l-2.923,8.326Zm-11.714,0h10.423l3.266-8.326H517.025l-2.944,8.326Zm-11.714,0h10.524l3.266-8.326H505.412Zm26.794-9.254h10.524l3.165-8.226H532.085l-2.923,8.326Zm-11.714,0h10.524l3.266-8.326H520.493Z" transform="translate(-468.701 672.23)" fill="#344056" fill-rule="evenodd"/>
      <path id="Path_2803" data-name="Path 2803" d="M576.637,119.41H475.53v9.576h5.2V370.031h89.878V128.986h6.048V119.41Zm-18.145,92.74h7.661v7.9h-7.661ZM515.328,353.277h21.33v13.589H515.227V353.277Zm43.165-15.564h7.661v7.9h-7.661Zm-10.343,0h7.681v7.9H548.15Zm10.343-12.56h7.661v7.9h-7.661Zm-10.343,0h7.681v7.9H548.15Zm10.343-12.58h7.661V320.5h-7.661Zm-10.343,0h7.681V320.5H548.15Zm10.343-12.56h7.661V308.1h-7.661v-8.085Zm-10.343,0h7.681V308.1H548.15v-8.085Zm-62.015,37.7h7.681v7.9h-7.681Zm51.673,0h7.661v7.9h-7.681v-7.9Zm-10.322,0h7.661v7.9h-7.822v-7.9Zm-10.343,0h7.681v7.9h-7.681Zm-10.343,0h7.621v7.9h-7.681v-7.9Zm-10.322,0h7.661v7.9h-7.661Zm-10.343-12.56h7.681v7.9h-7.681Zm51.673,0h7.661v7.9h-7.681v-7.9Zm-10.322,0h7.661v7.9h-7.822v-7.9Zm-10.343,0h7.681v7.9h-7.681Zm-10.343,0h7.621v7.9h-7.681v-7.9Zm-10.322,0h7.661v7.9h-7.661Zm-10.343-12.58h7.681V320.5h-7.681Zm51.673,0h7.661V320.5h-7.681v-7.923Zm-10.322,0h7.661V320.5h-7.822v-7.923Zm-10.343,0h7.681V320.5h-7.681Zm-10.343,0h7.621V320.5h-7.681v-7.923Zm-10.322,0h7.661V320.5h-7.661Zm-10.343-12.56h7.681V308.1h-7.681v-8.085Zm51.673,0h7.661V308.1h-7.681v-7.923Zm-10.322,0h7.661V308.1h-7.822v-7.923Zm-10.343,0h7.681V308.1h-7.681v-8.085Zm-10.343,0h7.621V308.1h-7.681v-7.923Zm-10.322,0h7.661V308.1h-7.661v-8.085Zm62.015-12.56h7.661v7.9h-7.661Zm-10.343,0h7.681v7.9H548.15Zm10.343-12.56h7.661v7.9h-7.661v-7.9Zm-10.343,0h7.681v7.9H548.15v-7.9Zm10.343-12.56h7.661v7.9h-7.661Zm-10.343,0h7.681v7.9H548.15Zm10.343-12.58h7.661v7.923h-7.661Zm-10.343,0h7.681v7.923H548.15Zm10.343-12.56h7.661v7.9h-7.661v-7.9Zm-10.343,0h7.681v7.9H548.15v-7.9Zm10.343-12.56h7.661v7.9h-7.661Zm-10.343,0h7.681v7.9H548.15Zm-62.015,62.822h7.681v7.9h-7.681Zm51.673,0h7.661v7.9h-7.681v-7.9Zm-10.322,0h7.661v7.9h-7.822v-7.9Zm-10.343,0h7.681v7.9h-7.681Zm-10.343,0h7.621v7.9h-7.681v-7.9Zm-10.322,0h7.661v7.9h-7.661Zm-10.343-12.56h7.681v7.9h-7.681v-7.9Zm51.673,0h7.661v7.9h-7.681v-7.762Zm-10.322,0h7.661v7.9h-7.822v-7.762Zm-10.343,0h7.681v7.9h-7.681v-7.9Zm-10.343,0h7.621v7.9h-7.681v-7.762Zm-10.322,0h7.661v7.9h-7.661v-7.9Zm-10.343-12.56h7.681v7.9h-7.681Zm51.673,0h7.661v7.9h-7.681v-7.9Zm-10.322,0h7.661v7.9h-7.822v-7.9Zm-10.343,0h7.681v7.9h-7.681Zm-10.343,0h7.621v7.9h-7.681v-7.9Zm-10.322,0h7.661v7.9h-7.661Zm-10.343-12.58h7.681v7.923h-7.681Zm51.673,0h7.661v7.923h-7.681v-7.923Zm-10.322,0h7.661v7.923h-7.822v-7.923Zm-10.343,0h7.681v7.923h-7.681Zm-10.343,0h7.621v7.923h-7.681v-7.923Zm-10.322,0h7.661v7.923h-7.661Zm-10.343-12.56h7.681v7.9h-7.681v-7.9Zm51.673,0h7.661v7.9h-7.681v-7.762Zm-10.322,0h7.661v7.9h-7.822v-7.762Zm-10.343,0h7.681v7.9h-7.681v-7.9Zm-10.343,0h7.621v7.9h-7.681v-7.762Zm-10.322,0h7.661v7.9h-7.661v-7.9Zm-10.343-12.56h7.681v7.9h-7.681Zm51.673,0h7.661v7.9h-7.681v-7.9Zm-10.322,0h7.661v7.9h-7.822v-7.9Zm-10.343,0h7.681v7.9h-7.681Zm-10.343,0h7.621v7.9h-7.681v-7.9Zm-10.322,0h7.661v7.9h-7.661Zm51.673-12.56h7.681v7.9H548.15Zm10.343-12.58h7.661v7.923h-7.661v-7.923Zm-10.343,0h7.681v7.923H548.15v-7.923Zm10.282-12.359h7.661v7.923h-7.661Zm-10.343,0h7.681v7.923h-7.681Zm10.343-12.56h7.661v7.9h-7.661Zm-10.343,0h7.681v7.9h-7.681Zm10.343-12.56h7.661v7.9h-7.661Zm-10.343,0h7.681v7.9h-7.681Zm10.343-12.56h7.661v7.9h-7.661Zm-10.343,0h7.681v7.9h-7.681Zm10.343-12.722h7.661v8.064h-7.661Zm-10.343,0h7.681v8.064h-7.681Zm-62.015,0h7.681v8.064h-7.681Zm0,75.4h7.681v7.9h-7.681Zm51.673,0h7.722v7.9h-7.681v-7.9Zm-10.322,0h7.661v7.9h-7.762v-7.9Zm-10.343,0h7.681v7.9h-7.681Zm-10.343,0h7.681v7.9h-7.681v-7.9Zm-10.322,0h7.661v7.9h-7.661Zm-10.343-12.58h7.681v7.923h-7.681V199.63Zm51.673,0h7.722v7.923h-7.681V199.63Zm-10.322,0h7.661v7.923h-7.762V199.63Zm-10.343,0h7.681v7.923h-7.681V199.63Zm-10.343,0h7.681v7.923h-7.681V199.63Zm-10.322,0h7.661v7.923h-7.661V199.63Zm-10.343-12.56h7.681v7.923h-7.681V186.99Zm51.673,0h7.722v7.923h-7.681v-7.782Zm-10.322,0h7.661v7.923h-7.762v-7.782Zm-10.343,0h7.681v7.923h-7.681V186.99Zm-10.343,0h7.681v7.923h-7.681V186.99Zm-10.322,0h7.661v7.923h-7.661V186.99Zm-10.343-12.56h7.681v7.9h-7.681Zm51.673,0h7.722v7.9h-7.681v-7.9Zm-10.322,0h7.661v7.9h-7.762v-7.9Zm-10.343,0h7.681v7.9h-7.681Zm-10.343,0h7.681v7.9h-7.681v-7.9Zm-10.322,0h7.661v7.9h-7.661Zm-10.343-12.56h7.681v7.9h-7.681Zm51.673,0h7.722v7.9h-7.681v-7.9Zm-10.322,0h7.661v7.9h-7.762v-7.9Zm-10.343,0h7.681v7.9h-7.681Zm-10.343,0h7.681v7.9h-7.681v-7.9Zm-10.322,0h7.661v7.9h-7.661Zm-10.343-12.56h7.681v7.9h-7.681Zm51.673,0h7.722v7.9h-7.681v-7.9Zm-10.322,0h7.661v7.9h-7.762v-7.9Zm-10.343,0h7.681v7.9h-7.681Zm-10.343,0h7.681v7.9h-7.681v-7.9Zm-10.322,0h7.661v7.9h-7.661Zm41.33-12.58h7.722v8.064h-7.681v-8.064Zm-10.322,0h7.661v8.064h-7.762v-8.064Zm-10.343,0h7.681v8.064h-7.681Zm-10.343,0h7.681v8.064h-7.681Zm-10.323,0h7.661v8.064h-7.661Z" transform="translate(-451.041 690.363)" fill="none" stroke="#0a80ef" stroke-width="1" fill-rule="evenodd"/>
      <path id="Path_2810" data-name="Path 2810" d="M443.79,166.682h9.617v5.827h1.129v-5.726H468.89v5.726H470v-5.726h9.617l6.935-19.092h-36.29l-6.452,19.092Zm4.355-10.08h10.5l3.286-8.286H451.068l-2.923,8.306Zm20.04,9.254h10.524l3.266-8.327H471.128Zm-11.714,0h10.5l3.266-8.327H459.395l-2.943,8.327Zm-11.693,0h10.5l3.266-8.327H447.7l-2.923,8.327Zm26.774-9.254H482.1l3.226-8.286H474.475l-2.943,8.306Zm-11.714,0h10.524l3.246-8.286H462.762l-2.943,8.306Z" transform="translate(-276.404 721.381)" fill="#344056" fill-rule="evenodd"/>
      <path id="Path_2811" data-name="Path 2811" d="M148.14,165.94h9.525v5.671H158.8V165.94H173.03v5.671h1.139V165.94h9.525L190.577,147H154.526l-6.386,18.928Zm4.314-9.888h10.421l3.248-8.252H155.362Zm19.873,9.125h10.434L186,156.925H175.236Zm-11.609,0h10.434l3.235-8.252H163.627Zm-11.609,0h10.434l3.235-8.252H151.969l-2.908,8.252Zm26.562-9.161h10.421l3.236-8.252H178.568Zm-11.609,0h10.421l3.248-8.252H166.959Z" transform="translate(525.961 748.031)" fill="#344056" fill-rule="evenodd"/>
      <path id="Path_2812" data-name="Path 2812" d="M330.75,116.576h6.32v3.761h.755v-3.761h9.416v3.761H348v-3.761h6.32L358.871,104H334.985l-4.235,12.525Zm2.866-6.551h6.909l2.137-5.463h-7.139l-1.919,5.463Zm13.165,6.077h6.909l2.149-5.463H348.7Zm-7.676,0h6.909l2.149-5.463h-7.139Zm-7.676,0h6.909l2.149-5.463h-7.139Zm17.591-6.077h6.909l2.137-5.463h-7.19l-1.919,5.463Zm-7.676,0h6.909l2.137-5.463H343.2l-1.919,5.463Z" transform="translate(85.697 680.692)" fill="#344056" fill-rule="evenodd"/>
      <path id="Path_2858" data-name="Path 2858" d="M330.75,123.818h9.96v5.927H341.9v-5.927h14.839v5.927h1.189v-5.927h9.96L375.064,104H337.423l-6.673,19.738Zm4.516-10.322h10.887l3.367-8.609H338.27l-3.024,8.609Zm20.746,9.576H366.9l3.387-8.609h-11.25Zm-12.1,0H354.8l3.387-8.609h-11.25Zm-12.1,0h10.887l3.387-8.609h-11.25ZM359.54,113.5h10.887l3.367-8.609h-11.33l-3.024,8.609Zm-12.1,0H358.33l3.367-8.609H350.367l-3.024,8.609Z" transform="translate(702.238 670.988)" fill="#344056" fill-rule="evenodd"/>
      <path id="Path_2813" data-name="Path 2813" d="M138.209,436.591l.212-254.817c0-26.68.265-53.5,0-80.162,0-7.067-1.042-12.721,2.014-18.464,5.053-9.541,22.969-9.93,43.924-16.255C199.7,62.3,231.746,53.376,243.142,45.178c-1.767-1.219.247-.83-4.258-1.5l-10.778,1.466c-5.495,1.413-8.6,2.191-14.418,3.534-9.117,2.156-19.877,5.3-28.658,8.234-17.121,5.636-37.4,15.584-48.624,12.9-10.5-2.527-12.368-9.771-24.365-21.45-5.46-5.3-12.757-13.075-18.3-18.04C87.376,24.647,61.933-.142,52.41.282A296.267,296.267,0,0,0,86.616,37.457c7.421,7.067,12.492,10.76,19.259,17.245a89.576,89.576,0,0,0,9.541,8.481c12.757,10.018,18.888,11.432,11.573,35.8L113.261,156c-1.254,5.954-5.548,24.365-1.59,29.542,6.431-5.636,17.209-58.518,21.1-69.332l-.442,320.933,2-.23h2.562l1.307-.212Z" transform="translate(1504.256 627.879)" fill="#344056" fill-rule="evenodd"/>
      <path id="Path_2814" data-name="Path 2814" d="M96.73,209.026H103.2V112.4H96.73V105.93H211.24V112.4h-3.41v96.63h155.4v7.244H356.37v133.91H103.2V216.27H96.73Zm14.806-86.134h11.1v11.432h-11.1ZM335.592,334.915h11.1v11.432h-11.1Zm-14.93,0h11.1v11.432h-11.1Zm-14.93,0H316.81v11.432H305.732V334.915Zm-14.948,0h11.1v11.432h-11.1Zm-14.93,0h11.078v11.432H275.854Zm59.737-18.163h11.1v11.432h-11.1Zm-14.93,0h11.1v11.432h-11.1Zm-14.93,0H316.81v11.432H305.732V316.752Zm-14.948,0h11.1v11.432h-11.1Zm-14.93,0h11.078v11.432H275.854Zm59.737-18.11h11.1v11.432h-11.1Zm-14.93,0h11.1v11.432h-11.1Zm-14.93,0H316.81v11.432H305.732Zm-14.948,0h11.1v11.432h-11.1Zm-14.93,0h11.078v11.432H275.854Zm59.737-18.163h11.1V291.91h-11.1Zm-14.93,0h11.1V291.91h-11.1Zm-14.93,0H316.81V291.91H305.732Zm-14.948,0h11.1V291.91h-11.1Zm-14.93,0h11.078V291.91H275.854Zm59.737-18.163h11.1v11.432h-11.1Zm-14.93,0h11.1v11.432h-11.1Zm-14.93,0H316.81v11.432H305.732Zm-14.948,0h11.1v11.432h-11.1Zm-14.93,0h11.078v11.432H275.854Zm59.737-18.163h11.1v11.432h-11.1Zm-14.93,0h11.1v11.432h-11.1Zm-14.93,0H316.81v11.432H305.732Zm-14.948,0h11.1v11.432h-11.1Zm-14.93,0h11.078v11.432H275.854Zm59.737-18.146h11.1V237.42h-11.1Zm-14.93,0h11.1V237.42h-11.1Zm-14.93,0H316.81V237.42H305.732Zm-14.948,0h11.1V237.42h-11.1Zm-14.93,0h11.078V237.42H275.854ZM260.906,334.95H272v11.4h-11.1V334.915Zm-14.93,0h11.078v11.4H245.977V334.915Zm-14.948,0h11.1v11.4h-11.1V334.915Zm-14.93,0h11.1v11.4H216.1V334.915Zm-14.93,0h11.078v11.4H201.169V334.915Zm59.737-18.163H272v11.432h-11.1Zm-14.93,0h11.078v11.432H245.977Zm-14.948,0h11.1v11.432h-11.1Zm-14.93,0h11.1v11.432H216.1V316.787Zm-14.93,0h11.078v11.432H201.169Zm59.738-18.146H272v11.432h-11.1Zm-14.93,0h11.078v11.432H245.977Zm-14.948,0h11.1v11.432h-11.1Zm-14.93,0h11.1v11.432H216.1Zm-14.93,0h11.078v11.432H201.169Zm59.737-18.163H272V291.91h-11.1Zm-14.93,0h11.078V291.91H245.977Zm-14.948,0h11.1V291.91h-11.1Zm-14.93,0h11.1V291.91H216.1Zm-14.93,0h11.078V291.91H201.169Zm59.737-18.163H272v11.432h-11.1Zm-14.93,0h11.078v11.432H245.977Zm-14.948,0h11.1v11.432h-11.1Zm-14.93,0h11.1v11.432H216.1Zm-14.93,0h11.078v11.432H201.169Zm59.737-18.163H272v11.432h-11.1Zm-14.93,0h11.078v11.432H245.977Zm-14.948,0h11.1v11.432h-11.1Zm-14.93,0h11.1v11.432H216.1Zm-14.93,0h11.078v11.432H201.169Zm59.737-18.146H272V237.42h-11.1Zm-14.93,0h11.078V237.42H245.977Zm-14.948,0h11.1V237.42h-11.1Zm-14.93,0h11.1V237.42H216.1Zm-14.93,0h11.078V237.42H201.169Zm-89.633,0h11.1V237.42h-11.1Zm0,108.945h11.1v11.4h-11.1V334.915Zm74.685,0h11.1v11.4h-11.1V334.915Zm-14.93,0H182.37v11.4H171.291V334.915Zm-14.948,0h11.1v11.4h-11.1V334.915Zm-14.93,0h11.078v11.4H141.4V334.915Zm-14.948,0h11.1v11.4h-11.1V334.915Zm-14.93-18.163h11.1v11.432h-11.1Zm74.685,0h11.1v11.432h-11.1Zm-14.93,0H182.37v11.432H171.291Zm-14.948,0h11.1v11.432h-11.1Zm-14.93,0h11.078v11.432H141.4V316.787Zm-14.948,0h11.1v11.432h-11.1Zm-14.93-18.146h11.1v11.432h-11.1Zm74.685,0h11.1v11.432h-11.1Zm-14.93,0H182.37v11.432H171.291Zm-14.948,0h11.1v11.432h-11.1Zm-14.93,0h11.078v11.432H141.4V298.641Zm-14.948,0h11.1v11.432h-11.1Zm-14.93-18.163h11.1V291.91h-11.1Zm74.685,0h11.1V291.91h-11.1Zm-14.93,0H182.37V291.91H171.291Zm-14.948,0h11.1V291.91h-11.1Zm-14.93,0h11.078V291.91H141.4V280.478Zm-14.948,0h11.1V291.91h-11.1Zm-14.93-18.163h11.1v11.432h-11.1Zm74.685,0h11.1v11.432h-11.1Zm-14.93,0H182.37v11.432H171.291Zm-14.948,0h11.1v11.432h-11.1Zm-14.93,0h11.078v11.432H141.4V262.315Zm-14.948,0h11.1v11.432h-11.1Zm-14.93-18.163h11.1v11.432h-11.1Zm74.685,0h11.1v11.432h-11.1Zm-14.93,0H182.37v11.432H171.291Zm-14.948,0h11.1v11.432h-11.1Zm-14.93,0h11.078v11.432H141.4V244.152Zm-14.948,0h11.1v11.432h-11.1Zm59.755-18.146h11.1V237.42h-11.1Zm-14.93,0H182.37V237.42H171.291Zm-14.948,0h11.1V237.42h-11.1Zm-14.93,0h11.078V237.42H141.4V226.006Zm-14.948,0h11.1V237.42h-11.1Zm-14.93-30.478h11.1v11.432h-11.1V195.528Zm74.685,0h11.1v11.432h-11.1Zm-14.93,0H182.37v11.432H171.291Zm-14.948,0h11.1v11.432h-11.1Zm-14.93,0h11.078v11.432H141.4V195.528Zm-14.948,0h11.1v11.432h-11.1Zm-14.93-18.163h11.1V188.8h-11.1V177.364Zm74.685,0h11.1V188.8h-11.1Zm-14.93,0H182.37V188.8H171.291Zm-14.948,0h11.1V188.8h-11.1Zm-14.93,0h11.078V188.8H141.4V177.364Zm-14.948,0h11.1V188.8h-11.1ZM111.536,159.2h11.1v11.432h-11.1V159.2Zm74.685,0h11.1v11.432h-11.1Zm-14.93,0H182.37v11.432H171.291Zm-14.948,0h11.1v11.432h-11.1Zm-14.93,0h11.078v11.432H141.4V159.2Zm-14.948,0h11.1v11.432h-11.1Zm-14.93-18.163h11.1v11.432h-11.1V141.038Zm74.685,0h11.1v11.432h-11.1Zm-14.93,0H182.37v11.432H171.291Zm-14.948,0h11.1v11.432h-11.1Zm-14.93,0h11.078v11.432H141.4V141.038Zm-14.948,0h11.1v11.432h-11.1Zm59.755-18.146h11.1v11.432h-11.1Zm-14.93,0H182.37v11.432H171.291Zm-14.948,0h11.1v11.432h-11.1Zm-14.93,0h11.078v11.432H141.4V122.892Zm-14.948,0h11.1v11.432h-11.1Z" transform="translate(402.867 709.9)" fill="none" stroke="#0a80ef" stroke-width="1" fill-rule="evenodd"/>
      <path id="Path_2815" data-name="Path 2815" d="M359.64,116.576h6.32v3.761h.742v-3.761h9.429v3.761h.755v-3.761h6.307L387.748,104H363.875l-4.235,12.525Zm2.866-6.551h6.87l2.137-5.463h-7.126l-1.919,5.463Zm13.165,6.077h6.909l2.149-5.463H377.6l-1.919,5.463Zm-7.676,0H374.9l2.149-5.463h-7.126l-1.919,5.463Zm-7.676,0h6.909l2.149-5.463H362.25l-1.919,5.463Zm17.591-6.077h6.819l2.149-5.463h-7.126l-1.919,5.463Zm-7.676,0h6.819l2.149-5.463h-7.126l-1.919,5.463Z" transform="translate(19.859 680.692)" fill="#344056" fill-rule="evenodd"/>
      <path id="Path_2856" data-name="Path 2856" d="M359.64,123.818h9.96v5.927h1.169v-5.927h14.859v5.927h1.189v-5.927h9.939L403.934,104h-37.62l-6.673,19.738Zm4.516-10.322h10.826l3.367-8.609H367.12L364.1,113.5Zm20.746,9.576h10.887l3.387-8.609h-11.23l-3.024,8.609Zm-12.1,0h10.887l3.387-8.609h-11.23l-3.024,8.609Zm-12.1,0H371.6l3.387-8.609h-11.23l-3.024,8.609ZM388.43,113.5h10.746l3.387-8.609h-11.23l-3.024,8.609Zm-12.1,0h10.746l3.387-8.609h-11.23l-3.024,8.609Z" transform="translate(615.125 670.988)" fill="#344056" fill-rule="evenodd"/>
      <path id="Path_2816" data-name="Path 2816" d="M437.515,115.27H332.9v9.9h5.383V374.56h92.982V125.169h6.25v-9.9Zm-18.851,96.007h7.943v8.286h-7.943v-8.286ZM374.008,357.383h22.177V371.5H374.008Zm44.657-16.129h7.943v8.185h-7.943Zm-10.685,0h7.943v8.185H407.98Zm10.685-13h7.943V336.5h-7.943v-8.185Zm-10.685,0h7.943V336.5H407.98v-8.185Zm10.685-12.984h7.943v8.165h-7.943Zm-10.685,0h7.943v8.165H407.98Zm10.685-13h7.943v8.185h-7.943v-8.226Zm-10.685,0h7.943v8.185H407.98v-8.226Zm-64.172,38.991h7.943v8.185h-7.943Zm53.467,0h7.943v8.185h-7.943Zm-10.685,0h7.943v8.185h-7.943Zm-10.685,0h7.923v8.185H375.9Zm-10.705,0h7.943v8.185H365.2Zm-10.685,0h7.943v8.185h-7.943Zm-10.706-13h7.943V336.5h-7.943v-8.185Zm53.467,0h7.943V336.5h-7.943v-8.185Zm-10.685,0h7.943V336.5h-7.943v-8.185Zm-10.685,0h7.923V336.5H375.9v-8.185Zm-10.705,0h7.944V336.5H365.2v-8.185Zm-10.685,0h7.943V336.5h-7.943v-8.185Zm-10.706-12.984h7.943v8.165h-7.943Zm53.467,0h7.943v8.165h-7.943Zm-10.685,0h7.943v8.165h-7.943Zm-10.685,0h7.923v8.165H375.9Zm-10.706,0h7.943v8.165H365.2Zm-10.685,0h7.943v8.165h-7.943Zm-10.705-13h7.943v8.185h-7.943v-8.226Zm53.467,0h7.943v8.185h-7.943v-8.226Zm-10.685,0h7.943v8.185h-7.943v-8.226Zm-10.685,0h7.923v8.185H375.9v-8.226Zm-10.706,0h7.943v8.185H365.2v-8.226Zm-10.685,0h7.943v8.185h-7.943v-8.226Zm64.152-13h7.943v8.185h-7.943Zm-10.685,0h7.943v8.185H407.98Zm10.685-13h7.943v8.185h-7.943Zm-10.685,0h7.943v8.185H407.98Zm10.685-13h7.943v8.185h-7.943Zm-10.685,0h7.943v8.185H407.98Zm10.685-13h7.943v8.185h-7.943Zm-10.685,0h7.943v8.185H407.98Zm10.685-12.984h7.943v8.165h-7.943Zm-10.685,0h7.943v8.165H407.98Zm10.685-13h7.943v8.185h-7.943Zm-10.685,0h7.943v8.185H407.98Zm-64.172,65h7.943v8.185h-7.943Zm53.467,0h7.943v8.185h-7.943Zm-10.685,0h7.943v8.185h-7.943Zm-10.685,0h7.923v8.185H375.9Zm-10.705,0h7.943v8.185H365.2Zm-10.685,0h7.943v8.185h-7.943Zm-10.705-13h7.943v8.185h-7.943Zm53.467,0h7.943v8.185h-7.943Zm-10.685,0h7.943v8.185h-7.943Zm-10.685,0h7.923v8.185H375.9Zm-10.706,0h7.943v8.185H365.2Zm-10.685,0h7.943v8.185h-7.943Zm-10.705-13h7.943v8.185h-7.943Zm53.467,0h7.943v8.185h-7.943Zm-10.685,0h7.943v8.185h-7.943Zm-10.685,0h7.923v8.185H375.9Zm-10.706,0h7.943v8.185H365.2Zm-10.685,0h7.943v8.185h-7.943Zm-10.706-13h7.943v8.185h-7.943Zm53.467,0h7.943v8.185h-7.943Zm-10.685,0h7.943v8.185h-7.943Zm-10.685,0h7.923v8.185H375.9Zm-10.705,0h7.943v8.185H365.2Zm-10.685,0h7.943v8.185h-7.943Zm-10.706-12.984h7.944v8.165h-7.944Zm53.467,0h7.943v8.165h-7.943Zm-10.685,0h7.943v8.165h-7.943Zm-10.685,0h7.923v8.165H375.9Zm-10.705,0h7.943v8.165H365.2Zm-10.685,0h7.943v8.165h-7.943Zm-10.706-13h7.943v8.185h-7.943Zm53.467,0h7.943v8.185h-7.943Zm-10.685,0h7.943v8.185h-7.943Zm-10.685,0h7.923v8.185H375.9Zm-10.706,0h7.943v8.185H365.2Zm-10.685,0h7.943v8.185h-7.943Zm53.467-13h7.943v8.306H407.98v-8.306Zm10.685-13h7.943v8.185h-7.943Zm-10.685,0h7.943v8.185H407.98Zm10.685-13h7.943v8.185h-7.943v-8.145Zm-10.685,0h7.943v8.185H407.98v-8.145Zm10.685-13h7.943v8.185h-7.943Zm-10.685,0h7.943v8.185H407.98Zm10.685-12.984h7.943v8.165h-7.943v-8.145Zm-10.685,0h7.943v8.165H407.98v-8.145Zm10.685-13h7.943v8.185h-7.943Zm-10.685,0h7.943v8.185H407.98Zm10.685-13h7.943v8.185h-7.943v-8.165Zm-10.685,0h7.943v8.185H407.98v-8.165Zm-64.172,0h7.943v8.185h-7.943v-8.165Zm0,78h7.943v8.306h-7.943v-8.306Zm53.467,0h7.943v8.306h-7.943v-8.306Zm-10.685,0h7.943v8.306h-7.943v-8.306Zm-10.685,0h7.923v8.306H375.9v-8.306Zm-10.706,0h7.943v8.306H365.2v-8.306Zm-10.685,0h7.943v8.306h-7.943v-8.306Zm-10.705-13h7.943v8.185h-7.943Zm53.467,0h7.943v8.185h-7.943Zm-10.685,0h7.943v8.185h-7.943Zm-10.685,0h7.923v8.185H375.9Zm-10.705,0h7.943v8.185H365.2Zm-10.685,0h7.943v8.185h-7.943Zm-10.706-13h7.943v8.185h-7.943v-8.145Zm53.467,0h7.943v8.185h-7.943v-8.145Zm-10.685,0h7.943v8.185H386.59v-8.145Zm-10.685,0h7.923v8.185H375.9v-8.145Zm-10.705,0h7.943v8.185H365.2v-8.145Zm-10.685,0h7.943v8.185h-7.943v-8.145Zm-10.706-13h7.943v8.185h-7.943Zm53.467,0h7.943v8.185h-7.943Zm-10.685,0h7.943v8.185H386.59Zm-10.685,0h7.923v8.185H375.9Zm-10.706,0h7.943v8.185H365.2Zm-10.685,0h7.943v8.185h-7.943Zm-10.705-12.984h7.943v8.165h-7.943v-8.145Zm53.467,0h7.943v8.165h-7.943v-8.145Zm-10.685,0h7.943v8.165H386.59v-8.145Zm-10.685,0h7.923v8.165H375.9v-8.145Zm-10.706,0h7.943v8.165H365.2v-8.145Zm-10.685,0h7.943v8.165h-7.943v-8.145Zm-10.706-13h7.943v8.185h-7.943Zm53.467,0h7.943v8.185h-7.943Zm-10.685,0h7.943v8.185H386.59Zm-10.685,0h7.923v8.185H375.9Zm-10.705,0h7.943v8.185H365.2Zm-10.685,0h7.943v8.185h-7.943Zm42.761-13h7.943v8.185h-7.943v-8.165Zm-10.685,0h7.943v8.185H386.59v-8.165Zm-10.685,0h7.923v8.185H375.9v-8.165Zm-10.706,0h7.943v8.185H365.2v-8.165Zm-10.685,0h7.943v8.185h-7.943v-8.165Z" transform="translate(26.453 686.439)" fill="none" stroke="#0a80ef" stroke-width="1" fill-rule="evenodd"/>
      <path id="Path_2857" data-name="Path 2857" d="M437.516,115.27H332.9v9.9h5.383V374.561h92.983V125.169h6.25v-9.9Zm-18.851,96.007h7.943v8.286h-7.943v-8.286ZM374.008,357.383h22.177V371.5H374.008Zm44.657-16.129h7.943v8.185h-7.943Zm-10.685,0h7.943v8.185H407.98Zm10.685-13h7.943V336.5h-7.943v-8.185Zm-10.685,0h7.943V336.5H407.98v-8.185Zm10.685-12.984h7.943v8.165h-7.943Zm-10.685,0h7.943v8.165H407.98Zm10.685-13h7.943v8.185h-7.943v-8.226Zm-10.685,0h7.943v8.185H407.98v-8.226Zm-64.172,38.991h7.943v8.185h-7.943Zm53.467,0h7.943v8.185h-7.943Zm-10.685,0h7.943v8.185h-7.943Zm-10.685,0h7.923v8.185H375.9Zm-10.705,0h7.943v8.185H365.2Zm-10.685,0h7.943v8.185h-7.943Zm-10.706-13h7.943V336.5h-7.943v-8.185Zm53.467,0h7.943V336.5h-7.943v-8.185Zm-10.685,0h7.943V336.5h-7.943v-8.185Zm-10.685,0h7.923V336.5H375.9v-8.185Zm-10.705,0h7.944V336.5H365.2v-8.185Zm-10.685,0h7.943V336.5h-7.943v-8.185Zm-10.706-12.984h7.943v8.165h-7.943Zm53.467,0h7.943v8.165h-7.943Zm-10.685,0h7.943v8.165h-7.943Zm-10.685,0h7.923v8.165H375.9Zm-10.706,0h7.943v8.165H365.2Zm-10.685,0h7.943v8.165h-7.943Zm-10.706-13h7.943v8.185h-7.943v-8.226Zm53.467,0h7.943v8.185h-7.943v-8.226Zm-10.685,0h7.943v8.185h-7.943v-8.226Zm-10.685,0h7.923v8.185H375.9v-8.226Zm-10.706,0h7.943v8.185H365.2v-8.226Zm-10.685,0h7.943v8.185h-7.943v-8.226Zm64.152-13h7.943v8.185h-7.943Zm-10.685,0h7.943v8.185H407.98Zm10.685-13h7.943v8.185h-7.943Zm-10.685,0h7.943v8.185H407.98Zm10.685-13h7.943v8.185h-7.943Zm-10.685,0h7.943v8.185H407.98Zm10.685-13h7.943v8.185h-7.943Zm-10.685,0h7.943v8.185H407.98Zm10.685-12.984h7.943v8.165h-7.943Zm-10.685,0h7.943v8.165H407.98Zm10.685-13h7.943v8.185h-7.943Zm-10.685,0h7.943v8.185H407.98Zm-64.173,65h7.943v8.185h-7.943Zm53.467,0h7.943v8.185h-7.943Zm-10.685,0h7.943v8.185h-7.943Zm-10.685,0h7.923v8.185H375.9Zm-10.705,0h7.943v8.185H365.2Zm-10.685,0h7.943v8.185h-7.943Zm-10.706-13h7.943v8.185h-7.943Zm53.467,0h7.943v8.185h-7.943Zm-10.685,0h7.943v8.185h-7.943Zm-10.685,0h7.923v8.185H375.9Zm-10.706,0h7.943v8.185H365.2Zm-10.685,0h7.943v8.185h-7.943Zm-10.706-13h7.943v8.185h-7.943Zm53.467,0h7.943v8.185h-7.943Zm-10.685,0h7.943v8.185h-7.943Zm-10.685,0h7.923v8.185H375.9Zm-10.706,0h7.943v8.185H365.2Zm-10.685,0h7.943v8.185h-7.943Zm-10.706-13h7.943v8.185h-7.943Zm53.467,0h7.943v8.185h-7.943Zm-10.685,0h7.943v8.185h-7.943Zm-10.685,0h7.923v8.185H375.9Zm-10.705,0h7.943v8.185H365.2Zm-10.685,0h7.943v8.185h-7.943Zm-10.706-12.984h7.944v8.165h-7.944Zm53.467,0h7.943v8.165h-7.943Zm-10.685,0h7.943v8.165h-7.943Zm-10.685,0h7.923v8.165H375.9Zm-10.705,0h7.943v8.165H365.2Zm-10.685,0h7.943v8.165h-7.943Zm-10.706-13h7.943v8.185h-7.943Zm53.467,0h7.943v8.185h-7.943Zm-10.685,0h7.943v8.185h-7.943Zm-10.685,0h7.923v8.185H375.9Zm-10.706,0h7.943v8.185H365.2Zm-10.685,0h7.943v8.185h-7.943Zm53.467-13h7.943v8.306H407.98v-8.306Zm10.685-13h7.943v8.185h-7.943Zm-10.685,0h7.943v8.185H407.98Zm10.685-13h7.943v8.185h-7.943v-8.145Zm-10.685,0h7.943v8.185H407.98v-8.145Zm10.685-13h7.943v8.185h-7.943Zm-10.685,0h7.943v8.185H407.98Zm10.685-12.984h7.943v8.165h-7.943v-8.145Zm-10.685,0h7.943v8.165H407.98v-8.145Zm10.685-13h7.943v8.185h-7.943Zm-10.685,0h7.943v8.185H407.98Zm10.685-13h7.943v8.185h-7.943v-8.165Zm-10.685,0h7.943v8.185H407.98v-8.165Zm-64.173,0h7.943v8.185h-7.943v-8.165Zm0,78h7.943v8.306h-7.943v-8.306Zm53.467,0h7.943v8.306h-7.943v-8.306Zm-10.685,0h7.943v8.306h-7.943v-8.306Zm-10.685,0h7.923v8.306H375.9v-8.306Zm-10.706,0h7.943v8.306H365.2v-8.306Zm-10.685,0h7.943v8.306h-7.943v-8.306Zm-10.706-13h7.943v8.185h-7.943Zm53.467,0h7.943v8.185h-7.943Zm-10.685,0h7.943v8.185H386.59Zm-10.685,0h7.923v8.185H375.9Zm-10.705,0h7.943v8.185H365.2Zm-10.685,0h7.943v8.185h-7.943Zm-10.706-13h7.943v8.185h-7.943v-8.145Zm53.467,0h7.943v8.185h-7.943v-8.145Zm-10.685,0h7.943v8.185H386.59v-8.145Zm-10.685,0h7.923v8.185H375.9v-8.145Zm-10.705,0h7.943v8.185H365.2v-8.145Zm-10.685,0h7.943v8.185h-7.943v-8.145Zm-10.706-13h7.943v8.185h-7.943Zm53.467,0h7.943v8.185h-7.943Zm-10.685,0h7.943v8.185H386.59Zm-10.685,0h7.923v8.185H375.9Zm-10.706,0h7.943v8.185H365.2Zm-10.685,0h7.943v8.185h-7.943Zm-10.706-12.984h7.943v8.165h-7.943v-8.145Zm53.467,0h7.943v8.165h-7.943v-8.145Zm-10.685,0h7.943v8.165H386.59v-8.145Zm-10.685,0h7.923v8.165H375.9v-8.145Zm-10.706,0h7.943v8.165H365.2v-8.145Zm-10.685,0h7.943v8.165h-7.943v-8.145Zm-10.706-13h7.943v8.185h-7.943Zm53.467,0h7.943v8.185h-7.943Zm-10.685,0h7.943v8.185H386.59Zm-10.685,0h7.923v8.185H375.9Zm-10.705,0h7.943v8.185H365.2Zm-10.685,0h7.943v8.185h-7.943Zm42.761-13h7.943v8.185h-7.943v-8.165Zm-10.685,0h7.943v8.185H386.59v-8.165Zm-10.685,0h7.923v8.185H375.9v-8.165Zm-10.706,0h7.943v8.185H365.2v-8.165Zm-10.685,0h7.943v8.185h-7.943v-8.165Z" transform="translate(639.453 685.439)" fill="none" stroke="#0a80ef" stroke-width="1" fill-rule="evenodd"/>
      <path id="Path_2817" data-name="Path 2817" d="M258.49,31.413h15.815v9.412h1.885V31.413h23.62v9.412h1.921V31.413h15.779L328.928,0H269.11L258.5,31.413Zm7.165-16.407h17.3l5.377-13.713H270.475l-4.833,13.7Zm32.984,15.2h17.314l5.377-13.689H303.459l-4.833,13.689Zm-19.259,0h17.3l5.377-13.689H284.2l-4.833,13.689Zm-19.271,0h17.314L282.8,16.516H264.93L260.1,30.205Zm44.039-15.211h17.338l5.377-13.7H308.981Zm-19.271,0h17.35l5.376-13.7H289.734l-4.833,13.7Z" transform="translate(1167.01 644.104)" fill="#344056" fill-rule="evenodd"/>
      <path id="Path_2818" data-name="Path 2818" d="M399.59,30.41H247.41V44.828h7.845V407.582H390.508V44.828h9.082ZM372.168,169.992h11.555V181.9H372.168ZM307.2,382.581h32.228v20.478H307.2Zm64.967-23.411h11.555v11.909H372.168Zm-15.548,0h11.538v11.909H356.62Zm15.548-18.905h11.555v11.891H372.168Zm-15.548,0h11.538v11.891H356.62Zm15.548-18.923h11.555V333.25H372.168Zm-15.548,0h11.538V333.25H356.62Zm15.548-18.905h11.555v11.909H372.168Zm-15.548,0h11.538v11.909H356.62ZM263.294,359.17h11.573v11.909H263.329V359.17Zm77.742,0h11.573v11.909H341.054V359.17Zm-15.548,0H337.06v11.909H325.505V359.17Zm-15.548,0h11.538v11.909H309.939Zm-15.566,0h11.555v11.909H294.3V359.17Zm-15.548,0H290.38v11.909H278.825Zm-15.548-18.905h11.591v11.891H263.329V340.264Zm77.742,0h11.591v11.891H341.054V340.264Zm-15.548,0H337.06v11.891H325.505V340.264Zm-15.548,0h11.538v11.891H309.922Zm-15.566,0h11.555v11.891H294.3V340.264Zm-15.548,0h11.555v11.891H278.807Zm-15.548-18.923h11.608V333.25H263.329V321.341Zm77.742,0h11.608V333.25H341.054V321.341Zm-15.548,0H337.06V333.25H325.505V321.341Zm-15.548,0h11.538V333.25H309.9Zm-15.566,0h11.555V333.25H294.3V321.341Zm-15.548,0h11.555V333.25H278.79Zm-15.548-18.905h11.626v11.909H263.329V302.436Zm77.742,0h11.626v11.909H341.054V302.436Zm-15.548,0H337.06v11.909H325.505V302.436Zm-15.548,0h11.538v11.909H309.886Zm-15.566,0h11.555v11.909H294.3V302.436Zm-15.548,0h11.555v11.909H278.772ZM372.1,283.53h11.555v11.891H372.1Zm-15.548,0h11.608v11.891H356.62V283.53Zm15.619-18.852h11.555v11.909H372.168Zm-15.548,0h11.538v11.909H356.62V264.678Zm15.548-18.905h11.555v11.838H372.168V245.7Zm-15.548,0h11.538v11.838H356.62V245.7Zm15.548-18.905h11.555v11.891H372.168Zm-15.548,0h11.538v11.891H356.62V226.867Zm15.548-18.905h11.555v11.891H372.168Zm-15.548,0h11.538v11.891H356.62V207.962Zm15.548-18.923h11.555v11.909H372.168Zm-15.548,0h11.538v11.909H356.62V189.039ZM263.294,283.6h11.573v11.891H263.329V283.6Zm77.742,0h11.573v11.891H341.054V283.6Zm-15.548,0H337.06v11.891H325.505V283.6Zm-15.548,0h11.538v11.891H309.939Zm-15.566,0h11.555v11.891H294.3V283.6Zm-15.548,0H290.38v11.891H278.825Zm-15.548-18.923h11.59v11.909H263.329V264.678Zm77.742,0h11.59v11.909H341.054V264.678Zm-15.548,0h11.59v11.909H325.505V264.678Zm-15.548,0h11.538v11.909H309.922Zm-15.566,0h11.555v11.909H294.3V264.678Zm-15.548,0h11.555v11.909H278.807Zm-15.548-18.905h11.608v11.838H263.329V245.7Zm77.742,0h11.608v11.838H341.054V245.7Zm-15.548,0H337.06v11.838H325.505V245.7Zm-15.548,0h11.538v11.838H309.9V245.7Zm-15.566,0h11.555v11.838H294.3V245.7Zm-15.548,0h11.555v11.838H278.79V245.7Zm-15.548-18.905h11.626v11.891H263.329V226.867Zm77.742,0h11.626v11.891H341.054V226.867Zm-15.548,0H337.06v11.891H325.505V226.867Zm-15.548,0h11.538v11.891H309.887Zm-15.566,0h11.555v11.891H294.3V226.867Zm-15.548,0h11.555v11.891H278.772Zm-15.548-18.905h11.643v11.891H263.329V207.962Zm77.742,0h11.643v11.891H341.054V207.962Zm-15.548,0H337.06v11.891H325.505V207.962Zm-15.548,0h11.538v11.891H309.869Zm-15.566,0h11.555v11.891H294.3V207.962Zm-15.548,0H290.31v11.891H278.755Zm-15.548-18.923h11.661v11.909H263.329V189.039Zm77.742,0h11.661v11.909H341.054V189.039Zm-15.548,0H337.06v11.909H325.505V189.039Zm-15.548,0h11.538v11.909H309.851Zm-15.566,0h11.555v11.909H294.3V189.039Zm-15.548,0h11.555v11.909H278.737Zm77.742-18.905h11.678v11.909H356.62V170.133Zm15.548-18.905h11.555v11.891H372.027V151.157Zm-15.548,0h11.678v11.891H356.62V151.157Zm15.689-19.064h11.555v11.909H372.168Zm-15.548,0h11.538v11.909H356.62V132.163Zm15.548-18.905h11.555v11.909H372.168V113.329Zm-15.548,0h11.538v11.909H356.62V113.329Zm15.548-18.905h11.555v11.891H372.168V94.423Zm-15.548,0h11.538v11.891H356.62V94.423ZM372.168,75.43h11.555V87.338H372.168V75.5Zm-15.548,0h11.538V87.338H356.62V75.5Zm15.548-18.905h11.555V68.557H372.168V56.595Zm-15.548,0h11.538V68.557H356.62V56.595Zm-93.326,0h11.573V68.557H263.329V56.595Zm0,113.468h11.573V181.9H263.329V169.992Zm77.742,0h11.573V181.9H341.054V169.992Zm-15.548,0H337.06V181.9H325.505V169.992Zm-15.548,0h11.538V181.9H309.939Zm-15.566,0h11.555V181.9H294.3V169.992Zm-15.548,0H290.38V181.9H278.825Zm-15.548-18.905h11.59v11.891H263.329v-11.82Zm77.742,0h11.59v11.891H341.054v-11.82Zm-15.548,0h11.59v11.891H325.505v-11.82Zm-15.548,0h11.538v11.891H309.922v-11.82Zm-15.566,0h11.555v11.891H294.3v-11.82Zm-15.548,0h11.555v11.891H278.807v-11.82Zm-15.513-18.923h11.573v11.909H263.329V132.163Zm77.742,0h11.573v11.909H341.054V132.163Zm-15.548,0H337.06v11.909H325.505V132.163Zm-15.548,0h11.538v11.909H309.939Zm-15.637,0h11.555v11.909H294.3Zm-15.548,0h11.555v11.909H278.754Zm-15.548-18.905h11.661v11.909H263.329V113.329Zm77.742,0h11.661v11.909H341.054V113.329Zm-15.548,0H337.06v11.909H325.505V113.329Zm-15.548,0h11.538v11.909H309.851V113.329Zm-15.566,0H305.84v11.909H294.3V113.329Zm-15.548,0h11.555v11.909H278.737V113.329ZM263.188,94.353h11.679v11.891H263.329V94.423Zm77.742,0h11.679v11.891H341.054V94.423Zm-15.548,0H337.06v11.891H325.505V94.423Zm-15.548,0h11.538v11.891H309.833V94.423Zm-15.566,0h11.555v11.891H294.3V94.423Zm-15.548,0h11.555v11.891H278.719V94.423ZM263.171,75.43h11.7V87.338H263.329V75.5Zm77.742,0h11.7V87.338H341.054V75.5Zm-15.548,0h11.7V87.338H325.505V75.5Zm-15.548,0h11.538V87.338H309.816V75.5Zm-15.566,0H305.8V87.338H294.3V75.5Zm-15.548,0h11.555V87.338H278.7V75.5Zm62.211-18.905h11.7V68.557H341.054V56.595Zm-15.548,0h11.7V68.557H325.505V56.595Zm-15.548,0h11.538V68.557H309.816V56.595Zm-15.566,0h11.555V68.557H294.3V56.595Zm-15.548,0h11.555V68.557H278.7V56.595Z" transform="translate(1137.09 654.986)" fill="none" stroke="#0a80ef" stroke-width="1" fill-rule="evenodd"/>
      <path id="Path_2819" data-name="Path 2819" d="M87.849,389.592l.159-191.828c0-20.089.194-40.284,0-60.356,0-5.3-.777-9.576,1.52-13.905,3.816-7.173,17.245-7.474,33.076-12.244,11.573-3.534,35.691-10.195,44.277-16.361-1.343-.919.177-.618-3.216-1.131l-8.11,1.113c-4.134,1.042-6.484,1.643-10.849,2.668-6.873,1.608-14.965,4.028-21.591,6.2-12.88,4.24-28.146,11.732-36.609,9.7-7.9-1.891-9.258-7.35-18.34-16.149-4.1-3.975-9.594-9.841-13.782-13.569C49.6,79.455,30.426,60.761,23.27,61.062A222.323,222.323,0,0,0,48.978,89.084c5.583,5.3,9.417,8.11,14.506,12.986a69.064,69.064,0,0,0,7.173,6.378c9.612,7.545,14.135,8.622,8.711,26.945L69.032,178.328c-.936,4.488-4.17,18.358-1.2,22.245,4.859-4.24,12.969-44.048,15.9-52.193l-.318,241.636,1.52-.159h1.926Z" transform="translate(1670.004 678.488)" fill="#344056" fill-rule="evenodd"/>
      <path id="Path_2820" data-name="Path 2820" d="M1961.491,242.7H0v19.7H1961.491V242.7Z" transform="translate(0.508 817.783)" fill="#293345" fill-rule="evenodd"/>
      <line id="Line_145" data-name="Line 145" x2="1920" transform="translate(0.5 1070.5)" fill="none" stroke="#fff" stroke-width="1" stroke-dasharray="10"/>
      <path id="Path_2817-2" data-name="Path 2817" d="M307.792,21.987h-11.07v6.588H295.4V21.987H278.871v6.588h-1.345V21.987H266.482L258.49,0h41.869l7.425,21.987ZM302.778,10.5h-12.11L286.9.9h12.5l3.383,9.59ZM279.691,21.142H267.573l-3.763-9.581h12.507l3.383,9.581Zm13.48,0h-12.11L277.3,11.56h12.5l3.383,9.581Zm13.488,0H294.541l-3.763-9.581h12.507l3.383,9.581ZM275.835,10.495H263.7L259.936.9h12.516Zm13.488,0H277.179L273.416.9h12.507l3.383,9.59Z" transform="translate(579.512 725.521)" fill="#344056" fill-rule="evenodd"/>
      <path id="Path_2818-2" data-name="Path 2818" d="M247.41,30.41H376.393V42.076h-6.649V335.6H255.107V42.076h-7.7Zm23.242,112.943h-9.794v9.636h9.794ZM325.716,315.37H298.4v16.57h27.315Zm-55.064-18.943h-9.794v9.636h9.794Zm13.178,0h-9.779v9.636h9.779Zm-13.178-15.3h-9.794v9.622h9.794Zm13.178,0h-9.779v9.622h9.779Zm-13.178-15.312h-9.794v9.636h9.794Zm13.178,0h-9.779v9.636h9.779Zm-13.178-15.3h-9.794v9.636h9.794Zm13.178,0h-9.779v9.636h9.779Zm79.1,45.906h-9.809v9.636H362.9v-9.636Zm-65.891,0h-9.809v9.636h9.794v-9.636Zm13.178,0h-9.809v9.636H310.2v-9.636Zm13.178,0h-9.779v9.636h9.779Zm13.193,0h-9.794v9.636h9.854v-9.636Zm13.178,0h-9.794v9.636h9.794Zm13.178-15.3h-9.824v9.622H362.9V281.13Zm-65.891,0h-9.824v9.622h9.794V281.13Zm13.178,0h-9.824v9.622H310.2V281.13Zm13.178,0h-9.779v9.622h9.779Zm13.193,0h-9.794v9.622h9.839V281.13Zm13.178,0h-9.794v9.622h9.794Zm13.178-15.312h-9.839v9.636H362.9v-9.636Zm-65.891,0h-9.839v9.636h9.794v-9.636Zm13.178,0h-9.839v9.636H310.2v-9.636Zm13.178,0h-9.779v9.636h9.779Zm13.193,0h-9.794v9.636h9.824v-9.636Zm13.178,0H340v9.636H349.8Zm13.178-15.3h-9.854v9.636H362.9v-9.636Zm-65.891,0h-9.854v9.636h9.794v-9.636Zm13.178,0h-9.854v9.636H310.2v-9.636Zm13.178,0h-9.779v9.636h9.779Zm13.193,0h-9.794v9.636h9.809v-9.636Zm13.178,0h-9.794v9.636h9.794Zm-79.1-15.3h-9.794v9.622h9.794Zm13.178,0h-9.839v9.622h9.779v-9.622Zm-13.238-15.255h-9.794V229.6h9.794Zm13.178,0h-9.779V229.6h9.779v-9.636Zm-13.178-15.3h-9.794v9.579h9.794v-9.636Zm13.178,0h-9.779v9.579h9.779v-9.636Zm-13.178-15.3h-9.794V199h9.794Zm13.178,0h-9.779V199h9.779v-9.622Zm-13.178-15.3h-9.794V183.7h9.794Zm13.178,0h-9.779V183.7h9.779v-9.622Zm-13.178-15.312h-9.794V168.4h9.794Zm13.178,0h-9.779V168.4h9.779v-9.636Zm79.1,76.516h-9.809V244.9H362.9v-9.622Zm-65.891,0h-9.809V244.9h9.794v-9.622Zm13.178,0h-9.809V244.9H310.2v-9.622Zm13.178,0h-9.779V244.9h9.779Zm13.193,0h-9.794V244.9h9.854v-9.622Zm13.178,0h-9.794V244.9h9.794Zm13.178-15.312h-9.824V229.6H362.9v-9.636Zm-65.891,0h-9.824V229.6h9.794v-9.636Zm13.178,0h-9.824V229.6H310.2v-9.636Zm13.178,0h-9.779V229.6h9.779Zm13.193,0h-9.794V229.6h9.839v-9.636Zm13.178,0h-9.794V229.6h9.794Zm13.178-15.3h-9.839v9.579H362.9v-9.636Zm-65.891,0h-9.839v9.579h9.794v-9.636Zm13.178,0h-9.839v9.579H310.2v-9.636Zm13.178,0h-9.779v9.579h9.779v-9.636Zm13.193,0h-9.794v9.579h9.824v-9.636Zm13.178,0H340v9.579H349.8v-9.636Zm13.178-15.3h-9.853V199H362.9v-9.622Zm-65.891,0h-9.853V199h9.794v-9.622Zm13.178,0h-9.853V199H310.2v-9.622Zm13.178,0h-9.779V199h9.779Zm13.193,0h-9.794V199h9.809v-9.622Zm13.178,0h-9.794V199h9.794Zm13.178-15.3h-9.868V183.7H362.9v-9.622Zm-65.891,0h-9.868V183.7h9.794v-9.622Zm13.178,0h-9.868V183.7H310.2v-9.622Zm13.178,0h-9.779V183.7h9.779Zm13.193,0h-9.794V183.7h9.794v-9.622Zm13.178,0h-9.794V183.7h9.794ZM363,158.765h-9.883V168.4H362.9v-9.636Zm-65.891,0h-9.883V168.4h9.794v-9.636Zm13.178,0h-9.883V168.4H310.2v-9.636Zm13.178,0H313.69V168.4h9.779Zm13.193,0h-9.794V168.4h9.779v-9.636Zm13.178,0h-9.794V168.4h9.794Zm-65.891-15.3h-9.9V153.1h9.779v-9.636Zm-13.178-15.3h-9.794v9.622h9.794v-9.679Zm13.178,0h-9.9v9.622h9.779v-9.679Zm-13.3-15.426h-9.794v9.636h9.794Zm13.178,0h-9.779v9.636h9.779v-9.636Zm-13.178-15.3h-9.794v9.636h9.794V97.5Zm13.178,0h-9.779v9.636h9.779V97.5Zm-13.178-15.3h-9.794v9.622h9.794V82.207Zm13.178,0h-9.779v9.622h9.779V82.207ZM270.652,66.838h-9.794v9.636h9.794V66.9Zm13.178,0h-9.779v9.636h9.779V66.9Zm-13.178-15.3h-9.794v9.736h9.794V51.6Zm13.178,0h-9.779v9.736h9.779V51.6Zm79.1,0h-9.809v9.736H362.9V51.6Zm0,91.813h-9.809v9.636H362.9v-9.636Zm-65.891,0h-9.809v9.636h9.794v-9.636Zm13.178,0h-9.809v9.636H310.2v-9.636Zm13.178,0h-9.779v9.636h9.779Zm13.193,0h-9.794v9.636h9.854v-9.636Zm13.178,0h-9.794v9.636h9.794Zm13.178-15.3h-9.824v9.622H362.9v-9.564Zm-65.891,0h-9.824v9.622h9.794v-9.564Zm13.178,0h-9.824v9.622H310.2v-9.564Zm13.178,0h-9.779v9.622h9.779v-9.564Zm13.193,0h-9.794v9.622h9.839v-9.564Zm13.178,0h-9.794v9.622h9.794v-9.564Zm13.148-15.312h-9.809v9.636H362.9v-9.636Zm-65.891,0h-9.809v9.636h9.794v-9.636Zm13.178,0h-9.809v9.636H310.2v-9.636Zm13.178,0h-9.779v9.636h9.779Zm13.253,0h-9.794v9.636h9.794Zm13.178,0h-9.794v9.636h9.794ZM363,97.447h-9.884v9.636H362.9V97.5Zm-65.891,0h-9.884v9.636h9.794V97.5Zm13.178,0h-9.884v9.636H310.2V97.5Zm13.178,0h-9.779v9.636h9.779V97.5Zm13.193,0h-9.794v9.636h9.779V97.5Zm13.178,0h-9.794v9.636h9.794V97.5Zm13.178-15.3h-9.9v9.622H362.9V82.207Zm-65.891,0h-9.9v9.622h9.794V82.207Zm13.178,0h-9.9v9.622H310.2V82.207Zm13.178,0h-9.779v9.622h9.779V82.207Zm13.193,0h-9.794v9.622h9.764V82.207Zm13.178,0h-9.794v9.622h9.794V82.207Zm13.178-15.312h-9.913v9.636H362.9V66.9Zm-65.891,0h-9.913v9.636h9.794V66.9Zm13.178,0h-9.913v9.636H310.2V66.9Zm13.178,0h-9.779v9.636H323.5V66.9Zm13.193,0H326.9v9.636h9.749V66.9Zm13.178,0h-9.794v9.636h9.794V66.9Zm-52.728-15.3h-9.913v9.736h9.794V51.6Zm13.178,0h-9.913v9.736H310.2V51.6Zm13.178,0h-9.779v9.736H323.5V51.6Zm13.193,0H326.9v9.736h9.749V51.6Zm13.178,0h-9.794v9.736h9.794V51.6Z" transform="translate(550.996 724.126)" fill="none" stroke="#0a80ef" stroke-width="1" fill-rule="evenodd"/>
      <path id="Path_2850" data-name="Path 2850" d="M546.512,216.08h-1.8v49.366h1.8V216.08Z" transform="translate(1152.385 795.369)" fill="#0a80ef" fill-rule="evenodd"/>
      <path id="Path_2851" data-name="Path 2851" d="M556.728,177.772c-.6,5.742,10.159,18.676,3.71,16.927-1.413-.389-2.633-3.657-3.092-4.876-.283,4.205,3.269,13,6.378,16.467.636.724,2.049,1.767,2.421,2.226,2.067,2.668-.177.707.742,2.951.636,1.555,1.767.636.954,4.064-5.513,3.993-9.735-6.555-9.47-11.131a12.368,12.368,0,0,0,1.767,9.523c8.127,15.6,14.965,13.976,17.668,19.665.954,3.163,1.36,2.968-1.1,5.513-3.534,0-2.986-1.52-5.3-2.668-2.226-.406-3.534-1.767-5.8-2.88.724,1.29-.3,0,.954,1.484a17.673,17.673,0,0,1,2.951,3.428c.99,2.58,3.039-.265,2.279,5.3,3.534,3.163,10.6,6.237,11.432,8.693.353,1.025.23.318.141,1.2-.459,4.629-10.689-.618-13.6-2.792-1.431-1.06-2.173-2.05-3.233-2.7.283,1.431,4.276,5.6,5.477,6.661.106.106.459.371.583.477s.76.53.919.618a22.133,22.133,0,0,0,3.322,1.873c2.244,1.042,4.629,2.1,5.3,4.947,1.06,4.028-1.767,4.382-3.746,5.99,1.59,1.2,4.081,2.438.459,4.7a12.368,12.368,0,0,1-6.961,1.255,15.123,15.123,0,0,1-5.3-1.643c-1.943-1.06-3.039-2.6-4.435-3.11-1.06,2.509-.689,5.018-4.611,4.7s-3.41-3.216-4.682-5.142c-2.933,2.668-5,5.159-9.735,5.583-2.933-.124-4.293-1.1-5.018-3.534-.689-.53-.53-.83-2.332-.8,1.678,1.661,2.208-2.085,2.491-3.269-4.4.353-7.35-.53-7.863-4.576l-1.5-.194.424-1.007c1.449-.742.919-2.509,4.028-4.346a61.173,61.173,0,0,1,5.972-2.792c5.707-2.739,8.6-5.495,9.965-7.633-.848-.866-1.961-1.413-3.163-2.65-3.428.9-7.509,4.134-10.6.371-2.633-4.859,4.1-8.269,7.244-10.407l3.534-2.827c-1.767-1.573-2.138,0-2.209-2.544-.159-5.036,13.163-5.566,12.05-24.082-.088.124-.212.177-.247.406a.849.849,0,0,1-.23.406l-.212.389c-1.06,2.12-4.011,12.721-8.94,9.223-4.134-2.933,3.852-9.064,5.672-11.891,2.933-4.523,3.534-10.036,3.2-16.043l-.477,1.307c-.9,3.622-.742,11.22-5.3,9.594l-.283-.972c0-.53-1.078.124,1.767-5.389,3.534-6.8,3.657-12.827,4.134-20.778.194,1.891.371,5,1.5,6.573Z" transform="translate(1140.262 760.83)" fill="none" stroke="#0a80ef" stroke-width="1" fill-rule="evenodd"/>
      <path id="Path_2852" data-name="Path 2852" d="M572.149,213.91H569.94v53.2h2.208v-53.2Z" transform="translate(1010.734 793.705)" fill="#0a80ef" fill-rule="evenodd"/>
      <path id="Path_2853" data-name="Path 2853" d="M604.393,255.507c-3.2,1.926-4.806,3.657-9.241,5.513l-11.962,2.721h-1.767a37.246,37.246,0,0,1-11.979-2.721c-4.435-1.855-6.025-3.534-9.223-5.513-1.131-2.438-4.93-5.124-3.975-11.944s5.424-7.262,6.378-10.195c2.827-8.534-12.138-14.435,6.449-20.478,8.075-2.633,5.548-2.12,6.272-10.371.424-4.771,3.534-7.492,6.838-7.739h.247c3.357.247,6.4,2.968,6.82,7.739.724,8.251-1.767,7.739,6.29,10.371,18.57,6.043,3.534,11.944,6.431,20.478.972,2.933,5.477,3.534,6.4,10.195S605.506,253.069,604.393,255.507Z" transform="translate(1000.115 779.035)" fill="none" stroke="#0a80ef" stroke-width="1" fill-rule="evenodd"/>
      <path id="Path_2854" data-name="Path 2854" d="M528.057,224.09h-.127V259.3h.127V224.09Z" transform="translate(1269.645 800.512)" fill="none" stroke="#0a80ef" stroke-width="1" fill-rule="evenodd"/>
      <path id="Path_2855" data-name="Path 2855" d="M538.976,225.511c.124,1.025-.177.194,1.767,1.961a13.216,13.216,0,0,1,3.534,14.382c-1.307,3.18-2.156,2.191-3.021,4.417l-7.756,1.06-.99-.247c-7.067-.813-11.484-4.435-11.608-11.308s3.958-10.283,5.848-15.619-1.908-4.417-.937-8.6c.707-3.074,4.488-3.375,7.333-1.767a9.417,9.417,0,0,1,4.17,6.537,24.433,24.433,0,0,1,.212,4.947c0,4.594,1.131,3.869,1.555,4.187Z" transform="translate(1264.125 789.807)" fill="none" stroke="#0a80ef" stroke-width="1" fill-rule="evenodd"/>
    </g>
  </g>
</svg>
