<svg xmlns="http://www.w3.org/2000/svg" width="50" height="47.525" viewBox="0 0 50 47.525">
  <g id="_846449" data-name="846449" transform="translate(0 -12.675)">
    <g id="Group_513" data-name="Group 513" transform="translate(0 12.676)">
      <path id="Path_3586" data-name="Path 3586" d="M49.161,33.79l-4.224-3.849V17.179a1.47,1.47,0,0,0-1.47-1.47H33.3a1.47,1.47,0,0,0-1.47,1.47V18l-5.1-4.648a2.552,2.552,0,0,0-3.454,0L.84,33.79a2.564,2.564,0,0,0,1.727,4.459H6.15V58.73A1.47,1.47,0,0,0,7.62,60.2h12.3a1.47,1.47,0,0,0,1.47-1.47V46.295h7.227V58.73a1.47,1.47,0,0,0,1.47,1.47h12.3a1.47,1.47,0,0,0,1.47-1.47V38.249h3.584a2.564,2.564,0,0,0,1.727-4.459ZM42.38,35.308a1.47,1.47,0,0,0-1.47,1.47V57.259H31.555V44.824a1.471,1.471,0,0,0-1.47-1.47H19.917a1.47,1.47,0,0,0-1.47,1.47V57.259H9.091V36.779a1.47,1.47,0,0,0-1.47-1.47H3.54L25,15.753l7.308,6.659a1.47,1.47,0,0,0,2.461-1.087V18.649H42V30.59a1.47,1.47,0,0,0,.48,1.087l3.985,3.631Z" transform="translate(0 -12.676)" fill="#344056"/>
    </g>
  </g>
</svg>
