<svg xmlns="http://www.w3.org/2000/svg" width="38.153" height="39.867" viewBox="0 0 38.153 39.867">
  <g id="Group_730" data-name="Group 730" transform="translate(-880 -2108.522)">
    <g id="_869818" data-name="869818" transform="translate(890.109 2117.156)">
      <g id="Group_700" data-name="Group 700" transform="translate(3.412 3.412)">
        <g id="Group_699" data-name="Group 699">
          <path id="Path_4194" data-name="Path 4194" d="M108.474,103.443a4.981,4.981,0,0,0-3.112,1.077.255.255,0,0,0,.316.4,4.475,4.475,0,0,1,2.8-.968,4.522,4.522,0,1,1-4.522,4.522,4.472,4.472,0,0,1,.991-2.826.255.255,0,1,0-.4-.319,5.033,5.033,0,1,0,3.929-1.887Z" transform="translate(-103.442 -103.443)" fill="#344056"/>
        </g>
      </g>
      <g id="Group_702" data-name="Group 702" transform="translate(8.19)">
        <g id="Group_701" data-name="Group 701">
          <path id="Path_4195" data-name="Path 4195" d="M248.518,0a.255.255,0,0,0-.255.255V1.62a.255.255,0,1,0,.51,0V.255A.255.255,0,0,0,248.518,0Z" transform="translate(-248.263)" fill="#344056"/>
        </g>
      </g>
      <g id="Group_704" data-name="Group 704" transform="translate(4.095 1.097)">
        <g id="Group_703" data-name="Group 703">
          <path id="Path_4196" data-name="Path 4196" d="M125.289,34.572l-.682-1.182a.255.255,0,0,0-.442.255l.682,1.182a.255.255,0,0,0,.442-.255Z" transform="translate(-124.131 -33.262)" fill="#344056"/>
        </g>
      </g>
      <g id="Group_706" data-name="Group 706" transform="translate(1.097 4.095)">
        <g id="Group_705" data-name="Group 705">
          <path id="Path_4197" data-name="Path 4197" d="M34.824,124.848l-1.182-.682a.255.255,0,0,0-.255.442l1.182.682a.255.255,0,0,0,.255-.442Z" transform="translate(-33.259 -124.132)" fill="#344056"/>
        </g>
      </g>
      <g id="Group_708" data-name="Group 708" transform="translate(0 8.19)">
        <g id="Group_707" data-name="Group 707">
          <path id="Path_4198" data-name="Path 4198" d="M1.62,248.263H.255a.255.255,0,1,0,0,.51H1.62a.255.255,0,1,0,0-.51Z" transform="translate(0 -248.263)" fill="#344056"/>
        </g>
      </g>
      <g id="Group_710" data-name="Group 710" transform="translate(1.097 11.602)">
        <g id="Group_709" data-name="Group 709">
          <path id="Path_4199" data-name="Path 4199" d="M34.919,351.834a.255.255,0,0,0-.349-.093l-1.182.683a.255.255,0,1,0,.255.442l1.182-.682A.255.255,0,0,0,34.919,351.834Z" transform="translate(-33.261 -351.706)" fill="#344056"/>
        </g>
      </g>
      <g id="Group_712" data-name="Group 712" transform="translate(4.095 14.1)">
        <g id="Group_711" data-name="Group 711">
          <path id="Path_4200" data-name="Path 4200" d="M125.2,427.467a.255.255,0,0,0-.349.093l-.682,1.182a.255.255,0,1,0,.442.255l.682-1.182A.255.255,0,0,0,125.2,427.467Z" transform="translate(-124.131 -427.433)" fill="#344056"/>
        </g>
      </g>
      <g id="Group_714" data-name="Group 714" transform="translate(8.19 15.014)">
        <g id="Group_713" data-name="Group 713">
          <path id="Path_4201" data-name="Path 4201" d="M248.518,455.152a.255.255,0,0,0-.255.255v1.365a.255.255,0,1,0,.51,0v-1.365A.255.255,0,0,0,248.518,455.152Z" transform="translate(-248.263 -455.152)" fill="#344056"/>
        </g>
      </g>
      <g id="Group_716" data-name="Group 716" transform="translate(11.602 14.1)">
        <g id="Group_715" data-name="Group 715">
          <path id="Path_4202" data-name="Path 4202" d="M352.864,428.743l-.682-1.182a.255.255,0,1,0-.442.255l.682,1.182a.255.255,0,0,0,.442-.255Z" transform="translate(-351.706 -427.433)" fill="#344056"/>
        </g>
      </g>
      <g id="Group_718" data-name="Group 718" transform="translate(14.1 11.602)">
        <g id="Group_717" data-name="Group 717">
          <path id="Path_4203" data-name="Path 4203" d="M429,352.423l-1.182-.682a.255.255,0,1,0-.255.442l1.182.682a.255.255,0,0,0,.349-.093A.255.255,0,0,0,429,352.423Z" transform="translate(-427.431 -351.707)" fill="#344056"/>
        </g>
      </g>
      <g id="Group_720" data-name="Group 720" transform="translate(15.014 8.19)">
        <g id="Group_719" data-name="Group 719">
          <path id="Path_4204" data-name="Path 4204" d="M456.77,248.263h-1.365a.255.255,0,0,0,0,.51h1.365a.255.255,0,1,0,0-.51Z" transform="translate(-455.15 -248.263)" fill="#344056"/>
        </g>
      </g>
      <g id="Group_722" data-name="Group 722" transform="translate(14.1 4.095)">
        <g id="Group_721" data-name="Group 721">
          <path id="Path_4205" data-name="Path 4205" d="M429.091,124.259a.255.255,0,0,0-.349-.093l-1.182.682a.255.255,0,1,0,.255.442l1.182-.682A.255.255,0,0,0,429.091,124.259Z" transform="translate(-427.433 -124.131)" fill="#344056"/>
        </g>
      </g>
      <g id="Group_724" data-name="Group 724" transform="translate(11.602 1.097)">
        <g id="Group_723" data-name="Group 723">
          <path id="Path_4206" data-name="Path 4206" d="M352.772,33.3a.255.255,0,0,0-.349.093l-.682,1.182a.255.255,0,1,0,.442.255l.682-1.182A.255.255,0,0,0,352.772,33.3Z" transform="translate(-351.706 -33.262)" fill="#344056"/>
        </g>
      </g>
    </g>
    <g id="_813670" data-name="813670" transform="translate(869.744 2108.521)">
      <g id="Group_729" data-name="Group 729" transform="translate(10.256 0.001)">
        <path id="Path_4209" data-name="Path 4209" d="M48,17.506,30.261.378a1.331,1.331,0,0,0-1.858,0L10.665,17.505a1.338,1.338,0,0,0,.929,2.3h2.357V38.53a1.337,1.337,0,0,0,1.338,1.338h9.363a1.337,1.337,0,0,0,1.338-1.338V27.83h6.688v10.7a1.337,1.337,0,0,0,1.338,1.338h9.363a1.337,1.337,0,0,0,1.338-1.338V19.805h2.357a1.338,1.338,0,0,0,.93-2.3ZM44.714,19.08c-.739,0-.827-.014-.827.725V39.111H33.553V27.83c0-.739-.138-.69-.877-.69H25.989c-.739,0-.842-.049-.842.69V39.111H14.732V19.805c0-.739-.043-.961-.782-.961H10.938L29.35.5,48,19.08H44.714Z" transform="translate(-10.256 -0.001)" fill="#344056"/>
      </g>
    </g>
  </g>
</svg>
