<svg xmlns="http://www.w3.org/2000/svg" width="42.494" height="36.327" viewBox="0 0 42.494 36.327">
  <g id="_2933972" data-name="2933972" transform="translate(-4.922 -11.09)">
    <path id="Path_2831" data-name="Path 2831" d="M40.926,42.527V34.611L47.634,23.4a.631.631,0,0,0-.54-.955H25.421a.63.63,0,0,0-.54.307L12.487,43.469a.63.63,0,0,0,.54.954H34.7a.63.63,0,0,0,.54-.307l.584-.979c.02,0,.04.008.06.01v7.825H26.391a.63.63,0,0,0-.63.631v3.784H22.984v-.494a.63.63,0,0,0-.63-.631H20.823V49.489a.63.63,0,0,0-.63-.631H18.675V47.327a.63.63,0,0,0-.63-.631h-2.16a.63.63,0,0,0-.63.631v1.531H10.8V47.327a.63.63,0,0,0-.63-.631H8.01a.63.63,0,0,0-.63.631v1.531H5.86a.63.63,0,0,0-.63.631v8.648a.63.63,0,0,0,.63.631H20.193a.63.63,0,0,0,.63-.631v-.45h1.531a.63.63,0,0,0,.63-.631V56.65h3.406a.63.63,0,0,0,.63-.631V52.235h8.865v.948H33.644a.63.63,0,0,0-.63.631v1.532H30.968a.63.63,0,0,0-.63.631v2.162a.63.63,0,0,0,.63.631H45.3a.63.63,0,0,0,.63-.631V55.976a.63.63,0,0,0-.63-.631H43.254V53.814a.63.63,0,0,0-.63-.631H40.386V43.147A.628.628,0,0,0,40.926,42.527ZM16.514,47.958h.9v.9h-.9Zm-7.874,0h.9v.9h-.9Zm10.923,9.549H6.49V50.12H19.563Zm2.16-1.081h-.9v-.9h.9ZM39.665,41.9H36.6v-.062l3.06-5.117Zm-18.36,1.266,1.724-2.883h5.7L27,43.162Zm2.479-4.144,1.725-2.883h5.7l-1.725,2.883Zm-5.442-2.883h5.7l-1.724,2.883h-5.7Zm2.479-4.144h5.7l-1.725,2.883H19.1ZM23.3,27.847H29L27.273,30.73h-5.7ZM38.643,23.7l-1.725,2.883h-5.7L32.945,23.7Zm-2.479,4.144L34.44,30.73h-5.7l1.724-2.883Zm5.617,2.883H35.908l1.725-2.883H43.5ZM39.3,34.874H33.433l1.724-2.883h5.871Zm-7.339,0h-5.7l1.724-2.883h5.7Zm.714,1.261h5.869l-1.725,2.883H30.952ZM44.26,26.586H38.387L40.111,23.7h5.871ZM25.78,23.7h5.7l-1.724,2.883h-5.7ZM15.865,40.279h5.7l-1.724,2.883h-5.7Zm18.479,2.883H28.471L30.2,40.279h5.869ZM44.671,57.507H31.6v-.9H44.671Zm-2.677-2.162H34.276v-.9H42Zm-4.848-2.162V43.158h1.98V53.183Z" transform="translate(-0.308 -11.352)" fill="#1355e2"/>
    <path id="Path_2833" data-name="Path 2833" d="M11.857,106a.627.627,0,0,0-.627.627v2.24a.627.627,0,0,0,1.254,0v-2.24a.627.627,0,0,0-.627-.627Z" transform="translate(-4.158 -64.765)" fill="#1355e2"/>
    <path id="Path_2834" data-name="Path 2834" d="M25.16,103.821h-.641l.472-1.362a.627.627,0,1,0-1.185-.411l-.761,2.195a.627.627,0,0,0,.592.832h.641l-.472,1.362a.627.627,0,0,0,.387.8.615.615,0,0,0,.205.036.627.627,0,0,0,.593-.422l.761-2.195a.627.627,0,0,0-.592-.832Z" transform="translate(-11.684 -61.959)" fill="#1355e2"/>
  </g>
</svg>
