<svg xmlns="http://www.w3.org/2000/svg" width="21.984" height="21.057" viewBox="0 0 21.984 21.057">
  <path id="Path_1834" data-name="Path 1834" d="M72.363,10.685v4.364a6.28,6.28,0,0,1-1.846,4.5,6.9,6.9,0,0,1-4.633,1.7H56.791a6.864,6.864,0,0,1-4.633-1.7,6.307,6.307,0,0,1-1.777-4.431c0-.8,0-2.265,0-4.364V6.387a6.3,6.3,0,0,1,1.777-4.5A6.864,6.864,0,0,1,56.791.19h9.093a6.9,6.9,0,0,1,4.633,1.7,6.311,6.311,0,0,1,1.777,4.331C72.363,7.12,72.363,8.586,72.363,10.685ZM62.435,2.023H57.348l-1.324.167a6.356,6.356,0,0,0-1.045.267,3.718,3.718,0,0,0-2.09,2,6.432,6.432,0,0,0-.279,1V15.916a5.664,5.664,0,0,0,.279.966,3.32,3.32,0,0,0,.836,1.233,3.5,3.5,0,0,0,1.254.8,5.6,5.6,0,0,0,1.045.267,10.491,10.491,0,0,0,1.5,0H65.5a10.453,10.453,0,0,0,1.5,0,6.1,6.1,0,0,0,1.045-.267,3.5,3.5,0,0,0,1.254-.8,3.285,3.285,0,0,0,.662-1.2,3.541,3.541,0,0,0,.279-.966q0-.6,0-1.4v-9.2a3.924,3.924,0,0,0-.279-1,3.326,3.326,0,0,0-.836-1.2,3.523,3.523,0,0,0-1.254-.7,7.006,7.006,0,0,0-1.045-.267h-4.39Zm2.892,4.831a5.263,5.263,0,0,1,0,7.7,5.872,5.872,0,0,1-6.165,1.128,5.434,5.434,0,0,1-3.485-4.992,5.432,5.432,0,0,1,3.492-5.028A5.87,5.87,0,0,1,65.361,6.82Zm-1.394,6.33a3.424,3.424,0,0,0,0-5,3.846,3.846,0,0,0-5.2.025,3.421,3.421,0,0,0-1.071,2.507,3.617,3.617,0,0,0,3.693,3.5,3.564,3.564,0,0,0,2.578-1.033Zm4.215-9.029a1.226,1.226,0,0,1,.291,1.385,1.326,1.326,0,0,1-1.232.78,1.356,1.356,0,0,1-.941-.366,1.227,1.227,0,0,1,0-1.766,1.356,1.356,0,0,1,.941-.366,1.325,1.325,0,0,1,.975.333Z" transform="translate(-50.38 -0.19)" fill="#fff"/>
</svg>
