<svg xmlns="http://www.w3.org/2000/svg" width="22.948" height="21.935" viewBox="0 0 22.948 21.935">
  <g id="_1384030" data-name="1384030" transform="translate(0 0.668)">
    <path id="Path_4210" data-name="Path 4210" d="M2.783-.668a2.564,2.564,0,1,0-.065,5.114H2.75A2.565,2.565,0,1,0,2.783-.668Zm0,0" fill="#fff"/>
    <path id="Path_4211" data-name="Path 4211" d="M8.109,198.313h4.919v14.8H8.109Zm0,0" transform="translate(-7.819 -191.846)" fill="#fff"/>
    <path id="Path_4212" data-name="Path 4212" d="M230.568,188.625c-2.654,0-4.433,2.494-4.433,2.494v-2.146h-4.92v14.8h4.919v-8.265a3.372,3.372,0,0,1,.162-1.2,2.693,2.693,0,0,1,2.524-1.8c1.78,0,2.492,1.357,2.492,3.347v7.918h4.919v-8.486c0-4.546-2.427-6.661-5.663-6.661Zm0,0" transform="translate(-213.283 -182.506)" fill="#fff"/>
  </g>
</svg>
