<svg xmlns="http://www.w3.org/2000/svg" width="35.999" height="24" viewBox="0 0 35.999 24">
  <g id="_546394" data-name="546394" transform="translate(0 -85.333)" opacity="0.8">
    <g id="Group_359" data-name="Group 359" transform="translate(0 85.333)">
      <path id="Path_3010" data-name="Path 3010" d="M34.153,85.333H1.846A1.851,1.851,0,0,0,0,87.179v20.307a1.852,1.852,0,0,0,1.846,1.846H34.153A1.852,1.852,0,0,0,36,107.486V87.179A1.852,1.852,0,0,0,34.153,85.333Zm-.693,1.384-14.4,10.8a1.93,1.93,0,0,1-2.124,0l-14.4-10.8ZM25.769,98.23l7.846,9.692c.008.01.018.017.026.026H2.358c.008-.009.018-.016.026-.026L10.23,98.23a.692.692,0,0,0-1.076-.871l-7.769,9.6V87.583L16.107,98.625a3.3,3.3,0,0,0,3.784,0L34.614,87.583v19.373l-7.769-9.6a.692.692,0,0,0-1.076.871Z" transform="translate(0 -85.333)" fill="#fff"/>
    </g>
  </g>
</svg>
