<svg xmlns="http://www.w3.org/2000/svg" width="1246.741" height="577" viewBox="0 0 1246.741 577">
  <g id="Group_758" data-name="Group 758" transform="translate(-316.703 -2320)">
    <g id="Aprocesssset_1" data-name="Aprocesssset 1" transform="translate(357.174 2296.838)">
      <g id="Layer_2" data-name="Layer 2" transform="translate(-0.004 -0.09)">
        <g id="Layer_2-2" data-name="Layer 2">
          <path id="Path_4381" data-name="Path 4381" d="M213.416,151.864l-48.883,84.628A9.613,9.613,0,0,1,156.2,241.3H58.467a9.613,9.613,0,0,1-8.331-4.807L1.284,151.864a9.613,9.613,0,0,1,0-9.613L50.167,57.607A9.613,9.613,0,0,1,58.5,52.8h97.734a9.613,9.613,0,0,1,8.331,4.807l45.294,78.508,3.573,6.2a9.613,9.613,0,0,1-.016,9.549Z" transform="translate(0.004 31.94)" fill="#344056"/>
          <path id="Path_4382" data-name="Path 4382" d="M188.428,141.3l-48.883,84.628a9.613,9.613,0,0,1-8.331,4.807h-68.9L41.49,209.9a9.613,9.613,0,0,0,3.637.7h74.454a9.613,9.613,0,0,0,8.331-4.807l37.2-64.457a9.613,9.613,0,0,0,0-9.613L129.723,70.35l55.18,55.132,3.573,6.2a9.613,9.613,0,0,1-.048,9.613Z" transform="translate(24.992 42.509)" fill="#5b6a84"/>
          <path id="Path_4383" data-name="Path 4383" d="M181.342,144.282l-37.2,64.457a9.613,9.613,0,0,1-8.331,4.807H61.369a9.614,9.614,0,0,1-3.637-.7h0a9.613,9.613,0,0,1-4.662-4.07l-.8-1.41L33.715,175.317,15.834,144.282a9.613,9.613,0,0,1,0-9.613L53.037,70.2a9.613,9.613,0,0,1,8.331-4.807h74.438a9.613,9.613,0,0,1,8.331,4.807l1.811,3.2,35.393,61.316A9.613,9.613,0,0,1,181.342,144.282Z" transform="translate(8.766 39.522)" fill="#fff"/>
          <path id="Path_4384" data-name="Path 4384" d="M82.147,120.291a28.7,28.7,0,0,1-1.6,9.613,23.553,23.553,0,0,1-4.182,7.53,18.88,18.88,0,0,1-29,0,23.52,23.52,0,0,1-4.246-7.562,30.554,30.554,0,0,1,0-19.13,23.552,23.552,0,0,1,4.246-7.562,19.755,19.755,0,0,1,6.409-5,18.986,18.986,0,0,1,16.182,0,19.659,19.659,0,0,1,6.409,5,23.568,23.568,0,0,1,4.246,7.562,28.68,28.68,0,0,1,1.538,9.549Zm-10.623,0a22.334,22.334,0,0,0-.7-5.784,14.628,14.628,0,0,0-2-4.534,9.517,9.517,0,0,0-3.076-2.98,7.675,7.675,0,0,0-3.893-1.025,7.819,7.819,0,0,0-3.973,1.025,9.613,9.613,0,0,0-3.076,2.916,14.628,14.628,0,0,0-2,4.534,22.271,22.271,0,0,0-.7,5.784,21.838,21.838,0,0,0,.7,5.752,14.677,14.677,0,0,0,2,4.486,9.517,9.517,0,0,0,3.076,2.916,7.8,7.8,0,0,0,3.973,1.025,7.658,7.658,0,0,0,3.893-1.025,9.485,9.485,0,0,0,3.076-2.916,14.692,14.692,0,0,0,2-4.486,21.885,21.885,0,0,0,.7-5.688Z" transform="translate(25.047 58.178)" fill="#344056"/>
          <path id="Path_4385" data-name="Path 4385" d="M104.282,133.065V142.6H72.238v-9.533H83.454V109.208a8.539,8.539,0,0,1-2.243,1.923,30.44,30.44,0,0,1-3.349,1.843,23.6,23.6,0,0,1-3.733,1.41,12.657,12.657,0,0,1-3.429.545v-9.821a8.908,8.908,0,0,0,3.461-.9,29.866,29.866,0,0,0,4.022-2.163,33.035,33.035,0,0,0,3.429-2.483,8.363,8.363,0,0,0,1.843-1.923H94.236v35.425Z" transform="translate(42.582 58.943)" fill="#344056"/>
          <path id="Path_4386" data-name="Path 4386" d="M366.538,307.968,317.654,392.6a9.613,9.613,0,0,1-8.331,4.807H211.589a9.613,9.613,0,0,1-8.331-4.807l-48.883-84.628a9.613,9.613,0,0,1,0-9.613l48.883-84.628a9.613,9.613,0,0,1,8.331-4.807h97.734a9.614,9.614,0,0,1,8.332,4.807l45.294,78.508,3.573,6.2a9.613,9.613,0,0,1,.016,9.529Z" transform="translate(92.195 125.956)" fill="#f95665"/>
          <path id="Path_4387" data-name="Path 4387" d="M341.538,297.381,292.655,382.01a9.613,9.613,0,0,1-8.331,4.807h-68.9L194.6,365.988a9.613,9.613,0,0,0,3.637.7h74.438a9.613,9.613,0,0,0,8.331-4.807l37.2-64.457a9.613,9.613,0,0,0,0-9.613L282.817,226.5l55.132,55.132,3.573,6.2a9.613,9.613,0,0,1,.016,9.549Z" transform="translate(117.195 136.543)" fill="#6a484b"/>
          <path id="Path_4388" data-name="Path 4388" d="M334.433,300.35l-37.2,64.5a9.613,9.613,0,0,1-8.331,4.807H214.461a9.611,9.611,0,0,1-3.637-.7h0a9.613,9.613,0,0,1-4.662-4.07l-.8-1.41-18.521-32.044-17.865-30.987a9.613,9.613,0,0,1,0-9.613l37.2-64.457a9.613,9.613,0,0,1,8.331-4.807h74.438a9.613,9.613,0,0,1,8.332,4.807l1.81,3.2L334.482,290.9a9.613,9.613,0,0,1-.048,9.453Z" transform="translate(100.987 133.574)" fill="#fff"/>
          <path id="Path_4389" data-name="Path 4389" d="M235.271,276.389a28.694,28.694,0,0,1-1.6,9.613,23.552,23.552,0,0,1-4.246,7.562,18.88,18.88,0,0,1-29,0A23.552,23.552,0,0,1,196.177,286a30.57,30.57,0,0,1,0-19.13,23.568,23.568,0,0,1,4.246-7.562,19.756,19.756,0,0,1,6.409-5,18.986,18.986,0,0,1,16.182,0,19.643,19.643,0,0,1,6.409,5,23.583,23.583,0,0,1,4.246,7.562,28.663,28.663,0,0,1,1.6,9.519Zm-10.623,0a22.269,22.269,0,0,0-.7-5.784,14.66,14.66,0,0,0-2-4.534,9.518,9.518,0,0,0-3.076-2.916,7.657,7.657,0,0,0-3.893-1.025A7.8,7.8,0,0,0,211,263.155a9.517,9.517,0,0,0-3.076,2.916,14.661,14.661,0,0,0-2,4.534,22.255,22.255,0,0,0-.7,5.784,21.806,21.806,0,0,0,.7,5.752,14.676,14.676,0,0,0,2,4.486A9.486,9.486,0,0,0,211,289.543a7.788,7.788,0,0,0,3.973,1.025,7.641,7.641,0,0,0,3.893-1.025,9.485,9.485,0,0,0,3.076-2.916,14.694,14.694,0,0,0,2-4.486,21.806,21.806,0,0,0,.721-5.752Z" transform="translate(117.22 152.2)" fill="#f95665"/>
          <path id="Path_4390" data-name="Path 4390" d="M223,299a34.191,34.191,0,0,1,.545-6.409,17.369,17.369,0,0,1,1.923-5.319,17.834,17.834,0,0,1,3.781-4.566,34.174,34.174,0,0,1,6.1-4.166l5.7-3.028a46.081,46.081,0,0,0,4.134-2.4,10.335,10.335,0,0,0,2.515-2.243,4.246,4.246,0,0,0,.865-2.644,5.255,5.255,0,0,0-1.891-4.054,7.883,7.883,0,0,0-5.431-1.7,11.217,11.217,0,0,0-3.461.513,13.165,13.165,0,0,0-2.948,1.378,16.8,16.8,0,0,0-2.515,1.923,21.085,21.085,0,0,0-2.083,2.243l-6.777-7.787a17.626,17.626,0,0,1,2.916-2.4,28.181,28.181,0,0,1,4.454-2.435,32.7,32.7,0,0,1,5.672-1.891,28.378,28.378,0,0,1,6.649-.753,24.031,24.031,0,0,1,7.162.977,15.685,15.685,0,0,1,5.319,2.756,11.825,11.825,0,0,1,3.3,4.246,12.817,12.817,0,0,1,1.138,5.4,11.12,11.12,0,0,1-1.025,4.807,14.661,14.661,0,0,1-2.6,3.781,19.823,19.823,0,0,1-3.429,2.868q-1.843,1.218-3.589,2.163l-3.2,1.81q-1.811,1.025-3.589,2.243a37.222,37.222,0,0,0-3.2,2.516,11.712,11.712,0,0,0-2.275,2.563h23.857v9.533Z" transform="translate(134.297 152.657)" fill="#f95665"/>
          <path id="Path_4391" data-name="Path 4391" d="M521.348,153.164l-48.883,84.628a9.614,9.614,0,0,1-8.332,4.807H366.4a9.613,9.613,0,0,1-8.331-4.807l-48.883-84.628a9.613,9.613,0,0,1,0-9.613l48.9-84.644a9.613,9.613,0,0,1,8.332-4.807h97.734a9.613,9.613,0,0,1,8.332,4.807l45.294,78.508,3.573,6.2a9.613,9.613,0,0,1,0,9.549Z" transform="translate(185.422 32.723)" fill="#344056"/>
          <path id="Path_4392" data-name="Path 4392" d="M496.348,142.6l-48.883,84.628a9.613,9.613,0,0,1-8.331,4.807H370.239L349.41,211.2a9.614,9.614,0,0,0,3.637.705h74.438a9.613,9.613,0,0,0,8.331-4.807l37.2-64.457a9.613,9.613,0,0,0,0-9.613L437.627,71.65l55.132,55.132,3.573,6.2a9.613,9.613,0,0,1,.016,9.613Z" transform="translate(210.422 43.292)" fill="#5b6a84"/>
          <path id="Path_4393" data-name="Path 4393" d="M489.227,145.576l-37.2,64.457a9.613,9.613,0,0,1-8.331,4.807H369.271a9.612,9.612,0,0,1-3.637-.7h0a9.613,9.613,0,0,1-4.662-4.07l-.8-1.41-18.521-32.044-17.865-30.987a9.613,9.613,0,0,1,0-9.613l37.155-64.5a9.613,9.613,0,0,1,8.332-4.807h74.438a9.613,9.613,0,0,1,8.332,4.807l1.81,3.2,35.393,61.316A9.613,9.613,0,0,1,489.227,145.576Z" transform="translate(194.214 40.311)" fill="#fff"/>
          <path id="Path_4394" data-name="Path 4394" d="M390.091,121.579a28.68,28.68,0,0,1-1.6,9.613,23.553,23.553,0,0,1-4.246,7.562,18.88,18.88,0,0,1-29,0A23.551,23.551,0,0,1,351,131.193a30.57,30.57,0,0,1,0-19.13,23.568,23.568,0,0,1,4.246-7.562,19.755,19.755,0,0,1,6.409-5,18.97,18.97,0,0,1,16.182,0,19.642,19.642,0,0,1,6.409,5,23.586,23.586,0,0,1,4.246,7.562,28.666,28.666,0,0,1,1.6,9.517Zm-10.623,0a22.26,22.26,0,0,0-.7-5.784,14.662,14.662,0,0,0-2-4.534,9.518,9.518,0,0,0-3.076-2.916,7.659,7.659,0,0,0-3.893-1.025,7.8,7.8,0,0,0-3.974,1.025,9.517,9.517,0,0,0-3.076,2.916,14.66,14.66,0,0,0-2,4.534,22.269,22.269,0,0,0-.7,5.784,21.808,21.808,0,0,0,.7,5.752,14.691,14.691,0,0,0,2,4.486,9.485,9.485,0,0,0,3.076,2.916,7.786,7.786,0,0,0,3.974,1.025,7.643,7.643,0,0,0,3.893-1.025,9.485,9.485,0,0,0,3.076-2.916,14.676,14.676,0,0,0,2-4.486,21.8,21.8,0,0,0,.7-5.752Z" transform="translate(210.453 58.973)" fill="#344056"/>
          <path id="Path_4395" data-name="Path 4395" d="M404.258,125.415a12.577,12.577,0,0,1,7.915,4.678,14.548,14.548,0,0,1,3.028,9.325,15.094,15.094,0,0,1-1.458,6.7,14.421,14.421,0,0,1-4.1,5.079,19.227,19.227,0,0,1-6.409,3.2,29.384,29.384,0,0,1-8.508,1.138,27.237,27.237,0,0,1-10.591-1.923,19.675,19.675,0,0,1-7.675-5.624l5.976-7.482a14.291,14.291,0,0,0,4.807,4.022,15.766,15.766,0,0,0,7.082,1.41,12.065,12.065,0,0,0,7.322-1.891,6.809,6.809,0,0,0,2.516-5.832,7.434,7.434,0,0,0-2.916-6.3,14.548,14.548,0,0,0-8.812-2.211h-2.211v-7.867h2.435a11.728,11.728,0,0,0,7.562-2.163,6.825,6.825,0,0,0,2.676-5.544,5.512,5.512,0,0,0-2.211-4.807,9.613,9.613,0,0,0-5.752-1.6,12.818,12.818,0,0,0-6.489,1.6,13.009,13.009,0,0,0-4.678,4.646l-6.441-7.29a12.818,12.818,0,0,1,3.2-3.2,22.045,22.045,0,0,1,4.454-2.515,27.459,27.459,0,0,1,5.4-1.6,30,30,0,0,1,5.976-.593,24.722,24.722,0,0,1,7.322,1.025,18.49,18.49,0,0,1,5.7,2.836,12.562,12.562,0,0,1,3.7,4.374,12.417,12.417,0,0,1,1.3,5.7,14.1,14.1,0,0,1-.7,4.486,12.962,12.962,0,0,1-2.051,3.861,12.516,12.516,0,0,1-3.2,2.916,11.072,11.072,0,0,1-4.166,1.442Z" transform="translate(226.711 59.623)" fill="#344056"/>
          <path id="Path_4396" data-name="Path 4396" d="M677.6,310.428l-48.883,84.6a9.613,9.613,0,0,1-8.331,4.807H522.651a9.613,9.613,0,0,1-8.331-4.807l-48.835-84.6a9.613,9.613,0,0,1,0-9.613l48.883-84.628a9.613,9.613,0,0,1,8.332-4.807h97.734a9.614,9.614,0,0,1,8.332,4.807L674.06,294.7l3.573,6.2a9.613,9.613,0,0,1-.033,9.533Z" transform="translate(279.546 127.438)" fill="#f95665"/>
          <path id="Path_4397" data-name="Path 4397" d="M652.618,299.853l-48.883,84.6a9.613,9.613,0,0,1-8.331,4.807h-68.9L505.68,368.428a9.611,9.611,0,0,0,3.637.7h74.438a9.613,9.613,0,0,0,8.331-4.807l37.2-64.457a9.613,9.613,0,0,0,0-9.613L593.9,228.94l55.132,55.132,3.573,6.2A9.613,9.613,0,0,1,652.618,299.853Z" transform="translate(304.528 138.012)" fill="#6a484b"/>
          <path id="Path_4398" data-name="Path 4398" d="M645.532,302.828l-37.2,64.457A9.613,9.613,0,0,1,600,372.092H525.623a9.612,9.612,0,0,1-3.637-.7h0a9.613,9.613,0,0,1-4.662-4.07l-.8-1.41L498,333.863l-17.977-31.035a9.613,9.613,0,0,1,0-9.613l37.2-64.409A9.613,9.613,0,0,1,525.559,224H600a9.613,9.613,0,0,1,8.331,4.807l1.811,3.2,35.393,61.316a9.613,9.613,0,0,1,0,9.5Z" transform="translate(288.302 135.037)" fill="#fff"/>
          <path id="Path_4399" data-name="Path 4399" d="M546.361,278.849a28.679,28.679,0,0,1-1.6,9.613,23.568,23.568,0,0,1-4.246,7.562,18.88,18.88,0,0,1-29,0,23.549,23.549,0,0,1-4.246-7.562,30.539,30.539,0,0,1,0-19.13,23.551,23.551,0,0,1,4.246-7.562,19.756,19.756,0,0,1,6.409-5,18.986,18.986,0,0,1,16.182,0,19.659,19.659,0,0,1,6.409,5,23.584,23.584,0,0,1,4.246,7.562,28.7,28.7,0,0,1,1.6,9.517Zm-10.623,0a22.338,22.338,0,0,0-.705-5.784,14.614,14.614,0,0,0-2-4.534,9.5,9.5,0,0,0-3.076-2.916,7.675,7.675,0,0,0-3.893-1.025,7.819,7.819,0,0,0-3.973,1.026,9.615,9.615,0,0,0-3.076,2.916,14.617,14.617,0,0,0-2,4.534,22.272,22.272,0,0,0-.7,5.784,21.81,21.81,0,0,0,.705,5.752,14.637,14.637,0,0,0,2,4.486A9.518,9.518,0,0,0,522.088,292a7.8,7.8,0,0,0,3.974,1.025A7.659,7.659,0,0,0,529.955,292a9.5,9.5,0,0,0,3.076-2.916,14.644,14.644,0,0,0,2-4.486,21.867,21.867,0,0,0,.7-5.752Z" transform="translate(304.558 153.682)" fill="#f95665"/>
          <path id="Path_4400" data-name="Path 4400" d="M556.172,311.166V299.437H533.18v-9.373l26.372-33.855h7.162v33.774h6.922v9.453h-6.922v11.728Zm-12.433-21.181h13.619V272.2Z" transform="translate(321.088 154.434)" fill="#f95665"/>
          <path id="Path_4401" data-name="Path 4401" d="M221.429,207.024a3.2,3.2,0,0,1-3.2-3.2,4.068,4.068,0,0,1,0-.625,3.784,3.784,0,0,1,.192-.609,3.639,3.639,0,0,1,.288-.545,3.847,3.847,0,0,1,.4-.5,3.332,3.332,0,0,1,4.534,0,6.2,6.2,0,0,1,.4.5,3.617,3.617,0,0,1,.288.545,3.939,3.939,0,0,1,.192.609,4.272,4.272,0,0,1,0,.625,3.2,3.2,0,0,1-.945,2.259,2.933,2.933,0,0,1-.5.4,3.622,3.622,0,0,1-.545.3,3.7,3.7,0,0,1-.593.176,4.218,4.218,0,0,1-.513.064Z" transform="translate(131.414 120.979)" fill="#4f7bac"/>
          <path id="Path_4402" data-name="Path 4402" d="M218.23,194.864a3.2,3.2,0,0,1,3.2-3.2h0a3.2,3.2,0,0,1,3.2,3.2h0a3.2,3.2,0,0,1-3.2,3.2h0a3.2,3.2,0,0,1-3.2-3.2Z" transform="translate(131.425 115.562)" fill="#4f7bac"/>
          <path id="Path_4403" data-name="Path 4403" d="M218.23,223.833a3.2,3.2,0,0,1,3.2-3.2h0a3.2,3.2,0,0,1,3.2,3.2h0a3.2,3.2,0,0,1-3.2,3.2h0a3.2,3.2,0,0,1-3.2-3.2Zm0-14.42a3.2,3.2,0,0,1,3.2-3.2h0a3.2,3.2,0,0,1,3.2,3.2h0a3.2,3.2,0,0,1-3.2,3.2h0a3.2,3.2,0,0,1-3.2-3.157Zm0-14.42a3.2,3.2,0,0,1,3.2-3.2h0a3.2,3.2,0,0,1,3.2,3.2h0a3.2,3.2,0,0,1-3.2,3.2h0a3.2,3.2,0,0,1-3.2-3.108Zm0-14.42a3.2,3.2,0,0,1,3.2-3.2h0a3.2,3.2,0,0,1,3.2,3.2h0a3.2,3.2,0,0,1-3.2,3.2h0a3.2,3.2,0,0,1-3.2-3.06Zm0-14.42a3.2,3.2,0,0,1,3.2-3.2h0a3.2,3.2,0,0,1,3.2,3.2h0a3.2,3.2,0,0,1-3.2,3.2h0a3.2,3.2,0,0,1-3.2-3.012Zm0-14.42a3.2,3.2,0,0,1,3.2-3.2h0a3.2,3.2,0,0,1,3.2,3.2h0a3.2,3.2,0,0,1-3.2,3.2h0a3.2,3.2,0,0,1-3.2-2.964Zm0-14.42a3.2,3.2,0,0,1,3.2-3.2h0a3.2,3.2,0,0,1,3.2,3.2h0a3.2,3.2,0,0,1-3.2,3.2h0a3.2,3.2,0,0,1-3.2-2.916Zm0-14.42a3.2,3.2,0,0,1,3.2-3.2h0a3.2,3.2,0,0,1,3.2,3.2h0a3.2,3.2,0,0,1-3.2,3.2h0a3.2,3.2,0,0,1-3.2-2.868Z" transform="translate(131.425 72.222)" fill="#4f7bac"/>
          <path id="Path_4404" data-name="Path 4404" d="M221.424,117.322a3.2,3.2,0,0,1-1.218-.24,3.46,3.46,0,0,1-1.041-.689,3.191,3.191,0,0,1,0-4.534,3.3,3.3,0,0,1,4.534,0,3.2,3.2,0,0,1-2.275,5.464Z" transform="translate(131.419 66.963)" fill="#4f7bac"/>
          <path id="Path_4405" data-name="Path 4405" d="M227.17,114.134a3.2,3.2,0,0,1,3.2-3.2h0a3.2,3.2,0,0,1,3.2,3.2h0a3.2,3.2,0,0,1-3.2,3.2h0a3.2,3.2,0,0,1-3.2-3.2Z" transform="translate(136.808 66.946)" fill="#4f7bac"/>
          <path id="Path_4406" data-name="Path 4406" d="M307.775,114.134a3.2,3.2,0,0,1,3.2-3.2h0a3.2,3.2,0,0,1,3.2,3.2h0a3.2,3.2,0,0,1-3.2,3.2h0a3.2,3.2,0,0,1-3.2-3.2Zm-14.324,0a3.2,3.2,0,0,1,3.2-3.2h0a3.2,3.2,0,0,1,3.2,3.2h0a3.2,3.2,0,0,1-3.2,3.2h0a3.2,3.2,0,0,1-3.2-3.2Zm-14.324,0a3.2,3.2,0,0,1,3.2-3.2h0a3.2,3.2,0,0,1,3.2,3.2h0a3.2,3.2,0,0,1-3.2,3.2h0a3.2,3.2,0,0,1-3.2-3.2Zm-14.42,0a3.2,3.2,0,0,1,3.2-3.2h0a3.2,3.2,0,0,1,3.2,3.2h0a3.2,3.2,0,0,1-3.2,3.2h0a3.2,3.2,0,0,1-3.108-3.2Zm-14.324,0a3.2,3.2,0,0,1,3.2-3.2h0a3.2,3.2,0,0,1,3.2,3.2h0a3.2,3.2,0,0,1-3.2,3.2h0a3.2,3.2,0,0,1-3.2-3.2Zm-14.324,0a3.2,3.2,0,0,1,3.2-3.2h0a3.2,3.2,0,0,1,3.2,3.2h0a3.2,3.2,0,0,1-3.2,3.2h0a3.2,3.2,0,0,1-3.124-3.2Z" transform="translate(142.162 66.946)" fill="#4f7bac"/>
          <path id="Path_4407" data-name="Path 4407" d="M292.964,117.337a3.2,3.2,0,0,1-2.259-.929,2.785,2.785,0,0,1-.4-.5,3.007,3.007,0,0,1-.3-.545,3.364,3.364,0,0,1-.24-1.234,3.2,3.2,0,0,1,.945-2.259,2.911,2.911,0,0,1,.481-.4,3.893,3.893,0,0,1,1.154-.481,3.3,3.3,0,0,1,1.25,0,3.938,3.938,0,0,1,.609.192,3.561,3.561,0,0,1,.545.288,3.992,3.992,0,0,1,.5.4,3.2,3.2,0,0,1,.929,2.259,3.318,3.318,0,0,1-.24,1.234,3.051,3.051,0,0,1-.288.545,3.964,3.964,0,0,1-.4.5l-.5.4a3.429,3.429,0,0,1-.545.288,2.659,2.659,0,0,1-.593.176,2.868,2.868,0,0,1-.641.064Z" transform="translate(174.5 66.948)" fill="#4f7bac"/>
          <path id="Path_4408" data-name="Path 4408" d="M289.83,127.435l18.27-10.543L289.83,106.35Z" transform="translate(174.542 64.188)" fill="#4f7bac"/>
          <path id="Path_4409" data-name="Path 4409" d="M832.308,153.164l-48.883,84.628a9.613,9.613,0,0,1-8.331,4.807H677.359a9.613,9.613,0,0,1-8.331-4.807l-48.883-84.628a9.613,9.613,0,0,1,0-9.613L669.06,58.907a9.613,9.613,0,0,1,8.331-4.807h97.734a9.613,9.613,0,0,1,8.331,4.807l45.294,78.508,3.573,6.2a9.613,9.613,0,0,1-.015,9.549Z" transform="translate(372.683 32.723)" fill="#344056"/>
          <path id="Path_4410" data-name="Path 4410" d="M807.308,142.6l-48.883,84.628a9.613,9.613,0,0,1-8.331,4.807H681.2L660.37,211.2a9.614,9.614,0,0,0,3.637.705h74.438a9.613,9.613,0,0,0,8.331-4.807l37.2-64.457a9.614,9.614,0,0,0,0-9.613L748.6,71.65l55.132,55.132,3.573,6.2a9.614,9.614,0,0,1,0,9.613Z" transform="translate(397.682 43.292)" fill="#5b6a84"/>
          <path id="Path_4411" data-name="Path 4411" d="M800.2,145.576,763,210.033a9.613,9.613,0,0,1-8.331,4.807H680.225a9.612,9.612,0,0,1-3.637-.7h0a9.613,9.613,0,0,1-4.646-4.07l-.8-1.41-18.521-32.044-17.865-30.987a9.613,9.613,0,0,1,0-9.613l37.139-64.5a9.613,9.613,0,0,1,8.332-4.807h74.438A9.613,9.613,0,0,1,763,71.516l1.81,3.2L800.2,136.027a9.614,9.614,0,0,1,0,9.549Z" transform="translate(381.481 40.311)" fill="#fff"/>
          <path id="Path_4412" data-name="Path 4412" d="M701.051,121.579a28.7,28.7,0,0,1-1.6,9.613,23.555,23.555,0,0,1-4.246,7.562,18.88,18.88,0,0,1-29,0,23.52,23.52,0,0,1-4.246-7.562,30.539,30.539,0,0,1,0-19.13A23.557,23.557,0,0,1,666.2,104.5a19.736,19.736,0,0,1,6.409-5,18.97,18.97,0,0,1,16.182,0,19.645,19.645,0,0,1,6.409,5,23.586,23.586,0,0,1,4.246,7.562,28.68,28.68,0,0,1,1.6,9.517Zm-10.623,0a22.339,22.339,0,0,0-.7-5.784,14.63,14.63,0,0,0-2-4.534,9.485,9.485,0,0,0-3.076-2.916,7.659,7.659,0,0,0-3.893-1.025,7.8,7.8,0,0,0-3.974,1.025,9.5,9.5,0,0,0-3.076,2.916,14.627,14.627,0,0,0-2,4.534,22.266,22.266,0,0,0-.705,5.784,21.818,21.818,0,0,0,.705,5.752,14.645,14.645,0,0,0,2,4.486,9.468,9.468,0,0,0,3.076,2.916,7.786,7.786,0,0,0,3.973,1.025,7.642,7.642,0,0,0,3.893-1.025,9.454,9.454,0,0,0,3.076-2.916,14.656,14.656,0,0,0,2-4.486,21.88,21.88,0,0,0,.7-5.752Z" transform="translate(397.713 58.973)" fill="#344056"/>
          <path id="Path_4413" data-name="Path 4413" d="M709.23,118.833a20.284,20.284,0,0,1,7.322,1.3,17.078,17.078,0,0,1,5.832,3.669,16.762,16.762,0,0,1,3.813,5.72,20.14,20.14,0,0,1-.16,15.029,17.354,17.354,0,0,1-4.294,5.944,19.757,19.757,0,0,1-6.537,3.861,23.728,23.728,0,0,1-8.187,1.378,22.863,22.863,0,0,1-10.975-2.6,17.927,17.927,0,0,1-7.354-7.082l6.056-6.3a16.391,16.391,0,0,0,5.511,4.807,14.084,14.084,0,0,0,6.841,1.81,9.758,9.758,0,0,0,6.97-2.564,9.165,9.165,0,0,0-6.409-16.022,10.254,10.254,0,0,0-4.806,1.186,9.454,9.454,0,0,0-3.589,3.2h-9.213a16.993,16.993,0,0,1,.32-1.778q.321-1.6.785-3.941t1.025-5.351q.545-2.948,1.186-6.024,1.41-7.242,3.2-16.214h27.558v9.613H704.183L701.892,121a6.665,6.665,0,0,1,2.8-1.6,14.165,14.165,0,0,1,4.534-.561Z" transform="translate(414.737 59.684)" fill="#344056"/>
          <path id="Path_4414" data-name="Path 4414" d="M532.394,207.037a3.3,3.3,0,0,1-1.234-.24,3.669,3.669,0,0,1-1.442-1.186,3.569,3.569,0,0,1-.288-.561,2.456,2.456,0,0,1-.176-.593,3.075,3.075,0,0,1,0-1.25,3.719,3.719,0,0,1,.176-.609,3.574,3.574,0,0,1,.3-.545,3.462,3.462,0,0,1,.881-.881,2.439,2.439,0,0,1,.561-.3,2.485,2.485,0,0,1,.593-.176,3.2,3.2,0,0,1,2.884.881,2.341,2.341,0,0,1,.4.481,3.7,3.7,0,0,1,.3.545,2.639,2.639,0,0,1,.176.609,3.073,3.073,0,0,1,0,1.25,2.514,2.514,0,0,1-.176.593,3.584,3.584,0,0,1-.288.561,3.671,3.671,0,0,1-1.442,1.186,3.2,3.2,0,0,1-1.225.235Z" transform="translate(318.685 120.966)" fill="#4f7bac"/>
          <path id="Path_4415" data-name="Path 4415" d="M529.19,194.864a3.2,3.2,0,0,1,3.2-3.2h0a3.2,3.2,0,0,1,3.2,3.2h0a3.2,3.2,0,0,1-3.2,3.2h0a3.2,3.2,0,0,1-3.2-3.2Z" transform="translate(318.685 115.562)" fill="#4f7bac"/>
          <path id="Path_4416" data-name="Path 4416" d="M529.19,223.833a3.2,3.2,0,0,1,3.2-3.2h0a3.2,3.2,0,0,1,3.2,3.2h0a3.2,3.2,0,0,1-3.2,3.2h0a3.2,3.2,0,0,1-3.2-3.2Zm0-14.42a3.2,3.2,0,0,1,3.2-3.2h0a3.2,3.2,0,0,1,3.2,3.2h0a3.2,3.2,0,0,1-3.2,3.2h0a3.2,3.2,0,0,1-3.2-3.157Zm0-14.42a3.2,3.2,0,0,1,3.2-3.2h0a3.2,3.2,0,0,1,3.2,3.2h0a3.2,3.2,0,0,1-3.2,3.2h0a3.2,3.2,0,0,1-3.2-3.108Zm0-14.42a3.2,3.2,0,0,1,3.2-3.2h0a3.2,3.2,0,0,1,3.2,3.2h0a3.2,3.2,0,0,1-3.2,3.2h0a3.2,3.2,0,0,1-3.2-3.06Zm0-14.42a3.2,3.2,0,0,1,3.2-3.2h0a3.2,3.2,0,0,1,3.2,3.2h0a3.2,3.2,0,0,1-3.2,3.2h0a3.2,3.2,0,0,1-3.2-3.012Zm0-14.42a3.2,3.2,0,0,1,3.2-3.2h0a3.2,3.2,0,0,1,3.2,3.2h0a3.2,3.2,0,0,1-3.2,3.2h0a3.2,3.2,0,0,1-3.2-2.964Zm0-14.42a3.2,3.2,0,0,1,3.2-3.2h0a3.2,3.2,0,0,1,3.2,3.2h0a3.2,3.2,0,0,1-3.2,3.2h0a3.2,3.2,0,0,1-3.2-2.916Zm0-14.42a3.2,3.2,0,0,1,3.2-3.2h0a3.2,3.2,0,0,1,3.2,3.2h0a3.2,3.2,0,0,1-3.2,3.2h0a3.2,3.2,0,0,1-3.2-2.868Z" transform="translate(318.685 72.222)" fill="#4f7bac"/>
          <path id="Path_4417" data-name="Path 4417" d="M532.377,117.338a3.3,3.3,0,0,1-1.234-.24,3.205,3.205,0,0,1-1.026-.689,4.114,4.114,0,0,1-.417-.5,3.549,3.549,0,0,1-.288-.545,2.673,2.673,0,0,1-.176-.593,2.79,2.79,0,0,1,0-.641,3.2,3.2,0,0,1,.945-2.259,2.98,2.98,0,0,1,.481-.4,3.2,3.2,0,0,1,.561-.288,3.7,3.7,0,0,1,.593-.192,3.2,3.2,0,0,1,3.829,3.2,2.187,2.187,0,0,1-.176,1.234,3.561,3.561,0,0,1-.288.545,4.118,4.118,0,0,1-.416.5,3.2,3.2,0,0,1-2.259.929Z" transform="translate(318.703 66.947)" fill="#4f7bac"/>
          <path id="Path_4418" data-name="Path 4418" d="M538.13,114.134a3.2,3.2,0,0,1,3.2-3.2h0a3.2,3.2,0,0,1,3.2,3.2h0a3.2,3.2,0,0,1-3.2,3.2h0a3.2,3.2,0,0,1-3.2-3.2Z" transform="translate(324.069 66.946)" fill="#4f7bac"/>
          <path id="Path_4419" data-name="Path 4419" d="M618.714,114.134a3.2,3.2,0,0,1,3.2-3.2h0a3.2,3.2,0,0,1,3.2,3.2h0a3.2,3.2,0,0,1-3.2,3.2h0a3.2,3.2,0,0,1-3.2-3.2Zm-14.34,0a3.2,3.2,0,0,1,3.2-3.2h0a3.2,3.2,0,0,1,3.2,3.2h0a3.2,3.2,0,0,1-3.2,3.2h0a3.2,3.2,0,0,1-3.2-3.2Zm-14.324,0a3.2,3.2,0,0,1,3.2-3.2h0a3.2,3.2,0,0,1,3.2,3.2h0a3.2,3.2,0,0,1-3.2,3.2h0a3.2,3.2,0,0,1-3.2-3.2Zm-14.324,0a3.2,3.2,0,0,1,3.2-3.2h0a3.2,3.2,0,0,1,3.2,3.2h0a3.2,3.2,0,0,1-3.2,3.2h0a3.2,3.2,0,0,1-3.14-3.2Zm-14.324,0a3.2,3.2,0,0,1,3.2-3.2h0a3.2,3.2,0,0,1,3.2,3.2h0a3.2,3.2,0,0,1-3.2,3.2h0a3.2,3.2,0,0,1-3.236-3.2Zm-14.324,0a3.2,3.2,0,0,1,3.2-3.2h0a3.2,3.2,0,0,1,3.2,3.2h0a3.2,3.2,0,0,1-3.2,3.2h0a3.2,3.2,0,0,1-3.2-3.2Z" transform="translate(329.459 66.946)" fill="#4f7bac"/>
          <path id="Path_4420" data-name="Path 4420" d="M603.941,117.322a3.2,3.2,0,0,1-1.234-.24,3.458,3.458,0,0,1-1.041-.689,3.2,3.2,0,0,1-.929-2.275,2.72,2.72,0,0,1,0-.625,2.511,2.511,0,0,1,.176-.593,2.816,2.816,0,0,1,.3-.561,2.893,2.893,0,0,1,.385-.481,3.3,3.3,0,0,1,4.534,0,2.339,2.339,0,0,1,.4.481,3.92,3.92,0,0,1,.3.561,3.085,3.085,0,0,0,.176.593,4.239,4.239,0,0,1,0,.625,3.2,3.2,0,0,1-3.076,3.2Z" transform="translate(361.76 66.963)" fill="#4f7bac"/>
          <path id="Path_4421" data-name="Path 4421" d="M600.8,127.435l18.265-10.543L600.8,106.35Z" transform="translate(361.809 64.188)" fill="#4f7bac"/>
          <path id="Path_4422" data-name="Path 4422" d="M378.444,184.169a3.2,3.2,0,0,1-2.275-.945,2.965,2.965,0,0,1-.689-1.025,3.236,3.236,0,0,1,.689-3.493,2.417,2.417,0,0,1,.5-.4,2.966,2.966,0,0,1,.545-.3,4.092,4.092,0,0,1,.593-.176,3.234,3.234,0,0,1,3.589,4.438,2.963,2.963,0,0,1-.689,1.025,2.78,2.78,0,0,1-2.259.881Z" transform="translate(225.976 107.191)" fill="#4f7bac"/>
          <path id="Path_4423" data-name="Path 4423" d="M375.24,190.054a3.2,3.2,0,0,1,3.2-3.2h0a3.2,3.2,0,0,1,3.2,3.2h0a3.2,3.2,0,0,1-3.2,3.2h0A3.2,3.2,0,0,1,375.24,190.054Z" transform="translate(225.976 112.666)" fill="#4f7bac"/>
          <path id="Path_4424" data-name="Path 4424" d="M375.24,301.05a3.2,3.2,0,0,1,3.2-3.2h0a3.2,3.2,0,0,1,3.2,3.2h0a3.2,3.2,0,0,1-3.2,3.2h0a3.2,3.2,0,0,1-3.2-3.2Zm0-14.564a3.2,3.2,0,0,1,3.2-3.2h0a3.2,3.2,0,0,1,3.2,3.2h0a3.2,3.2,0,0,1-3.2,3.2h0A3.2,3.2,0,0,1,375.24,286.486Zm0-14.548a3.2,3.2,0,0,1,3.2-3.2h0a3.2,3.2,0,0,1,3.2,3.2h0a3.2,3.2,0,0,1-3.2,3.2h0A3.2,3.2,0,0,1,375.24,271.938Zm0-14.564a3.2,3.2,0,0,1,3.2-3.2h0a3.2,3.2,0,0,1,3.2,3.2h0a3.2,3.2,0,0,1-3.2,3.2h0A3.2,3.2,0,0,1,375.24,257.374Zm0-14.564a3.2,3.2,0,0,1,3.2-3.2h0a3.2,3.2,0,0,1,3.2,3.2h0a3.2,3.2,0,0,1-3.2,3.2h0a3.2,3.2,0,0,1-3.2-3.2Zm0-14.548a3.2,3.2,0,0,1,3.2-3.2h0a3.2,3.2,0,0,1,3.2,3.2h0a3.2,3.2,0,0,1-3.2,3.2h0A3.2,3.2,0,0,1,375.24,228.262Zm0-14.564a3.2,3.2,0,0,1,3.2-3.2h0a3.2,3.2,0,0,1,3.2,3.2h0a3.2,3.2,0,0,1-3.2,3.2h0a3.2,3.2,0,0,1-3.2-3.236Zm0-14.564a3.2,3.2,0,0,1,3.2-3.2h0a3.2,3.2,0,0,1,3.2,3.2h0a3.2,3.2,0,0,1-3.2,3.2h0a3.2,3.2,0,0,1-3.2-3.2Z" transform="translate(225.976 118.134)" fill="#4f7bac"/>
          <path id="Path_4425" data-name="Path 4425" d="M378.449,275.024a3.2,3.2,0,0,1-2.275-.945,3.011,3.011,0,0,1-.689-1.041,3.2,3.2,0,0,1-.24-1.218,4.043,4.043,0,0,1,0-.625,3.922,3.922,0,0,1,.192-.609,3.478,3.478,0,0,1,.288-.545,6.139,6.139,0,0,1,.4-.5,3.333,3.333,0,0,1,4.534,0,3.97,3.97,0,0,1,.4.5,3.481,3.481,0,0,1,.288.545,3.925,3.925,0,0,1,.192.609,4.058,4.058,0,0,1,0,.625,3.2,3.2,0,0,1-3.2,3.2Z" transform="translate(225.972 161.928)" fill="#4f7bac"/>
          <path id="Path_4426" data-name="Path 4426" d="M384.17,271.834a3.2,3.2,0,0,1,3.2-3.2h0a3.2,3.2,0,0,1,3.2,3.2h0a3.2,3.2,0,0,1-3.2,3.2h0A3.2,3.2,0,0,1,384.17,271.834Z" transform="translate(231.354 161.914)" fill="#4f7bac"/>
          <path id="Path_4427" data-name="Path 4427" d="M464.686,271.834a3.2,3.2,0,0,1,3.2-3.2h0a3.2,3.2,0,0,1,3.2,3.2h0a3.2,3.2,0,0,1-3.2,3.2h0a3.2,3.2,0,0,1-3.2-3.2Zm-14.308,0a3.2,3.2,0,0,1,3.2-3.2h0a3.2,3.2,0,0,1,3.2,3.2h0a3.2,3.2,0,0,1-3.2,3.2h0a3.2,3.2,0,0,1-3.2-3.2Zm-14.324,0a3.2,3.2,0,0,1,3.2-3.2h0a3.2,3.2,0,0,1,3.2,3.2h0a3.2,3.2,0,0,1-3.2,3.2h0a3.2,3.2,0,0,1-3.2-3.2Zm-14.308,0a3.2,3.2,0,0,1,3.2-3.2h0a3.2,3.2,0,0,1,3.2,3.2h0a3.2,3.2,0,0,1-3.2,3.2h0a3.2,3.2,0,0,1-3.172-3.2Zm-14.324,0a3.2,3.2,0,0,1,3.2-3.2h0a3.2,3.2,0,0,1,3.2,3.2h0a3.2,3.2,0,0,1-3.2,3.2h0a3.2,3.2,0,0,1-3.268-3.2Zm-14.324,0a3.2,3.2,0,0,1,3.2-3.2h0a3.2,3.2,0,0,1,3.2,3.2h0a3.2,3.2,0,0,1-3.2,3.2h0a3.2,3.2,0,0,1-3.2-3.2Z" transform="translate(236.732 161.914)" fill="#4f7bac"/>
          <path id="Path_4428" data-name="Path 4428" d="M449.924,275.038a3.2,3.2,0,0,1-2.275-.945,3.68,3.68,0,0,1-.4-.481,3.576,3.576,0,0,1-.288-.561,2.518,2.518,0,0,1-.176-.593,3.077,3.077,0,0,1,0-1.25,2.631,2.631,0,0,1,.176-.609,3.5,3.5,0,0,1,.288-.545,5.574,5.574,0,0,1,.4-.5,3.731,3.731,0,0,1,.5-.385,2.671,2.671,0,0,1,.545-.3,2.627,2.627,0,0,1,.609-.176,3.2,3.2,0,0,1,2.884.865,3.7,3.7,0,0,1,.4.5,3.5,3.5,0,0,1,.288.545,3.951,3.951,0,0,1,.192.609,4.269,4.269,0,0,1,0,.625,3.2,3.2,0,0,1-3.2,3.2Z" transform="translate(269.022 161.914)" fill="#4f7bac"/>
          <path id="Path_4429" data-name="Path 4429" d="M446.79,285.125l18.265-10.542L446.79,264.04Z" transform="translate(269.064 159.15)" fill="#4f7bac"/>
          <path id="Path_4430" data-name="Path 4430" d="M71.149,191.73a3.674,3.674,0,0,0-.288-.561,3.78,3.78,0,0,0-.4-.481,3.3,3.3,0,0,0-4.534,0,2.8,2.8,0,0,0-.4.481,3.876,3.876,0,0,0-.481,1.154,4.229,4.229,0,0,0,0,.625,3.2,3.2,0,0,0,.945,2.275,3.445,3.445,0,0,0,1.041.689,3.235,3.235,0,0,0,3.493-.689,5.541,5.541,0,0,0,.4-.5,3.509,3.509,0,0,0,.288-.545,4.341,4.341,0,0,0,.192-.593,4.293,4.293,0,0,0,0-.641,2.722,2.722,0,0,0,0-.625,2.484,2.484,0,0,0-.256-.589Z" transform="translate(39.169 114.434)" fill="#4f7bac"/>
          <path id="Path_4431" data-name="Path 4431" d="M68.2,199.19a3.2,3.2,0,1,0,3.2,3.2,3.2,3.2,0,0,0-3.2-3.2Z" transform="translate(39.149 120.097)" fill="#4f7bac"/>
          <path id="Path_4432" data-name="Path 4432" d="M68.2,227.48a3.2,3.2,0,1,0,3.2,3.2,3.2,3.2,0,0,0-3.2-3.2Z" transform="translate(39.149 137.133)" fill="#4f7bac"/>
          <path id="Path_4433" data-name="Path 4433" d="M68.2,218a3.2,3.2,0,1,0,3.2,3.2,3.2,3.2,0,0,0-3.2-3.2Z" transform="translate(39.149 131.424)" fill="#4f7bac"/>
          <path id="Path_4434" data-name="Path 4434" d="M68.2,208.62a3.2,3.2,0,1,0,3.2,3.2,3.2,3.2,0,0,0-3.2-3.2Z" transform="translate(39.149 125.776)" fill="#4f7bac"/>
          <path id="Path_4435" data-name="Path 4435" d="M68.2,236.91a3.2,3.2,0,1,0,3.2,3.2,3.2,3.2,0,0,0-3.2-3.2Z" transform="translate(39.149 142.812)" fill="#4f7bac"/>
          <path id="Path_4436" data-name="Path 4436" d="M68.2,255.77a3.2,3.2,0,1,0,3.2,3.2,3.2,3.2,0,0,0-3.2-3.2Z" transform="translate(39.149 154.169)" fill="#4f7bac"/>
          <path id="Path_4437" data-name="Path 4437" d="M68.2,246.34a3.2,3.2,0,1,0,3.2,3.2,3.2,3.2,0,0,0-3.2-3.2Z" transform="translate(39.149 148.491)" fill="#4f7bac"/>
          <path id="Path_4438" data-name="Path 4438" d="M71.149,267.17a3.653,3.653,0,0,0-.288-.561,3.7,3.7,0,0,0-.4-.481,3.3,3.3,0,0,0-4.534,0,2.755,2.755,0,0,0-.4.481,3.652,3.652,0,0,0-.288.561,4.377,4.377,0,0,0-.192.593,4.234,4.234,0,0,0,0,.641,3.2,3.2,0,0,0,5.48,2.259,3.987,3.987,0,0,0,.4-.5,2.868,2.868,0,0,0,.288-.545,3.752,3.752,0,0,0,.192-.593,4.2,4.2,0,0,0,0-.625,2.772,2.772,0,0,0,0-.641,2.738,2.738,0,0,0-.258-.589Z" transform="translate(39.169 159.864)" fill="#4f7bac"/>
          <path id="Path_4439" data-name="Path 4439" d="M76.964,265.2a3.2,3.2,0,1,0,3.2,3.2,3.2,3.2,0,0,0-3.2-3.2Z" transform="translate(44.425 159.848)" fill="#4f7bac"/>
          <path id="Path_4440" data-name="Path 4440" d="M120.774,265.2a3.2,3.2,0,1,0,3.2,3.2,3.2,3.2,0,0,0-3.2-3.2Z" transform="translate(70.807 159.848)" fill="#4f7bac"/>
          <path id="Path_4441" data-name="Path 4441" d="M112.014,265.2a3.2,3.2,0,1,0,3.2,3.2,3.2,3.2,0,0,0-3.2-3.2Z" transform="translate(65.532 159.848)" fill="#4f7bac"/>
          <path id="Path_4442" data-name="Path 4442" d="M103.2,265.2a3.2,3.2,0,1,0,3.2,3.2,3.2,3.2,0,0,0-3.2-3.2Z" transform="translate(60.226 159.848)" fill="#4f7bac"/>
          <path id="Path_4443" data-name="Path 4443" d="M129.544,265.2a3.2,3.2,0,1,0,3.2,3.2,3.2,3.2,0,0,0-3.2-3.2Z" transform="translate(76.088 159.848)" fill="#4f7bac"/>
          <path id="Path_4444" data-name="Path 4444" d="M94.494,265.2a3.2,3.2,0,1,0,3.2,3.2,3.2,3.2,0,0,0-3.2-3.2Z" transform="translate(54.981 159.848)" fill="#4f7bac"/>
          <path id="Path_4445" data-name="Path 4445" d="M85.734,265.2a3.2,3.2,0,1,0,3.2,3.2,3.2,3.2,0,0,0-3.2-3.2Z" transform="translate(49.706 159.848)" fill="#4f7bac"/>
          <path id="Path_4446" data-name="Path 4446" d="M153.442,271.162,135.177,260.62v9.9a2.771,2.771,0,0,0,0,.641,3.205,3.205,0,0,0,.112.8v9.725Z" transform="translate(81.399 157.09)" fill="#4f7bac"/>
          <circle id="Ellipse_325" data-name="Ellipse 325" cx="8.38" cy="8.38" r="8.38" transform="translate(98.974 279.777)" fill="#4f7bac"/>
          <text id="Eligibility" transform="translate(340.423 46.252)" fill="#344056" font-size="24" font-family="FuturaBT-Medium, Futura Md BT" font-weight="500" letter-spacing="0.02em"><tspan x="0" y="0">Eligibility</tspan></text>
          <text id="Sign_Mandate" data-name="Sign Mandate" transform="translate(58.596 499.252)" fill="#344056" font-size="24" font-family="FuturaBT-Medium, Futura Md BT" font-weight="500" letter-spacing="0.02em"><tspan x="0" y="0">Sign Mandate</tspan></text>
          <text id="Match" transform="translate(656.198 499.252)" fill="#344056" font-size="24" font-family="FuturaBT-Medium, Futura Md BT" font-weight="500" letter-spacing="0.02em"><tspan x="0" y="0">Match</tspan></text>
          <text id="Rating" transform="translate(899.861 46.252)" fill="#344056" font-size="24" font-family="FuturaBT-Medium, Futura Md BT" font-weight="500" letter-spacing="0.02em"><tspan x="0" y="0">Rating</tspan></text>
        </g>
      </g>
    </g>
    <g id="Group">
      <text id="Sign_NDA_and_upload_basic_" data-name="Sign NDA and upload basic " transform="translate(609.828 2376)" fill="#344056" font-size="16" font-family="FuturaBT-Medium, Futura Md BT" font-weight="500"><tspan x="0" y="0">Sign NDA and upload basic </tspan></text>
      <text id="project_financing_documents" data-name="project financing documents" transform="translate(605.766 2406)" fill="#344056" font-size="16" font-family="FuturaBT-Medium, Futura Md BT" font-weight="500"><tspan x="0" y="0">project financing documents</tspan></text>
    </g>
    <g id="Group-2" data-name="Group">
      <text id="Upon_confirmation_of_eligibility_sign_" data-name="Upon confirmation of eligibility, sign " transform="translate(324.969 2829)" fill="#344056" font-size="16" font-family="FuturaBT-Medium, Futura Md BT" font-weight="500"><tspan x="0" y="0">Upon confirmation of eligibility, sign </tspan></text>
      <text id="funding_mandate_and_upload_detailed_" data-name="funding mandate and upload detailed " transform="translate(316.703 2859)" fill="#344056" font-size="16" font-family="FuturaBT-Medium, Futura Md BT" font-weight="500"><tspan x="0" y="0">funding mandate and upload detailed </tspan></text>
      <text id="project_documents" data-name="project documents" transform="translate(460.992 2889)" fill="#344056" font-size="16" font-family="FuturaBT-Medium, Futura Md BT" font-weight="500"><tspan x="0" y="0">project documents</tspan></text>
    </g>
    <g id="Group-3" data-name="Group">
      <text id="Your_project_is_matched_with_multiple_" data-name="Your project is matched with multiple " transform="translate(819.289 2829)" fill="#344056" font-size="16" font-family="FuturaBT-Medium, Futura Md BT" font-weight="500"><tspan x="0" y="0">Your project is matched with multiple </tspan></text>
      <text id="investors_lenders_who_meet_project_" data-name="investors/lenders who meet project " transform="translate(835.063 2859)" fill="#344056" font-size="16" font-family="FuturaBT-Medium, Futura Md BT" font-weight="500"><tspan x="0" y="0">investors/lenders who meet project </tspan></text>
      <text id="criteria" transform="translate(1040.5 2889)" fill="#344056" font-size="16" font-family="FuturaBT-Medium, Futura Md BT" font-weight="500"><tspan x="0" y="0">criteria</tspan></text>
    </g>
    <g id="Group_757" data-name="Group 757" transform="translate(0 9)">
      <text id="Get_Funded" data-name="Get Funded" transform="translate(1420.785 2757)" fill="#344056" font-size="24" font-family="FuturaBT-Medium, Futura Md BT" font-weight="500" letter-spacing="0.02em"><tspan x="0" y="0">Get Funded</tspan></text>
      <g id="Group-4" data-name="Group">
        <text id="Receive_project_funding_offers_" data-name="Receive project funding offers " transform="translate(1339.281 2790)" fill="#344056" font-size="16" font-family="FuturaBT-Medium, Futura Md BT" font-weight="500"><tspan x="0" y="0">Receive project funding offers </tspan></text>
        <text id="within_30_days" data-name="within 30 days" transform="translate(1448.984 2820)" fill="#344056" font-size="16" font-family="FuturaBT-Medium, Futura Md BT" font-weight="500"><tspan x="0" y="0">within 30 days</tspan></text>
      </g>
      <g id="Group-5" data-name="Group">
        <text id="Project_funding_and_disbursement_" data-name="Project funding and disbursement " transform="translate(1309.727 2854)" fill="#344056" font-size="16" font-family="FuturaBT-Medium, Futura Md BT" font-weight="500"><tspan x="0" y="0">Project funding and disbursement </tspan></text>
        <text id="happens_within_60_days" data-name="happens within 60 days" transform="translate(1381.695 2884)" fill="#344056" font-size="16" font-family="FuturaBT-Medium, Futura Md BT" font-weight="500"><tspan x="0" y="0">happens within 60 days</tspan></text>
      </g>
    </g>
    <g id="Group-6" data-name="Group">
      <text id="Receive_Altscore_credit_rating_for_your_" data-name="Receive Altscore credit rating for your " transform="translate(1061.453 2376)" fill="#344056" font-size="16" font-family="FuturaBT-Medium, Futura Md BT" font-weight="500"><tspan x="0" y="0">Receive Altscore credit rating for your </tspan></text>
      <text id="project_along_with_feedback_to_improve_" data-name="project along with feedback to improve " transform="translate(1048.281 2406)" fill="#344056" font-size="16" font-family="FuturaBT-Medium, Futura Md BT" font-weight="500"><tspan x="0" y="0">project along with feedback to improve </tspan></text>
      <text id="application" transform="translate(1253.234 2436)" fill="#344056" font-size="16" font-family="FuturaBT-Medium, Futura Md BT" font-weight="500"><tspan x="0" y="0">application</tspan></text>
    </g>
  </g>
</svg>
