<svg xmlns="http://www.w3.org/2000/svg" width="69.43" height="69.433" viewBox="0 0 69.43 69.433">
  <g id="Page-1" transform="translate(0 -0.001)">
    <g id="_083---Money-Bag" data-name="083---Money-Bag" transform="translate(0 0.001)">
      <path id="Shape" d="M29.2,35.836a1.157,1.157,0,1,0,2.314,0c0-3.828-3.541-6.992-8.1-7.457V27.157a1.157,1.157,0,0,0-2.314,0v1.222c-4.559.463-8.1,3.629-8.1,7.457s3.541,6.992,8.1,7.457v10.4c-3.278-.414-5.786-2.554-5.786-5.129a1.157,1.157,0,1,0-2.314,0c0,3.828,3.541,6.992,8.1,7.457v1.222a1.157,1.157,0,1,0,2.314,0V56.021c4.559-.463,8.1-3.629,8.1-7.457s-3.541-6.992-8.1-7.457v-10.4C26.693,31.122,29.2,33.261,29.2,35.836Zm-13.886,0c0-2.575,2.508-4.714,5.786-5.129V40.964C17.822,40.55,15.314,38.411,15.314,35.836ZM29.2,48.565c0,2.575-2.508,4.714-5.786,5.129V43.436C26.693,43.85,29.2,45.99,29.2,48.565Z" transform="translate(2.043 4.085)" fill="#293345"/>
      <path id="Shape-2" data-name="Shape" d="M4.166,30.188a1.157,1.157,0,0,0-1.537.562A28.235,28.235,0,0,0,0,42.716C0,57.3,8.175,64.7,24.3,64.7a37.419,37.419,0,0,0,9.67-1.114,1.157,1.157,0,0,0-.595-2.237A35.678,35.678,0,0,1,24.3,62.388c-14.794,0-21.986-6.435-21.986-19.672A25.589,25.589,0,0,1,4.729,31.723,1.157,1.157,0,0,0,4.166,30.188Z" transform="translate(0 4.726)" fill="#293345"/>
      <path id="Shape-3" data-name="Shape" d="M60.929,25H35.471A3.471,3.471,0,0,0,32,28.471V62.029A3.471,3.471,0,0,0,35.471,65.5H60.929A3.471,3.471,0,0,0,64.4,62.029V28.471A3.471,3.471,0,0,0,60.929,25Zm1.157,37.029a1.157,1.157,0,0,1-1.157,1.157H35.471a1.157,1.157,0,0,1-1.157-1.157V28.471a1.157,1.157,0,0,1,1.157-1.157H60.929a1.157,1.157,0,0,1,1.157,1.157Z" transform="translate(5.029 3.928)" fill="#293345"/>
      <path id="Shape-4" data-name="Shape" d="M39.314,39.257h16.2a2.314,2.314,0,0,0,2.314-2.314V32.314A2.314,2.314,0,0,0,55.515,30h-16.2A2.314,2.314,0,0,0,37,32.314v4.629A2.314,2.314,0,0,0,39.314,39.257Zm0-6.943h16.2v4.629h-16.2Z" transform="translate(5.815 4.714)" fill="#293345"/>
      <path id="Shape-5" data-name="Shape" d="M41.629,41H38.157a1.157,1.157,0,0,0,0,2.314h3.471a1.157,1.157,0,0,0,0-2.314Z" transform="translate(5.815 6.443)" fill="#293345"/>
      <path id="Shape-6" data-name="Shape" d="M41.629,45H38.157a1.157,1.157,0,0,0,0,2.314h3.471a1.157,1.157,0,0,0,0-2.314Z" transform="translate(5.815 7.071)" fill="#293345"/>
      <path id="Shape-7" data-name="Shape" d="M41.629,49H38.157a1.157,1.157,0,0,0,0,2.314h3.471a1.157,1.157,0,0,0,0-2.314Z" transform="translate(5.815 7.7)" fill="#293345"/>
      <path id="Shape-8" data-name="Shape" d="M41.629,53H38.157a1.157,1.157,0,0,0,0,2.314h3.471a1.157,1.157,0,0,0,0-2.314Z" transform="translate(5.815 8.329)" fill="#293345"/>
      <path id="Shape-9" data-name="Shape" d="M48.629,41H45.157a1.157,1.157,0,1,0,0,2.314h3.471a1.157,1.157,0,0,0,0-2.314Z" transform="translate(6.915 6.443)" fill="#293345"/>
      <path id="Shape-10" data-name="Shape" d="M48.629,45H45.157a1.157,1.157,0,0,0,0,2.314h3.471a1.157,1.157,0,1,0,0-2.314Z" transform="translate(6.915 7.071)" fill="#293345"/>
      <path id="Shape-11" data-name="Shape" d="M48.629,49H45.157a1.157,1.157,0,1,0,0,2.314h3.471a1.157,1.157,0,0,0,0-2.314Z" transform="translate(6.915 7.7)" fill="#293345"/>
      <path id="Shape-12" data-name="Shape" d="M48.629,53H45.157a1.157,1.157,0,1,0,0,2.314h3.471a1.157,1.157,0,1,0,0-2.314Z" transform="translate(6.915 8.329)" fill="#293345"/>
      <path id="Shape-13" data-name="Shape" d="M55.629,41H52.157a1.157,1.157,0,0,0,0,2.314h3.471a1.157,1.157,0,0,0,0-2.314Z" transform="translate(8.015 6.443)" fill="#293345"/>
      <path id="Shape-14" data-name="Shape" d="M55.629,45H52.157a1.157,1.157,0,1,0,0,2.314h3.471a1.157,1.157,0,0,0,0-2.314Z" transform="translate(8.015 7.071)" fill="#293345"/>
      <path id="Shape-15" data-name="Shape" d="M55.629,49H52.157a1.157,1.157,0,0,0,0,2.314h3.471a1.157,1.157,0,0,0,0-2.314Z" transform="translate(8.015 7.7)" fill="#293345"/>
      <path id="Shape-16" data-name="Shape" d="M55.629,53H52.157a1.157,1.157,0,1,0,0,2.314h3.471a1.157,1.157,0,0,0,0-2.314Z" transform="translate(8.015 8.329)" fill="#293345"/>
      <path id="Shape-17" data-name="Shape" d="M6.492,1.461c-3.047,2.791,2.306,11.4,5.461,15.9h-.629A4.029,4.029,0,0,0,8.457,18.54a4.079,4.079,0,0,0-1.184,2.867A4.037,4.037,0,0,0,9.3,24.9a54.5,54.5,0,0,0-3.812,4.5A1.157,1.157,0,1,0,7.343,30.78a55.921,55.921,0,0,1,4.629-5.323H35.624a4.05,4.05,0,0,0,0-8.1h-.629c3.153-4.5,8.506-13.1,5.462-15.9-1.4-1.282-3.032-.347-4.47.471a8.925,8.925,0,0,1-4.412,1.539,4.483,4.483,0,0,1-3.3-1.458,6.736,6.736,0,0,0-9.6,0,4.483,4.483,0,0,1-3.3,1.458,8.888,8.888,0,0,1-4.409-1.539C9.52,1.112,7.889.18,6.492,1.461ZM36.854,20.178a1.736,1.736,0,0,1-1.23,2.965h-24.3a1.736,1.736,0,0,1,0-3.471h24.3a1.747,1.747,0,0,1,1.23.507ZM15.365,5.786a6.736,6.736,0,0,0,4.8-2.015,4.46,4.46,0,0,1,6.6,0,6.74,6.74,0,0,0,4.809,2.015,11.087,11.087,0,0,0,5.565-1.845A4.839,4.839,0,0,1,38.9,3.167c1.187,1.088-1.951,7.648-6.749,14.19H29.26V11.571a1.157,1.157,0,0,0-2.314,0v5.786H20V11.571a1.157,1.157,0,0,0-2.314,0v5.786H14.8c-4.8-6.543-7.936-13.1-6.732-14.208a5.744,5.744,0,0,1,1.736.791,11.064,11.064,0,0,0,5.558,1.845Z" transform="translate(0.827 -0.001)" fill="#293345"/>
    </g>
  </g>
</svg>
