<svg xmlns="http://www.w3.org/2000/svg" width="61.387" height="47.564" viewBox="0 0 61.387 47.564">
  <g id="XMLID_1321_" transform="translate(0 -57.647)">
    <g id="XMLID_396_" transform="translate(0 57.647)">
      <path id="XMLID_429_" d="M61,73.813l-1.6-2.77a1.2,1.2,0,0,0-2.077,1.2l1.6,2.77a.468.468,0,0,1-.171.639l-4.228,2.441a.469.469,0,0,1-.639-.171L45.38,63.188a.469.469,0,0,1,.171-.639l4.228-2.441a.469.469,0,0,1,.639.171L51.931,62.9a1.2,1.2,0,0,0,2.077-1.2L52.5,59.079a2.869,2.869,0,0,0-3.915-1.049l-4.228,2.441a2.855,2.855,0,0,0-1.3,1.611H31.069a6.26,6.26,0,0,0-4.455,1.845l-1.228,1.228a14.184,14.184,0,0,0-3.29-.389H18.374A2.857,2.857,0,0,0,17.035,63l-4.228-2.441a2.866,2.866,0,0,0-3.915,1.049L.385,76.345a2.866,2.866,0,0,0,1.049,3.915L5.662,82.7a2.848,2.848,0,0,0,1.428.383,2.885,2.885,0,0,0,.526-.049L11.078,86.5a4.361,4.361,0,0,0-.08.834,4.308,4.308,0,0,0,4.073,4.3,4.379,4.379,0,0,0-.024.455A4.313,4.313,0,0,0,19.359,96.4l.093,0c0,.031,0,.062,0,.093a4.313,4.313,0,0,0,4.313,4.313l.093,0c0,.031,0,.062,0,.093a4.313,4.313,0,0,0,7.363,3.05l1.706-1.705a4.286,4.286,0,0,0,1.053-1.725,4.316,4.316,0,0,0,6.679-2.192,4.315,4.315,0,0,0,6.579-2.745,4.314,4.314,0,0,0,4.41-7.144l-2.8-2.8,5.108-5.108a2.886,2.886,0,0,0,.342.021,2.849,2.849,0,0,0,1.428-.383l4.228-2.441A2.866,2.866,0,0,0,61,73.813ZM2.633,78.183a.468.468,0,0,1-.171-.639L10.968,62.81a.466.466,0,0,1,.284-.218.481.481,0,0,1,.122-.016.462.462,0,0,1,.233.063l4.228,2.441a.469.469,0,0,1,.171.639L7.5,80.453a.469.469,0,0,1-.639.171ZM13.395,87.33a1.9,1.9,0,0,1,.561-1.354l1.035-1.035A1.915,1.915,0,1,1,17.7,87.65l-1.035,1.035a1.915,1.915,0,0,1-3.27-1.354ZM19.36,94a1.915,1.915,0,0,1-1.354-3.27l1.705-1.705a1.915,1.915,0,1,1,2.709,2.709l-1.705,1.705A1.9,1.9,0,0,1,19.36,94Zm4.4,4.4a1.915,1.915,0,0,1-1.354-3.27l1.705-1.705a1.915,1.915,0,1,1,2.709,2.709l-1.705,1.705A1.9,1.9,0,0,1,23.764,98.409Zm7.464,2.138-1.706,1.706a1.915,1.915,0,1,1-2.709-2.709l1.705-1.705a1.915,1.915,0,1,1,2.709,2.709Zm18.721-7.706a1.915,1.915,0,0,1-2.709,0L35.8,81.4a1.2,1.2,0,0,0-1.7,1.7L44.363,93.356a1.915,1.915,0,1,1-2.709,2.709L29.323,83.732a1.2,1.2,0,0,0-1.7,1.7L37.89,95.691A1.915,1.915,0,1,1,35.181,98.4l-2.257-2.257-.01-.009a4.3,4.3,0,0,0-3.134-1.25c0-.032,0-.063,0-.1a4.308,4.308,0,0,0-4.407-4.309c0-.032,0-.063,0-.1a4.31,4.31,0,0,0-4.725-4.292A4.313,4.313,0,0,0,13.3,83.246L12.26,84.28l0,0L9.594,81.622l8.346-14.456H22.1a11.771,11.771,0,0,1,1.217.064l-1.37,1.37a4.313,4.313,0,0,0,6.1,6.1l3.237-3.237,18.67,18.67a1.917,1.917,0,0,1,0,2.709ZM38.43,75.222a6.8,6.8,0,0,0,2.814-5.514,1.2,1.2,0,0,0-2.4,0A4.406,4.406,0,0,1,36.7,73.492l-4.566-4.566a1.2,1.2,0,0,0-1.694-.012L26.347,73A1.915,1.915,0,1,1,23.638,70.3l4.671-4.671a3.877,3.877,0,0,1,2.76-1.143H43.358L51.809,79.12c.02.035.042.068.063.1L47.15,83.943Z" transform="translate(0 -57.647)" fill="#344056"/>
      <path id="XMLID_436_" d="M455.507,127.812a1.2,1.2,0,1,0-.848-.351A1.21,1.21,0,0,0,455.507,127.812Z" transform="translate(-399.84 -117.289)" fill="#344056"/>
    </g>
  </g>
</svg>
