<svg xmlns="http://www.w3.org/2000/svg" width="64.153" height="64.153" viewBox="0 0 64.153 64.153">
  <g id="Group_216" data-name="Group 216" transform="translate(-1602.381 -261.114)">
    <path id="Path_1716" data-name="Path 1716" d="M386.853,68.526c0,2.695-4.162,4.77-4.829,7.3s1.848,6.487.537,8.74-5.962,2.039-7.846,3.9-1.61,6.523-3.9,7.846-6.165-1.192-8.74-.537-4.6,4.829-7.3,4.829-4.77-4.162-7.3-4.829-6.487,1.848-8.74.537-2.039-5.962-3.9-7.846-6.523-1.61-7.846-3.9,1.192-6.165.537-8.74-4.829-4.6-4.829-7.3,4.162-4.77,4.829-7.3-1.848-6.487-.537-8.741,5.962-2.039,7.846-3.9,1.61-6.523,3.9-7.846,6.165,1.192,8.74.537,4.6-4.829,7.3-4.829,4.77,4.162,7.3,4.829,6.487-1.848,8.74-.537,2.039,5.962,3.9,7.846,6.523,1.61,7.846,3.9-1.192,6.165-.537,8.741S386.853,65.82,386.853,68.526Z" transform="translate(1279.681 224.664)" fill="#ffeeef"/>
    <circle id="Ellipse_19" data-name="Ellipse 19" cx="27.271" cy="27.271" r="27.271" transform="translate(1607.186 265.92)" fill="#f95665"/>
    <path id="Path_1717" data-name="Path 1717" d="M369.144,44.82A27.271,27.271,0,0,1,331.07,82.894,27.271,27.271,0,1,0,369.144,44.82Z" transform="translate(1281.291 226.275)" fill="#e64352"/>
  </g>
</svg>
