<svg xmlns="http://www.w3.org/2000/svg" width="512.004" height="445.022" viewBox="0 0 512.004 445.022">
  <g id="_2983788" data-name="2983788" transform="translate(-0.001 -33.492)" opacity="0.9">
    <path id="Path_4462" data-name="Path 4462" d="M511.658,51.675A15.009,15.009,0,0,0,491.651,34.5l-482,184A15,15,0,0,0,9.6,246.5L145,298.8V463.513a15,15,0,0,0,28.4,6.75l56-111.128L366.061,460.558a15.008,15.008,0,0,0,23.287-7.669C516.947,34.532,511.431,52.726,511.658,51.675ZM392.677,104.393l-234.8,167.219L56.846,232.594ZM175,296.245,379.668,150.488C203.554,336.278,212.752,326.5,211.984,327.533c-1.141,1.535,1.985-4.448-36.984,72.882ZM366.858,423.791l-120.3-89.276L464.073,105.053Z" fill="#fff"/>
  </g>
</svg>
