<svg id="_993891" data-name="993891" xmlns="http://www.w3.org/2000/svg" width="47.344" height="47.344" viewBox="0 0 47.344 47.344">
  <g id="Group_515" data-name="Group 515" transform="translate(16.554 15.842)">
    <g id="Group_514" data-name="Group 514" transform="translate(0 0)">
      <rect id="Rectangle_393" data-name="Rectangle 393" width="1" height="2" transform="translate(0.117 -0.17)" fill="#344056"/>
    </g>
  </g>
  <g id="Group_517" data-name="Group 517" transform="translate(16.554 18.689)">
    <g id="Group_516" data-name="Group 516" transform="translate(0 0)">
      <rect id="Rectangle_394" data-name="Rectangle 394" width="1" height="2" transform="translate(0.117 -0.018)" fill="#344056"/>
    </g>
  </g>
  <g id="Group_519" data-name="Group 519" transform="translate(16.554 22.248)">
    <g id="Group_518" data-name="Group 518" transform="translate(0 0)">
      <rect id="Rectangle_395" data-name="Rectangle 395" width="1" height="1" transform="translate(0.117 0.423)" fill="#344056"/>
    </g>
  </g>
  <g id="Group_521" data-name="Group 521" transform="translate(16.554 25.096)">
    <g id="Group_520" data-name="Group 520" transform="translate(0 0)">
      <rect id="Rectangle_396" data-name="Rectangle 396" width="1" height="2" transform="translate(0.117 -0.424)" fill="#344056"/>
    </g>
  </g>
  <g id="Group_523" data-name="Group 523" transform="translate(19.402 15.842)">
    <g id="Group_522" data-name="Group 522" transform="translate(0 0)">
      <rect id="Rectangle_397" data-name="Rectangle 397" width="2" height="2" transform="translate(0.269 -0.17)" fill="#344056"/>
    </g>
  </g>
  <g id="Group_525" data-name="Group 525" transform="translate(19.402 18.689)">
    <g id="Group_524" data-name="Group 524" transform="translate(0 0)">
      <rect id="Rectangle_398" data-name="Rectangle 398" width="2" height="2" transform="translate(0.269 -0.018)" fill="#344056"/>
    </g>
  </g>
  <g id="Group_527" data-name="Group 527" transform="translate(19.402 22.248)">
    <g id="Group_526" data-name="Group 526" transform="translate(0 0)">
      <rect id="Rectangle_399" data-name="Rectangle 399" width="2" height="1" transform="translate(0.269 0.423)" fill="#344056"/>
    </g>
  </g>
  <g id="Group_529" data-name="Group 529" transform="translate(19.402 25.096)">
    <g id="Group_528" data-name="Group 528" transform="translate(0 0)">
      <rect id="Rectangle_400" data-name="Rectangle 400" width="2" height="2" transform="translate(0.269 -0.424)" fill="#344056"/>
    </g>
  </g>
  <g id="Group_531" data-name="Group 531" transform="translate(22.96 15.842)">
    <g id="Group_530" data-name="Group 530" transform="translate(0 0)">
      <rect id="Rectangle_401" data-name="Rectangle 401" width="2" height="2" transform="translate(-0.287 -0.17)" fill="#344056"/>
    </g>
  </g>
  <g id="Group_533" data-name="Group 533" transform="translate(22.96 18.689)">
    <g id="Group_532" data-name="Group 532" transform="translate(0 0)">
      <rect id="Rectangle_402" data-name="Rectangle 402" width="2" height="2" transform="translate(-0.287 -0.018)" fill="#344056"/>
    </g>
  </g>
  <g id="Group_535" data-name="Group 535" transform="translate(22.96 22.248)">
    <g id="Group_534" data-name="Group 534" transform="translate(0 0)">
      <rect id="Rectangle_403" data-name="Rectangle 403" width="2" height="1" transform="translate(-0.287 0.423)" fill="#344056"/>
    </g>
  </g>
  <g id="Group_537" data-name="Group 537" transform="translate(22.96 25.096)">
    <g id="Group_536" data-name="Group 536" transform="translate(0 0)">
      <rect id="Rectangle_404" data-name="Rectangle 404" width="2" height="2" transform="translate(-0.287 -0.424)" fill="#344056"/>
    </g>
  </g>
  <g id="Group_539" data-name="Group 539" transform="translate(25.808 15.842)">
    <g id="Group_538" data-name="Group 538" transform="translate(0 0)">
      <rect id="Rectangle_405" data-name="Rectangle 405" width="2" height="2" transform="translate(-0.135 -0.17)" fill="#344056"/>
    </g>
  </g>
  <g id="Group_541" data-name="Group 541" transform="translate(19.402 12.284)">
    <g id="Group_540" data-name="Group 540" transform="translate(0 0)">
      <rect id="Rectangle_406" data-name="Rectangle 406" width="2" height="2" transform="translate(0.269 0.388)" fill="#344056"/>
    </g>
  </g>
  <g id="Group_543" data-name="Group 543" transform="translate(22.96 12.284)">
    <g id="Group_542" data-name="Group 542" transform="translate(0 0)">
      <rect id="Rectangle_407" data-name="Rectangle 407" width="2" height="2" transform="translate(-0.287 0.388)" fill="#344056"/>
    </g>
  </g>
  <g id="Group_545" data-name="Group 545" transform="translate(25.808 12.284)">
    <g id="Group_544" data-name="Group 544" transform="translate(0 0)">
      <rect id="Rectangle_408" data-name="Rectangle 408" width="2" height="2" transform="translate(-0.135 0.388)" fill="#344056"/>
    </g>
  </g>
  <g id="Group_547" data-name="Group 547" transform="translate(25.808 18.689)">
    <g id="Group_546" data-name="Group 546" transform="translate(0 0)">
      <rect id="Rectangle_409" data-name="Rectangle 409" width="2" height="2" transform="translate(-0.135 -0.018)" fill="#344056"/>
    </g>
  </g>
  <g id="Group_549" data-name="Group 549" transform="translate(25.808 22.248)">
    <g id="Group_548" data-name="Group 548" transform="translate(0 0)">
      <rect id="Rectangle_410" data-name="Rectangle 410" width="2" height="1" transform="translate(-0.135 0.423)" fill="#344056"/>
    </g>
  </g>
  <g id="Group_551" data-name="Group 551" transform="translate(25.808 25.096)">
    <g id="Group_550" data-name="Group 550" transform="translate(0 0)">
      <rect id="Rectangle_411" data-name="Rectangle 411" width="2" height="2" transform="translate(-0.135 -0.424)" fill="#344056"/>
    </g>
  </g>
  <g id="Group_553" data-name="Group 553" transform="translate(29.366 15.842)">
    <g id="Group_552" data-name="Group 552" transform="translate(0 0)">
      <rect id="Rectangle_412" data-name="Rectangle 412" width="1" height="2" transform="translate(0.306 -0.17)" fill="#344056"/>
    </g>
  </g>
  <g id="Group_555" data-name="Group 555" transform="translate(29.366 18.689)">
    <g id="Group_554" data-name="Group 554" transform="translate(0 0)">
      <rect id="Rectangle_413" data-name="Rectangle 413" width="1" height="2" transform="translate(0.306 -0.018)" fill="#344056"/>
    </g>
  </g>
  <g id="Group_557" data-name="Group 557" transform="translate(29.366 22.248)">
    <g id="Group_556" data-name="Group 556" transform="translate(0 0)">
      <rect id="Rectangle_414" data-name="Rectangle 414" width="1" height="1" transform="translate(0.306 0.423)" fill="#344056"/>
    </g>
  </g>
  <g id="Group_559" data-name="Group 559" transform="translate(29.366 25.096)">
    <g id="Group_558" data-name="Group 558" transform="translate(0 0)">
      <rect id="Rectangle_415" data-name="Rectangle 415" width="1" height="2" transform="translate(0.306 -0.424)" fill="#344056"/>
    </g>
  </g>
  <g id="Group_561" data-name="Group 561" transform="translate(0 0)">
    <g id="Group_560" data-name="Group 560" transform="translate(0 0)">
      <path id="Path_3598" data-name="Path 3598" d="M46.556,11.836H34.719V.789A.789.789,0,0,0,33.931,0H13.414a.789.789,0,0,0-.789.788h0V11.836H.789A.789.789,0,0,0,0,12.624H0V41.031a.789.789,0,0,0,.788.789h1.65a4.735,4.735,0,0,0-.071.789v3.945a.789.789,0,0,0,.788.789H44.188a.789.789,0,0,0,.789-.788h0V42.609a4.714,4.714,0,0,0-.071-.789h1.649a.789.789,0,0,0,.789-.788h0V12.625A.789.789,0,0,0,46.556,11.836ZM33.93,33.93a1.578,1.578,0,1,1-1.578-1.578A1.578,1.578,0,0,1,33.93,33.93ZM14.992,32.352a1.578,1.578,0,1,1-1.578,1.578A1.578,1.578,0,0,1,14.992,32.352ZM10.258,45.766H3.945V42.609a3.156,3.156,0,0,1,6.312,0ZM5.523,36.3A1.578,1.578,0,1,1,7.1,37.875,1.578,1.578,0,0,1,5.523,36.3Zm4.854,2.9a4.757,4.757,0,0,0-.993-.735,3.156,3.156,0,1,0-4.566,0,4.765,4.765,0,0,0-1.811,1.778H1.578V13.414H12.625v18.45a3.113,3.113,0,0,0,.084,4.233A4.748,4.748,0,0,0,10.377,39.2Zm7.771,6.566H11.836V40.242a3.156,3.156,0,0,1,6.313,0Zm9.469,0H19.727V40.242a3.945,3.945,0,0,1,7.891,0ZM21.3,32.352a2.367,2.367,0,1,1,2.367,2.367A2.367,2.367,0,0,1,21.3,32.352Zm7.173,5.178a5.558,5.558,0,0,0-2.264-2.186,3.945,3.945,0,1,0-5.083,0,5.558,5.558,0,0,0-2.264,2.186A4.766,4.766,0,0,0,17.275,36.1,3.134,3.134,0,0,0,14.2,30.885V1.578H33.141V30.885A3.142,3.142,0,0,0,30.068,36.1,4.766,4.766,0,0,0,28.477,37.529Zm7.03,5.08v3.156H29.2V40.242a3.156,3.156,0,0,1,6.313,0ZM43.4,45.766H37.086V42.609a3.156,3.156,0,0,1,6.313,0ZM38.664,36.3a1.578,1.578,0,1,1,1.578,1.578A1.578,1.578,0,0,1,38.664,36.3Zm7.1,3.945h-1.43a4.765,4.765,0,0,0-1.811-1.778,3.156,3.156,0,1,0-4.566,0,4.754,4.754,0,0,0-.993.735,4.747,4.747,0,0,0-2.332-3.1,3.113,3.113,0,0,0,.084-4.233V13.414H45.766V40.242Z" transform="translate(0 0)" fill="#344056"/>
    </g>
  </g>
  <g id="Group_563" data-name="Group 563" transform="translate(37.195 17.978)">
    <g id="Group_562" data-name="Group 562" transform="translate(0 0)">
      <rect id="Rectangle_416" data-name="Rectangle 416" width="1" height="13" transform="translate(0.476 -0.306)" fill="#344056"/>
    </g>
  </g>
  <g id="Group_565" data-name="Group 565" transform="translate(41.465 17.978)">
    <g id="Group_564" data-name="Group 564" transform="translate(0 0)">
      <rect id="Rectangle_417" data-name="Rectangle 417" width="2" height="13" transform="translate(0.207 -0.306)" fill="#344056"/>
    </g>
  </g>
  <g id="Group_567" data-name="Group 567" transform="translate(3.743 17.978)">
    <g id="Group_566" data-name="Group 566" transform="translate(0 0)">
      <rect id="Rectangle_418" data-name="Rectangle 418" width="2" height="13" transform="translate(-0.071 -0.306)" fill="#344056"/>
    </g>
  </g>
  <g id="Group_569" data-name="Group 569" transform="translate(8.725 17.978)">
    <g id="Group_568" data-name="Group 568" transform="translate(0 0)">
      <rect id="Rectangle_419" data-name="Rectangle 419" width="1" height="13" transform="translate(-0.053 -0.306)" fill="#344056"/>
    </g>
  </g>
  <g id="Group_571" data-name="Group 571" transform="translate(18.148 3.156)">
    <g id="Group_570" data-name="Group 570">
      <path id="Path_3599" data-name="Path 3599" d="M194.259,32h-9.47a.789.789,0,0,0-.789.788h0V39.1a.789.789,0,0,0,.788.789h9.47a.789.789,0,0,0,.789-.788h0V32.789A.789.789,0,0,0,194.259,32Zm-.79,6.313h-7.891V33.578h7.891Z" transform="translate(-184 -32)" fill="#344056"/>
    </g>
  </g>
</svg>
