<svg xmlns="http://www.w3.org/2000/svg" width="46.454" height="47.401" viewBox="0 0 46.454 47.401">
  <g id="surface1" transform="translate(-0.089 -0.001)">
    <path id="Path_3597" data-name="Path 3597" d="M.961,13.095a1.918,1.918,0,0,0-.03.284v1.95a1.933,1.933,0,0,0,1.254,1.8V20A1.8,1.8,0,0,0,3.9,21.8V38.373a1.8,1.8,0,0,0-1.718,1.8v2.861A1.955,1.955,0,0,0,.931,44.85v1.907a.645.645,0,0,0,.644.644H45.028a.644.644,0,0,0,.644-.644V44.85a1.954,1.954,0,0,0-1.254-1.821V40.152a1.8,1.8,0,0,0-1.718-1.8V21.8A1.8,1.8,0,0,0,44.418,20V17.132a1.933,1.933,0,0,0,1.254-1.8V13.391a1.873,1.873,0,0,0-.03-.284.641.641,0,0,0,.52-1.173L23.6.075a.644.644,0,0,0-.6,0L.433,11.922a.644.644,0,0,0,.528,1.173Zm2.513,5.154v-.992H10.9v.984ZM20.02,21.8V38.373a1.8,1.8,0,0,0-1.718,1.8v2.74H12.185v-2.74a1.8,1.8,0,0,0-1.718-1.8V21.8A1.8,1.8,0,0,0,12.185,20V17.257h6.108V20a1.8,1.8,0,0,0,1.718,1.8Zm-.43-3.553v-.992h7.431v.984ZM36.136,21.8V38.373a1.8,1.8,0,0,0-1.718,1.8v2.74H28.3v-2.74a1.8,1.8,0,0,0-1.718-1.8V21.8A1.8,1.8,0,0,0,28.3,20V17.257h6.108V20a1.8,1.8,0,0,0,1.718,1.8Zm-.429-3.553v-.992h7.431v.984Zm7.431,23.676v.983H35.7v-.983Zm-16.116,0v.983h-7.44v-.983Zm-6.366-21.4H20.1a.515.515,0,0,1-.515-.515v-.468h7.431v.468a.515.515,0,0,1-.515.515ZM25.3,21.81V38.364h-4V21.81ZM20.655,39.653H26.5a.515.515,0,0,1,.515.515v.468H19.582v-.468a.515.515,0,0,1,.515-.515ZM10.9,41.925v.983H3.465v-.983ZM3.465,20.019v-.481H10.9v.468a.515.515,0,0,1-.516.515H3.968a.515.515,0,0,1-.5-.52Zm5.713,1.8V38.364H5.183V21.81ZM3.465,40.182a.515.515,0,0,1,.515-.516h6.4a.515.515,0,0,1,.516.516v.468H3.465Zm40.918,4.695v1.263H2.211V44.876a.666.666,0,0,1,.666-.666H43.717a.666.666,0,0,1,.666.653Zm-1.254-4.695v.468H35.7v-.468a.515.515,0,0,1,.515-.516h6.413a.515.515,0,0,1,.5.5Zm-5.713-1.8V21.81h4V38.364Zm5.713-18.358a.515.515,0,0,1-.515.515h-6.4a.515.515,0,0,1-.515-.515v-.481h7.431ZM23.3,1.364,42.485,11.449H4.11ZM2.211,13.391a.644.644,0,0,1,.644-.644H43.739a.644.644,0,0,1,.644.644v1.95a.644.644,0,0,1-.644.644H2.855a.644.644,0,0,1-.644-.644Zm0,0" fill="#f95665"/>
  </g>
</svg>
