<svg id="_1076745" data-name="1076745" xmlns="http://www.w3.org/2000/svg" width="249.611" height="249.611" viewBox="0 0 249.611 249.611">
  <path id="Path_4376" data-name="Path 4376" d="M412,130.875A4.875,4.875,0,1,0,416.875,126,4.877,4.877,0,0,0,412,130.875Zm0,0" transform="translate(-211.141 -64.572)" fill="#283244"/>
  <path id="Path_4377" data-name="Path 4377" d="M442.094,206.924a92.868,92.868,0,0,1-1.861,18.526,4.875,4.875,0,0,0,3.8,5.751,4.8,4.8,0,0,0,.981.1,4.881,4.881,0,0,0,4.772-3.9,102.6,102.6,0,0,0,2.057-20.476,101.275,101.275,0,0,0-9.9-43.907,4.875,4.875,0,1,0-8.8,4.2,91.607,91.607,0,0,1,8.949,39.712Zm0,0" transform="translate(-221.734 -82.118)" fill="#283244"/>
  <path id="Path_4378" data-name="Path 4378" d="M249.627,274.253h-4.875V210.875A4.875,4.875,0,0,0,239.877,206h-39A4.875,4.875,0,0,0,196,210.875v19.5a4.875,4.875,0,0,0,4.875,4.875h4.875v39h-4.875A4.875,4.875,0,0,0,196,279.128v19.5a4.875,4.875,0,0,0,4.875,4.875h48.752a4.875,4.875,0,0,0,4.875-4.875v-19.5A4.875,4.875,0,0,0,249.627,274.253Zm-4.875,19.5h-39V284h4.875a4.875,4.875,0,0,0,4.875-4.875V230.376a4.875,4.875,0,0,0-4.875-4.875H205.75v-9.75H235v63.378A4.876,4.876,0,0,0,239.877,284h4.875Zm0,0" transform="translate(-100.446 -105.57)" fill="#283244"/>
  <path id="Path_4379" data-name="Path 4379" d="M235.5,145A19.5,19.5,0,1,0,216,125.5,19.524,19.524,0,0,0,235.5,145Zm0-29.251a9.75,9.75,0,1,1-9.75,9.75A9.762,9.762,0,0,1,235.5,115.75Zm0,0" transform="translate(-110.695 -54.323)" fill="#283244"/>
  <path id="Path_4380" data-name="Path 4380" d="M124.805,0C57.539,0,0,57.431,0,124.806c0,23.014,6.595,47.49,17.715,66L.249,243.2a4.875,4.875,0,0,0,6.168,6.165L58.805,231.9c18.511,11.122,42.986,17.715,66,17.715,67.284,0,124.806-57.438,124.806-124.806C249.611,57.522,192.175,0,124.805,0Zm0,239.861c-22.078,0-45.543-6.515-62.772-17.427a4.873,4.873,0,0,0-4.152-.507l-45.3,15.1,15.1-45.3a4.869,4.869,0,0,0-.507-4.152C16.265,170.351,9.75,146.883,9.75,124.806,9.75,62.439,62.439,9.75,124.805,9.75S239.861,62.439,239.861,124.806,187.172,239.861,124.805,239.861Zm0,0" transform="translate(0)" fill="#283244"/>
</svg>
