<svg xmlns="http://www.w3.org/2000/svg" xmlns:xlink="http://www.w3.org/1999/xlink" width="1454.964" height="326.429" viewBox="0 0 1454.964 326.429">
  <defs>
    <filter id="Path_4335" x="0" y="0" width="1454.964" height="326.429" filterUnits="userSpaceOnUse">
      <feOffset dy="3" input="SourceAlpha"/>
      <feGaussianBlur stdDeviation="3" result="blur"/>
      <feFlood flood-opacity="0.161"/>
      <feComposite operator="in" in2="blur"/>
      <feComposite in="SourceGraphic"/>
    </filter>
  </defs>
  <g id="Group_754" data-name="Group 754" transform="translate(3500 -2820)">
    <g transform="matrix(1, 0, 0, 1, -3500, 2820)" filter="url(#Path_4335)">
      <path id="Path_4335-2" data-name="Path 4335" d="M1449.47,133.12c-1.19-2.93-2.75-5.95-3.51-9.08-5.84.16-7.45-4.76-9-9.44l-1.92-.72c0-.11-.08-.21-.11-.32-.89-3-1.55-6.15-2.44-9.79.33-.5,2.64-2.85,2.25-3.6-.94-1.79-3.17-2.82-4.87-4.16-.74-.58-2-1-2.16-1.73-.91-4.75-6.57-7.92-4.33-13.9l-2.08,3.9q-.42-.15-.81-.33l-.5-4.14-4.16-.94-1.3-5.22-2.5,8.55a9.669,9.669,0,0,1-2.81-2.81l-1.75-10.16-6.67,3.17-.95-4.56c-3.75-.67-5.78-1-7.1-.9l-.28-2.19a8.41,8.41,0,0,1-4.63,2.27l-3.19-3.66.81-.72c-3.52-1.81-7-3.7-10.54-5.48q-1.21,2.65-2.64,5.16c-5.24,2.11-9.92,1-13.95-3.34-4.94-5.27-11.24-2.64-16.93-3.27-1.27-.14-3.52,1.57-4,2.93-1.49,4.48-4.78,2.26-6.91,3.93l-.52-1.31,5.84-2.86-4.51-4.59.21,3.37L1327.4,60l-1.69-6.25h-1.59L1323,61.24l1.21.26-4.6,3.51c0-4.91,2-10.15-3.56-11.92l-1.65,5.3-4.69-7.71-5.6,3.32-11.43-9.48c-3.8,3.05-5.8.81-7.07-2.4L1275,41l-1.94,2.81,3.41,2A18,18,0,0,1,1272,48c-2,.46-4.17,0-7.1,0l-2-5.43c-.34.39-.92.75-1.08,1.27-1.92,6-2.32,6.16-7.61,3.53-9.1-4.52-12.43-3.79-17.53,2.33-.86,1-1.85,1.92-2.78,2.88l-1.34-1.25,4.7-5.68-4.51-3.24-6.58,9L1214.31,54l-7.64-5.63c-1.75-.85-3.17-2.14-4.81-2.95a12.66,12.66,0,0,0-5-1.42c-1.53-.05-3.09.73-4.67,1.15l-3.14,5-3.37-5.31-14.32,1.82V45.51l-4.44,3.08-.05-1.12-8.21-1.84.59,1.73-7,6.29-2.48-3.22c-2.78,5.5-3-.22-4.15-.89l-3.7,4.59c-.93-2.31-1.28-4-2.17-5.17-.72-1-2.23-2.14-3.16-2-5.62,1.12-9.73-.55-12.74-6.57l-1.15,5.27c-3.92,1.09-7.82,2.07-10.46-3.5l-6.21,5.39-12.48-2.26L1094,47l-9.89,6.58,1.63-10.91c-2.94,2.15-4.85,4.55-7.07,4.95-5.06.91-10.28.85-15.44,1.14-2.28.13-4.57.18-7.12.28l1.11,3.25-6.4.91,2.55-4-.63-1.43-18.26,4.39,4.29-6.32-7.1,2.16L1028,43.74l-2.44,4.09-7.12-5.27-1.35,5.83-3.21-5.58,2.26-4.14-4.62.43.29,9.91-1.26.28-3.16-8.53-3.55,7.48L1000.12,43l-2.27,2.72L993.74,39l-6.34-2.93c-1.52.51-2.93.94-4.31,1.46s-2.8,1.18-4.19,1.76l-5.27-3.56-5.75,3.67-2.34,6.35-2.35-6.28h-1.28c-.08,1.18.2,2.64-.34,3.47-.69,1.05-2.06,1.6-3.58,2.69l.42-6.14c-4.66,4.3-8.2,4.34-12.91,1.22-1.15-.76-2.78-.71-4.6-1.13l-2.05-3.33c-1.76,3.44-3.4,6.52-7.09,3.07l-2,5.58c-2.54-5.7-4.94-10.65-11.95-6.72l3.49,6.17-4.76,2.9-.77-6.46-.95-.45L911.45,48l-1.37-.67.87-5.89-8.47,4-9.07-7-12.07-1.48-4.29-4-.59.64,1,3.13-.67.59L871,32.72l-1.32,3.55c-3.79-4.57-7.57-5-12-1.88l-3.92-2.59-2.6,10.35L847,31.42l-1.24.53c-.13,4.16-.25,8.31-.41,13.67l-3.91-6.3,1.48-7.1-1.82-.54L838.19,41.9l-2.9-2.21c-1.17,1-2.13,1.75-3.1,2.52,0,0-.15-.18-1-1.25l4.08-4-6.57-4.53-1.16,1.67,3.2,1.32-4,7.3c-.73-2.68-.42-5.13-.65-7.51-.1-1.05-1.29-2-2-3a23.428,23.428,0,0,0-2.54,2.15c-.44.49-.59,1.29-1.49,3.41l-2.26-7.48-2.87,7.05a58.756,58.756,0,0,1-2.14-11.11l-1.09.42c-5.82,2.27-8.18-.87-11.34-4.62-3.69,3.37-7.38,2.34-11.27.77-1.91-.77-4.14-.55-6.23-.79a10.92,10.92,0,0,1-3.54-.52c-5.07-2.5-7-1.63-8.78,4.9-.94-2-1.3-4.12-2.42-5-3.18-2.48-6.86-4.45-10.56-1.58s-7,3.94-10.58,0c-.5-.56-1.39-.69-2.29-1.11l-2.27,3.21,3.4,1.74-.59,1.71c-6.11-2.17-12.06-3.7-16.35,4.49L727.6,24c-4.21,5-5.55,5-12-.66-2-1.79-3.54-4.37-5.34-6.66l-1.62,6-2.49-2.51-1.92-5c-2.25,1.29-4.15,3.2-6.11,3.27-1.8.07-3.66-1.84-6.11-3.23l.79,9.5-13.29-6.08.39-.49-8.06-1.5c-1.42,2.86-3.56,6.09-8.12,1.77-1.75-1.66-5.3,1.45-5.41,4.35a3.71,3.71,0,0,1-.76,2.67c-.19-1-.43-2-.57-3s-.19-2.21-.28-3.34l-5.7,8.1-3.27-8.35-2.26,7.77c-.9-2.21-1-3-1.49-3.55a23.632,23.632,0,0,0-2.54-2.24c-.7,1-1.89,2-2,3.09-.23,2.48.08,5-.65,7.81l-4-7.59,3.19-1.37L636.91,21l-6.57,4.71,4.07,4.17c-.85,1.11-1,1.3-1,1.3-1-.8-1.93-1.62-3.1-2.62l-2.9,2.3-2.93-10.63-1.82.57,1.48,7.38-3.91,6.55c-.16-5.57-.28-9.89-.41-14.22L618.58,20l-4.17,11.16L611.82,20.4l-3.92,2.7c-4.43-3.26-8.21-2.79-12,2l-1.31-3.69-5.76,4.73-.67-.61,1-3.25-.59-.66-4.28,4.16-12.06,1.55-9.07,7.3-8.46-4.16.86,6.13-1.37.7-3.37-7.9-.95.47-.78,6.72-4.75-3,3.49-6.42c-7-4.08-9.4,1.07-11.94,7l-2-5.8c-3.68,3.58-5.32.38-7.08-3.19l-2.05,3.47c-1.82.44-3.45.38-4.6,1.18C515.48,33,512,33,507.3,28.51l.42,6.38c-1.52-1.13-2.89-1.69-3.58-2.79-.54-.87-.26-2.38-.34-3.61h-1.28L500.18,35l-2.33-6.6-5.74-3.81-3.77,2.66c-.74.26-1.45.54-2.1.77-1.18-.53-2.36-1.07-3.56-1.55l-.75-.27a3.479,3.479,0,0,0-.12-.49l.19-7.38c-6.41,6.85-14.26,9.14-15.8,5.39l3.21-1.4-2.7-1,2.38-3.54-.67-1.21c-1.59.79-3.52,1.21-4.7,2.45-3.44,3.61-4.08,3.6-6.5-1.35l2.47-3.37-5-2.14c0,5.37,3.1,10.26-1.44,14.25-1.68-1.65-3.73-3-4.86-5s-1.17-4.89-2.31-7c-.52-.95-2.5-1-3.85-1.41h0a56.509,56.509,0,0,0-7.06-1.43,25.17,25.17,0,0,0-5.34.67l.17,1.15-3.91-1.57-4.53,5L420,11.07l-2.62,4.69c-3.63-.36-6.69-.52-9.69-1.06a3.61,3.61,0,0,1-2.32-2.13c-1.2-4-4.18-4.83-7-5.36l-6.59,5.44-2.91-9.79-2.33,5.38c-5.3,1.7-4.68-2.87-5.07-4.75L368.56,6.06,363.84,0l-1.73,5.62-3-4.58-.91.52.91,5.11-7.75.22.55-4.74-1.41-.76-3.61,6.4-1.62-2.33-2.51,7.33L341.38,7.7l-4,5L333.62,2l-2.77,4.84L330.33,6l-8.94,5.18-4.89-5L315.26,12c-1.78-1.19-3.12-2.15-4.51-3-3-1.83-5.36-.58-5.66,3.16-.24,3-1.42,4.58-4.3,4.59-4.11,0-8.35.73-12.31-.08-3.52-.72-4.43.58-5.1,3.61-.21.93-1.12,1.68-1.81,2.65L278.73,20c-4.16,4.42-9.08,5-14,1.64l-4.42,6.85-3-6.49L253,24.34c4.22,3.06,2.51,4.66-.6,6.4l-2.05-4.55-10.56-1.83-8.73,9.27-1,.77-5.33-2.59v.91l-11.08,1.83-1,1.77-.41-1.43c-2.45.19-5-.07-7.31.67-.2-.59-.42-1.28-.65-2.06-.16-.54-.74-.92-1.08-1.32l-2,5.59-.08.06c-2.89.06-5,.49-7,0a17.56,17.56,0,0,1-4.55-2.23L193,33.58l-2-2.92-10.56,1.21c-1.28,3.34-3.29,5.68-7.07,2.52l-11.44,9.89L156.3,40.8l-3,5.18c-.32.19-.63.42-1,.67l-.8,1.72L150,43.32c-3.57,1.19-4,3.88-3.88,7-1.58.39-2.06,1.77-2.26,3.39l-2-1.62,1.2-.27L142,44h-1.59l-1.71,6.51-4.12-3,.22-3.5-4.52,4.79,5.82,3-.52,1.36c-2.13-1.73-5.42.59-6.9-4.06-.45-1.42-2.7-3.18-4-3-5.69.67-12-2-16.93,3.45-4.22,4.68-9.15,5.81-14.67,3.2-4.3,5.24-15,7.69-19.45,2.91L71.92,69.49A16.8,16.8,0,0,1,67.73,67c-3.85-3.8-6.64-4.12-9,.59S54,75.73,48.51,74.76c-1.07-.19-2.32.78-3.75,1.31L42.69,72c2.22,6.21-3.45,9.53-4.37,14.47-.14.73-1.42,1.2-2.16,1.81-1.71,1.39-3.93,2.48-4.88,4.34-.4.78,1.91,3.22,2.24,3.73-.9,3.79-1.57,7-2.47,10.18a29.431,29.431,0,0,1-2,4.56c-1,2.15-2.11,4.26-3.63,7.33l-2.53,1.15-2,8.87-5.5-1.88L18.6,131v.8c-2.23,6.74-7.59,12.91-2.32,18.87-.54,7.29-1,13.38-1.38,19.49a2.38,2.38,0,0,0,1.19,1.89c4.9,1.14,4.67,4.74,4.38,8.82-.16,2.33.76,4.74,1.26,7.48l-5.47,4.54c8.56,2.24,6.94,10.43,10.66,16L22,212.18h1.32c.25,5.67.5,11.35.77,17.53l-8.4-.69,3.16,8.34c-.22-5.39,2.42-4.48,5.3-3.89-2.47,6,2,6.26,5.27,7.24-.91,8.44.79,7.48,5.63,7.37l1.68,8.82,3-1.79,8.86,2.07-3.19,5.06L59.64,265c-.07,3.57-.15,7.92-.23,12.27l.86.45,3.26-9.2,3.12,8.37c3,.42,6.46.16,4.6,5-.1.27,2.26,1.56,3.48,2.38l.65-1.14-1-2.65,1.25-1L81,286l1.19-5.62,9.92,5.31,3.44-1.94c2.59,8.84,9.57,5.45,15.75,6.26l-3,6.39,8.13-2.17-.17-1.26-4.45-.31c2.83-3.54,6.12-3.75,9.88-.75l-4.94,3.94,8.07.56.4-6.37,10.82.08.17,7.27,6.6-1.91-.35-1.2-4.16.75.82-4.14,5.7.38,2.06,4.51,4.4-5.33,3.61,3.08,7.65-6.36,4.52,1.23.75,4.65,16-.41-3.39-4.3,14.13-.14,1.53-4.56,1.47.42.52,6.25,4.44-1,.84-7,2.48-.11,2.33,8.54c.88-2.44,1.25-3.78,1.84-5s1.4-2.32,2.79-4.57l2.49,7.54c8.69.94,17.53,5.12,26-1.59l2.23,4.51,1.38-5.81,10-1.33.82.52,1.84,1.83.71-.2,4,2.53.94,5.68,3.15-2.75L265,290.11l4.14-1.07-1,6.58c4.39,3.46,7.28-.63,10.8-2.88,6.51,5.83,13.63,4.25,21,1.8,1.55-.51,3.84,1.65,6.34,2.83,1.31-1.73,6.4,2.26,7-3.79,0-.47,2.72-.65,4.18-1l.28,1.71-2.58-.12c1.73,4.83,2.68,4.8,8.66.14l10.3,5.4c1.31-2.45,2.09-5.91,4-6.93s5,.34,8.08.73l2.1-3.82c.27,2.44.19,4.24.73,5.79.41,1.17,1.61,2,2.46,3l1.38-1.25-1.91-3.87,3.21-2.13c1.91,2,3.31,4.36,5.27,5.17,3,1.25,6.48,1.41,9.76,2l.25-1.35-4.68-3.68,8.35-.58-.2,5.54,12.25-7,2.16,4.39c3.49-2.76,6.08-1.3,8.1,2.32l4.06-5.45,1.63,6.36,6.49,1L406,295.06c4.42,2.43,2.81,6.11,3.17,9,6.69,5.36,15.42,5.54,21.06.24,4.35,1.8,8,1.5,8.84-4.94l18.68,3.41L459,294l1.38-.17.7,7.92,5.16-2.48,2.31,7,7.56-3.9.68,1.55,1.81-4.08.41,1.56c4.11-.31,8.22-.67,12.33-.9,1.52-.09,3.08.34,4.58.17,4-.43,8-1.06,12.73-1.72,4.11,5.45,14.84,5.42,20.57-1.48l3.21,5.73,3.28-8,1.73.15,1.07,7,3.18.46,1.79-5.56L549,296l.7,3.57-4.82.34v.95l5.26.84h0l5.06.8.5-6.53a47,47,0,0,0,5,4,16.1,16.1,0,0,0,5.49,2.26c1.57.28,3.29-.33,4.76-.53l4.38-4.38,2.13,3.9,6-4.23,2.33,4.65,2.06-5.31c3.92,4.14,8.25,4.15,13,3.07,4.33-1,8.8-1.2,13.52-1.8l3.59,6,5.06-6.81,1.3,5.58,1.18-5,6.27-1.1-.17-.52c3,.44,5.91.91,8.86,1.32s6.07.8,9.78,1.28c2.16-3.31,5.1-2.48,8.08.92,2-3.78,3.93-4.85,8-2.82,3.16,1.56,8,3.11,11.31-1.87l10,3.86.48-2.88,6.89.68,2,4.63h1.29l2.43-6.3,2.32-.23,1.71,4.1,3.51-2.11,4.39,3.59,1.56-6.07.53.24,3.85,6.63,5.51-5.8,2.26-.82,1.24,6.06,1.42,1.88c-.63-7.63,2.76-7.19,6-7,1,1,1.48,2.83,1.2,6.38l1.42-2,1-4.92a2.871,2.871,0,0,0,.7-.55l7.35,7.44,4.27-7.06,1.68,6.28,4.39-3.45,3.51,2,2.5-5.74.76.08,3.21,8h1.29l2-4.45,6.89-.65.48,2.77,10-3.71c3.33,4.79,8.15,3.29,11.31,1.79,4.11-2,6-.93,8,2.71,3-3.27,5.92-4.08,8.08-.89,3.71-.46,6.75-.83,9.78-1.23s5.91-.84,8.87-1.27l-.17.5,6.27,1.05,1.17,4.81,1.3-5.37,5.06,6.55,3.6-5.81c4.72.57,9.19.79,13.52,1.72,4.76,1,9.09,1,13-3l2.05,5.1,2.33-4.47,6,4.07,2.13-3.75,4.38,4.21c1.47.19,3.18.77,4.76.5a16.489,16.489,0,0,0,5.5-2.18,46.776,46.776,0,0,0,5-3.86l.5,6.28,5.06-.78h0l5.26-.81v-.91l-4.82-.33.71-3.44L922,298l1.78,5.34,3.18-.45,1.08-6.69,1.73-.15,3.27,7.7,3.22-5.51c5.73,6.63,16.45,6.64,20.57,1.4,4.75.63,8.73,1.23,12.73,1.64,1.51.16,3.06-.25,4.58-.17,4.11.22,8.22.57,12.33.86l.41-1.5,1.81,3.92.68-1.49,7.55,3.74,2.32-6.73,5.16,2.38.71-7.61,1.38.17,1.2,8.43,18.68-3.3c.79,6.19,4.48,6.47,8.84,4.73,5.64,5.09,14.37,4.91,21.07-.26.36-2.8-1.24-6.34,3.18-8.68l-1.57,4.68,6.49-.93,1.64-6.12,4.05,5.23c2-3.49,4.62-4.89,8.1-2.24l2.17-4.22,12.24,6.76c-.06-1.6-.13-3.42-.2-5.33l8.35.54-4.69,3.55.25,1.3c3.27-.6,6.71-.76,9.76-2,2-.78,3.37-3.09,5.28-5l3.21,2-1.92,3.73L1114,299c.85-1,2-1.77,2.46-2.89.54-1.49.47-3.22.74-5.57l2.1,3.67c3.13-.38,6.16-1.71,8.08-.72s2.67,4.3,4,6.66l10.31-5.21c6,4.47,6.92,4.49,8.66-.15l-2.58.12.29-1.64c1.45.3,4.14.48,4.18.92.55,5.82,5.65,2,7,3.63,2.49-1.14,4.8-3.22,6.34-2.74,7.4,2.34,14.52,3.84,21-1.77,3.52,2.16,6.39,6.08,10.79,2.75l-1-6.33,3.41.84-.6.94,3.16,2.87.69-4.41,9.82-6,7.78,1.09,1.39,6,2.22-4.68c8.46,7,17.3,2.66,26,1.71l2.47-7.83c1.39,2.34,2.21,3.49,2.8,4.76a54.912,54.912,0,0,1,1.85,5.21l2.31-8.87,2.48.12.85,7.26,4.44,1.09c.16-2,.33-4.24.51-6.5l1.47-.44,1.54,4.74,14.14.19-3.38,4.46,16,.46.74-4.84,4.51-1.27,7.67,6.63,3.6-3.19,4.41,5.55,2-4.68,5.7-.38.83,4.31-4.17-.79-.35,1.25,6.6,2c.06-3.12.11-5.34.15-7.56h10.82l.41,6.63,8.07-.56-5-4.11c3.75-3.11,7-2.88,9.88.81l-4.45.31-.17,1.31,8.14,2.28-3-6.65c6.18-.83,13.17,2.72,15.74-6.46l3.44,2,9.91-5.49,1.2,5.85,5.38-6.68,1.25,1-1,2.75.66,1.19c1.21-.85,3.57-2.18,3.47-2.46-1.88-5.09,1.63-4.81,4.59-5.24l3.1-8.69,3.28,9.57.86-.47c-.09-4.53-.19-9.05-.27-12.76l14.28-2.81-3.21-5.27,8.85-2.12,3,1.87,1.66-9.17c4.84.13,6.54,1.13,5.61-7.65,3.27-1,7.73-1.24,5.24-7.51,2.88-.61,5.52-1.55,5.31,4.06l3.14-8.66-8.4.69c.25-6.42.48-12.32.72-18.22h1.32l-4.94-3.44c3.7-5.77,2.05-14.3,10.61-16.59l-5.48-4.74c.49-2.85,1.41-5.35,1.24-7.77-.3-4.24-.54-8,4.36-9.15a2.46,2.46,0,0,0,1.18-2c-.37-6.34-.88-12.68-1.44-20.26,3.12-3.68,2.48-7.44,1-11.37l.78-1ZM442,13.5c-.22.69-.38,1.42-.64,2.06C441.59,14.91,441.72,14.16,442,13.5Z" transform="translate(-5.03 6)" fill="#f95665"/>
    </g>
    <text id="Virtual_Dataroom" data-name="Virtual Dataroom" transform="translate(-3143 3023)" fill="#fff" font-size="104" font-family="SegoeUI, Segoe UI" letter-spacing="-0.03em"><tspan x="0" y="0">Virtual Dataroom</tspan></text>
  </g>
</svg>
