<svg xmlns="http://www.w3.org/2000/svg" xmlns:xlink="http://www.w3.org/1999/xlink" width="1482.896" height="315.173" viewBox="0 0 1482.896 315.173">
  <defs>
    <filter id="Path_4372" x="0" y="0" width="1482.896" height="315.173" filterUnits="userSpaceOnUse">
      <feOffset dy="3" input="SourceAlpha"/>
      <feGaussianBlur stdDeviation="3" result="blur"/>
      <feFlood flood-opacity="0.161"/>
      <feComposite operator="in" in2="blur"/>
      <feComposite in="SourceGraphic"/>
    </filter>
  </defs>
  <g id="Group_756" data-name="Group 756" transform="translate(3514 -3547)">
    <g transform="matrix(1, 0, 0, 1, -3514, 3547)" filter="url(#Path_4372)">
      <path id="Path_4372-2" data-name="Path 4372" d="M319.42,741.32c3.9-1.81,6.92,1,10.17,2.5,1.72.77,3.35,1.83,5,2.77,2.59-7.21,10.21-5.73,14.61.93a7.311,7.311,0,0,0,2.4-.81,7.58,7.58,0,0,1,7.5-1.37c2.16.61,5-1.51,7.44-2.51a6.8,6.8,0,0,0,1.56-1l6.35,5.35,3.54-7.1,3.23,7.54,6-3.63c3.32,4.73,8.26,3.45,12.55,4.25.57.11,1.77-1.94,2.18-3.2,1.24-3.83,2.33-4.6,6.87-3.86l-2.25,6.47c3.12.83,6.42,2.26,9.76,2.37,1.58.05,4-2.05,4.68-3.84,1.31-3.65,2.93-4.63,6.18-3.61,1.67.53,3.63-.24,5.39.07,3.27.57,6.48,1.51,9.72,2.3l.08,1.38,4.4-3.62,3.23,4.83c3.95,0,8.68,1.47,12.28-.23,5.91-2.79,12.6.24,18-4.2a3.15,3.15,0,0,1,2.5-.35c3.73.9,7.43,2,11.13,3,.15,0,.33.17.43.11,4.82-2.54,9.95-2.55,15.12-2.94,6.85-.52,12.93-4.62,20.61-3,5.66,1.18,12,.17,18,1.78a2.44,2.44,0,0,0,2.16-.49c4.58-5.11,9.67-1.83,14.6-1.4,1.88.16,3.79-.14,5.67,0,4.81.45,9.61,1.48,14.42,1.43,3.11,0,6.18-1.77,9.33-2.36a8,8,0,0,1,4.19.8c3.47,1.4,6.61,3.43,10.71,1.53,1.9-.88,4.62.57,7.24,1,1.68-6.75,6-2.48,9.33-3,2.12-.3,4.25-.48,6.38-.63a9.917,9.917,0,0,1,3.1.1c3.84,1,7.65,2.07,10.6,2.88l5.92-5.39c.81.31,1.23.31,1.36.54,3.54,6.29,4.74,6.94,11.24,4.15,2.74-1.18,26.59,4.53,28.55,6.74,1.1,1.23,2.9,1.65,4.61,2.55.92-8.3,1.19-8.18,7.3-4.5,2.41,1.45,5.62,1.25,8.47,1.68,3.07.46,6.26,1.49,9.22,1a20.13,20.13,0,0,0,9.67-4.33c1.4-1.24.91-5.24,1.3-8.21,6.44-1.26,9.52,5.18,13.9,8.86.34-1.1.59-1.48.51-1.69-.87-2.13-1.79-4.24-2.7-6.35,2.84-1.22,5.6-2.85,8.54-3.53a9.44,9.44,0,0,1,6.54.67,8.85,8.85,0,0,1,3.61,5.53c.24,1.33-1.6,3.47-2.9,4.71-.9.86-2.47.8-3.74,1.15l-.19,1.53c2.49.62,5,1.25,7.48,1.84.27.06.62-.28.87-.2,10.39,3.3,19.72-2.5,29.5-4.53a5.811,5.811,0,0,1,3.54.24c8.11,3.9,16.45,2.31,24.79,1.59a8,8,0,0,1,4.63.9c4.71,2.82,6.82,2.47,9.94-2.33,9,1.78-4-1.87,3.59-.39,3.51-1,5.85-2.32,8.09-2.14,7,.57,14,3,20.81,2.24,6-.7,11.92.65,17.48-.39,3.94-.74,6.51.05,9.82,1.43,2.21.92,5,0,7.54-.05,7.5-.19,15-.45,22.49-.5,8.23-.05,16.46.08,24.69.2a3.829,3.829,0,0,1,2.47.75c3.06,2.87,5.17.79,8.36-2.34l-11.88-11.12c2.11-.06,3.49-.59,4.32,0,4.88,3.19,9.62,6.66,14.44,10a2.66,2.66,0,0,0,2.12.56c6.14-2.59,11.63,1.15,17.4,2.1.15,0,.3.13.44.11,5.95-.61,11.89-1.29,17.84-1.78a50.466,50.466,0,0,1,6.27.25c.66-5.36,4.56-5.34,7.45-3.85,5.75,3,11.17.19,16.73.2,2.43,0,5.45-.08,7.15,1.42,3.71,3.27,6.49,1.8,9.61-.87,3.8,1.47,7.88,4.43,10.13,0,3.87-.5,6.67-1,9.48-1.17,2.12-.1,4.49-.32,6.33.59,4.28,2.12,8.26,5,13.27,3.18a6.08,6.08,0,0,1,3.12.09c8.65,1.76,17.08,1.43,25.24-2.89.75-.4,2.06.07,2.93.56a29.526,29.526,0,0,1,4.6,3.24c3.51,3,7,3.71,10.29-.19l4.38,6.13.12-1.74c2.89-1,5.84-1.71,8.64-2.93,1.59-.69,2.93-2.11,5.14-3.76l6.41,7a57.736,57.736,0,0,1,7.59-2.47c1.68-.33,3.85-.3,5.18.67,3.92,2.83,7.48,3.28,12.2,1.88,4.52-1.34,9.64,0,14.49.1s9.73.22,14.58-.11c1.45-.1,2.82-1.72,4.09-2.55l14.68,2.24c1.61.25,3.25.38,4.83.79,3.67.93,6.88,2.21,9.88-2.68,1.15-1.88,5.56-1.45,8.49-1.52,1.46,0,2.94,1.2,5.59,2.38l-2.24-18.9,1.15-.68,3.12,6.11-.81.57a4.935,4.935,0,0,1,1.13.79c4.6,5.65,9.6,3.53,15.1,1.72,5.76-1.89,11.62-1.64,15.66,5.1a5.93,5.93,0,0,0,4.47,2.67c6-.22,12-1.18,18.07-1.48,4.74-.24,9.5.09,14.4.17a19.963,19.963,0,0,1,.44-2.5c.59-1.72,1.41-4.93,1.86-4.87,2.36.31,6.14.82,6.65,2.42,1.63,5.08,4,5.53,8.29,5,2.61-.31,6.34,1.42,8.07,3.7,5.42,7.17,12.63,9.14,20.14,10.86,6.18,1.42,8,4.47,7.36,12.27,1.35.34,2.92.38,4.14,1.14s2.14,2.25,3.27,3.5c-.76,1.82-1.75,3.3-1.93,4.89a7.36,7.36,0,0,0,1,4.31,67.69,67.69,0,0,0,6.78,9.61c3.56,3.92,4.45,11.85,12.21,9.79,3.77-1,6.07,3.38,4.8,7.52s-1.67,9.39-7.41,8.81c-.31,0-.71,1-1.71,2.4l15.9,10.05c1.32-4.35,3.77-6.11,7.75-4.4,2.06-3.31,4.36-5.39,7.78-2.28,5,4.54.67,8-1.28,11.69,2.42,1.24,4.72,2,6.51,3.51,1.06.89,1.55,2.95,1.88,4.59a69.4,69.4,0,0,1,.72,7l7.15-2.28,4.65,3.68-7.74,3.36c-1.21,5.14.94,10.8,5.42,13.07,6.45,3.28,7.29,10.93,2,16.2-.93.92-1.39,2.93-1.46,4.46-.28,6.71-22.38,11.47-26.66,17.23-2,2.76,7.51,8.42,5.32,13.41,2.94,4.06,16.79,8.84,19.83,13.07.17,7.32-.95,8.46-7.3,9.11-2.4.24-4.69,2.08-8.15,3.72,2.46,1.83,3.81,2.55,4.82,3.67s2.92,3.14,2.69,4.33c-.27,1.42-2.58,3.6-3.64,3.36-5.19-1.17-8.38,4.32-13.32,4.05l.66,6.55c-6,6.39-13.07,9.23-21,10.06-2.33.24-4.52,2.86-6.72,4.48-1.75,1.28-3.27,3.29-5.16,3.94-4.21,1.45-9.13,1.24-10.22,8.21l-1.15-.34-.58-6.63c-3.25-4.67-10.54,3.61-12.74-7l-4.25,6.55c-5.33-1.79-5.83-3.65-2.74-7.68.86-1.12,1.24-2.71,2.23-5-6.89-1.52-13-2.84-19-4.2a20.9,20.9,0,0,1-4.74-1.34c-3.57-1.76-6.1-1-7.1,2.92-6.76,4.08-13.77,6.45-18.53,13.28-2.5,3.59-5.29,5.43-9.62,2.66s-6.71-.36-5.66,5.09c.84,4.31-.64,6-3.93,7a69.309,69.309,0,0,0-7.28,3.19c-1.63-4.47-3.77-7.15-7.82-2.11l-3.11-5.08-12.5-3.39c.07,3,.12,4.77.18,7.46l-8.28-1.06c-9.64,6.63-18.31,7-23,.81l5.24-5-6.44-2.73-.37,6.83c-2.55-1.62-4.79-2.33-6.06-4-2.21-2.91-4.35-3.8-7.42-1.75l-.65,4.9-1.14.68-3.07-6-7.52,4.94-1.92-5c-3.89-.54-7.63-.87-11.3-1.62-4.16-.85-6.67,1-8.61,5.25-2.36,5.1-6.41,5.08-9.79.31l3.21-5.14-.71-1-10,2.79c-2.28,7.82-3.23,7.82-10,.85-5.37.66-9.94,1.3-14.52,1.77a78.187,78.187,0,0,1-8.87.51c-9.12-.1-18.24-.59-27.35-.4-3.85.08-8.1.55-11.43,2.52-4.64,2.74-8.75,1.77-13.15.37-2.51-.8-5-1.54-7.47-2.28-4.78,6.54-11,3.16-16.5,4.06-3.59.59-7.4-.69-11.12-1.14a94.743,94.743,0,0,0-10.35-1.09c-1.25,0-2.59,1.36-3.76,2.31-3.29,2.66-6.3,3.76-10.61,2-6.18-2.51-12.38-5.46-19.61-2.1-3.88,1.8-8.92.09-13.44.24-5.25.18-10.49.66-15.74.76a106.416,106.416,0,0,1-11.19.12c-2.57-.22-5.08-1.4-7.62-2.14-1.68-.49-3.36-1-5.28-1.49-1.42,5.49-3.82,6.49-8,3.77-2.74-1.8-6.1-2.35-9.44-3.55-2.5,3.43-5.51,3.24-9.39,2.51-6-1.14-12.81-3.05-17.35,4.9-1.54-1.74-2.61-3.64-4.11-4.46-1.78-1-4.29-2-5.86-1.28-3.55,1.69-6.21,1.56-8.65-2-1.76-2.56-3.3-2-6-.79-3,1.32-6.93-.16-10.44-.52a8.892,8.892,0,0,1-2.3-1.05l-7.85,9.4c-.8-1.25-2.2-2.62-2.65-4.32-1.44-5.46-5.63-9.08-9.87-6.61-6.3,3.67-12.27,2-18.44.66-.2,5.72-1.17,6.5-5.41,4.76-1.37-.56-3-1.42-4.24-1-3.72,1.42-5.9-.27-8.56-3.15-1.52-1.64-4.82-1.07-7.75-1.56l1.14,7.13-1,1.32c-3.41-2.14-6.65-4.86-10.28-6.26-4-1.55-8.36-1.88-12.39-2.7-5.1,5.88-6.55,6-13.31,2.72-2.44-1.18-5.26-1.34-8.09-2,0,3,.06,5,.1,8-2.45-1.94-3.77-3.38-5.34-4.12s-3.33-.75-5.48-1.18a20.007,20.007,0,0,1,.17,3.48,9.44,9.44,0,0,1-.71,2.11l-19.5-9.88c0,1.67,0,2.58-.09,3.5-.1,1.69-.23,3.37-.35,5.06-1.62-.51-3.4-.68-4.83-1.59-2.63-1.69-5-3.85-7.59-5.7-.4-.29-1.11,0-1.83,0l-.65,5.79c-2.11-.79-4.29-.89-5.48-2.2-2.47-2.73-5.13-1.9-7.79-1.44-3,.53-5.87,3.31-9.17.64-.44-.36-2.12.5-2.69,1.3-2.5,3.5-5.19,2.45-7.31.07-3.69-4.14-7.84-2.48-11.56-1.24-6.11,2-6,2.46-8.37-2.82-4.76-.11-9.24-.58-13.66-.19-3.82.34-7.57,1.68-11.36,2.54a2.48,2.48,0,0,1-1.66,0c-6.72-3.81-13.36-1.41-19.74.92-6.76,2.47-13.36,4.52-20.57,3.48-4.94-.71-9.62,1.24-13.74,4.41-1,.78-1.43,2.61-2.55,4.8-1-.6-2.19-1.45-3.49-2.17s-2.79-2-4.14-2c-6.55.34-13.11.84-19.62,1.78-1.81.26-3.38,3-5.17,3.19-3.27.36-6.63-.32-11.56-.68-2,.86,3.9,8-2.26,8.07-2.06-5.24-10.32-8.37-15.46-5.36-2.4,1.41-6.45.87-6.53,6,0,.27-1.53.5-2.53.81-.19-5.74-2.53-6.84-6.81-5.33-2.8,1-6.66-2.21-8.06,2.71l-13.34-4.48c-5.62,5.32-11.69-1.84-18.2.3l-.75,9-4.31-3.08-7.06-.05,2.75-5.12-10,.73.88,6.19c-4.3,1.13-8.52,2.4-12.81,3.2-.61.11-2.13-2.05-2.18-3.22-.07-1.75.8-3.55,1.66-6.8l-7,2.72c-1.83-.94-3.33-1.82-4.88-2.49a24.074,24.074,0,0,0-3.72-1.14c-1.12-.28-2.76-1.11-3.32-.55-5.15,5.16-10.37-.51-15.57.36s-10.33.63-15.51.9c-.59,0-1.19.4-1.74.3-4.62-.86-9.21-2-13.85-2.62-3.13-.44-6.34,0-9.48-.37-5.54-.62-11.08-1.38-16.58-2.39-4.25-.78-8.42-2.24-12.68-2.94-1.37-.23-2.92,1-4.71,3l5.07,3.6-1.75,3.22c-5.31-2.48-5.44-12.14-12.31-10.71-4.84,1-11.06-2.28-14.57,5l1.26-3.55c-.63-.59-1.37-1.85-2.19-1.93-7.72-.72-15.7-.07-23.13-2.13-6.57-1.82-13.51,2.32-19.61-2.54a2.35,2.35,0,0,0-2.05-.23A19,19,0,0,1,241,999c-5.58-3.12-9.94.09-13.86,4.38-3.69,4-3.64,4.1-7.55.91-6,3.23-6.7.13-6.6-3.91-2.6,1.4-5.69,4.55-8.24,4s-4.89-4.53-8.24-8c.86,2.09,1.56,3,1.47,3.73-.27,2-.88,5.68-1.35,5.68-3.14,0-7.13.41-9.25-1.58-4.5-4.22-8.24-7.59-14.57-4.54-3.24,1.56-7.34.86-11.06,1-5,.18-6.19-1.09-6.68-6.83a8.169,8.169,0,0,0-.22-1.51,18.4,18.4,0,0,0-.83-1.91c-5.45-.2-11.14-.36-16.83-.64-1.92-.1-3.82-.58-5.73-.82-4.46-.56-8,.67-10.6,5.52-.81,1.53-3.46,1.77-5.27,2.6a26.729,26.729,0,0,0-1-4.86A155.811,155.811,0,0,0,108,978c-.43-.79-3.52-.83-4.31.05-1.3,1.47-1.72,4-2.81,6.79l-4.7-.83-.73-4.49a86.652,86.652,0,0,1-9-5.36c-1.16-.88-1.42-3.2-2.38-4.61-1.1-1.6-2.73-4.31-3.77-4.11-4.54.88-7.93-2.2-11.84-3.44a23,23,0,0,0-4.84-.51c-.07,1.75-.48,3.59-.12,5.22a31.292,31.292,0,0,0,2,5.31l8-.17c-1.27,4.91.88,9.87-4.32,12.52-2.77,1.41-4.14,1.05-5.52-1.49-1.5-2.77-2.88-5.62-4.48-8.76l-5.91,4.31A7.318,7.318,0,0,1,50.94,977c-1.72-2.25-1.28-13-.06-15.77,1.1-2.48,2.68-6.18,1.83-8-1.91-4.1-6.91-4.24-10.57-1.44a15.063,15.063,0,0,1-3,1.42l-.57-1.08,2-3.87-4-9.64c-4.88-1.78-7.84-6-6.79-13.77.62-4.57-3.86-8.6-7.66-7.33s-5.19-1-5.76-4.24c-.74-4.12-2.33-6.53-6-7.89-2.28-.85-4-3.54-6.36-5.69l4.47-5C6,891.73,3.41,889.07,1.26,886c-.77-1.1-1.14-3.76-.52-4.67,1.43-2.1,3.37-4.4,5.49-5.11,4.23-1.42,4.45-4.3,3.48-9.15L0,867.31c2.84-9.16,5.41-10.36,10.47-5.82a7.546,7.546,0,0,0,.81-.32c4.4-2.25,7.38-5.08,6.28-11.66-.4-2.43,1.81-5.44,2.86-8.25-.38-1.35-1.82-3.88-1.23-4.95.87-1.58,3.34-1.89,4.86-3.16a22.838,22.838,0,0,0,4.56-5.06c2.35-3.67,3.56-8.82,8.12-7.71l8.84-14.1c-8.19-10-3.18-14.47,5.27-20.62,2.79-2,5.78-2.63,7.68-6.73,1.41-3,5.44-4.75,8.54-6.49a27.309,27.309,0,0,1,8.5-3.07c1.37-.24,3,1.1,4.45,2a43.133,43.133,0,0,1,4.26,3.7l-.41-7.89c6.18.86,13.08,5.15,16.65-4.74l-3.45-2.75c4.08-8.68,8.28-17.12,16.28-16,.57.08,1.45.06,1.74-.33,4-5.39,9.91-5.55,15.27-7a5.31,5.31,0,0,1,4.66,1c2.91,3,4.77,2.31,7.08-.92a15.289,15.289,0,0,1,5.71-4.77c3.34-1.57,5.94,1.33,5.24,5.38-.09.51-.25,1-.3,1.51-.15,1.74-.27,3.48-.4,5.22l5.49-.08-1.47-5.19c5.34-3.72,8.6-2.73,11.48,2.93a4.64,4.64,0,0,0,3.09,2.33c5.49.56,11.08-.87,16.4,2.52,1.67,1.07,4.66-.16,7-.79a37.994,37.994,0,0,0,5.79-2.65c.94,4.56,2.29,5.1,11.08,4,.38-2.19-2.17-6.37,3.09-6.2l-.81,6.45c2.68.47,5.31,1.29,8,1.34,10.38.2,20.75.18,31.13.23a32.691,32.691,0,0,0,7.21-.27c1.11-.25,2.1-1.91,2.88-3.14a27.6,27.6,0,0,0,1.74-4.14l10.85,6.74c2.81-4.57,6-5.63,10-1.44,2.15,2.25,9.85-.09,12.75-3.23a44.307,44.307,0,0,1,4.25-3.5c0,2.74,0,4.14,0,4.07,3,1.17,5.5,2.26,8.06,3.08a26.242,26.242,0,0,0,4.52.63c.4-2.34.41-4.29,1.08-5.88,1-2.32,2.43-4,3.75-.11l-.28.3Z" transform="translate(9 -721.27)" fill="#344056"/>
    </g>
    <text id="Single_Application" data-name="Single Application" transform="translate(-3161 3745)" fill="#fff" font-size="104" font-family="SegoeUI, Segoe UI" letter-spacing="-0.03em"><tspan x="0" y="0">Single Application</tspan></text>
  </g>
</svg>
