<svg xmlns="http://www.w3.org/2000/svg" width="82.398" height="70.439" viewBox="0 0 82.398 70.439">
  <g id="_2933972" data-name="2933972" transform="translate(-4.922 -11.09)">
    <path id="Path_2831" data-name="Path 2831" d="M74.447,61.389V46.039L87.454,24.293a1.223,1.223,0,0,0-1.047-1.851H44.382a1.222,1.222,0,0,0-1.047.6L19.3,63.215a1.222,1.222,0,0,0,1.047,1.85H62.374a1.221,1.221,0,0,0,1.047-.595l1.133-1.9c.038.009.077.015.116.02V77.767H46.262A1.222,1.222,0,0,0,45.04,78.99v7.337H39.657V85.37a1.222,1.222,0,0,0-1.222-1.223H35.467V74.889a1.222,1.222,0,0,0-1.222-1.223H31.3V70.7a1.222,1.222,0,0,0-1.222-1.223H25.889A1.222,1.222,0,0,0,24.667,70.7v2.97H16.031V70.7a1.222,1.222,0,0,0-1.222-1.223H10.62A1.222,1.222,0,0,0,9.4,70.7v2.97H6.452A1.222,1.222,0,0,0,5.23,74.889v16.77a1.222,1.222,0,0,0,1.222,1.223H34.245a1.222,1.222,0,0,0,1.222-1.223v-.873h2.969a1.222,1.222,0,0,0,1.222-1.223v-.79h6.6a1.222,1.222,0,0,0,1.222-1.223V80.213H64.673v1.838H60.327a1.222,1.222,0,0,0-1.222,1.223v2.97H55.137a1.222,1.222,0,0,0-1.222,1.223v4.192a1.222,1.222,0,0,0,1.222,1.223H82.93a1.222,1.222,0,0,0,1.222-1.223V87.466a1.222,1.222,0,0,0-1.222-1.223H78.961v-2.97a1.222,1.222,0,0,0-1.222-1.223H73.4V62.591A1.218,1.218,0,0,0,74.447,61.389ZM27.111,71.919h1.745v1.747H27.111Zm-15.269,0h1.745v1.747H11.842ZM33.023,90.436H7.674V76.111H33.023Zm4.189-2.1H35.467V86.593h1.745ZM72,60.166H66.068v-.121L72,50.123ZM36.4,62.62l3.344-5.59H50.793l-3.344,5.59Zm4.806-8.036,3.344-5.59H55.6l-3.344,5.59Zm-10.552-5.59H41.7l-3.344,5.59H27.311Zm4.806-8.036H46.51l-3.344,5.59H32.117Zm4.807-8.036H51.317l-3.344,5.59H36.924ZM70.02,24.888l-3.344,5.59H55.627l3.344-5.59Zm-4.807,8.036-3.344,5.59H50.821l3.344-5.59ZM76.1,38.513H64.717l3.344-5.59H79.445ZM71.3,46.549H59.917l3.344-5.59H74.645Zm-14.232,0H46.014l3.344-5.59H60.406Zm1.384,2.446H69.832l-3.344,5.59H55.107Zm22.46-18.517H69.524l3.344-5.59H84.252Zm-35.832-5.59H56.124l-3.344,5.59H41.731ZM25.851,57.03H36.9l-3.344,5.59H22.5Zm35.832,5.59H50.3l3.344-5.59h11.38ZM81.708,90.436H56.359V88.689H81.708Zm-5.191-4.192H61.552V84.5H76.52Zm-9.4-4.192V62.612h3.84V82.051Z" transform="translate(-0.308 -11.352)" fill="#344056"/>
    <path id="Path_2833" data-name="Path 2833" d="M12.446,106a1.216,1.216,0,0,0-1.216,1.216v4.343a1.216,1.216,0,0,0,2.432,0v-4.343A1.215,1.215,0,0,0,12.446,106Z" transform="translate(-2.139 -36.457)" fill="#344056"/>
    <path id="Path_2834" data-name="Path 2834" d="M27.178,105.881H25.936l.916-2.64a1.216,1.216,0,0,0-2.3-.8L23.078,106.7a1.215,1.215,0,0,0,1.149,1.614h1.242l-.916,2.64a1.215,1.215,0,0,0,.75,1.547,1.192,1.192,0,0,0,.4.069,1.217,1.217,0,0,0,1.149-.818l1.475-4.256a1.215,1.215,0,0,0-1.149-1.614Z" transform="translate(-5.669 -35.122)" fill="#344056"/>
  </g>
</svg>
