<svg xmlns="http://www.w3.org/2000/svg" xmlns:svgjs="http://svgjs.com/svgjs" xmlns:xlink="http://www.w3.org/1999/xlink" width="288" height="288"><svg xmlns="http://www.w3.org/2000/svg" width="288" height="288" viewBox="0 0 100 100"><g class="color000 svgShape" data-name="Group 750" transform="translate(-857 -5540)"><circle cx="50" cy="50" r="50" fill="#344056" class="colorf95665 svgShape" data-name="Ellipse 318" transform="translate(857 5540)"/><g class="color000 svgShape" data-name="690465" transform="translate(887 5570)"><g class="color000 svgShape" data-name="Group 739"><g class="color000 svgShape" data-name="Group 738" transform="translate(0 .001)"><path fill="#fafafa" d="M34.142,5.858a20.007,20.007,0,0,0-24.3-3.092L7.423.344a1.172,1.172,0,0,0-2,.829V6.78A1.172,1.172,0,0,0,6.595,7.951H12.2a1.172,1.172,0,0,0,.829-2L11.566,4.486A17.658,17.658,0,1,1,2.344,20,1.172,1.172,0,1,0,0,20,20,20,0,1,0,34.142,5.859Z" class="colorfafafa svgShape" data-name="Path 4326" transform="translate(0 -.001)"/></g></g><g class="color000 svgShape" data-name="Group 741"><g class="color000 svgShape" data-name="Group 740" transform="translate(18.819 11.292)"><path fill="#fafafa" d="M249.716,152.144h-6.369v-6.369a1.174,1.174,0,0,0-2.347,0v7.543a1.174,1.174,0,0,0,1.174,1.174h7.543a1.174,1.174,0,0,0,0-2.347Z" class="colorfafafa svgShape" data-name="Path 4327" transform="translate(-241 -144.601)"/></g></g></g></g></svg></svg>