<svg xmlns="http://www.w3.org/2000/svg" xmlns:svgjs="http://svgjs.com/svgjs" xmlns:xlink="http://www.w3.org/1999/xlink" width="288" height="288"><svg xmlns="http://www.w3.org/2000/svg" width="288" height="288" viewBox="0 0 100 100"><g class="color000 svgShape" data-name="Group 751" transform="translate(-753 -5547)"><circle cx="50" cy="50" r="50" fill="#344056" class="colorf95665 svgShape" data-name="Ellipse 317" transform="translate(753 5547)"/><g class="color000 svgShape" data-name="593369"><g class="color000 svgShape" data-name="Group 737" transform="translate(783 5577)"><path fill="#fafafa" d="M39.761,11.752a.118.118,0,0,0-.009-.045,14.247,14.247,0,0,0-1.1-3.4.583.583,0,0,0-.055-.118,14.4,14.4,0,0,0-1.7-2.72.588.588,0,0,0-.089-.116L36.8,5.338a14.489,14.489,0,0,0-2.19-2.181l-.01-.015a.586.586,0,0,0-.119-.091,14.393,14.393,0,0,0-2.73-1.684.578.578,0,0,0-.116-.054A14.242,14.242,0,0,0,28.21.232L28.165.223A14.413,14.413,0,0,0,23.68.134h-.006A14.4,14.4,0,0,0,11.55,11.55a14.307,14.307,0,0,0-4.432,1.681.587.587,0,1,0,.593,1.013,13.118,13.118,0,0,1,3.647-1.452,14.407,14.407,0,0,0,.136,4.1.2.2,0,0,0,.009.048,14.24,14.24,0,0,0,1.081,3.42.582.582,0,0,0,.055.117,14.4,14.4,0,0,0,1.684,2.729.586.586,0,0,0,.091.119l.014.013a14.493,14.493,0,0,0,2.181,2.191l.013.015a.586.586,0,0,0,.116.089,14.394,14.394,0,0,0,2.72,1.7.581.581,0,0,0,.118.055,14.243,14.243,0,0,0,3.4,1.1l.044.008a14.384,14.384,0,0,0,4.184.152A13.189,13.189,0,1,1,5.311,16.043a.587.587,0,1,0-.806-.854A14.364,14.364,0,1,0,28.45,28.45,14.4,14.4,0,0,0,39.88,16.22v-.011a14.433,14.433,0,0,0-.121-4.457ZM36.336,6.661a13.215,13.215,0,0,1,1.051,1.716l-10.4,10.4a14.413,14.413,0,0,0-1.08-1.688ZM35.6,5.734,25.162,16.174a14.468,14.468,0,0,0-1.387-1.381l10.44-10.44A13.312,13.312,0,0,1,35.6,5.734Zm-2.318-2.11L22.852,14.056a14.409,14.409,0,0,0-1.695-1.073l10.4-10.4a13.2,13.2,0,0,1,1.727,1.041ZM28.273,1.439a13.079,13.079,0,0,1,2.138.63L20.038,12.441a14.248,14.248,0,0,0-2.059-.708ZM24.01,1.274a13.253,13.253,0,0,1,1.626-.1c.4,0,.8.019,1.188.054L16.6,11.447a14.416,14.416,0,0,0-2.241-.175c-.119,0-.238,0-.358.006Zm-2.1.435-8.932,8.932A13.244,13.244,0,0,1,21.914,1.71ZM12.5,15.552c-.035-.391-.054-.787-.054-1.188a13.257,13.257,0,0,1,.1-1.627l.19-.189a13.229,13.229,0,0,1,1.628-.1c.4,0,.8.019,1.188.054ZM12.711,17,17,12.711a13.061,13.061,0,0,1,2.138.63l-5.8,5.8A13.081,13.081,0,0,1,12.711,17ZM14.9,22.012a13.206,13.206,0,0,1-1.043-1.725l6.434-6.434A13.215,13.215,0,0,1,22.012,14.9Zm.73.931,7.317-7.317a13.32,13.32,0,0,1,1.388,1.38L17.006,24.33a13.305,13.305,0,0,1-1.38-1.387Zm2.307,2.121,7.131-7.131a13.2,13.2,0,0,1,1.051,1.716l-6.466,6.466a13.23,13.23,0,0,1-1.72-1.051Zm4.987,2.208a13.064,13.064,0,0,1-2.128-.64l5.84-5.84a13.08,13.08,0,0,1,.64,2.128Zm4.546-.118-.312.312a13.258,13.258,0,0,1-1.518.088q-.645,0-1.275-.062L27.5,24.361c.04.42.062.845.062,1.275a13.258,13.258,0,0,1-.092,1.518Zm.781-5.209a14.251,14.251,0,0,0-.717-2.05L37.9,9.52a13.073,13.073,0,0,1,.64,2.128Zm.976,5.112,9.107-9.107a13.243,13.243,0,0,1-9.111,9.108Zm9.515-11.176L28.725,25.9v-.26a14.39,14.39,0,0,0-.188-2.319L38.764,13.089c.04.42.062.845.062,1.275a13.291,13.291,0,0,1-.088,1.518Z" class="colorfafafa svgShape" data-name="Path 4325"/></g></g></g></svg></svg>