<svg xmlns="http://www.w3.org/2000/svg" width="21.948" height="16.807" viewBox="0 0 21.948 16.807">
  <path id="Path_1833" data-name="Path 1833" d="M46.578,2.78a8.807,8.807,0,0,1-2.264,2.208s0,.3,0,.56a11.12,11.12,0,0,1-.557,3.3,11.958,11.958,0,0,1-1.6,3.3,12.556,12.556,0,0,1-2.578,2.8,11.492,11.492,0,0,1-3.484,1.911,13.519,13.519,0,0,1-4.494.725,13.035,13.035,0,0,1-6.968-1.911h1.08a9.105,9.105,0,0,0,5.609-1.812A4.48,4.48,0,0,1,28.706,13a4.136,4.136,0,0,1-1.6-2.109h.871a6.149,6.149,0,0,0,1.184,0A4.437,4.437,0,0,1,26.581,9.4a3.955,3.955,0,0,1-1.045-2.735h0a4.767,4.767,0,0,0,2.055.527,4.446,4.446,0,0,1-1.672-1.45,4.1,4.1,0,0,1-.523-2.01,3.965,3.965,0,0,1,.732-2.208,12.321,12.321,0,0,0,4.111,3.3A13.207,13.207,0,0,0,35.43,6.174a5.175,5.175,0,0,1,0-.989,4.011,4.011,0,0,1,1.324-3A4.382,4.382,0,0,1,39.854.77a4.547,4.547,0,0,1,3.31,1.351A9.2,9.2,0,0,0,46.02,1.1a4.338,4.338,0,0,1-1.986,2.34,9.5,9.5,0,0,0,2.543-.659Z" transform="translate(-24.63 -0.77)" fill="#fff"/>
</svg>
