<svg xmlns="http://www.w3.org/2000/svg" width="70.132" height="70.134" viewBox="0 0 70.132 70.134">
  <g id="_2353755" data-name="2353755" transform="translate(-0.007)">
    <g id="Group_353" data-name="Group 353" transform="translate(0.007)">
      <g id="Group_344" data-name="Group 344" transform="translate(48.558 32.783)">
        <path id="Path_2885" data-name="Path 2885" d="M357.783,251.038a6.931,6.931,0,0,1-2.07-.107A1.423,1.423,0,0,1,354.8,250c-.226-.736.121-1.19.7-1.944.449-.588,1.285-1.683,2.688-3.686a4.572,4.572,0,0,0,.718-1.394l.021-.16a.9.9,0,0,0-1.789-.109,1.368,1.368,0,0,1-2.684-.527,3.64,3.64,0,0,1,7.21.7,1.37,1.37,0,0,1-.011.174l-.044.343a1.369,1.369,0,0,1-.024.135,7.1,7.1,0,0,1-1.156,2.4c-.688.983-1.243,1.753-1.686,2.355.614,0,1.278-.009,1.912-.017h.018a1.368,1.368,0,0,1,.017,2.735c-1.283.016-2.218.023-2.9.023Z" transform="translate(-354.425 -239.248)" fill="#293345"/>
      </g>
      <g id="Group_345" data-name="Group 345" transform="translate(67.4 37.312)">
        <path id="Path_2886" data-name="Path 2886" d="M493.386,275.1a1.367,1.367,0,1,1,1.34-1.1A1.379,1.379,0,0,1,493.386,275.1Z" transform="translate(-492.02 -272.371)" fill="#293345"/>
      </g>
      <path id="Path_2887" data-name="Path 2887" d="M120.494,43.512a1.371,1.371,0,0,0-1.785.752l-.039.095a15.009,15.009,0,1,1,.033-11.414,1.37,1.37,0,0,0,2.537-1.033,17.716,17.716,0,0,0-16.282-11.043,22.136,22.136,0,1,0-22.1,23.321,22.288,22.288,0,0,0,4.872-.537A17.793,17.793,0,0,0,121.2,45.407l.047-.114a1.367,1.367,0,0,0-.754-1.781ZM82.855,41.455a19.36,19.36,0,1,1,19.369-20.4,17.749,17.749,0,0,0-15.07,19.927A19.525,19.525,0,0,1,82.855,41.455Z" transform="translate(-52.415)" fill="#293345"/>
      <path id="Path_2888" data-name="Path 2888" d="M78.2,371.165a3.64,3.64,0,0,0-7.21-.7,1.368,1.368,0,0,0,2.684.527.9.9,0,1,1,.887,1.081,1.368,1.368,0,0,0,0,2.735.9.9,0,1,1-.9,1.031.933.933,0,0,1-.009-.127,1.368,1.368,0,1,0-2.735,0,3.639,3.639,0,0,0,7.279,0,3.622,3.622,0,0,0-.8-2.272A3.621,3.621,0,0,0,78.2,371.165Z" transform="translate(-61.223 -317.15)" fill="#293345"/>
      <g id="Group_352" data-name="Group 352" transform="translate(17.721 9.403)">
        <g id="Group_347" data-name="Group 347" transform="translate(3.158)">
          <g id="Group_346" data-name="Group 346">
            <path id="Path_2889" data-name="Path 2889" d="M155.31,78.817a1.368,1.368,0,0,1-1.368-1.368V71.494h-.2a1.368,1.368,0,1,1,0-2.735h1.565a1.368,1.368,0,0,1,1.368,1.368v7.323A1.368,1.368,0,0,1,155.31,78.817Z" transform="translate(-152.377 -68.759)" fill="#293345"/>
          </g>
        </g>
        <g id="Group_349" data-name="Group 349" transform="translate(0 13.113)">
          <g id="Group_348" data-name="Group 348">
            <path id="Path_2890" data-name="Path 2890" d="M149.621,167.384h-18.97a1.368,1.368,0,1,1,0-2.735h18.97a1.368,1.368,0,1,1,0,2.735Z" transform="translate(-129.283 -164.649)" fill="#293345"/>
          </g>
        </g>
        <g id="Group_351" data-name="Group 351" transform="translate(0 18.56)">
          <g id="Group_350" data-name="Group 350" transform="translate(0 0)">
            <path id="Path_2891" data-name="Path 2891" d="M144.151,207.209h-13.5a1.368,1.368,0,1,1,0-2.735h13.5a1.368,1.368,0,0,1,0,2.735Z" transform="translate(-129.283 -204.474)" fill="#293345"/>
          </g>
        </g>
      </g>
      <path id="Path_2892" data-name="Path 2892" d="M13.853,337.193A13.846,13.846,0,1,1,27.7,323.346,13.862,13.862,0,0,1,13.853,337.193Zm0-24.958a11.111,11.111,0,1,0,11.111,11.111A11.124,11.124,0,0,0,13.853,312.235Z" transform="translate(-0.007 -267.059)" fill="#293345"/>
    </g>
  </g>
</svg>
