<svg xmlns="http://www.w3.org/2000/svg" xmlns:xlink="http://www.w3.org/1999/xlink" width="1448.76" height="349.86" viewBox="0 0 1448.76 349.86">
  <defs>
    <filter id="Path_4338" x="0" y="0" width="1448.76" height="349.86" filterUnits="userSpaceOnUse">
      <feOffset dy="3" input="SourceAlpha"/>
      <feGaussianBlur stdDeviation="3" result="blur"/>
      <feFlood flood-opacity="0.161"/>
      <feComposite operator="in" in2="blur"/>
      <feComposite in="SourceGraphic"/>
    </filter>
  </defs>
  <g id="Group_755" data-name="Group 755" transform="translate(3507 -3183)">
    <g transform="matrix(1, 0, 0, 1, -3507, 3183)" filter="url(#Path_4338)">
      <path id="Path_4338-2" data-name="Path 4338" d="M40.34,513.87c-2.81,7.26-10.19,6.35-16.1,10.76L34.13,527c2,6.05-13.61,9.1-23.58,7.86l-3.35,4.7,5.67-1.24c1.11,6.68,5,1.09,8,1.78a57.147,57.147,0,0,0-.53,8c0,.77,1.77,1.92,2.79,2,1.24.1,2.56-.74,4.63-1.45-5.4,4.68-5.4,4.68-4.29,7.09l-4.48,2.92,2.54,4.38,9.12-4.7.57,1L26.35,563l3.15,4.28c-2.66,1.6-4.81,3.23-7.2,4.24-3.58,1.52-4.39,3.48-1.87,5.76l6.86,2.75,5-4.54c2,13.09,10,9.79,18.44,7.82l-1.38,6.49c.79,1.75.46,3.53.86,5.11.72,2.84,2.23,8,2.8,7.93,3.78-.6,4.43,3.08,6.77,4.11l-6,7.55,6.28,8-1,1.24,3.56,3.23-7.17,5v1.29l7.3.61.86,1.65-3.13,3.51c4.68,1.62,8,.08,10.72-4.53l5.46.31-6.17,4.21,2,2.7L67.85,645c2.07.68,3,1.08,3.93,1.27s2.12.25,4.18.47l-4.33,3.13c2.86,4,6.52,3.24,11.29-2.27l4.21,1.59A4.68,4.68,0,0,0,89,652.42c2,1.14,4.73,1.44,6.13,3.07,1.78,2.09,3.09,2.4,5.32,1.28,7.5-3.77,15.14-2.3,22.77-.93l.07,1.19H115.5l-1.58,6.53,4.63-2.33,1.4,1.66-5.3,6.76,2.17,1.11-5.46,8.17c5.63.44,7.75-3.53,10.12-6.47,2-2.43,2.42-2.81,4.82-.61l-4.54,7.53,1.14,1.31c1.62-1.24,3.58-2.2,4.77-3.8s1.59-3.84,2.4-6c2.82,3.55,3.38,3.65,9,2L134.79,691c4.86-.88,6.44-4.16,7.53-7.57,5.14,1.82,4.16-4.81,7.51-5.83l3.91,1.57c-4.46,2.35-2.25,4-.64,5l-2.82,11c5.52-3,6.62-6.95,6.12-11.69l5.39-3.3-1.25-3,.68-.79,5.42,3.86,6-4.6-.52,10.12c5.23-3.36,4.59-7.5,3.88-10.7l4.94-7.7c.42.19,1.81,1.4,2.72,1.08,1.57-.57,4.13-2.25,4-3.16-.53-4.37,1.6-4.79,4.2-4.51l4.24-9.73,13.34,18.76c5.73-7.2,2.57-13.72,1.27-20.52l18.78,16.66c5-4.84-1.86-7.47-1.88-11.69l12.91,11.05c4.36-1.69,1.49-4.15.78-6a42.865,42.865,0,0,0-3.29-5.83l.72-1c2.64,2.76,5,1.71,8.09.95,3.72-.93,8,.56,12,.81,3.05.19,6.13-.08,9.18.12,4.63.32,9.24,1.06,13.87,1.28,7.21.34,14.44.41,21.66.54,5.54.1,11.11.47,16.63.12a117.787,117.787,0,0,1,30.31,1.44c3.37.65,7,.25,10.45-.09,4.16-.4,8.63-2.64,12.35-1.61,6.81,1.88,13.13-.6,19.63-.79,7.49-.21,14.91-3.22,22.49-.43.42.15,1,.49,1.27.32,6.56-4.68,14.37.25,21.19-3.14,3-1.49,6.52-1.81,9.8-2.67,4.42-.12,8.92-.77,13.44-1.13,3.43-.27,6.89-.08,10.33-.28a12.694,12.694,0,0,0,3.68-1c4-1.52,8.19-4.83,11.81-4.21,4,.68,7.26-.53,10.86-.58a8.07,8.07,0,0,1,4.86,1.41c7.07,5.6,14.41,9.94,23.74,9.18,1.81-.15,3.76,1.68,5.65,2.6l-.34,1.14,12.79-.65-1-2.37c4.2-.72,6.27,1.24,6.52,5.22,4,.7,7.59,1,9.1-4.43,3.65,6.47,7.51.55,11.51.61l-2.67,4c5.73,4.33,10.5,2.49,14.74-2.44,2,6,6.56,7.49,10.57,7.29,10-.49,20-2.1,29.31-3.18,1.31-1.68,2.17-3.86,3.31-4a40.526,40.526,0,0,1,10.62-.28c3.86.43,7.65,2.31,11.47,2.31,5.07,0,10.16-1.08,15.19-2,1.76-.31,3.38-1.46,5.89-2.61l16.39,3.13-3.31,2.48,4.4,1.67,1.9-7.05c6.19,2.15,12.45,5.41,19,6.27,6.29.83,12.87-.81,19.35-1.37v2.45l3-2.18,1.55,3.62.54-4.07a17.29,17.29,0,0,1,3.07,1.32,10.518,10.518,0,0,1,1.78,2.07c3.56-1.49,7.6-1.22,9.92,2.68,3.12,5.24,4.81,5.36,10,3.58,3.45-1.19,7.31-2.29,10.79-1.82,4.2.56,6.77-.15,8.22-4.46a13.283,13.283,0,0,1,1.85-2.79l4.33,2.89-3.55,2.58c5.36,2.5,4-4,6.56-4.45l7.77-.85a8.31,8.31,0,0,0,10.64,6.39c6.87-2,14.29-3.94,19.64-9.87,1.2-1.32,4-2.64,3.81-3.49-.89-4.64,2.15-2.5,3.76-2.8l.34-2.67c3.79,6.4,2.11,10.22-4.21,12.42-3.06,1.06-5.77,3.24-7.69,4.37.73,2.58,1.68,4.25,1.46,5.73-.16,1-1.93,1.79-2.95,2.63,3,2.54,3.49,2.17,5.58-4.55l4.32.67-.39-1.13,9.16-3.78.3-2.23c2.08-1.61,3.82-2.42,4.79-3.82a64.629,64.629,0,0,0,3.9-7.49l-1.6-1.78,7.18,1,.65,1.72c2.53.71,4.45.67,5.28,1.66s.43,2.94.6,4.64c6-2.46-.23-5.09-.17-7.5l3.37-2.62,2.13,3.48c1.92-.58,3.19-1,4.5-1.33s2.8-.47,4.4-.72l-1.6,2.24,2.49,6.58-5.55.89c2.18.84,4,1.89,4.23,1.58a50.655,50.655,0,0,0,3.52-5.68c2.76.68,5.54,1.52,8.38,2,.63.1,2-1.2,2.1-1.94.37-5,4.91-6.9,7.33-10.22,1.69-2.33,6.3-2.42,9.67-3.2,4.21-1,8.49-1.61,12.92-2.43l7.34,5-4.54-.48-.17,1,4,1.18-9.75,12.38c4.9,1.11,5.66,4,3.6,8.52,4.68-2.12,2.1-5.38,2.44-8.1,6.78,2.33,5.72-7.61,10.59-7.32l-2.52-6.87c6-2.14,11.06-9.17,17.08-1.5,6.13-2.67,6.15-2.7,12.72-.12,3.38,1.33,6.71,2.81,10.06,4.22l.48-.93-4.64-3.51,3.63-1.13c1.1,1.37,1.95,2.53,2,2.49,1.65-1.21,3.22-2.54,4.82-3.87l19,8.82-3.06,2.54c2.1-.17,3.76.23,4.33-.43,4.27-4.94,10.25-4.89,15.66-5.82,8.81-1.52,15.79,2.87,21,10,3.63,5,6,6.15,11.78,3.79l4.15,3.83,11.41-9.42,3.85,5,7.92-3.43,6.67,8.57-.88,1.71,9.2-1.68,7.08,3.54,3-2.94,4,2.47c3.43-7,9.44-9.41,16.75-9.27l-.52-1.42h-5.14l-.15-1.17a35.476,35.476,0,0,0,5.8-1.12A21.924,21.924,0,0,0,1118,650l-.84-1.36-5.17,1.73-.64-3.59c-2.14-.44-4.47-.31-4.83-1.14-.53-1.2.36-3.11.8-5.61l-3.56-4.19-.76.63-1.36-4.61,3-1.89,3.22,4.64c7.35-6.66,8.56-6.89,15.45-1.72,1.24.93,1.55,3.25,2.54,5.51,3.88-.34.6-4,.94-6.26h7.85l-1.15,7.26-3.1,1.18,6.06,1.3-3.6,2.33c4.85,1.82,7.32.48,8.49-4.31l7.86-1.64.17-2.29c3.2-1.24,6.67-2.23,7.66,1.94,1,4.37,4.26,4.65,7.08,6.12a7.931,7.931,0,0,1,1.12-.86c2.7-1.35,6.45-4.52,7.91-3.61,2.74,1.7,7,4,5.61,9.24-.15.57.6,1.45,1,2.13,1.27,2,2.48,4.1,3.91,6a58.737,58.737,0,0,0,4.14,4.45l.58-3c8.63,3.77,14.64-6.24,23.16-4.49l-1.53-4.19c2.74,1.32,4.29,2.18,5.91,2.82,3.31,1.3,6.63.48,8.85,6,2.06,5.14,9,8.11,15.6,5.73,1.05-.38,1.84-1.57,3-2.57,4.65,1.26,9.63-2.93,9.4-9.07,1.6.94,2.92,1.77,4.3,2.52,1.11.6,2.33,1.67,3.39,1.55,5.64-.68,11.25-1.65,16.86-2.58.7-.12,1.93-.48,2-.8.27-4.11,3.58-2.86,5.5-3.16,2.36-.36,4.88.43,7.2.71l.68-5.68c5.42.27,3.71,5.73,5.08,7.26l7.45.86,2.54-7.1h11.85c3.06-2.46,11.08-1.67,15.38,1.81l43.84-2.36-3.82-1.14c4.25-2.34,7.86-.4,11.59,1.23,4,1.76,8.15,3.23,12.39,4.89l1.18-4.75-1.08.82-8.89-9.41c9-3.14,18.14-3.21,27.84-3.09l-2.56-5.28,3.35-.77-3.63-3.59,6-6.92a3,3,0,0,0-3.07,1,12.39,12.39,0,0,0-1.14,3l-3.73-1.77,2.77-.57c-6.65-.51-6.66-.51-6-5.3,3.77-.84,8.95,1.21,10.94-5.11l9.4-3.2c-7.74-1.68-4-6.87-4-10.6l-23-4.47c2.17-1.38,3.89-3,5.89-3.63,3.5-1.16,7.17-1.76,10.77-2.59-.74-4.14-1.84-5-4.68-5.58-4.2-.88-8.27-2.39-12.4-3.63l.13-.93,8-2.66-1.9-5.18-8.34-3,4.77-2.52-7.51-10.3.77-.62-7.65-2.13.39-1.47h2.17l-5.49-9.47,23.56-10.09c3,1.44,4-2.63,6.73-4.58l-6.94-3.31,12.38-5.77-.12-1.2-6.76-1c3.58-4.94,11.19-2.34,14.25-8l-13.88-5.2,19.25-4.09c-2.25-3.41-1.77-6.29,1.19-8l-15.8-8.22,4.8-2.15,1.74-6-1.58-5.47-19.61-2v-1.29l7.56-6.1L1412.18,444h-7l5.59,7.15c-5.28,2.05-9.52,6.93-16.59,5.09l3.32-2.06c-16.88.93-33.29-3.93-48.5,2.87l-8.88-7,.3-1.77,7.7-3.12-4-5.63.39-.43,2.19,1.38.51-.81-3.68-2.7,8-3.8-.18-1.33-6-1.56,4.19-5.91c-3.33-1.73-16.33,1.46-20.18,4.15l3-4.54,10.12-2.35-2.73-3.19,4.26-.94,1.26-5.37-7.87,6.33-5.21-2.06-2.13,4c-3.44-1.59-.61-9.05-6.93-8.06v3l-11.48-2c1.12-3.39,4.14-7.75-2.92-7.44-.19,0-.45-.76-.62-1.19-1.07-2.65-2.41-2.6-4.46-.89-4.81,4-6.57,3.52-9-1.63l-4.93,4.78-12-9.93c-1.37,1.84-1.71,4.67-5.77,2.54-3.46-1.82-8.27-.82-12.48-1-2.37-.08-5-.61-7,.25s-3.31,3.18-5.06,5l-2.33-8.71,3.25-2.4c-7.09,1.2-13.91,2.61-20.62-1.31l3.34-1.35c-3.8-.6-6.42-4.08-9.33-.24-3.46-6-13.15-5.7-26,.86l.64-6.25-9.88-6.54-2.89,2.16c-.06-3.9-1.72-5.11-5.14-4.44-2.34.46-4.83.09-7.6.09l-.72-1.7-9.87,9.83c.44,4.12-4.61,7.64-11.82,7l-.61,2.84-5.1-.83,1.86-3c-3.76-.8-7.92-.76-11.07-2.62-3.43-2-6.71-3.89-10.59-4.26-2.56-.24-5.15,0-7.73,0l-.67-4.13h-1.06l-1.6,6.11-1.09-.49-7.58,10.25-.39,8.28c-1.46.4-2.72.36-3.37,1s-.6,2.35-1.31,3.08c-2.51,2.59-10.94-1.06-12.38-5.55l-8.69,3.83c-1.14,7.6-1.14,7.6-11.06,7v-4.51l-.61,1.31-10-2.06c1.92-6.32-3.28-5.72-6.32-6.83-1.13-.41-2.89,1.12-4.43,1.8,2.26.91,3.5,1.38,4.71,1.93.13.06.08.55.13,1h-2.69l1.32,2.41c-.82,2-2.08,3.49-1.79,4.54,1.09,3.88,2.69,7.61,4.19,11.61-3.11,1.63-5.88,2.68-8.25-1.94-.77-1.5-3.55-1.85-5.38-2.71l2.33-9.87H1034c1,1.19,2.62,2.49,2.42,3.06a31.769,31.769,0,0,1-2.9,5.35h-4.25l3.92,10.29c-9.62-.75-12.61-10.09-19-13.87l-3.93,6.73-3.82-3.19,1.82-5.75c1.76-.62,3.73-.8,3.88-1.45a41,41,0,0,0,.6-7.28c.07-1.56,0-3.13,0-4.59l6.45.52v-5.43l6.76,2.59c1.19-3.56-.52-5.28-4.36-5.42-2.44-.09-4.85-1.08-7.28-1.67l.36-1.58,6.84.5.16-1.5-10.2-2-1.24,2.32c-2.3-3-4.51-6.12-6.94-9-1.58-1.88-3.15-5.27-5.95-1-.31.46-2.06-.14-3.51-.29l3.37-5.19-13.6,6.72c-2.53-.22-4.45-.26-6.33-.58-4.51-.76-4.5-.81-5.69.87l2.62.27-9.26,7.18,3.72,1.18-6.14,3.15c-1.92-4.89-6-4-7.87-5.26L948,394l-3-1.63,2.09-3.63L935,379l-6.44,7.17L927,381.12c-2.36,2.78-4.13,4.76-6.17.46l-5.92,9.61c-5.44,1.09-8.11,7.16-11.69,12.28l-1.59-4.07c-1.45,1-2.47,2.33-3.54,2.37a59.284,59.284,0,0,1-11.67-.33c-6.58-1.06-13.57-1.51-17.79-8.81l-3.83,1.73a40.072,40.072,0,0,1,3.64,2.89c.13.13-.55,1.76-.91,1.78a14.289,14.289,0,0,1-3.35-.52L862.6,402l-1.38-3.36-19.5,12.22,1.18-6.93H836v1l2.47,1.09-.45,1.47-8.53-2.68.06-1.56c-3.8,1.38-7.54,3.6-11.41,3.9s-7.82-1.35-11.58-2.1c0,.59.25,1.78-.17,2.2-2.26,2.29-9.68,2-12.39,0-2.56-1.84-5.42-3.22-8.15-4.81l.89-5.35,4.34-3L782,390l4.15-1.49c-3.94-.75-5.73-8-10.86-3.14,2.18-8.37,1.25-11.53-3.72-10.36,5,3,1.52,6.22,1,9.44l-3.88-.27c2.79,7.06,9.39,10.79,10.86,17.74l3.13,3.49-4.74.31,1.62,4.21-.73.33-3-5.09-.75,5.63-3.35.34-3.77-4.73-.75.59,1.8,3.51c-5.81-4.53-12.22-3.83-18.75-3.88l-.94-2.21a1.84,1.84,0,0,0-.55,1.29c-.31,1.18-.69,2.35-1,3.52l-1.2-.53a3.93,3.93,0,0,1,.44-1.2,6.891,6.891,0,0,1,1.37-1l-8.86-6.87,3.17.41.39-.74-5.84-4,1.27-1.78-3-.73c-.72-2.63-.8-5.57-1.83-6-1.64-.7-3.92.26-6.29.56l-.49-1.12-5.57,3.7-1.47-7.18c-4.16-2.38-4.16-2.38-6.61,1.56,8.71-2.91,2.71,5.38,5.55,7.44-4.35-2.46-3.12,1.23-3.2,3.5l-9.15-1.42L703.14,398l-3.78-3.61,2.33-4.86-6.46,3.72-1.81-2.84-2.12,5.48c-4.2-1.61-9.62,3.67-13-3.36l6.63,2.35.59-1.54-6.08-5.44,1.84-1.52L678.61,382l-5.3-.35v-4.94c-3.36-3-9.78.88-10.34-6.74l-6.22,2.12c-1.51-2.52.37-7.74-5.68-8.78l-1.63,2.37c1.47.82,3.4,1.22,3.84,2.29.69,1.7.38,3.86.5,5.94l-2.46-.45c-.11,3.89,1.38,5.14,4.53,5,2.24,1.61,3.57,3.2,5.17,3.62,6.6,1.73,7.74,2.92,7.86,9.49,6.2,2.49,6.2,2.49,4.91,6.75h-3v-4.73l-7.56,1.69-2.42-2.44,1.1-.78c-.79-1.23-1.34-2.82-2.41-3.63-3-2.24-7.42-3.44-8.89-6.39-1.81-3.64-4.42-3.18-6.89-4.13q-6-2.31-12.08-4.58l-8.24,1.51-5,7.18-10.18-1.37-1.67-3-6.7,4.73c-1.5-2.51-3.32-4.57-4-7-1-3.35-2.68-3.25-5.34-2.82-3.86.62-8.14,2.83-10.54-1-2.84-.53-5-.46-6.72-1.34-5-2.54-8.4-1.37-11.41,3.89-1.75,3.05-3.71,6.22-8.07,5.3-.88-.19-2,.76-2.94,1.17l-1.48-2.84-.94.13-.5,4.09-2.44-1.41-2.94,3.3-.46-4.91-.77-.06-1.05,3.57L536,379.24l.65,4.74c-2.1-1.13-3.44-2.34-4.88-2.5s-3.08.79-4.66,1a7.19,7.19,0,0,1-2.54-.33c-3.38-.73-6.92-2.58-10.08-2-5.73,1.06-11.22,3.53-16.8,5.46-3.31,1.14-6.6,2.35-9.26,3.3l-2.8-9.17-6,2,4.75,2.88v1.06c-4,.33-7.7.25-11.19,1-3.84.84-7.53,2.46-12.63,4.2,2.48-5.23-.1-4.79-2.24-5.17-4.39-.79-8.72-2.36-13.12-2.6s-9,.55-13.44,1.2c-3.9.57-7.73,2-11.63,2.27-3.27.22-6.61-.72-9.92-1.15l-.69,1.2-3.5-6c-5.85-2.66-12.75,1.39-18.74-2.76-1.48-1-4.36-1.87-5.44-1.07-4.17,3.08-8.08-.07-12-.17-5.72-.15-12.05,2.89-14,8.91l-5.59-2,2.32-1.31.07-1.36-11.68-1.5-.6,2.75-2.91-.52-.64.92,4.45,6.07c-3.42-1.28-5.94-2-8.27-3.16-3.26-1.62-5.49-1-6.43,3.1-1.47-2-2.35-4.12-3.88-5-1.11-.65-3,.23-4.6.47h0l-3.43-1.5c-.53,5.17-2.7,8.32-8.11,7.16l1-3.59L306.15,385l-.89,1.82L291,385.57l-.86,4.52c-5.06.4-10,.52-14.77,1.23a25,25,0,0,0-15.17,8c-2.18,2.35-5.25,3.81-8,5.48s-5.79,3.29-8.74,4.79a43.841,43.841,0,0,1-6.1,2.61,31.884,31.884,0,0,1-4.5.94l-7.8-8.41-1.18,4.85h-1.22l-.7-5.63-6.45,4.54.37-2.91h-3.49l1.19,4.49-1.1.62-2.36-4.5-5.66.36v-5.49c-1.57.93-3.25,1.49-3.23,2,.05,1.57.74,3.11,1.4,5.43l-7.74-4.92L193,409.1l-4.2-.63-2.7-8.41-1.07.39.33,2.84c-2.11,1.92-3.88,3.06-5,4.69-1.25,1.79-1.91,4-3.41,7.38-.88-4.43-2.72-4.74-6-4.59-2.5.12-6.7.06-8.27-4.34-.34-.95-3.63-1.77-4.84-1.13a82.628,82.628,0,0,0-13,8.38c-1.22,1-1.06,3.9-1.5,5.94-.3,1.39-.55,2.8-.83,4.2l-1.41-.21c-.25-2.83-1.31-5.93-.58-8.44,1.23-4.27-1-4.22-3-4.24l-2.25-5.6-1.75.23-.94,17.16-3.13.84-1.66-4.78c-1.17,1.38-2.72,2.55-2.55,3.13.54,1.8,1.74,3.39,3.32,6.18l-5.26,10L117.24,441l4,3-3.81,4.63-2.79-6.05-1.17.08c-.28,3.25,10.49,6.51,10.17,10.23-3.43-2.08-5.14-1.23-7.66,1-3.66,3.26-8.34,5.16-11.73,9.08-2.08,2.4-5.16,3.87-7,6.39-2.27,3-3.75,6.76-5.75,10.53l-2.51-2.45,3.27-5.63-3.71-1.58-2.21,4.09L80,471c-3.62,4.93-2.57,8.76,2,11.89L71.32,482l-.62,1.24,4.93,6.45L75.21,491c-7.17-7.23-11.54-.1-16.83,3.18a37.93,37.93,0,0,1,3.73-9.43c1.12-1.86,4.16-3.22,1.86-5.69-2.68-2.88-3.87,1.27-5.78,2.17-.23.11-.33.51-.49.78,1,6.3.59,6.61-8.34,6.3l-2.82,5.37,10,2.68-1.81,4.14c-5.26-.31-10.09-.72-14.92-.84-6.12-.16-7.14,1-7.58,6.37l6.92,2.11L39,509.48l-7.61.56-1.72,2.75-.57-1.21-8.18,2.23C27.26,518.65,33.65,519.06,40.34,513.87Zm1338.89-27.24c-1.49-2.34-2.46-5.15-4.35-6.45-1.7-1.17-4.42-.71-6.69-1l.41-2.1,13.71-1.55ZM1369,467l1,2.56,4.33.67-.24,1.36-7.12,1.33-.48-1.32ZM727.29,387.44ZM556.42,651.51l.68,1.59-4.79,4.1-2.3-4.35ZM317.94,384H318v.06l5.53,6.48c-2.74,3.05-5.2.89-8.84-.7l3.31-5.78ZM69.81,493.52l-5.89,5.7-1.6-5.7Z" transform="translate(1.8 -357.31)" fill="#fdfdff"/>
    </g>
    <text id="Minimum_Documentation" data-name="Minimum Documentation" transform="translate(-3342 3398)" fill="#344056" font-size="104" font-family="SegoeUI, Segoe UI" letter-spacing="-0.03em"><tspan x="0" y="0">Minimum Documentation</tspan></text>
  </g>
</svg>
