<svg xmlns="http://www.w3.org/2000/svg" xmlns:xlink="http://www.w3.org/1999/xlink" width="333" height="351" viewBox="0 0 333 351">
  <defs>
    <filter id="Rectangle_1007" x="0" y="0" width="333" height="351" filterUnits="userSpaceOnUse">
      <feOffset dy="3" input="SourceAlpha"/>
      <feGaussianBlur stdDeviation="3" result="blur"/>
      <feFlood flood-opacity="0.161"/>
      <feComposite operator="in" in2="blur"/>
      <feComposite in="SourceGraphic"/>
    </filter>
  </defs>
  <g id="Group_767" data-name="Group 767" transform="translate(-1514 -2332)">
    <g transform="matrix(1, 0, 0, 1, 1514, 2332)" filter="url(#Rectangle_1007)">
      <rect id="Rectangle_1007-2" data-name="Rectangle 1007" width="315" height="333" transform="translate(9 6)" fill="#fff"/>
    </g>
    <text id="Get_Funded" data-name="Get Funded" transform="translate(1681 2534)" fill="#344056" font-size="24" font-family="FuturaBT-Medium, Futura Md BT" font-weight="500" letter-spacing="0.024em"><tspan x="-67.215" y="0">Get Funded</tspan></text>
    <text id="Receive_project_funding_offers_within_30_days_and_disbursement_within_60_days" data-name="Receive project funding offers within 
30 days and disbursement within 
60 days" transform="translate(1527 2556)" fill="#344056" font-size="16" font-family="FuturaBT-Medium, Futura Md BT" font-weight="500"><tspan x="21.699" y="15">Receive project funding offers within </tspan><tspan x="33.25" y="45">30 days and disbursement within </tspan><tspan x="125.434" y="75">60 days</tspan></text>
    <g id="Group_762" data-name="Group 762" transform="translate(19351.293 -17632.395)">
      <path id="Path_4409" data-name="Path 4409" d="M731.288,106.28,705.54,150.857a5.064,5.064,0,0,1-4.388,2.532h-51.48a5.064,5.064,0,0,1-4.388-2.532L619.535,106.28a5.064,5.064,0,0,1,0-5.064L645.3,56.632a5.064,5.064,0,0,1,4.388-2.532h51.48a5.064,5.064,0,0,1,4.388,2.532l23.858,41.353,1.882,3.266A5.064,5.064,0,0,1,731.288,106.28Z" transform="translate(-18346.148 19959.471)" fill="#4b9d26"/>
      <path id="Path_4410" data-name="Path 4410" d="M737.767,109.019,712.019,153.6a5.064,5.064,0,0,1-4.388,2.532H671.341L660.37,145.156a5.065,5.065,0,0,0,1.916.371h39.209A5.064,5.064,0,0,0,705.883,143l19.6-33.951a5.064,5.064,0,0,0,0-5.064L706.845,71.65l29.04,29.04,1.882,3.266a5.064,5.064,0,0,1,0,5.064Z" transform="translate(-18352.627 19956.73)" fill="#1355e2"/>
      <path id="Path_4411" data-name="Path 4411" d="M721.289,108.247l-19.6,33.951a5.064,5.064,0,0,1-4.388,2.532H658.1a5.063,5.063,0,0,1-1.916-.371h0a5.064,5.064,0,0,1-2.447-2.144l-.422-.743-9.756-16.879-9.41-16.322a5.063,5.063,0,0,1,0-5.064l19.562-33.977A5.064,5.064,0,0,1,658.1,66.7H697.3a5.064,5.064,0,0,1,4.388,2.532l.954,1.688,18.643,32.3a5.064,5.064,0,0,1,0,5.03Z" transform="translate(-18348.428 19957.504)" fill="#fff"/>
      <path id="Path_4412" data-name="Path 4412" d="M681.822,110.273a15.115,15.115,0,0,1-.844,5.064,12.408,12.408,0,0,1-2.236,3.983,9.945,9.945,0,0,1-15.275,0,12.39,12.39,0,0,1-2.236-3.983,16.086,16.086,0,0,1,0-10.077,12.407,12.407,0,0,1,2.237-3.983,10.4,10.4,0,0,1,3.376-2.633,9.992,9.992,0,0,1,8.524,0,10.347,10.347,0,0,1,3.376,2.633,12.422,12.422,0,0,1,2.236,3.983,15.106,15.106,0,0,1,.844,5.013Zm-5.6,0a11.765,11.765,0,0,0-.371-3.047,7.7,7.7,0,0,0-1.055-2.388,5,5,0,0,0-1.62-1.536,4.034,4.034,0,0,0-2.051-.54,4.111,4.111,0,0,0-2.093.54,5.005,5.005,0,0,0-1.62,1.536,7.705,7.705,0,0,0-1.055,2.388,11.725,11.725,0,0,0-.371,3.047,11.493,11.493,0,0,0,.371,3.03,7.716,7.716,0,0,0,1.055,2.363,4.988,4.988,0,0,0,1.62,1.536,4.1,4.1,0,0,0,2.093.54,4.025,4.025,0,0,0,2.051-.54,4.98,4.98,0,0,0,1.62-1.536,7.72,7.72,0,0,0,1.055-2.363A11.526,11.526,0,0,0,676.227,110.273Z" transform="translate(-18352.635 19952.668)" fill="#1355e2"/>
      <path id="Path_4413" data-name="Path 4413" d="M699.509,109.385a10.684,10.684,0,0,1,3.857.684A9,9,0,0,1,706.438,112a8.828,8.828,0,0,1,2.009,3.013,10.608,10.608,0,0,1-.084,7.916,9.142,9.142,0,0,1-2.262,3.131,10.407,10.407,0,0,1-3.443,2.034,12.5,12.5,0,0,1-4.312.726,12.043,12.043,0,0,1-5.781-1.367,9.443,9.443,0,0,1-3.874-3.73l3.19-3.317a8.633,8.633,0,0,0,2.9,2.532,7.418,7.418,0,0,0,3.6.954,5.14,5.14,0,0,0,3.671-1.35,4.827,4.827,0,0,0-3.376-8.439,5.4,5.4,0,0,0-2.532.624,4.98,4.98,0,0,0-1.89,1.688h-4.853a8.941,8.941,0,0,1,.169-.937q.169-.844.414-2.076t.54-2.819q.287-1.553.625-3.173.743-3.815,1.688-8.541h14.516v5.064H696.851l-1.207,6.591a3.51,3.51,0,0,1,1.477-.844,7.46,7.46,0,0,1,2.388-.3Z" transform="translate(-18357.047 19952.484)" fill="#1355e2"/>
    </g>
  </g>
</svg>
