<svg xmlns="http://www.w3.org/2000/svg" xmlns:xlink="http://www.w3.org/1999/xlink" width="333" height="351" viewBox="0 0 333 351">
  <defs>
    <filter id="Rectangle_1004" x="0" y="0" width="333" height="351" filterUnits="userSpaceOnUse">
      <feOffset dy="3" input="SourceAlpha"/>
      <feGaussianBlur stdDeviation="3" result="blur"/>
      <feFlood flood-opacity="0.161"/>
      <feComposite operator="in" in2="blur"/>
      <feComposite in="SourceGraphic"/>
    </filter>
  </defs>
  <g id="Group_764" data-name="Group 764" transform="translate(-434 -2332)">
    <g transform="matrix(1, 0, 0, 1, 434, 2332)" filter="url(#Rectangle_1004)">
      <rect id="Rectangle_1004-2" data-name="Rectangle 1004" width="315" height="333" transform="translate(9 6)" fill="#fff"/>
    </g>
    <text id="Sign_Mandate" data-name="Sign Mandate" transform="translate(601 2534)" fill="#344056" font-size="24" font-family="FuturaBT-Medium, Futura Md BT" font-weight="500" letter-spacing="0.024em"><tspan x="-79.234" y="0">Sign Mandate</tspan></text>
    <text id="Upon_confirmation_of_eligibility_sign_funding_mandate_and_upload_detailed_project_documents" data-name="Upon confirmation of eligibility, sign funding mandate and upload detailed project documents" transform="translate(459 2556)" fill="#344056" font-size="16" font-family="FuturaBT-Medium, Futura Md BT" font-weight="500"><tspan x="9.238" y="15">Upon confirmation of eligibility, sign </tspan><tspan x="2.852" y="45">funding mandate and upload detailed </tspan><tspan x="74.996" y="75">project documents</tspan></text>
    <g id="Group_759" data-name="Group 759" transform="translate(13.104)">
      <path id="Path_4452" data-name="Path 4452" d="M265.349,261.013l-25.71,44.509a5.056,5.056,0,0,1-4.382,2.528h-51.4a5.056,5.056,0,0,1-4.382-2.528l-25.71-44.509a5.056,5.056,0,0,1,0-5.056l25.71-44.509a5.056,5.056,0,0,1,4.382-2.528h51.4a5.056,5.056,0,0,1,4.382,2.528l23.822,41.29L265.341,256A5.056,5.056,0,0,1,265.349,261.013Z" transform="translate(377.811 2172.254)" fill="#4b9d26"/>
      <path id="Path_4453" data-name="Path 4453" d="M271.881,263.779l-25.71,44.509a5.056,5.056,0,0,1-4.382,2.528H205.555L194.6,299.862a5.055,5.055,0,0,0,1.913.371h39.15a5.056,5.056,0,0,0,4.382-2.528l19.567-33.9a5.056,5.056,0,0,0,0-5.056L241,226.5l29,29,1.879,3.261A5.056,5.056,0,0,1,271.881,263.779Z" transform="translate(371.277 2169.488)" fill="#1355e2"/>
      <path id="Path_4454" data-name="Path 4454" d="M255.385,263l-19.567,33.926a5.056,5.056,0,0,1-4.382,2.528h-39.15a5.055,5.055,0,0,1-1.913-.371h0a5.056,5.056,0,0,1-2.452-2.14l-.421-.742-9.741-16.853-9.4-16.3a5.056,5.056,0,0,1,0-5.056l19.567-33.9a5.056,5.056,0,0,1,4.382-2.528h39.15a5.056,5.056,0,0,1,4.382,2.528l.952,1.685,18.614,32.249a5.056,5.056,0,0,1-.025,4.972Z" transform="translate(375.512 2170.262)" fill="#fff"/>
      <path id="Path_4455" data-name="Path 4455" d="M216.01,265.064a15.091,15.091,0,0,1-.843,5.056,12.387,12.387,0,0,1-2.233,3.977,9.93,9.93,0,0,1-15.252,0,12.388,12.388,0,0,1-2.233-3.977,16.078,16.078,0,0,1,0-10.061,12.4,12.4,0,0,1,2.233-3.977,10.391,10.391,0,0,1,3.371-2.629,9.986,9.986,0,0,1,8.511,0,10.331,10.331,0,0,1,3.371,2.629,12.4,12.4,0,0,1,2.233,3.977A15.075,15.075,0,0,1,216.01,265.064Zm-5.587,0a11.712,11.712,0,0,0-.371-3.042A7.71,7.71,0,0,0,209,259.637a5.006,5.006,0,0,0-1.618-1.534,4.027,4.027,0,0,0-2.048-.539,4.1,4.1,0,0,0-2.09.539,5,5,0,0,0-1.618,1.534,7.71,7.71,0,0,0-1.053,2.385,11.7,11.7,0,0,0-.371,3.042,11.469,11.469,0,0,0,.371,3.025,7.719,7.719,0,0,0,1.053,2.359,4.989,4.989,0,0,0,1.618,1.534,4.1,4.1,0,0,0,2.09.539,4.019,4.019,0,0,0,2.048-.539A4.989,4.989,0,0,0,209,270.449a7.728,7.728,0,0,0,1.053-2.36,11.467,11.467,0,0,0,.379-3.025Z" transform="translate(371.271 2165.398)" fill="#1355e2"/>
      <path id="Path_4456" data-name="Path 4456" d="M223,277.318a17.981,17.981,0,0,1,.286-3.371,9.135,9.135,0,0,1,1.011-2.8,9.38,9.38,0,0,1,1.989-2.4,17.976,17.976,0,0,1,3.211-2.191l3-1.593a24.228,24.228,0,0,0,2.174-1.264,5.435,5.435,0,0,0,1.323-1.18,2.233,2.233,0,0,0,.455-1.39,2.764,2.764,0,0,0-.994-2.132,4.146,4.146,0,0,0-2.857-.893,5.9,5.9,0,0,0-1.82.27,6.926,6.926,0,0,0-1.551.725,8.836,8.836,0,0,0-1.323,1.011,11.09,11.09,0,0,0-1.1,1.18l-3.564-4.1a9.27,9.27,0,0,1,1.534-1.264,14.823,14.823,0,0,1,2.343-1.281,17.2,17.2,0,0,1,2.983-.994,14.923,14.923,0,0,1,3.5-.4,12.64,12.64,0,0,1,3.767.514,8.25,8.25,0,0,1,2.8,1.449,6.219,6.219,0,0,1,1.736,2.233,6.741,6.741,0,0,1,.6,2.84,5.848,5.848,0,0,1-.539,2.528,7.712,7.712,0,0,1-1.365,1.989,10.428,10.428,0,0,1-1.8,1.508q-.969.64-1.888,1.138l-1.685.952q-.952.539-1.888,1.18a19.588,19.588,0,0,0-1.685,1.323,6.16,6.16,0,0,0-1.2,1.348H243v5.014Z" transform="translate(366.809 2165.277)" fill="#1355e2"/>
    </g>
  </g>
</svg>
