<svg xmlns="http://www.w3.org/2000/svg" width="23.846" height="23.846" viewBox="0 0 23.846 23.846">
  <g id="_901171" data-name="901171" transform="translate(-0.001)">
    <g id="Group_665" data-name="Group 665" transform="translate(14.705 0)">
      <g id="Group_664" data-name="Group 664">
        <path id="Path_3891" data-name="Path 3891" d="M316.123,0a.4.4,0,1,0,0,.795,7.958,7.958,0,0,1,7.949,7.949.4.4,0,0,0,.795,0A8.753,8.753,0,0,0,316.123,0Z" transform="translate(-315.726)" fill="#4b9d26"/>
      </g>
    </g>
    <g id="Group_667" data-name="Group 667" transform="translate(14.705 2.385)">
      <g id="Group_666" data-name="Group 666">
        <path id="Path_3892" data-name="Path 3892" d="M316.123,51.2a.4.4,0,1,0,0,.795,5.57,5.57,0,0,1,5.564,5.564.4.4,0,1,0,.795,0A6.366,6.366,0,0,0,316.123,51.2Z" transform="translate(-315.726 -51.2)" fill="#4b9d26"/>
      </g>
    </g>
    <g id="Group_669" data-name="Group 669" transform="translate(14.705 4.769)">
      <g id="Group_668" data-name="Group 668">
        <path id="Path_3893" data-name="Path 3893" d="M316.123,102.4a.4.4,0,1,0,0,.795,3.183,3.183,0,0,1,3.179,3.179.4.4,0,1,0,.795,0A3.979,3.979,0,0,0,316.123,102.4Z" transform="translate(-315.726 -102.4)" fill="#4b9d26"/>
      </g>
    </g>
    <g id="Group_671" data-name="Group 671" transform="translate(0.001 0)">
      <g id="Group_670" data-name="Group 670">
        <path id="Path_3894" data-name="Path 3894" d="M21.508,14.913a14.524,14.524,0,0,1-3.169-.788,2.728,2.728,0,0,0-2.866.611L14.216,15.99A18.135,18.135,0,0,1,7.825,9.611L9.082,8.357A2.715,2.715,0,0,0,9.694,5.5,14.465,14.465,0,0,1,8.9,2.331,2.724,2.724,0,0,0,6.192,0H2.715c-.081,0-.162,0-.242.011A2.712,2.712,0,0,0,.013,2.961a23.366,23.366,0,0,0,3.618,10.2,23.123,23.123,0,0,0,7.073,7.06,23.482,23.482,0,0,0,10.183,3.613q.123.011.247.011h.008a2.716,2.716,0,0,0,2.7-2.72V17.66A2.713,2.713,0,0,0,21.508,14.913Zm1.544,2.732v3.481a1.921,1.921,0,0,1-1.912,1.924c-.062,0-.122,0-.174-.007a22.684,22.684,0,0,1-9.832-3.492A22.331,22.331,0,0,1,4.3,12.731,22.568,22.568,0,0,1,.8,2.883,1.918,1.918,0,0,1,2.544.8C2.6.8,2.658.794,2.715.794h3.5a1.924,1.924,0,0,1,1.9,1.644,15.258,15.258,0,0,0,.833,3.338A1.918,1.918,0,0,1,8.519,7.8L7.047,9.265a.4.4,0,0,0-.065.478,18.927,18.927,0,0,0,7.1,7.089.4.4,0,0,0,.477-.064l1.47-1.467a1.931,1.931,0,0,1,2.028-.431,15.3,15.3,0,0,0,3.34.831A1.917,1.917,0,0,1,23.052,17.645Z" transform="translate(-0.002 0)" fill="#4b9d26"/>
      </g>
    </g>
    <g id="Group_673" data-name="Group 673" transform="translate(1.589 1.59)">
      <g id="Group_672" data-name="Group 672">
        <path id="Path_3895" data-name="Path 3895" d="M38.47,34.134H35.222c-.033,0-.066,0-.1,0a1.123,1.123,0,0,0-1.022,1.2,22.7,22.7,0,0,0,.809,4.077.4.4,0,0,0,.381.284.393.393,0,0,0,.114-.017.4.4,0,0,0,.267-.494,21.871,21.871,0,0,1-.779-3.927.316.316,0,0,1,.077-.213.35.35,0,0,1,.253-.118H38.47a.4.4,0,0,0,0-.795Z" transform="translate(-34.097 -34.134)" fill="#4b9d26"/>
      </g>
    </g>
    <g id="Group_675" data-name="Group 675" transform="translate(16.693 17.487)">
      <g id="Group_674" data-name="Group 674">
        <path id="Path_3896" data-name="Path 3896" d="M363.563,375.467a.4.4,0,0,0-.4.4v3.243a.331.331,0,0,1-.1.236.324.324,0,0,1-.224.1h-.037a21.859,21.859,0,0,1-3.9-.777.4.4,0,1,0-.228.761,22.66,22.66,0,0,0,4.05.807c.033,0,.1,0,.109,0a1.125,1.125,0,0,0,1.122-1.131v-3.241A.4.4,0,0,0,363.563,375.467Z" transform="translate(-358.396 -375.467)" fill="#4b9d26"/>
      </g>
    </g>
  </g>
</svg>
