<svg xmlns="http://www.w3.org/2000/svg" xmlns:svgjs="http://svgjs.com/svgjs" xmlns:xlink="http://www.w3.org/1999/xlink" width="288" height="288"><svg xmlns="http://www.w3.org/2000/svg" width="288" height="288" viewBox="0 0 100 100"><g class="color000 svgShape" data-name="Group 748" transform="translate(-1125 -5540)"><circle cx="50" cy="50" r="50" fill="#344056" class="colorf95665 svgShape" data-name="Ellipse 320" transform="translate(1125 5540)"/><g class="color000 svgShape" data-name="2413068" transform="translate(1139.008 5554)"><path fill="#fafafa" d="M67.441,80.566a.668.668,0,0,1-.659-.783,16.051,16.051,0,0,1,13-13,.668.668,0,1,1,.231,1.316A14.712,14.712,0,0,0,68.1,80.014.668.668,0,0,1,67.441,80.566Z" class="colorfafafa svgShape" data-name="Path 4331" transform="translate(-46.541 -46.533)"/><path fill="#fafafa" d="M280.655,293.793a.668.668,0,0,1-.115-1.326,14.712,14.712,0,0,0,11.916-11.916.668.668,0,1,1,1.316.231,16.051,16.051,0,0,1-13,13A.672.672,0,0,1,280.655,293.793Z" class="colorfafafa svgShape" data-name="Path 4332" transform="translate(-242.029 -242.033)"/><circle cx=".5" cy=".5" r=".5" fill="#fafafa" class="colorfafafa svgShape" data-name="Ellipse 321" transform="translate(19.992 35.961)"/><circle cx=".5" cy=".5" r=".5" fill="#fafafa" class="colorfafafa svgShape" data-name="Ellipse 322" transform="translate(35.954 20)"/><circle cx=".5" cy=".5" r=".5" fill="#fafafa" class="colorfafafa svgShape" data-name="Ellipse 323" transform="translate(50.917 35.961)"/><circle cx=".5" cy=".5" r=".5" fill="#fafafa" class="colorfafafa svgShape" data-name="Ellipse 324" transform="translate(35.954 50.925)"/><path fill="#fafafa" d="M35.993,56a20,20,0,1,1,14.142-5.858A20,20,0,0,1,35.993,56Zm0-38.667a18.667,18.667,0,1,0,13.2,5.467,18.667,18.667,0,0,0-13.2-5.467Z" class="colorfafafa svgShape" data-name="Path 4333"/><path fill="#fafafa" d="M202.018,162.672h-2.233a4.011,4.011,0,0,0-.794-1.336h3.027a.668.668,0,0,0,0-1.336h-9.351a.668.668,0,0,0,0,1.336h3.34a2.673,2.673,0,0,1,2.313,1.336h-5.652a.668.668,0,0,0,0,1.336h6.011a2.675,2.675,0,0,1-2.672,2.672h-3.34a.668.668,0,0,0-.513,1.1l6.679,8.015a.668.668,0,1,0,1.026-.855l-5.766-6.919h1.914a4.012,4.012,0,0,0,4.007-4.007h2a.668.668,0,1,0,0-1.336Z" class="colorfafafa svgShape" data-name="Path 4334" transform="translate(-161.35 -132.015)"/></g></g></svg></svg>