<svg xmlns="http://www.w3.org/2000/svg" width="43.219" height="33.784" viewBox="0 0 43.219 33.784">
  <g id="_1577881" data-name="1577881" transform="translate(-8 -62)">
    <path id="Path_3289" data-name="Path 3289" d="M49.127,65.349A3.348,3.348,0,0,0,45.816,62H11.311A3.348,3.348,0,0,0,8,65.349V86.109a3.339,3.339,0,0,0,3.311,3.339H31.772A10.085,10.085,0,0,0,51.219,85.7a10.05,10.05,0,0,0-2.091-6.147Zm-1.394,5.8H9.394v-3.66H47.733ZM11.311,63.394H45.816a1.952,1.952,0,0,1,1.917,1.955V66.1H9.394v-.746A1.952,1.952,0,0,1,11.311,63.394Zm0,24.659a1.943,1.943,0,0,1-1.917-1.945V72.543H47.733V78.07A10.077,10.077,0,0,0,31.056,85.7a10.411,10.411,0,0,0,.274,2.351Zm29.826,6.323a8.687,8.687,0,1,1,8.687-8.687,8.687,8.687,0,0,1-8.687,8.687Z" transform="translate(0 0)" fill="#1355e2"/>
    <path id="Path_3290" data-name="Path 3290" d="M78.4,237.3a3.013,3.013,0,0,0-2.021.786,3.013,3.013,0,0,0-2.021-.786,3.269,3.269,0,0,0,0,6.531,3.013,3.013,0,0,0,2.021-.785,3.012,3.012,0,0,0,2.021.785,3.269,3.269,0,0,0,0-6.531Zm-5.759,3.265a1.8,1.8,0,0,1,1.717-1.871,1.643,1.643,0,0,1,1.2.538,3.4,3.4,0,0,0,0,2.668,1.642,1.642,0,0,1-1.2.538A1.8,1.8,0,0,1,72.644,240.565Zm5.759,1.871a1.642,1.642,0,0,1-1.2-.538,3.4,3.4,0,0,0,0-2.668,1.643,1.643,0,0,1,1.2-.538,1.878,1.878,0,0,1,0,3.743Z" transform="translate(-57.739 -160.025)" fill="#1355e2"/>
    <path id="Path_3291" data-name="Path 3291" d="M337.885,294.059l-5.408,5.1-2.612-2.683a.7.7,0,0,0-1,.973l3.091,3.174a.7.7,0,0,0,.978.021l5.907-5.575a.7.7,0,1,0-.957-1.014Z" transform="translate(-292.728 -211.665)" fill="#1355e2"/>
  </g>
</svg>
