<svg xmlns="http://www.w3.org/2000/svg" width="41.83" height="41.695" viewBox="0 0 41.83 41.695">
  <g id="Group_368" data-name="Group 368" transform="translate(-411.805 -1349.13)">
    <g id="_861189" data-name="861189" transform="translate(411.805 1349.13)">
      <g id="Group_298" data-name="Group 298" transform="translate(21.267 11.088)">
        <g id="Group_297" data-name="Group 297">
          <path id="Path_2861" data-name="Path 2861" d="M268.6,140.054a21.284,21.284,0,0,0-1.669-5.22.71.71,0,0,0-1.316.078l-.777,2.343-2.031-.483a.71.71,0,0,0-.819.967,15.5,15.5,0,0,1,1.242,6.124,15.7,15.7,0,0,1-12.26,15.2.715.715,0,0,0-.406.255l-2.025,2.578a.71.71,0,0,0,.119,1h0l2.257,1.775a.71.71,0,0,0,.439.152.64.64,0,0,0,.128-.013A21.28,21.28,0,0,0,268.6,140.054Zm-14.245,22.513a19.867,19.867,0,0,1-2.818.78h0l-1.445-1.136,1.432-1.822a17.132,17.132,0,0,0,13.124-16.528,16.883,16.883,0,0,0-.87-5.4l1.363.324a.71.71,0,0,0,.838-.467l.382-1.151A19.866,19.866,0,0,1,254.354,162.567Z" transform="translate(-248.384 -134.426)" fill="#1355e2"/>
        </g>
      </g>
      <g id="Group_300" data-name="Group 300" transform="translate(3.924 0)">
        <g id="Group_299" data-name="Group 299" transform="translate(0 0)">
          <path id="Path_2862" data-name="Path 2862" d="M76.988,8.194A20.613,20.613,0,0,0,61.248.773H61.2A20.73,20.73,0,0,0,44.355,9.585a.721.721,0,0,0,.154.991.683.683,0,0,0,.407.135h2.156l.265,1.969a.711.711,0,0,0,.341.52l.1.056a.684.684,0,0,0,.912-.207A15.182,15.182,0,0,1,61.166,6.415H61.2a15.1,15.1,0,0,1,11.552,5.466.687.687,0,0,0,.527.248h3.18a.7.7,0,0,0,.694-.71V8.657A.725.725,0,0,0,76.988,8.194Zm-1.22,2.517H73.594A16.463,16.463,0,0,0,61.2,4.995h-.037A16.518,16.518,0,0,0,48.51,10.973l-.144-1.065a.7.7,0,0,0-.689-.617H46.338A19.3,19.3,0,0,1,61.2,2.193h.042a19.231,19.231,0,0,1,14.523,6.73Z" transform="translate(-44.223 -0.773)" fill="#1355e2"/>
        </g>
      </g>
      <g id="Group_302" data-name="Group 302" transform="translate(0 12.004)">
        <g id="Group_301" data-name="Group 301" transform="translate(0)">
          <path id="Path_2863" data-name="Path 2863" d="M19.913,168.784A15.6,15.6,0,0,1,6.381,148.508a.706.706,0,0,0-.017-.478l-1.136-2.84a.71.71,0,0,0-.922-.4h0l-2.722,1.091a.715.715,0,0,0-.408.426A21.282,21.282,0,0,0,19.048,174.43a.678.678,0,0,0,.071,0,.71.71,0,0,0,.592-1.1l-1.3-1.966,1.833-1.212a.71.71,0,0,0,.318-.592v-.071A.71.71,0,0,0,19.913,168.784Zm-3.078,2.776h0v0l.822,1.243A19.862,19.862,0,0,1,2.415,147.082l1.758-.7.781,1.947a16.971,16.971,0,0,0-.726,4.868,17.148,17.148,0,0,0,13.757,16.753l-.95.628A.71.71,0,0,0,16.835,171.559Z" transform="translate(0 -144.743)" fill="#1355e2"/>
        </g>
      </g>
    </g>
    <path id="Path_2864" data-name="Path 2864" d="M17.491,16.787V13.971a4.932,4.932,0,0,0-4.62-4.914,4.225,4.225,0,1,0-6.251,0A4.932,4.932,0,0,0,2,13.971v2.817a.7.7,0,0,0,.7.7H16.787A.7.7,0,0,0,17.491,16.787ZM9.746,3.408A2.817,2.817,0,1,1,6.929,6.225,2.819,2.819,0,0,1,9.746,3.408Zm6.337,12.675H3.408V13.971A3.525,3.525,0,0,1,6.929,10.45h5.633a3.525,3.525,0,0,1,3.521,3.521Z" transform="translate(423.042 1360.142)" fill="#1355e2"/>
  </g>
</svg>
