<svg id="_1034146" data-name="1034146" xmlns="http://www.w3.org/2000/svg" width="23.845" height="23.844" viewBox="0 0 23.845 23.844">
  <g id="Group_663" data-name="Group 663" transform="translate(0 0)">
    <g id="Group_662" data-name="Group 662">
      <path id="Path_3889" data-name="Path 3889" d="M23.841,9.12a.376.376,0,0,0-.016-.081.4.4,0,0,0-.023-.068.356.356,0,0,0-.04-.061.375.375,0,0,0-.053-.062c-.006-.006-.009-.013-.016-.019L19.871,5.861V2.785a1.192,1.192,0,0,0-1.192-1.192H14.372L12.648.254a1.178,1.178,0,0,0-1.449,0L9.473,1.593H5.166A1.192,1.192,0,0,0,3.974,2.785V5.861L.153,8.83c-.007.006-.01.013-.016.019a.373.373,0,0,0-.053.062.355.355,0,0,0-.04.061.392.392,0,0,0-.023.068.377.377,0,0,0-.016.08c0,.008,0,.016,0,.024V22.656a1.179,1.179,0,0,0,.233.7s0,.008.006.011l.013.011a1.186,1.186,0,0,0,.94.469H22.653a1.187,1.187,0,0,0,.943-.471s.008-.005.011-.009,0-.008.006-.011a1.179,1.179,0,0,0,.233-.7V9.144C23.845,9.135,23.841,9.128,23.841,9.12ZM11.684.881a.381.381,0,0,1,.474,0l.917.712H10.77ZM1.292,23.054l10.392-8.072a.382.382,0,0,1,.474,0l10.395,8.072Zm21.758-.62-10.4-8.08a1.179,1.179,0,0,0-1.449,0l-10.4,8.08V9.749l6.513,5.057a.4.4,0,0,0,.487-.628L1.178,9.04l2.8-2.173V9.939a.4.4,0,1,0,.795,0V2.785a.4.4,0,0,1,.4-.4H18.679a.4.4,0,0,1,.4.4V9.939a.4.4,0,0,0,.795,0V6.868l2.8,2.173-6.628,5.147a.4.4,0,1,0,.487.628l6.524-5.066V22.434Z" transform="translate(-0.001 -0.004)" fill="#4b9d26"/>
      <path id="Path_3890" data-name="Path 3890" d="M163.112,74.6v-1.59a4.769,4.769,0,1,0-4.769,4.769.4.4,0,0,0,0-.795,3.974,3.974,0,1,1,3.974-3.974V74.6a.795.795,0,1,1-1.59,0v-1.59a.4.4,0,0,0-.795,0,1.59,1.59,0,1,1-1.59-1.59.4.4,0,0,0,0-.795,2.385,2.385,0,1,0,1.607,4.142,1.585,1.585,0,0,0,3.162-.167Z" transform="translate(-146.422 -65.059)" fill="#4b9d26"/>
    </g>
  </g>
</svg>
