<svg xmlns="http://www.w3.org/2000/svg" xmlns:svgjs="http://svgjs.com/svgjs" xmlns:xlink="http://www.w3.org/1999/xlink" width="288" height="288"><svg xmlns="http://www.w3.org/2000/svg" width="288" height="288" viewBox="0 0 100 100"><g class="color000 svgShape" data-name="Group 749" transform="translate(-991 -5540)"><circle cx="50" cy="50" r="50" fill="#344056" class="colorf95665 svgShape" data-name="Ellipse 319" transform="translate(991 5540)"/><g class="color000 svgShape" data-name="633571" transform="translate(1021 5570)"><g class="color000 svgShape" data-name="Group 743"><g class="color000 svgShape" data-name="Group 742"><path fill="#fafafa" d="M33.913,0H6.087A6.094,6.094,0,0,0,0,6.087v19.13A6.094,6.094,0,0,0,6.087,31.3h18.77l8.44,8.442a.876.876,0,0,0,.616.254.89.89,0,0,0,.332-.066.87.87,0,0,0,.537-.8V31.243A6.1,6.1,0,0,0,40,25.217V6.087A6.094,6.094,0,0,0,33.913,0Zm4.348,25.217a4.353,4.353,0,0,1-4.348,4.348.87.87,0,0,0-.87.87v6.6l-7.21-7.212a.876.876,0,0,0-.616-.254H6.087a4.353,4.353,0,0,1-4.348-4.348V6.087A4.353,4.353,0,0,1,6.087,1.739H33.913a4.353,4.353,0,0,1,4.348,4.348Z" class="colorfafafa svgShape" data-name="Path 4328"/></g></g><g class="color000 svgShape" data-name="Group 745"><g class="color000 svgShape" data-name="Group 744" transform="translate(17.391 20.87)"><path fill="#fafafa" d="M215.942,256a2.609,2.609,0,1,0,2.609,2.609A2.609,2.609,0,0,0,215.942,256Zm0,3.478a.87.87,0,1,1,.87-.87A.87.87,0,0,1,215.942,259.478Z" class="colorfafafa svgShape" data-name="Path 4329" transform="translate(-213.333 -256)"/></g></g><g class="color000 svgShape" data-name="Group 747"><g class="color000 svgShape" data-name="Group 746" transform="translate(16.522 5.217)"><path fill="#fafafa" d="M208.931,64.831a2.617,2.617,0,0,0-1.91-.831h-1.739a2.612,2.612,0,0,0-2.6,2.807l.736,8.569a2.736,2.736,0,0,0,5.457.014l.75-8.6a2.612,2.612,0,0,0-.694-1.964Zm-1.04,1.826-.751,8.6a1,1,0,0,1-1.991-.014l-.734-8.569a.857.857,0,0,1,.231-.656.867.867,0,0,1,.637-.277h1.739a.867.867,0,0,1,.637.277A.853.853,0,0,1,207.891,66.657Z" class="colorfafafa svgShape" data-name="Path 4330" transform="translate(-202.674 -64)"/></g></g></g></g></svg></svg>