<svg id="_758569" data-name="758569" xmlns="http://www.w3.org/2000/svg" width="100" height="100" viewBox="0 0 100 100">
  <path id="Path_4374" data-name="Path 4374" d="M121.583,107.567h0a3.6,3.6,0,0,1-2.76-1.254L99.88,85.739a3.73,3.73,0,0,1,5.52-5.018l16.308,17.688,45.161-45.035a3.637,3.637,0,0,1,5.269,0,3.747,3.747,0,0,1,0,5.269l-47.92,47.8A3.417,3.417,0,0,1,121.583,107.567Z" transform="translate(-75.023 -39.701)" fill="#f95665"/>
  <path id="Path_4375" data-name="Path 4375" d="M50,100A50,50,0,1,1,50,0a3.7,3.7,0,0,1,3.769,3.769A3.7,3.7,0,0,1,50,7.537,42.462,42.462,0,1,0,92.463,50,3.769,3.769,0,0,1,100,50,50.131,50.131,0,0,1,50,100Z" fill="#344056"/>
</svg>
